<?xml version="1.0" standalone="no"?>
<!DOCTYPE svg PUBLIC "-//W3C//DTD SVG 1.1//EN" "http://www.w3.org/Graphics/SVG/1.1/DTD/svg11.dtd" >
<svg xmlns="http://www.w3.org/2000/svg" xmlns:xlink="http://www.w3.org/1999/xlink" version="1.1">
<metadata>
Created by FontForge 20170731 at Tue Jun 30 23:48:26 2015
 By Aleksey,,,
Copyright (c) 2014 by Julieta Ulanovsky. All rights reserved.
</metadata>
<defs>
<font id="TruenoBdIt" horiz-adv-x="350" >
  <font-face 
    font-family="Trueno"
    font-weight="700"
    font-style="italic"
    font-stretch="normal"
    units-per-em="1000"
    panose-1="0 0 8 0 0 0 0 0 0 0"
    ascent="800"
    descent="-200"
    x-height="539"
    cap-height="700"
    bbox="-275 -295 1478.38 975"
    underline-thickness="50"
    underline-position="-200"
    unicode-range="U+0020-FB02"
  />
<missing-glyph horiz-adv-x="500" 
d="M0 0l101 700h500l-101 -700h-500zM307 395l207 255h-340zM330 350l134 -255l73 510zM87 50h340l-133 255zM137 605l-73 -510l206 255z" />
    <glyph glyph-name="fi" unicode="fi" horiz-adv-x="697" 
d="M629 602q-40 0 -62 26t-16 66t35 65.5t69 25.5q41 0 63 -25.5t16 -65.5q-6 -41 -35.5 -66.5t-69.5 -25.5zM176 520l6 45q13 88 78 136.5t155 48.5q60 0 102 -21l-26 -137q-34 21 -69 21q-13 0 -25 -3.5t-21.5 -10.5t-15.5 -18.5t-8 -26.5l-5 -34h122l-16 -114h-122
l-59 -406h-171l59 406h-73l16 114h73zM534 539h172l-78 -539h-172z" />
    <glyph glyph-name="fl" unicode="fl" horiz-adv-x="714" 
d="M176 520l7 52q12 81 76 131t156 49q62 0 104 -19l-26 -138q-26 21 -61 23q-31 1 -54 -19t-27 -52l-4 -27h123l-17 -113h-122l-59 -407h-171l59 407h-73l17 113h72zM747 742l-107 -742h-173l107 742h173z" />
    <glyph glyph-name=".notdef" horiz-adv-x="500" 
d="M0 0l101 700h500l-101 -700h-500zM307 395l207 255h-340zM330 350l134 -255l73 510zM87 50h340l-133 255zM137 605l-73 -510l206 255z" />
    <glyph glyph-name=".null" horiz-adv-x="0" 
 />
    <glyph glyph-name="nonmarkingreturn" horiz-adv-x="333" 
 />
    <glyph glyph-name="space" unicode=" " horiz-adv-x="232" 
 />
    <glyph glyph-name="exclam" unicode="!" horiz-adv-x="254" 
d="M291 518l-70 -278h-104l10 278l25 178h164zM154 159q37 0 57 -23t15 -60t-32 -60.5t-64 -23.5q-36 0 -56 23.5t-15 60.5t32 60t63 23z" />
    <glyph glyph-name="quotedbl" unicode="&#x22;" horiz-adv-x="439" 
d="M252 427h-130l39 273h130zM441 427h-130l39 273h130z" />
    <glyph glyph-name="numbersign" unicode="#" horiz-adv-x="735" 
d="M630 418l-38 -143h135l-32 -119h-136l-41 -156h-124l41 156h-139l-41 -156h-124l41 156h-135l32 119h136l37 143h-133l30 119h135l44 163h124l-44 -163h140l44 163h124l-44 -163h135l-30 -119h-137zM506 418h-139l-38 -143h139z" />
    <glyph glyph-name="dollar" unicode="$" horiz-adv-x="644" 
d="M647 208q-13 -90 -83.5 -144.5t-174.5 -66.5l-22 -151h-132l22 155q-136 22 -225 105l89 137q46 -46 114 -75.5t124 -29.5q43 0 69 15.5t31 45.5q3 25 -15 42.5t-49 28t-69 20.5t-75 25t-67 36t-45 58.5t-7 87.5q11 79 71.5 133t154.5 71l21 148h132l-20 -143
q128 -14 215 -76l-87 -139q-51 32 -111 52.5t-103 20.5q-23 0 -41 -5.5t-29.5 -17t-13.5 -28.5q-4 -24 14 -41.5t49 -28t69 -21t75.5 -26.5t67 -38t44 -60.5t7.5 -89.5z" />
    <glyph glyph-name="percent" unicode="%" horiz-adv-x="1023" 
d="M328 703q90 0 134.5 -57t30.5 -154q-9 -65 -40 -113t-78.5 -73.5t-107.5 -25.5q-90 0 -134.5 57t-30.5 155q14 97 75 154t151 57zM178 0l601 701h162l-601 -701h-162zM315 611q-40 0 -67 -31.5t-35 -87.5t10 -87.5t58 -31.5q26 0 47.5 14.5t35.5 41t19 63.5
q8 56 -10 87.5t-58 31.5zM858 420q90 0 134 -57t30 -154q-14 -98 -75 -155.5t-151 -57.5t-134.5 57.5t-30.5 155.5q7 48 26.5 87.5t49 66.5t68 42t83.5 15zM844.5 328q-39.5 0 -67 -31.5t-35.5 -87.5q-5 -37 1 -64t23 -41.5t44 -14.5q40 0 67 32t35 88t-10 87.5t-57.5 31.5z
" />
    <glyph glyph-name="ampersand" unicode="&#x26;" horiz-adv-x="685" 
d="M587 -30l-85 96q-101 -74 -210 -74q-103 0 -162.5 57.5t-46.5 146.5q10 64 53 107.5t113 79.5q-47 84 -36 157q11 77 72 122.5t152 45.5q88 0 137.5 -44t39.5 -113q-5 -35 -22 -64.5t-46.5 -53t-56.5 -39.5t-67 -35q44 -58 94 -115q36 50 63 112l99 -78q-35 -68 -82 -124
l90 -99zM348 540q-7 -44 22 -99q48 25 76 50.5t33 58.5q3 18 -3 32t-19 21.5t-32 7.5q-31 0 -52 -20t-25 -51zM316 113q54 0 110 39q-91 106 -122 148q-71 -43 -78 -92q-6 -42 19.5 -68.5t70.5 -26.5z" />
    <glyph glyph-name="quotesingle" unicode="'" horiz-adv-x="250" 
d="M252 427h-130l39 273h130z" />
    <glyph glyph-name="parenleft" unicode="(" horiz-adv-x="346" 
d="M296 742h155q-70 -91 -118 -202.5t-65 -230.5q-17 -125 -1 -233.5t59 -199.5h-155q-49 88 -66 199t1 234q17 122 66 233.5t124 199.5z" />
    <glyph glyph-name="parenright" unicode=")" horiz-adv-x="358" 
d="M158 742h155q49 -88 65.5 -199.5t-1 -233.5t-66.5 -233.5t-123 -199.5h-155q69 90 117 202t66 231q16 125 0.5 234t-58.5 199z" />
    <glyph glyph-name="asterisk" unicode="*" horiz-adv-x="378" 
d="M299 480l-12 -96h-86l16 96l-89 -49l-32 74l90 47l-77 45l54 77l74 -50l13 95h86l-15 -95l89 48l32 -75l-91 -45l78 -47l-54 -76z" />
    <glyph glyph-name="plus" unicode="+" horiz-adv-x="510" 
d="M516 272h-168l-24 -168h-109l24 168h-167l16 109h167l24 168h109l-24 -168h168z" />
    <glyph glyph-name="comma" unicode="," horiz-adv-x="241" 
d="M145 158q34 0 54.5 -22t15.5 -60q-5 -32 -32 -66l-88 -106h-82l61 107q-30 22 -24 65q5 36 32 59t63 23z" />
    <glyph glyph-name="hyphen" unicode="-" horiz-adv-x="374" 
d="M355 252h-264l16 109h264z" />
    <glyph glyph-name="period" unicode="." horiz-adv-x="243" 
d="M144 159q37 0 57 -23t15 -60t-32 -60.5t-64 -23.5t-56.5 23.5t-14.5 60.5t31.5 60t63.5 23z" />
    <glyph glyph-name="slash" unicode="/" horiz-adv-x="353" 
d="M93 -111h-145l456 922h145z" />
    <glyph glyph-name="zero" unicode="0" horiz-adv-x="703" 
d="M454 706q148 0 215 -92t43 -263q-25 -172 -118.5 -264t-242.5 -92q-150 0 -217 92t-42 264q24 171 118 263t244 92zM435 576q-68 0 -105.5 -52.5t-55 -172.5t5 -173t90.5 -53q66 0 104 53.5t55.5 172.5t-5.5 172t-89 53z" />
    <glyph glyph-name="one" unicode="1" horiz-adv-x="412" 
d="M314 0h-178l80 558h-129l21 143h307z" />
    <glyph glyph-name="two" unicode="2" horiz-adv-x="600" 
d="M408 708q105 0 165 -50.5t48 -132.5q-14 -98 -166 -233l-164 -151h295l-20 -141h-524l17 115l288 265q34 32 57.5 64.5t26.5 55.5q4 30 -14 47t-56 17q-87 0 -204 -89l-48 128q155 105 299 105z" />
    <glyph glyph-name="three" unicode="3" horiz-adv-x="558" 
d="M380 416l32 -5q77 -12 117.5 -62t29.5 -129q-15 -101 -97.5 -164.5t-203.5 -63.5q-72 0 -139 23t-110 62l92 135q66 -85 162 -85q52 0 83.5 24t37.5 67q7 44 -18 66t-78 22h-112l14 95l179 162h-255l20 136h462l-15 -101z" />
    <glyph glyph-name="four" unicode="4" horiz-adv-x="633" 
d="M253 289h148l21 150h165l-21 -150h95l-20 -135h-95l-22 -154h-165l22 154h-332l17 119l283 427h171z" />
    <glyph glyph-name="five" unicode="5" horiz-adv-x="595" 
d="M613 559h-297l-17 -113h63q120 0 184 -58.5t51 -152.5q-16 -110 -101.5 -176t-212.5 -66q-68 0 -138 24t-119 63l90 135q67 -86 166 -86q34 0 60 11t42 32t20 51q6 41 -19.5 64t-76.5 23q-119 0 -191 -5l57 395h459z" />
    <glyph glyph-name="six" unicode="6" horiz-adv-x="632" 
d="M467 708q59 0 118.5 -15.5t99.5 -42.5l-86 -124q-56 45 -141 45q-82 0 -130.5 -49t-60.5 -137q64 75 178 75q103 0 155.5 -62t38.5 -164q-16 -111 -97 -176.5t-200 -65.5q-141 0 -208 93t-44 255q24 167 126.5 267.5t250.5 100.5zM387 330q-51 0 -83.5 -27t-39.5 -71
q-6 -42 17 -70t74 -28q49 0 80.5 26.5t38.5 74.5q6 45 -16.5 70t-70.5 25z" />
    <glyph glyph-name="seven" unicode="7" horiz-adv-x="594" 
d="M661 579l-341 -579h-188l331 559h-193l-15 -98l-141 98l20 141h545z" />
    <glyph glyph-name="eight" unicode="8" horiz-adv-x="642" 
d="M422 708q115 0 175.5 -51t48.5 -137q-7 -46 -35.5 -84t-73.5 -61q54 -24 81 -71.5t19 -105.5q-14 -94 -100 -150t-217 -56t-201 55t-57 148q9 60 51.5 108t107.5 72q-41 25 -61.5 65t-13.5 85q8 55 44.5 96.5t96.5 64t135 22.5zM406.5 591q-32.5 0 -56.5 -9.5
t-38.5 -27.5t-18.5 -44q-5 -38 18.5 -58t71.5 -20q33 0 57 9t38 26.5t17 42.5q4 26 -5 44t-30 27.5t-53.5 9.5zM365 304q-58 0 -92 -23.5t-40 -67.5q-5 -29 6 -50t36 -31.5t63 -10.5q58 0 92.5 23.5t41.5 68.5q3 22 -2.5 39t-19 28.5t-35 17.5t-50.5 6z" />
    <glyph glyph-name="nine" unicode="9" horiz-adv-x="632" 
d="M269 -7q-59 0 -118.5 15.5t-99.5 42.5l86 124q56 -45 141 -45q82 0 130.5 49t60.5 137q-64 -75 -178 -75q-103 0 -155.5 62t-38.5 164q16 111 97 176.5t200 65.5q141 0 208 -93t44 -255q-24 -167 -126.5 -267.5t-250.5 -100.5zM349 371q51 0 83.5 27t39.5 71q6 42 -17 70
t-74 28q-49 0 -80.5 -26.5t-38.5 -74.5q-4 -30 4.5 -51.5t30 -32.5t52.5 -11z" />
    <glyph glyph-name="colon" unicode=":" horiz-adv-x="240" 
d="M187 456q37 0 57 -23t15 -60q-4 -25 -17.5 -44t-34 -29.5t-45 -10.5t-41.5 10.5t-25 29.5t-4 44q5 37 31.5 60t63.5 23zM144 159q37 0 57 -23t15 -60t-32 -60.5t-64 -23.5t-56.5 23.5t-14.5 60.5t31.5 60t63.5 23z" />
    <glyph glyph-name="semicolon" unicode=";" horiz-adv-x="242" 
d="M162.5 289q-24.5 0 -41.5 10.5t-25 29.5t-4 44q5 37 31.5 60t63.5 23t57 -23t15 -60q-4 -25 -17.5 -44t-34 -29.5t-45 -10.5zM145 158q34 0 54.5 -22t15.5 -60q-5 -32 -32 -66l-88 -106h-82l61 107q-30 22 -24 65q5 36 32 59t63 23z" />
    <glyph glyph-name="less" unicode="&#x3c;" horiz-adv-x="510" 
d="M543 457l-351 -133l313 -133l-18 -121l-417 185l20 139l470 185z" />
    <glyph glyph-name="equal" unicode="=" horiz-adv-x="510" 
d="M532 380h-444l15 109h444zM501 165h-444l15 109h444z" />
    <glyph glyph-name="greater" unicode="&#x3e;" horiz-adv-x="510" 
d="M61 199l352 133l-314 133l17 121l419 -185l-20 -139l-472 -185z" />
    <glyph glyph-name="question" unicode="?" horiz-adv-x="472" 
d="M204 475l-132 1q17 107 85.5 167t174.5 60q67 0 112 -20t65.5 -59.5t12.5 -94.5q-6 -42 -26.5 -76.5t-46.5 -57.5t-51.5 -45t-45.5 -50t-25 -61h-129q6 36 19.5 66t29.5 48.5t34.5 37t34.5 33t28 34.5t15 43q10 65 -62 65q-78 0 -93 -91zM249 159q37 0 57 -23t15 -60
t-32 -60.5t-64 -23.5t-56.5 23.5t-14.5 60.5t31.5 60t63.5 23z" />
    <glyph glyph-name="at" unicode="@" horiz-adv-x="917" 
d="M566 700q121 0 211 -55t131.5 -152.5t23.5 -218.5q-10 -73 -42.5 -129.5t-80.5 -86.5t-104 -30q-98 0 -106 78v13q-67 -80 -162 -80q-88 0 -144 65t-41 166q14 99 80.5 167t158.5 68q36 0 66.5 -14.5t44 -28t16.5 -21.5l7 53h122l-48 -337q-7 -49 30 -49q32 0 64 46.5
t42 116.5q10 72 -3.5 133.5t-49 107.5t-94.5 72t-135 26q-94 0 -179.5 -45.5t-142.5 -124.5t-70 -172q-21 -140 60.5 -233t222.5 -93q46 0 99.5 15.5t97.5 45.5l35 -80q-48 -32 -117 -52t-128 -20q-120 0 -210.5 54t-132.5 149.5t-25 213.5q13 90 59 170t113 137.5t153.5 91
t177.5 33.5zM500 394q-43 0 -75 -34.5t-39 -84.5q-8 -53 14 -90t65 -37q31 0 57 17t42 45.5t21 63.5q4 25 0 46.5t-14.5 38t-29 26t-41.5 9.5z" />
    <glyph glyph-name="A" unicode="A" horiz-adv-x="770" 
d="M554 129h-306l-70 -129h-183l403 700h183l194 -700h-190zM521 264l-63 259l-139 -259h202z" />
    <glyph glyph-name="B" unicode="B" horiz-adv-x="715" 
d="M171 700h331q78 0 133 -21.5t80.5 -61t18.5 -92.5q-8 -55 -46.5 -96.5t-96.5 -57.5q65 -13 97 -61t22 -116q-13 -89 -93 -141.5t-204 -52.5h-343zM328 564l-20 -144h144q25 0 45.5 9t33.5 25.5t16 38.5q2 17 -2 30t-13.5 22t-24.5 14t-35 5h-144zM289 292l-22 -155h144
q33 0 58 9.5t41 27t19 42.5q5 35 -20.5 55.5t-75.5 20.5h-144z" />
    <glyph glyph-name="C" unicode="C" horiz-adv-x="692" 
d="M500 706q77 0 148.5 -32t116.5 -86l-121 -122q-28 42 -72 66.5t-91 24.5q-83 0 -147.5 -58.5t-76.5 -144.5q-8 -58 10.5 -105t59.5 -74t95 -27q44 0 95 22t93 60l88 -110q-65 -58 -148 -93t-159 -35q-104 0 -181.5 47t-113.5 129.5t-21 183.5q14 100 74.5 181t153 127
t197.5 46z" />
    <glyph glyph-name="D" unicode="D" horiz-adv-x="767" 
d="M171 700h301q165 0 254.5 -97t66.5 -253q-22 -155 -141 -252.5t-288 -97.5h-294zM328 558l-60 -416h127q54 0 100.5 26t77.5 73t39 108q9 61 -9 109t-59 74t-97 26h-119z" />
    <glyph glyph-name="E" unicode="E" horiz-adv-x="674" 
d="M699 560h-370l-20 -139h334l-21 -140h-334l-20 -141h381l-20 -140h-559l101 700h548z" />
    <glyph glyph-name="F" unicode="F" horiz-adv-x="604" 
d="M670 560h-341l-24 -162h314l-20 -140h-314l-37 -258h-178l101 700h519z" />
    <glyph glyph-name="G" unicode="G" horiz-adv-x="743" 
d="M586 356h154l-39 -273q-63 -40 -147 -65.5t-157 -25.5q-105 0 -184 46.5t-116 128.5t-23 183q11 75 50 141t97 113t133.5 74.5t157.5 27.5q78 0 151 -28t120 -76l-118 -121q-22 23 -50.5 40.5t-60.5 26.5t-65 9q-86 0 -153 -59.5t-80 -147.5q-12 -89 38 -149t137 -60
q56 0 129 34z" />
    <glyph glyph-name="H" unicode="H" horiz-adv-x="786" 
d="M716 0h-178l39 272h-290l-39 -272h-178l101 700h178l-42 -288h290l42 288h178z" />
    <glyph glyph-name="I" unicode="I" horiz-adv-x="318" 
d="M248 0h-178l101 700h178z" />
    <glyph glyph-name="J" unicode="J" horiz-adv-x="536" 
d="M400 701h179l-68 -474q-16 -111 -90 -173t-186 -62q-143 0 -225 112l99 119q31 -38 67.5 -58t68.5 -20q36 0 58.5 22t28.5 64z" />
    <glyph glyph-name="K" unicode="K" horiz-adv-x="747" 
d="M526 0l-145 275l-108 -103l-25 -172h-178l101 700h178l-44 -303l312 303h206l-302 -290l218 -410h-213z" />
    <glyph glyph-name="L" unicode="L" horiz-adv-x="560" 
d="M269 149h297l-21 -149h-475l101 700h178z" />
    <glyph glyph-name="M" unicode="M" horiz-adv-x="910" 
d="M839 0h-157l65 455l-224 -385h-116l-112 385l-66 -455h-159l101 701h195l130 -417l250 417h194z" />
    <glyph glyph-name="N" unicode="N" horiz-adv-x="786" 
d="M716 0h-157l-260 431l-62 -431h-167l101 700h157l261 -432l62 432h166z" />
    <glyph glyph-name="O" unicode="O" horiz-adv-x="805" 
d="M504 706q107 0 187 -46t117.5 -127.5t23.5 -181.5q-15 -101 -76 -183t-154.5 -129t-200.5 -47t-186.5 46.5t-117 129t-22.5 183.5q14 101 75 182t154 127t200 46zM484 557q-82 0 -148.5 -59.5t-79 -147.5t37 -148.5t131 -60.5t146.5 60.5t77.5 148.5t-35 147.5
t-129.5 59.5z" />
    <glyph glyph-name="P" unicode="P" horiz-adv-x="680" 
d="M171 700h305q134 0 199 -63.5t48 -180.5q-18 -123 -101.5 -191t-218.5 -68h-127l-28 -197h-178zM329 560l-32 -223h118q59 0 95 29t44 84q8 54 -20 82t-87 28h-118z" />
    <glyph glyph-name="Q" unicode="Q" horiz-adv-x="810" 
d="M756 22l47 -110q-30 -24 -66.5 -41.5t-74.5 -26.5t-73 -9q-72 0 -125 41.5t-77 115.5q-156 5 -245 107t-67 252q14 101 75 182t154 127t200 46t187 -46t117.5 -127.5t23.5 -181.5q-9 -57 -33 -110t-61 -96t-84.5 -76t-103.5 -52q32 -48 79 -48q50 0 127 53zM256.5 350
q-12.5 -88 37 -148.5t131 -60.5t146.5 60.5t77.5 148.5t-35 147.5t-129.5 59.5t-148.5 -59.5t-79 -147.5z" />
    <glyph glyph-name="R" unicode="R" horiz-adv-x="724" 
d="M492 0l-76 197h-5h-135l-28 -197h-178l101 700h313q139 0 206 -63.5t50 -180.5q-24 -161 -160 -225l114 -231h-202zM297 337h135q58 0 94 29t44 84q5 36 -6 61t-36.5 37t-63.5 12h-135z" />
    <glyph glyph-name="S" unicode="S" horiz-adv-x="644" 
d="M441 708q75 0 145 -21t120 -57l-87 -139q-51 32 -111 52.5t-103 20.5q-23 0 -41 -5.5t-29.5 -17t-13.5 -28.5q-4 -24 14 -41.5t49 -28t69 -21t75.5 -26.5t67 -38t44 -60.5t7.5 -89.5q-15 -101 -102 -157.5t-209 -56.5q-87 0 -167.5 30t-136.5 82l89 137q46 -46 114 -75.5
t124 -29.5q43 0 69 15.5t31 45.5q3 25 -15 42.5t-49 28t-69 20.5t-75 25t-67 36t-45 58.5t-7 87.5q14 96 98.5 153.5t210.5 57.5z" />
    <glyph glyph-name="T" unicode="T" horiz-adv-x="611" 
d="M685 557h-211l-80 -557h-178l80 557h-209l21 144h598z" />
    <glyph glyph-name="U" unicode="U" horiz-adv-x="758" 
d="M801 700l-59 -406q-20 -139 -117.5 -220.5t-244.5 -81.5q-148 0 -224 81.5t-56 220.5l59 406h178l-59 -406q-10 -70 25 -111.5t99 -41.5t108.5 41t54.5 112l59 406h177z" />
    <glyph glyph-name="V" unicode="V" horiz-adv-x="729" 
d="M455 0h-184l-171 700h190l105 -515l253 515h183z" />
    <glyph glyph-name="W" unicode="W" horiz-adv-x="1081" 
d="M857 0h-183l-60 484l-202 -484h-184l-128 700h190l63 -515l208 515h174l63 -515l209 515h182z" />
    <glyph glyph-name="X" unicode="X" horiz-adv-x="734" 
d="M529 366l198 -366h-213l-119 223l-183 -223h-207l302 358l-185 342h207l105 -204l165 204h209z" />
    <glyph glyph-name="Y" unicode="Y" horiz-adv-x="680" 
d="M464 226l-33 -226h-177l32 221l-190 479h178l125 -305l209 305h178z" />
    <glyph glyph-name="Z" unicode="Z" horiz-adv-x="675" 
d="M724 586l-438 -445h380l-20 -141h-618l16 114l440 445h-362l20 141h599z" />
    <glyph glyph-name="bracketleft" unicode="[" horiz-adv-x="362" 
d="M432 614h-120l-87 -610h120l-19 -128h-274l125 866h274z" />
    <glyph glyph-name="backslash" unicode="\" horiz-adv-x="455" 
d="M275 811l190 -922h-145l-190 922h145z" />
    <glyph glyph-name="bracketright" unicode="]" horiz-adv-x="433" 
d="M470 742l-125 -866h-274l19 128h120l87 610h-120l19 128h274z" />
    <glyph glyph-name="asciicircum" unicode="^" horiz-adv-x="575" 
d="M440 138l-91 289l-175 -289h-122l242 387h139l129 -387h-122z" />
    <glyph glyph-name="underscore" unicode="_" horiz-adv-x="583" 
d="M554 -204h-583l13 94h583z" />
    <glyph glyph-name="grave" unicode="`" 
d="M389 600h-132l-113 113l164 55z" />
    <glyph glyph-name="a" unicode="a" horiz-adv-x="600" 
d="M390 547q110 0 164.5 -51.5t42.5 -143.5l-51 -352h-169l9 62q-63 -70 -175 -70q-85 0 -128.5 47t-32.5 122q11 77 71 119.5t160 43.5h142l1 8q4 27 -5 45.5t-31 29t-57 10.5q-72 0 -167 -45l-33 114q140 61 259 61zM281 109q11 0 22.5 2t22 5t20.5 8t18.5 11.5t15.5 13.5
t13 16t9 18l7 48h-109q-78 0 -86 -58q-4 -30 13.5 -47t53.5 -17z" />
    <glyph glyph-name="b" unicode="b" horiz-adv-x="685" 
d="M487 545q114 0 172.5 -76.5t39.5 -201.5q-17 -123 -96 -198t-192 -75q-106 0 -154 78l-10 -72h-173l107 742h173l-40 -274q71 77 173 77zM385 131q54 0 93 39.5t48 101.5t-19 101t-82 39q-34 0 -64 -18t-49.5 -49.5t-25.5 -72.5q-9 -63 18.5 -102t80.5 -39z" />
    <glyph glyph-name="c" unicode="c" horiz-adv-x="562" 
d="M383 545q53 0 97 -14t75.5 -41.5t49.5 -65.5l-135 -75q-32 56 -101 56q-50 0 -86.5 -37.5t-45.5 -98.5q-9 -62 17 -99.5t76 -37.5q76 0 119 61l115 -74q-42 -60 -110 -92.5t-153 -32.5q-124 0 -190 75.5t-48 198.5q18 124 106 200.5t214 76.5z" />
    <glyph glyph-name="d" unicode="d" horiz-adv-x="686" 
d="M719 742l-107 -742h-173l10 71q-70 -78 -173 -78q-114 0 -172 77t-40 202q18 124 97 199t191 75q106 0 154 -78l40 274h173zM337.5 127q53.5 0 92.5 39t48 102q6 41 -4.5 73t-35.5 49.5t-60 17.5q-54 0 -93 -38.5t-48 -101.5t19 -102t81.5 -39z" />
    <glyph glyph-name="e" unicode="e" horiz-adv-x="602" 
d="M384 545q140 0 198 -86t27 -236h-379q4 -32 18.5 -54.5t38.5 -34t56 -11.5q74 0 137 55l78 -89q-101 -95 -249 -95q-131 0 -197.5 75t-48.5 199q18 125 106.5 201t214.5 76zM241 316h216q7 49 -17.5 79t-71.5 30q-44 0 -78 -29.5t-49 -79.5z" />
    <glyph glyph-name="f" unicode="f" horiz-adv-x="386" 
d="M422 613q-27 1 -46.5 -14.5t-23.5 -44.5l-6 -39h122l-16 -114h-122l-58 -401h-171l58 401h-73l16 114h73l7 50q13 87 78 136t155 49q86 0 146 -38l-79 -121q-27 22 -60 22z" />
    <glyph glyph-name="g" unicode="g" horiz-adv-x="647" 
d="M662 539l-71 -490q-16 -114 -106.5 -182t-221.5 -68q-134 0 -230 71l77 117q70 -54 159 -54q62 0 102 30t47 81l9 57q-66 -72 -166 -72q-102 0 -156.5 72t-37.5 189q16 114 89.5 184.5t175.5 70.5q102 1 148 -72l10 66h172zM322 154q33 0 61 16.5t46.5 46.5t23.5 68
q6 39 -4 69t-33 46.5t-56 16.5q-51 0 -87.5 -36.5t-45.5 -95.5q-8 -58 18 -94.5t77 -36.5z" />
    <glyph glyph-name="h" unicode="h" horiz-adv-x="678" 
d="M507 547q89 0 135 -56.5t32 -150.5l-49 -340h-173l42 292q5 31 -3.5 54t-28 35.5t-48.5 12.5q-50 0 -85.5 -36t-43.5 -92l-38 -266h-173l107 742h173l-42 -292q70 95 195 97z" />
    <glyph glyph-name="i" unicode="i" horiz-adv-x="311" 
d="M269 785q40 0 62 -25.5t16 -65.5t-35 -66t-69 -26q-26 0 -45.5 11.5t-28 32.5t-4.5 48q6 40 35 65.5t69 25.5zM241 0h-172l78 539h172z" />
    <glyph glyph-name="j" unicode="j" horiz-adv-x="319" 
d="M270 785q44 0 67.5 -25.5t17.5 -66.5q-4 -26 -19.5 -47t-39.5 -32.5t-52 -11.5q-43 0 -67 25.5t-18 65.5q4 27 19.5 48t39.5 32.5t52 11.5zM322 539l-80 -555q-13 -88 -75 -137t-148 -48q-79 0 -130 35l62 121q28 -19 58 -19q24 -1 40.5 14t20.5 45l79 544h173z" />
    <glyph glyph-name="k" unicode="k" horiz-adv-x="630" 
d="M335 208l-67 -61l-21 -147h-173l107 742h173l-57 -392l206 189h196l-228 -207l156 -332h-205z" />
    <glyph glyph-name="l" unicode="l" horiz-adv-x="321" 
d="M247 0h-173l107 742h173z" />
    <glyph glyph-name="m" unicode="m" horiz-adv-x="1037" 
d="M868 547q88 0 133 -56.5t31 -150.5l-49 -340h-172l42 292q5 32 -3 55t-27.5 35.5t-47.5 12.5q-48 -1 -82 -36.5t-42 -91.5l-38 -267h-173l42 292q5 32 -3 55t-27 35.5t-47 12.5q-33 -1 -59.5 -17.5t-43.5 -45.5t-23 -65l-38 -267h-172l78 539h172l-13 -89q69 95 192 97
q65 0 107.5 -32.5t54.5 -89.5q70 120 208 122z" />
    <glyph glyph-name="n" unicode="n" horiz-adv-x="673" 
d="M501 547q89 0 135 -56.5t32 -150.5l-49 -340h-172l42 292q7 47 -15 74.5t-65 27.5q-47 0 -80 -30t-46 -79l-41 -285h-173l78 539h173l-13 -88q71 94 194 96z" />
    <glyph glyph-name="o" unicode="o" horiz-adv-x="637" 
d="M398 545q132 0 202 -75.5t52 -199.5t-110 -200t-224 -76q-133 0 -203 76t-52 200t110 199.5t225 75.5zM378 408q-36 0 -66 -17.5t-49.5 -49.5t-25.5 -73q-9 -63 18.5 -101.5t81.5 -38.5t93 38.5t48 101.5q9 62 -19 101t-81 39z" />
    <glyph glyph-name="p" unicode="p" horiz-adv-x="685" 
d="M487 545q114 0 172.5 -76.5t39.5 -201.5q-17 -123 -96 -198t-192 -75q-106 0 -154 78l-38 -266h-173l106 733h173l-11 -71q71 77 173 77zM385 131q54 0 93 39.5t48 101.5t-19 101t-82 39q-34 0 -64 -18t-49.5 -49.5t-25.5 -72.5q-9 -63 18.5 -102t80.5 -39z" />
    <glyph glyph-name="q" unicode="q" horiz-adv-x="686" 
d="M690 539l-106 -733h-173l38 265q-70 -78 -173 -78q-114 0 -172 77t-40 202q18 124 97 199t191 75q106 0 154 -78l11 71h173zM337.5 127q53.5 0 92.5 39t48 102q6 41 -4.5 73t-35.5 49.5t-60 17.5q-54 0 -93 -38.5t-48 -101.5t19 -102t81.5 -39z" />
    <glyph glyph-name="r" unicode="r" horiz-adv-x="427" 
d="M320 539l-13 -91q71 97 189 99l-23 -156q-73 7 -124.5 -24.5t-66.5 -89.5l-40 -277h-173l78 539h173z" />
    <glyph glyph-name="s" unicode="s" horiz-adv-x="513" 
d="M341 547q119 0 213 -61l-75 -112q-93 54 -162 54q-53 0 -59 -37q-2 -15 12 -26t38 -18.5t53 -16t57.5 -21t51 -30t33.5 -47t6 -67.5q-12 -81 -81.5 -126.5t-170.5 -45.5q-143 0 -231 76l71 110q85 -67 181 -67q27 0 44.5 9.5t19.5 27.5q3 16 -11 27.5t-37.5 19.5t-52 16
t-56 20.5t-50 29.5t-33.5 46.5t-5 67.5q12 81 79.5 126t164.5 45z" />
    <glyph glyph-name="t" unicode="t" horiz-adv-x="435" 
d="M404 149l17 -120q-68 -37 -149 -37t-123.5 44.5t-31.5 126.5l35 238h-75l16 113h75l22 150h172l-22 -149h141l-16 -114h-141l-31 -211q-8 -61 42 -59q24 0 69 18z" />
    <glyph glyph-name="u" unicode="u" horiz-adv-x="663" 
d="M672 539l-78 -539h-173l13 89q-70 -96 -189 -96q-88 0 -132.5 56t-30.5 150l49 340h173l-42 -291q-7 -48 13 -75.5t62 -27.5q32 0 58.5 17t43 45.5t21.5 65.5l39 266h173z" />
    <glyph glyph-name="v" unicode="v" horiz-adv-x="571" 
d="M375 0h-177l-125 539h178l61 -381l172 381h172z" />
    <glyph glyph-name="w" unicode="w" horiz-adv-x="937" 
d="M747 0h-171l-57 342l-155 -342h-172l-119 539h176l57 -373l162 373h165l57 -373l163 373h169z" />
    <glyph glyph-name="x" unicode="x" horiz-adv-x="606" 
d="M359 384l119 155h189l-209 -262l143 -277h-199l-74 169l-134 -169h-190l224 276l-134 263h198z" />
    <glyph glyph-name="y" unicode="y" horiz-adv-x="580" 
d="M665 539l-319 -595q-81 -146 -229 -146q-86 0 -149 55l89 118q32 -29 67 -29q46 0 73 43l17 27l-148 527h178l80 -358l169 358h172z" />
    <glyph glyph-name="z" unicode="z" horiz-adv-x="553" 
d="M578 435l-308 -305h273l-19 -130h-490l15 104l309 305h-255l19 130h471z" />
    <glyph glyph-name="braceleft" unicode="{" horiz-adv-x="356" 
d="M333 551l-17 -122q-5 -37 -16.5 -60.5t-32 -38t-52.5 -21.5q44 -11 59 -39t7 -82l-17 -121q-6 -36 11 -50.5t67 -14.5l-18 -128h-67q-97 0 -131.5 31.5t-23.5 108.5l27 185q3 24 -4 34t-27 10h-39l19 132h39q20 0 30 9.5t13 33.5l27 186q8 52 29 82t60.5 43.5t105.5 13.5
h67l-18 -127q-51 0 -71.5 -14.5t-26.5 -50.5z" />
    <glyph glyph-name="bar" unicode="|" horiz-adv-x="299" 
d="M198 -110h-129l132 913h129z" />
    <glyph glyph-name="braceright" unicode="}" horiz-adv-x="391" 
d="M438 375l-19 -132h-38q-20 0 -30.5 -10t-13.5 -34l-27 -185q-11 -77 -54.5 -108.5t-140.5 -31.5h-66l18 128q50 0 71 14.5t27 50.5l17 121q8 55 30.5 82.5t70.5 37.5q-45 11 -59.5 38.5t-6.5 82.5l17 122q6 36 -11 50.5t-67 14.5l18 127h66q98 0 132 -31t23 -108
l-27 -186q-3 -24 4.5 -33.5t27.5 -9.5h38z" />
    <glyph glyph-name="asciitilde" unicode="~" horiz-adv-x="510" 
d="M228 412q29 0 54.5 -13t44.5 -25.5t31 -12.5q33 0 40 46h115q-25 -170 -138 -170q-29 0 -54.5 12.5t-44 25.5t-30.5 13q-32 0 -39 -46h-116q24 170 137 170z" />
    <glyph glyph-name="nbspace" unicode="&#xa0;" horiz-adv-x="232" 
 />
    <glyph glyph-name="exclamdown" unicode="&#xa1;" horiz-adv-x="254" 
d="M191 379q-38 0 -58 23t-14 60q3 25 16.5 44t34 30t45.5 11q36 0 56 -24t15 -61q-6 -37 -32.5 -60t-62.5 -23zM54 21l70 277h104l-10 -277l-26 -179h-164z" />
    <glyph glyph-name="cent" unicode="&#xa2;" horiz-adv-x="559" 
d="M449 193l115 -74q-65 -94 -187 -118l-22 -155h-134l22 153q-98 17 -147 89.5t-33 179.5q15 108 85 181t173 91l23 159h134l-23 -161q108 -25 150 -114l-135 -75q-32 56 -101 56q-50 0 -86.5 -37.5t-45.5 -98.5q-9 -62 17 -99.5t76 -37.5q76 0 119 61z" />
    <glyph glyph-name="sterling" unicode="&#xa3;" horiz-adv-x="557" 
d="M302 134h258l-19 -134h-513l19 134h76l21 147h-76l17 118h76l11 75q16 112 87.5 173t184.5 61q61 0 113 -22.5t88 -63.5l-86 -130q-54 67 -117 67q-78 0 -91 -89l-11 -71h167l-17 -118h-167z" />
    <glyph glyph-name="currency" unicode="&#xa4;" horiz-adv-x="701" 
d="M658 321q-10 -72 -56 -131l88 -102l-111 -97l-88 104q-66 -32 -132 -32t-120 32l-119 -104l-83 97l116 102q-27 59 -17 131q10 70 53 127l-86 99l111 97l85 -99q65 35 135 35t127 -35l112 99l83 -97l-113 -99q25 -57 15 -127zM379 198q52 0 94.5 36t49.5 87
q8 52 -24 88.5t-85 36.5q-51 0 -93 -36.5t-50 -88.5q-7 -51 24.5 -87t83.5 -36z" />
    <glyph glyph-name="yen" unicode="&#xa5;" horiz-adv-x="665" 
d="M540 339h115l-10 -65h-150l-31 -47l-3 -18h175l-9 -66h-175l-21 -143h-177l21 143h-185l9 66h185l2 13l-21 52h-157l10 65h122l-144 362h178l125 -307l209 307h178z" />
    <glyph glyph-name="brokenbar" unicode="&#xa6;" horiz-adv-x="299" 
d="M280 461h-129l50 342h129zM198 -110h-129l50 343h129z" />
    <glyph glyph-name="section" unicode="&#xa7;" horiz-adv-x="545" 
d="M382 694q114 0 214 -61l-67 -106q-94 53 -161 53q-21 0 -36 -4.5t-23.5 -13t-10.5 -20.5q-2 -17 12.5 -29.5t39.5 -22t56 -19t61 -22.5t54 -30.5t36.5 -46t6.5 -65.5q-6 -44 -38 -79.5t-80 -53.5q32 -21 44 -43t6 -59q-10 -71 -77.5 -115.5t-170.5 -44.5q-137 0 -234 77
l65 107q90 -68 182 -68q32 0 52.5 11t23.5 28q2 16 -12.5 28.5t-39 22t-55 19t-60 22.5t-53 30.5t-35.5 46t-7 64.5q5 31 21 56.5t42 44.5t61 31q-37 22 -49.5 45.5t-7.5 57.5q10 71 75.5 115t164.5 44zM310 353q-73 0 -79 -42q-4 -24 22.5 -39.5t70.5 -15.5q36 0 56.5 11.5
t23.5 30.5q3 24 -24 39.5t-70 15.5z" />
    <glyph glyph-name="dieresis" unicode="&#xa8;" horiz-adv-x="368" 
d="M190 770q34 0 52.5 -22t13.5 -56t-30 -56t-59 -22t-52.5 22t-13.5 56t30 56t59 22zM383 770q22 0 38.5 -10t24 -28t4.5 -40q-5 -34 -30.5 -56t-59.5 -22t-52.5 22t-13.5 56t30 56t59 22z" />
    <glyph glyph-name="copyright" unicode="&#xa9;" horiz-adv-x="725" 
d="M462 689q93 0 164.5 -45.5t105 -123.5t19.5 -170q-13 -91 -69 -169.5t-141 -125t-179 -46.5q-93 0 -164 46t-104 124t-20 169t69 169.5t141 125t178 46.5zM451 609q-109 0 -195 -76.5t-101.5 -184t47.5 -183.5t172 -76t196 77t102 184q11 70 -14.5 129.5t-80.5 94.5
t-126 35zM443 515q36 0 69.5 -15t54.5 -40l-56 -57q-29 42 -76 42q-40 0 -70.5 -27t-35.5 -67q-4 -27 4.5 -49.5t28 -35t46.5 -12.5q44 0 87 38l41 -51q-31 -28 -69 -44t-75 -16q-73 0 -115.5 48t-32.5 120q11 71 67.5 118.5t131.5 47.5z" />
    <glyph glyph-name="ordfeminine" unicode="&#xaa;" horiz-adv-x="393" 
d="M317 785q72 0 107.5 -31t26.5 -86l-30 -210h-116l6 41q-40 -46 -112 -46q-34 0 -58 12.5t-34.5 35t-5.5 52.5q3 23 14.5 41t29.5 30t43.5 18.5t57.5 6.5h87v5q3 22 -11 34t-45 12q-44 0 -110 -24l-17 76q92 33 167 33zM251 526q43 0 69 35l5 34h-62q-44 0 -49 -33
q-1 -8 0.5 -15t6.5 -11.5t12.5 -7t17.5 -2.5z" />
    <glyph glyph-name="guillemotleft" unicode="&#xab;" horiz-adv-x="502" 
d="M194 266l80 -184h-140l-94 184l147 184h140zM415 266l81 -184h-140l-94 184l147 184h140z" />
    <glyph glyph-name="logicalnot" unicode="&#xac;" horiz-adv-x="578" 
d="M575 426l-41 -289h-124l26 180h-357l15 109h481z" />
    <glyph glyph-name="softhyphen" unicode="&#xad;" horiz-adv-x="374" 
d="M355 252h-264l16 109h264z" />
    <glyph glyph-name="registered" unicode="&#xae;" horiz-adv-x="725" 
d="M462 689q93 0 164.5 -45.5t105 -123.5t19.5 -170q-13 -91 -69 -169.5t-141 -125t-179 -46.5q-93 0 -164 46t-104 124t-20 169t69 169.5t141 125t178 46.5zM374 89q109 0 196 77t102 184q11 70 -14.5 129.5t-80.5 94.5t-126 35q-109 0 -195 -76.5t-101.5 -184t47.5 -183.5
t172 -76zM564 409q-11 -74 -73 -104l53 -105h-91l-35 90h-4h-59l-13 -90h-79l46 320h138q64 0 94.5 -29t22.5 -82zM364 352h59q27 0 44 14t20.5 39.5t-9.5 39.5t-40 14h-59z" />
    <glyph glyph-name="macron" unicode="&#xaf;" 
d="M405 632h-278l17 116h278z" />
    <glyph glyph-name="degree" unicode="&#xb0;" horiz-adv-x="374" 
d="M320 817q49 0 79 -34.5t23 -83.5t-47 -83.5t-89 -34.5t-79 34.5t-23 83.5t47 83.5t89 34.5zM310 750q-14 0 -27 -7t-21.5 -18.5t-10.5 -25.5q-2 -10 1 -19.5t9 -16.5t15 -11t19 -4q22 0 39.5 15t20.5 36q2 14 -3.5 25.5t-16.5 18.5t-25 7z" />
    <glyph glyph-name="plusminus" unicode="&#xb1;" horiz-adv-x="510" 
d="M542 453l-15 -105h-168l-23 -161h-109l23 161h-167l15 105h167l24 162h109l-24 -162h168zM49 112h444l-16 -110h-444z" />
    <glyph glyph-name="twosuperior" unicode="&#xb2;" horiz-adv-x="389" 
d="M303 705q66 0 104 -30.5t31 -79.5q-9 -60 -103 -140l-94 -81h176l-13 -91h-331l11 75l177 155q44 40 47 65q3 16 -7.5 24t-30.5 8q-54 0 -126 -53l-34 84q101 64 193 64z" />
    <glyph glyph-name="threesuperior" unicode="&#xb3;" horiz-adv-x="365" 
d="M294 533l19 -4q46 -8 70.5 -37.5t17.5 -76.5q-9 -61 -60.5 -99t-128.5 -38q-46 0 -89.5 14.5t-69.5 37.5l61 89q41 -54 101 -54q28 0 45.5 13t21 36t-10.5 35t-44 12h-72l9 61l107 92h-157l13 85h295l-10 -67z" />
    <glyph glyph-name="acute" unicode="&#xb4;" 
d="M409 713l-147 -113h-132l131 168z" />
    <glyph glyph-name="mu" unicode="&#xb5;" horiz-adv-x="684" 
d="M693 539l-78 -539h-173l13 89q-70 -96 -189 -96l-20 1l-27 -188h-173l106 733h173l-42 -291q-7 -48 13 -75.5t62 -27.5q49 1 82 36.5t41 91.5l39 266h173z" />
    <glyph glyph-name="paragraph" unicode="&#xb6;" horiz-adv-x="650" 
d="M565 -107h-129l108 752h-100l-108 -752h-128l62 432h-27q-46 0 -81 13.5t-53 35t-29.5 49t-11.5 54.5t2 52q6 42 25 79t51.5 67.5t83 48.5t114.5 18h343z" />
    <glyph glyph-name="periodcentered" unicode="&#xb7;" horiz-adv-x="240" 
d="M172 371q24 0 41.5 -10.5t25 -29t4.5 -42.5q-6 -36 -32 -59t-62 -23q-35 0 -55 23t-14.5 59t31.5 59t61 23z" />
    <glyph glyph-name="cedilla" unicode="&#xb8;" 
d="M252 14l-42 -65q30 -8 45 -29.5t11 -51.5q-7 -47 -45.5 -75t-94.5 -28q-49 0 -90 31l42 71q19 -20 46 -20q9 0 17.5 3t14.5 8t10 11.5t5 14.5q2 10 -2 18t-14 13t-25 5q-12 0 -36 -4l61 98h97z" />
    <glyph glyph-name="onesuperior" unicode="&#xb9;" horiz-adv-x="274" 
d="M130 283l46 324h-79l14 93h201l-60 -417h-122z" />
    <glyph glyph-name="ordmasculine" unicode="&#xba;" horiz-adv-x="413" 
d="M319 785q85 0 129.5 -45.5t33.5 -120.5q-11 -74 -68.5 -119.5t-142.5 -45.5q-84 0 -128.5 45.5t-33.5 119.5q11 75 68.5 120.5t141.5 45.5zM306 694q-30 0 -51.5 -21t-26.5 -55q-2 -14 -0.5 -25.5t6 -21t11.5 -16t17 -10t22 -3.5q30 0 51.5 21t26.5 55t-10.5 55t-45.5 21
z" />
    <glyph glyph-name="guillemotright" unicode="&#xbb;" horiz-adv-x="508" 
d="M179 266l-79 184h140l93 -184l-146 -184h-140zM401 266l-79 184h140l93 -184l-146 -184h-140z" />
    <glyph glyph-name="onequarter" unicode="&#xbc;" horiz-adv-x="881" 
d="M67 0l601 701h162l-601 -701h-162zM130 283l46 324h-79l14 93h201l-60 -417h-122zM722 171l12 89h113l-12 -89h58l-12 -84h-58l-13 -87h-113l13 87h-207l11 79l170 251h117l-162 -246h83z" />
    <glyph glyph-name="onehalf" unicode="&#xbd;" horiz-adv-x="902" 
d="M67 0l601 701h162l-601 -701h-162zM130 283l46 324h-79l14 93h201l-60 -417h-122zM775 422q66 0 104 -30.5t31 -80.5q-9 -59 -103 -139l-94 -82h176l-13 -90h-331l11 75l177 154q44 42 48 66q2 15 -8.5 23.5t-30.5 8.5q-52 0 -126 -53l-33 84q100 64 192 64z" />
    <glyph glyph-name="threequarters" unicode="&#xbe;" horiz-adv-x="940" 
d="M127 0l601 701h162l-601 -701h-162zM294 533l19 -4q46 -8 70.5 -37.5t17.5 -76.5q-9 -61 -60.5 -99t-128.5 -38q-46 0 -89.5 14.5t-69.5 37.5l61 89q41 -54 101 -54q28 0 45.5 13t21 36t-10.5 35t-44 12h-72l9 61l107 92h-157l13 85h295l-10 -67zM781 171l12 89h113
l-12 -89h58l-12 -84h-58l-13 -87h-113l13 87h-207l11 79l170 251h117l-162 -246h83z" />
    <glyph glyph-name="questiondown" unicode="&#xbf;" horiz-adv-x="472" 
d="M301 380q-24 0 -42 10.5t-26 29.5t-4 43q3 25 16.5 44t34.5 29.5t45 10.5q36 0 56 -23.5t15 -60.5q-6 -37 -32.5 -60t-62.5 -23zM345 64l133 -1q-8 -53 -30 -95.5t-55.5 -71.5t-78 -44.5t-97.5 -15.5q-100 0 -151.5 45.5t-39.5 128.5q6 42 27 76.5t47 57.5t52 45t45.5 50
t24.5 61h129q-6 -43 -23.5 -76.5t-39 -55t-42.5 -40t-37 -41.5t-20 -50q-9 -64 64 -64q76 0 92 91z" />
    <glyph glyph-name="Agrave" unicode="&#xc0;" horiz-adv-x="770" 
d="M451 761l-114 113l164 55l82 -168h-132zM554 129h-306l-70 -129h-183l403 700h183l194 -700h-190zM521 264l-63 259l-139 -259h202z" />
    <glyph glyph-name="Aacute" unicode="&#xc1;" horiz-adv-x="770" 
d="M541 761h-132l130 168l148 -55zM554 129h-306l-70 -129h-183l403 700h183l194 -700h-190zM521 264l-63 259l-139 -259h202z" />
    <glyph glyph-name="Acircumflex" unicode="&#xc2;" horiz-adv-x="770" 
d="M438 771h-124l135 151h138l91 -151h-124l-46 85zM554 129h-306l-70 -129h-183l403 700h183l194 -700h-190zM521 264l-63 259l-139 -259h202z" />
    <glyph glyph-name="Atilde" unicode="&#xc3;" horiz-adv-x="770" 
d="M462 825q-30 0 -36 -43h-106q22 156 127 156q26 0 47 -12t36 -23.5t25 -11.5q31 0 37 42h105q-22 -155 -126 -155q-26 0 -47 12t-36 23.5t-26 11.5zM554 129h-306l-70 -129h-183l403 700h183l194 -700h-190zM521 264l-63 259l-139 -259h202z" />
    <glyph glyph-name="Adieresis" unicode="&#xc4;" horiz-adv-x="770" 
d="M401 775q-34 0 -53 21.5t-14 55.5t30 56t59 22t53 -22t14 -56t-30 -55.5t-59 -21.5zM594 775q-34 0 -53 21.5t-14 55.5t30 56t59 22t53 -22t14 -56t-30 -55.5t-59 -21.5zM554 129h-306l-70 -129h-183l403 700h183l194 -700h-190zM521 264l-63 259l-139 -259h202z" />
    <glyph glyph-name="Aring" unicode="&#xc5;" horiz-adv-x="770" 
d="M554 129h-306l-70 -129h-183l394 685q-25 35 -18 83q7 53 50 90t96 37q54 0 86 -37t25 -90q-7 -49 -43 -83l190 -685h-190zM506 822q-14 0 -27.5 -7t-22.5 -19.5t-11 -27.5t3 -27.5t16.5 -19.5t26.5 -7q23 0 41 15.5t21.5 38.5t-10 38.5t-37.5 15.5zM521 264l-63 259
l-139 -259h202z" />
    <glyph glyph-name="AE" unicode="&#xc6;" horiz-adv-x="1102" 
d="M1077 140l-20 -140h-559l21 148h-240l-99 -148h-185l499 700h105v1h548l-20 -141h-371l-20 -139h335l-20 -139h-335l-21 -142h382zM538 276l41 288h-20l-193 -288h172z" />
    <glyph glyph-name="Ccedilla" unicode="&#xc7;" horiz-adv-x="692" 
d="M610 230l88 -110q-54 -49 -122 -81.5t-136 -42.5l-30 -47q30 -8 45 -29.5t11 -51.5q-7 -47 -45.5 -75t-94.5 -28q-49 0 -90 31l42 71q19 -20 46 -20q13 0 23 5t16.5 13.5t8 18.5t-2.5 18t-14 13t-25 5q-12 0 -36 -4l49 79q-137 16 -213 116t-55 241q14 100 74.5 181
t153 127t197.5 46q77 0 148.5 -32t116.5 -86l-121 -122q-28 42 -72 66.5t-91 24.5q-83 0 -147.5 -58.5t-76.5 -144.5q-8 -58 10.5 -105t59.5 -74t95 -27q44 0 95 22t93 60z" />
    <glyph glyph-name="Egrave" unicode="&#xc8;" horiz-adv-x="674" 
d="M544 761h-132l-114 113l164 55zM699 560h-370l-20 -139h334l-21 -140h-334l-20 -141h381l-20 -140h-559l101 700h548z" />
    <glyph glyph-name="Eacute" unicode="&#xc9;" horiz-adv-x="674" 
d="M648 874l-146 -113h-132l130 168zM699 560h-370l-20 -139h334l-21 -140h-334l-20 -141h381l-20 -140h-559l101 700h548z" />
    <glyph glyph-name="Ecircumflex" unicode="&#xca;" horiz-adv-x="674" 
d="M639 771h-124l-46 85l-70 -85h-124l135 151h138zM699 560h-370l-20 -139h334l-21 -140h-334l-20 -141h381l-20 -140h-559l101 700h548z" />
    <glyph glyph-name="Edieresis" unicode="&#xcb;" horiz-adv-x="674" 
d="M384 930q34 0 53 -22t14 -56t-30 -55.5t-59 -21.5t-53 21.5t-14 55.5t30 56t59 22zM577 930q34 0 53 -22t14 -56t-30 -55.5t-59 -21.5t-53 21.5t-14 55.5t30 56t59 22zM699 560h-370l-20 -139h334l-21 -140h-334l-20 -141h381l-20 -140h-559l101 700h548z" />
    <glyph glyph-name="Igrave" unicode="&#xcc;" horiz-adv-x="318" 
d="M357 761h-132l-114 113l164 55zM248 0h-178l101 700h178z" />
    <glyph glyph-name="Iacute" unicode="&#xcd;" horiz-adv-x="318" 
d="M460 874l-146 -113h-132l130 168zM248 0h-178l101 700h178z" />
    <glyph glyph-name="Icircumflex" unicode="&#xce;" horiz-adv-x="318" 
d="M452 771h-124l-46 85l-70 -85h-124l135 151h138zM248 0h-178l101 700h178z" />
    <glyph glyph-name="Idieresis" unicode="&#xcf;" horiz-adv-x="318" 
d="M197 930q34 0 53 -22t14 -56q-3 -17 -11 -31t-19.5 -24.5t-27 -16t-31.5 -5.5q-34 0 -53 21.5t-14 55.5t30 56t59 22zM390 930q34 0 53 -22t14 -56q-3 -17 -11 -31t-19.5 -24.5t-27 -16t-31.5 -5.5q-34 0 -53 21.5t-14 55.5t30 56t59 22zM248 0h-178l101 700h178z" />
    <glyph glyph-name="Eth" unicode="&#xd0;" horiz-adv-x="799" 
d="M203 700h301q165 0 254.5 -97t66.5 -253q-22 -155 -141 -252.5t-288 -97.5h-294l44 304h-102l13 94h102zM299 142h128q54 0 100.5 26t77.5 73t39 108q14 92 -32.5 150.5t-132.5 58.5h-120l-23 -160h159l-13 -94h-159z" />
    <glyph glyph-name="Ntilde" unicode="&#xd1;" horiz-adv-x="786" 
d="M455 938q26 0 47 -12t36 -23.5t25 -11.5q31 0 37 42h105q-22 -155 -126 -155q-26 0 -47 12t-36 23.5t-26 11.5q-30 0 -36 -43h-106q22 156 127 156zM716 0h-157l-260 431l-62 -431h-167l101 700h157l261 -432l62 432h166z" />
    <glyph glyph-name="Ograve" unicode="&#xd2;" horiz-adv-x="805" 
d="M593 761h-132l-114 113l164 55zM504 706q107 0 187 -46t117.5 -127.5t23.5 -181.5q-15 -101 -76 -183t-154.5 -129t-200.5 -47t-186.5 46.5t-117 129t-22.5 183.5q14 101 75 182t154 127t200 46zM484 557q-82 0 -148.5 -59.5t-79 -147.5t37 -148.5t131 -60.5t146.5 60.5
t77.5 148.5t-35 147.5t-129.5 59.5z" />
    <glyph glyph-name="Oacute" unicode="&#xd3;" horiz-adv-x="805" 
d="M696 874l-146 -113h-132l130 168zM504 706q107 0 187 -46t117.5 -127.5t23.5 -181.5q-15 -101 -76 -183t-154.5 -129t-200.5 -47t-186.5 46.5t-117 129t-22.5 183.5q14 101 75 182t154 127t200 46zM484 557q-82 0 -148.5 -59.5t-79 -147.5t37 -148.5t131 -60.5
t146.5 60.5t77.5 148.5t-35 147.5t-129.5 59.5z" />
    <glyph glyph-name="Ocircumflex" unicode="&#xd4;" horiz-adv-x="805" 
d="M688 771h-124l-46 85l-70 -85h-124l135 151h138zM504 706q107 0 187 -46t117.5 -127.5t23.5 -181.5q-15 -101 -76 -183t-154.5 -129t-200.5 -47t-186.5 46.5t-117 129t-22.5 183.5q14 101 75 182t154 127t200 46zM484 557q-82 0 -148.5 -59.5t-79 -147.5t37 -148.5
t131 -60.5t146.5 60.5t77.5 148.5t-35 147.5t-129.5 59.5z" />
    <glyph glyph-name="Otilde" unicode="&#xd5;" horiz-adv-x="805" 
d="M457 938q26 0 47 -12t36 -23.5t25 -11.5q31 0 37 42h105q-22 -155 -126 -155q-26 0 -47 12t-36 23.5t-26 11.5q-30 0 -36 -43h-106q22 156 127 156zM504 706q107 0 187 -46t117.5 -127.5t23.5 -181.5q-15 -101 -76 -183t-154.5 -129t-200.5 -47t-186.5 46.5t-117 129
t-22.5 183.5q14 101 75 182t154 127t200 46zM484 557q-82 0 -148.5 -59.5t-79 -147.5t37 -148.5t131 -60.5t146.5 60.5t77.5 148.5t-35 147.5t-129.5 59.5z" />
    <glyph glyph-name="Odieresis" unicode="&#xd6;" horiz-adv-x="805" 
d="M433 930q34 0 53 -22t14 -56t-30 -55.5t-59 -21.5t-53 21.5t-14 55.5t30 56t59 22zM626 930q34 0 53 -22t14 -56t-30 -55.5t-59 -21.5t-53 21.5t-14 55.5t30 56t59 22zM504 706q107 0 187 -46t117.5 -127.5t23.5 -181.5q-15 -101 -76 -183t-154.5 -129t-200.5 -47
t-186.5 46.5t-117 129t-22.5 183.5q14 101 75 182t154 127t200 46zM484 557q-82 0 -148.5 -59.5t-79 -147.5t37 -148.5t131 -60.5t146.5 60.5t77.5 148.5t-35 147.5t-129.5 59.5z" />
    <glyph glyph-name="multiply" unicode="&#xd7;" horiz-adv-x="510" 
d="M379 327l101 -119l-88 -77l-101 119l-136 -119l-66 77l136 119l-102 118l88 77l102 -118l135 118l66 -77z" />
    <glyph glyph-name="Oslash" unicode="&#xd8;" horiz-adv-x="805" 
d="M713 809l-64 -129q99 -39 149 -127.5t34 -201.5q-15 -101 -76 -183t-154.5 -129t-200.5 -47q-47 0 -88 9l-56 -114h-100l72 145q-86 44 -128 128.5t-26 190.5q14 101 75 182t154 127t200 46q31 0 56 -4l53 107h100zM256 350q-7 -48 6.5 -90.5t43.5 -71.5l182 369h-4
q-82 0 -148.5 -59.5t-79.5 -147.5zM424 141q82 0 147 60.5t77 148.5q9 59 -10.5 107t-61.5 75l-191 -387q25 -4 39 -4z" />
    <glyph glyph-name="Ugrave" unicode="&#xd9;" horiz-adv-x="758" 
d="M577 761h-132l-114 113l164 55zM801 700l-59 -406q-20 -139 -117.5 -220.5t-244.5 -81.5q-148 0 -224 81.5t-56 220.5l59 406h178l-59 -406q-10 -70 25 -111.5t99 -41.5t108.5 41t54.5 112l59 406h177z" />
    <glyph glyph-name="Uacute" unicode="&#xda;" horiz-adv-x="758" 
d="M681 874l-146 -113h-132l130 168zM801 700l-59 -406q-20 -139 -117.5 -220.5t-244.5 -81.5q-148 0 -224 81.5t-56 220.5l59 406h178l-59 -406q-10 -70 25 -111.5t99 -41.5t108.5 41t54.5 112l59 406h177z" />
    <glyph glyph-name="Ucircumflex" unicode="&#xdb;" horiz-adv-x="758" 
d="M673 771h-124l-46 85l-70 -85h-124l135 151h138zM801 700l-59 -406q-20 -139 -117.5 -220.5t-244.5 -81.5q-148 0 -224 81.5t-56 220.5l59 406h178l-59 -406q-10 -70 25 -111.5t99 -41.5t108.5 41t54.5 112l59 406h177z" />
    <glyph glyph-name="Udieresis" unicode="&#xdc;" horiz-adv-x="758" 
d="M418 930q34 0 53 -22t14 -56t-30 -55.5t-59 -21.5t-53 21.5t-14 55.5t30 56t59 22zM611 930q34 0 53 -22t14 -56t-30 -55.5t-59 -21.5t-53 21.5t-14 55.5t30 56t59 22zM801 700l-59 -406q-20 -139 -117.5 -220.5t-244.5 -81.5q-148 0 -224 81.5t-56 220.5l59 406h178
l-59 -406q-10 -70 25 -111.5t99 -41.5t108.5 41t54.5 112l59 406h177z" />
    <glyph glyph-name="Yacute" unicode="&#xdd;" horiz-adv-x="680" 
d="M495 761h-132l130 168l148 -55zM464 226l-33 -226h-177l32 221l-190 479h178l125 -305l209 305h178z" />
    <glyph glyph-name="Thorn" unicode="&#xde;" horiz-adv-x="689" 
d="M336 608h122q138 0 207.5 -64t53.5 -177q-17 -119 -105.5 -187t-227.5 -68h-122l-16 -112h-178l101 700h178zM284 248h115q58 0 93.5 29.5t43.5 84.5q8 53 -19.5 81.5t-85.5 28.5h-115z" />
    <glyph glyph-name="germandbls" unicode="&#xdf;" horiz-adv-x="662" 
d="M437 750q117 0 179.5 -54.5t49.5 -145.5q-7 -52 -40 -97.5t-80 -69.5q60 -17 91.5 -61.5t22.5 -107.5q-14 -96 -98.5 -155t-210.5 -59h-49l18 123h41q56 0 91 24.5t41 67.5q6 44 -24.5 67t-93.5 23h-18l18 122q51 0 82.5 25.5t38.5 72.5q6 46 -14 70.5t-63 24.5
q-48 0 -78 -30t-38 -86l-73 -504h-172l71 492q17 118 100 188t208 70z" />
    <glyph glyph-name="agrave" unicode="&#xe0;" horiz-adv-x="600" 
d="M341 600l-113 113l164 55l81 -168h-132zM390 547q110 0 164.5 -51.5t42.5 -143.5l-51 -352h-169l9 62q-63 -70 -175 -70q-85 0 -128.5 47t-32.5 122q11 77 71 119.5t160 43.5h142l1 8q4 27 -5 45.5t-31 29t-57 10.5q-72 0 -167 -45l-33 114q140 61 259 61zM281 109
q11 0 22.5 2t22 5t20.5 8t18.5 11.5t15.5 13.5t13 16t9 18l7 48h-109q-78 0 -86 -58q-4 -30 13.5 -47t53.5 -17z" />
    <glyph glyph-name="aacute" unicode="&#xe1;" horiz-adv-x="600" 
d="M431 600h-132l131 168l148 -55zM390 547q110 0 164.5 -51.5t42.5 -143.5l-51 -352h-169l9 62q-63 -70 -175 -70q-85 0 -128.5 47t-32.5 122q11 77 71 119.5t160 43.5h142l1 8q4 27 -5 45.5t-31 29t-57 10.5q-72 0 -167 -45l-33 114q140 61 259 61zM281 109q11 0 22.5 2
t22 5t20.5 8t18.5 11.5t15.5 13.5t13 16t9 18l7 48h-109q-78 0 -86 -58q-4 -30 13.5 -47t53.5 -17z" />
    <glyph glyph-name="acircumflex" unicode="&#xe2;" horiz-adv-x="600" 
d="M329 610h-124l135 151h138l91 -151h-124l-46 85zM390 547q110 0 164.5 -51.5t42.5 -143.5l-51 -352h-169l9 62q-63 -70 -175 -70q-85 0 -128.5 47t-32.5 122q11 77 71 119.5t160 43.5h142l1 8q4 27 -5 45.5t-31 29t-57 10.5q-72 0 -167 -45l-33 114q140 61 259 61z
M281 109q11 0 22.5 2t22 5t20.5 8t18.5 11.5t15.5 13.5t13 16t9 18l7 48h-109q-78 0 -86 -58q-4 -30 13.5 -47t53.5 -17z" />
    <glyph glyph-name="atilde" unicode="&#xe3;" horiz-adv-x="600" 
d="M353 664q-30 0 -37 -43h-106q23 156 128 156q25 0 46 -11.5t36 -23.5t26 -12q31 0 37 42h105q-22 -155 -126 -155q-21 0 -39 7.5t-28 16t-21.5 16t-20.5 7.5zM390 547q110 0 164.5 -51.5t42.5 -143.5l-51 -352h-169l9 62q-63 -70 -175 -70q-85 0 -128.5 47t-32.5 122
q11 77 71 119.5t160 43.5h142l1 8q4 27 -5 45.5t-31 29t-57 10.5q-72 0 -167 -45l-33 114q140 61 259 61zM281 109q11 0 22.5 2t22 5t20.5 8t18.5 11.5t15.5 13.5t13 16t9 18l7 48h-109q-78 0 -86 -58q-4 -30 13.5 -47t53.5 -17z" />
    <glyph glyph-name="adieresis" unicode="&#xe4;" horiz-adv-x="600" 
d="M291.5 614q-33.5 0 -52.5 21.5t-14 55.5t30 56t59 22t53 -22t14 -56t-30.5 -55.5t-59 -21.5zM484.5 614q-33.5 0 -52.5 21.5t-14 55.5t30 56t59 22t53 -22t14 -56t-30.5 -55.5t-59 -21.5zM390 547q110 0 164.5 -51.5t42.5 -143.5l-51 -352h-169l9 62q-63 -70 -175 -70
q-85 0 -128.5 47t-32.5 122q11 77 71 119.5t160 43.5h142l1 8q4 27 -5 45.5t-31 29t-57 10.5q-72 0 -167 -45l-33 114q140 61 259 61zM281 109q11 0 22.5 2t22 5t20.5 8t18.5 11.5t15.5 13.5t13 16t9 18l7 48h-109q-78 0 -86 -58q-4 -30 13.5 -47t53.5 -17z" />
    <glyph glyph-name="aring" unicode="&#xe5;" horiz-adv-x="600" 
d="M382 574q-50 0 -80.5 35t-23.5 85t47.5 85t90.5 35t80.5 -35t23.5 -85t-47.5 -85t-90.5 -35zM406 746q-14 0 -27 -7t-22 -19t-11 -26t3.5 -26t16.5 -19t26 -7q21 0 39 15t21 37q3 21 -10.5 36.5t-35.5 15.5zM390 547q110 0 164.5 -51.5t42.5 -143.5l-51 -352h-169l9 62
q-63 -70 -175 -70q-85 0 -128.5 47t-32.5 122q11 77 71 119.5t160 43.5h142l1 8q4 27 -5 45.5t-31 29t-57 10.5q-72 0 -167 -45l-33 114q140 61 259 61zM281 109q11 0 22.5 2t22 5t20.5 8t18.5 11.5t15.5 13.5t13 16t9 18l7 48h-109q-78 0 -86 -58q-4 -30 13.5 -47t53.5 -17
z" />
    <glyph glyph-name="ae" unicode="&#xe6;" horiz-adv-x="966" 
d="M742 545q134 0 197.5 -85.5t35.5 -227.5h-388q3 -52 33 -80.5t80 -28.5q75 0 138 55l78 -89q-101 -95 -250 -95q-77 0 -129.5 29.5t-77.5 83.5q-81 -115 -237 -115q-91 0 -137 45.5t-35 121.5t71 116.5t160 41.5h144l2 15q6 40 -18.5 62.5t-75.5 22.5q-77 0 -178 -45
l-24 116q144 59 260 59q118 0 173 -59q75 57 178 57zM597 315h217q5 33 -4 59t-31 40.5t-53 14.5q-30 0 -55.5 -14.5t-44 -40t-29.5 -59.5zM281 104q76 0 123 69l9 62h-109q-39 0 -62.5 -16t-27.5 -46q-5 -32 13.5 -50.5t53.5 -18.5zM443 158v3l-5 1z" />
    <glyph glyph-name="ccedilla" unicode="&#xe7;" horiz-adv-x="562" 
d="M449 193l115 -74q-72 -103 -207 -121l-32 -49q30 -8 45 -29.5t11 -51.5q-7 -47 -45.5 -75t-94.5 -28q-49 0 -90 31l42 71q19 -20 46 -20q13 0 23 5t16.5 13.5t8 18.5t-2.5 18t-14 13t-25 5q-12 0 -36 -4l51 81q-106 13 -160 86t-37 185q18 124 106 200.5t214 76.5
q53 0 97 -14t75.5 -41.5t49.5 -65.5l-135 -75q-32 56 -101 56q-50 0 -86.5 -37.5t-45.5 -98.5q-9 -62 17 -99.5t76 -37.5q76 0 119 61z" />
    <glyph glyph-name="egrave" unicode="&#xe8;" horiz-adv-x="602" 
d="M343 600l-113 113l164 55l81 -168h-132zM384 545q140 0 198 -86t27 -236h-379q4 -32 18.5 -54.5t38.5 -34t56 -11.5q74 0 137 55l78 -89q-101 -95 -249 -95q-131 0 -197.5 75t-48.5 199q18 125 106.5 201t214.5 76zM241 316h216q7 49 -17.5 79t-71.5 30q-44 0 -78 -29.5
t-49 -79.5z" />
    <glyph glyph-name="eacute" unicode="&#xe9;" horiz-adv-x="602" 
d="M432 600h-132l131 168l148 -55zM384 545q140 0 198 -86t27 -236h-379q4 -32 18.5 -54.5t38.5 -34t56 -11.5q74 0 137 55l78 -89q-101 -95 -249 -95q-131 0 -197.5 75t-48.5 199q18 125 106.5 201t214.5 76zM241 316h216q7 49 -17.5 79t-71.5 30q-44 0 -78 -29.5
t-49 -79.5z" />
    <glyph glyph-name="ecircumflex" unicode="&#xea;" horiz-adv-x="602" 
d="M331 609h-124l135 151h138l91 -151h-124l-46 85zM384 545q140 0 198 -86t27 -236h-379q4 -32 18.5 -54.5t38.5 -34t56 -11.5q74 0 137 55l78 -89q-101 -95 -249 -95q-131 0 -197.5 75t-48.5 199q18 125 106.5 201t214.5 76zM241 316h216q7 49 -17.5 79t-71.5 30
q-44 0 -78 -29.5t-49 -79.5z" />
    <glyph glyph-name="edieresis" unicode="&#xeb;" horiz-adv-x="602" 
d="M293 614q-33 0 -52 21.5t-14 55.5t30 56t59 22t53 -22t14 -56q-4 -22 -16.5 -39.5t-31.5 -27.5t-42 -10zM486.5 614q-33.5 0 -52.5 21.5t-14 55.5t30 56t59 22t53 -22t14 -56t-30.5 -55.5t-59 -21.5zM384 545q140 0 198 -86t27 -236h-379q4 -32 18.5 -54.5t38.5 -34
t56 -11.5q74 0 137 55l78 -89q-101 -95 -249 -95q-131 0 -197.5 75t-48.5 199q18 125 106.5 201t214.5 76zM241 316h216q7 49 -17.5 79t-71.5 30q-44 0 -78 -29.5t-49 -79.5z" />
    <glyph glyph-name="igrave" unicode="&#xec;" horiz-adv-x="311" 
d="M330 600h-132l-113 113l164 55zM241 0h-172l78 539h172z" />
    <glyph glyph-name="iacute" unicode="&#xed;" horiz-adv-x="311" 
d="M434 713l-147 -113h-132l131 168zM241 0h-172l78 539h172z" />
    <glyph glyph-name="icircumflex" unicode="&#xee;" horiz-adv-x="311" 
d="M426 610h-124l-46 85l-70 -85h-124l135 151h138zM241 0h-172l78 539h172z" />
    <glyph glyph-name="idieresis" unicode="&#xef;" horiz-adv-x="311" 
d="M171 769q34 0 53 -22t14 -56t-30.5 -55.5t-59 -21.5t-52.5 21.5t-14 55.5t30 56t59 22zM364 769q34 0 53 -22t14 -56q-4 -22 -16.5 -39.5t-31.5 -27.5t-42 -10q-33 0 -52 21.5t-14 55.5t30 56t59 22zM241 0h-172l78 539h172z" />
    <glyph glyph-name="eth" unicode="&#xf0;" horiz-adv-x="604" 
d="M640 625l-103 -33q108 -139 84 -308q-19 -133 -111.5 -212.5t-227.5 -79.5q-119 0 -181 64t-46 170q14 100 84.5 159.5t173.5 59.5q50 0 91.5 -16t60.5 -44q-15 80 -84 157l-171 -54l-14 80l118 38q-54 43 -114 73l126 70q86 -37 149 -92l150 48zM309 135q49 0 81.5 26.5
t38.5 70.5q5 29 -5 51.5t-32 34.5t-54 12q-48 0 -79.5 -26t-37.5 -70q-7 -45 17.5 -72t70.5 -27z" />
    <glyph glyph-name="ntilde" unicode="&#xf1;" horiz-adv-x="673" 
d="M407 664q-30 0 -37 -43h-106q23 156 128 156q25 0 46 -11.5t36 -23.5t26 -12q31 0 37 42h105q-22 -155 -126 -155q-21 0 -39 7.5t-28 16t-21.5 16t-20.5 7.5zM501 547q89 0 135 -56.5t32 -150.5l-49 -340h-172l42 292q7 47 -15 74.5t-65 27.5q-47 0 -80 -30t-46 -79
l-41 -285h-173l78 539h173l-13 -88q71 94 194 96z" />
    <glyph glyph-name="ograve" unicode="&#xf2;" horiz-adv-x="637" 
d="M493 600h-132l-113 113l164 55zM398 545q132 0 202 -75.5t52 -199.5t-110 -200t-224 -76q-133 0 -203 76t-52 200t110 199.5t225 75.5zM378 408q-36 0 -66 -17.5t-49.5 -49.5t-25.5 -73q-9 -63 18.5 -101.5t81.5 -38.5t93 38.5t48 101.5q9 62 -19 101t-81 39z" />
    <glyph glyph-name="oacute" unicode="&#xf3;" horiz-adv-x="637" 
d="M597 713l-147 -113h-132l131 168zM398 545q132 0 202 -75.5t52 -199.5t-110 -200t-224 -76q-133 0 -203 76t-52 200t110 199.5t225 75.5zM378 408q-36 0 -66 -17.5t-49.5 -49.5t-25.5 -73q-9 -63 18.5 -101.5t81.5 -38.5t93 38.5t48 101.5q9 62 -19 101t-81 39z" />
    <glyph glyph-name="ocircumflex" unicode="&#xf4;" horiz-adv-x="637" 
d="M589 609h-124l-46 85l-70 -85h-124l135 151h138zM398 545q132 0 202 -75.5t52 -199.5t-110 -200t-224 -76q-133 0 -203 76t-52 200t110 199.5t225 75.5zM378 408q-36 0 -66 -17.5t-49.5 -49.5t-25.5 -73q-9 -63 18.5 -101.5t81.5 -38.5t93 38.5t48 101.5q9 62 -19 101
t-81 39z" />
    <glyph glyph-name="otilde" unicode="&#xf5;" horiz-adv-x="637" 
d="M357 777q25 0 46 -11.5t36 -23.5t26 -12q31 0 37 42h105q-22 -155 -126 -155q-21 0 -39 7.5t-28 16t-21.5 16t-20.5 7.5q-30 0 -37 -43h-106q23 156 128 156zM398 545q132 0 202 -75.5t52 -199.5t-110 -200t-224 -76q-133 0 -203 76t-52 200t110 199.5t225 75.5zM378 408
q-36 0 -66 -17.5t-49.5 -49.5t-25.5 -73q-9 -63 18.5 -101.5t81.5 -38.5t93 38.5t48 101.5q9 62 -19 101t-81 39z" />
    <glyph glyph-name="odieresis" unicode="&#xf6;" horiz-adv-x="637" 
d="M334 769q34 0 53 -22t14 -56q-4 -22 -16.5 -39.5t-31.5 -27.5t-42 -10q-33 0 -52 21.5t-14 55.5t30 56t59 22zM527 769q34 0 53 -22t14 -56q-4 -22 -16.5 -39.5t-31.5 -27.5t-42 -10q-33 0 -52 21.5t-14 55.5t30 56t59 22zM398 545q132 0 202 -75.5t52 -199.5t-110 -200
t-224 -76q-133 0 -203 76t-52 200t110 199.5t225 75.5zM378 408q-36 0 -66 -17.5t-49.5 -49.5t-25.5 -73q-9 -63 18.5 -101.5t81.5 -38.5t93 38.5t48 101.5q9 62 -19 101t-81 39z" />
    <glyph glyph-name="divide" unicode="&#xf7;" horiz-adv-x="510" 
d="M331 584q35 0 53.5 -21.5t13.5 -56.5q-5 -34 -30 -55.5t-59 -21.5t-53 21.5t-14 55.5t30 56t59 22zM516 272h-444l16 109h444zM280 227q34 0 52.5 -22t14 -56t-29.5 -56t-60 -22q-34 0 -52.5 22t-14 56t30 56t59.5 22z" />
    <glyph glyph-name="oslash" unicode="&#xf8;" horiz-adv-x="637" 
d="M582 671l-68 -145q77 -29 114 -96t24 -160q-18 -124 -110 -200t-224 -76q-27 0 -52 3l-65 -139h-71l72 155q-78 29 -115.5 96.5t-23.5 160.5q18 124 110 199.5t225 75.5q27 0 52 -3l61 129h71zM226 268q-13 -88 35 -129l133 282l-14 1q-59 0 -101.5 -42.5t-52.5 -111.5z
M321 115l14 -1q59 0 101.5 42t52.5 112q12 85 -36 129z" />
    <glyph glyph-name="ugrave" unicode="&#xf9;" horiz-adv-x="663" 
d="M369 600l-113 113l164 55l81 -168h-132zM672 539l-78 -539h-173l13 89q-70 -96 -189 -96q-88 0 -132.5 56t-30.5 150l49 340h173l-42 -291q-7 -48 13 -75.5t62 -27.5q32 0 58.5 17t43 45.5t21.5 65.5l39 266h173z" />
    <glyph glyph-name="uacute" unicode="&#xfa;" horiz-adv-x="663" 
d="M458 600h-132l131 168l148 -55zM672 539l-78 -539h-173l13 89q-70 -96 -189 -96q-88 0 -132.5 56t-30.5 150l49 340h173l-42 -291q-7 -48 13 -75.5t62 -27.5q32 0 58.5 17t43 45.5t21.5 65.5l39 266h173z" />
    <glyph glyph-name="ucircumflex" unicode="&#xfb;" horiz-adv-x="663" 
d="M357 610h-124l135 151h138l91 -151h-124l-46 85zM672 539l-78 -539h-173l13 89q-70 -96 -189 -96q-88 0 -132.5 56t-30.5 150l49 340h173l-42 -291q-7 -48 13 -75.5t62 -27.5q32 0 58.5 17t43 45.5t21.5 65.5l39 266h173z" />
    <glyph glyph-name="udieresis" unicode="&#xfc;" horiz-adv-x="663" 
d="M319.5 614q-33.5 0 -52.5 21.5t-14 55.5t30 56t59 22t53 -22t14 -56t-30.5 -55.5t-59 -21.5zM512 614q-33 0 -52 21.5t-14 55.5t30 56t59 22t53 -22t14 -56q-4 -22 -16.5 -39.5t-31.5 -27.5t-42 -10zM672 539l-78 -539h-173l13 89q-70 -96 -189 -96q-88 0 -132.5 56
t-30.5 150l49 340h173l-42 -291q-7 -48 13 -75.5t62 -27.5q32 0 58.5 17t43 45.5t21.5 65.5l39 266h173z" />
    <glyph glyph-name="yacute" unicode="&#xfd;" horiz-adv-x="580" 
d="M569 713l-147 -113h-132l131 168zM665 539l-319 -595q-81 -146 -229 -146q-86 0 -149 55l89 118q32 -29 67 -29q46 0 73 43l17 27l-148 527h178l80 -358l169 358h172z" />
    <glyph glyph-name="thorn" unicode="&#xfe;" horiz-adv-x="685" 
d="M487 545q114 0 172.5 -76.5t39.5 -201.5q-17 -123 -96 -198t-192 -75q-106 0 -154 78l-38 -266h-173l135 936h173l-40 -274q71 77 173 77zM385 131q54 0 93 39.5t48 101.5t-19 101t-82 39q-34 0 -64 -18t-49.5 -49.5t-25.5 -72.5q-9 -63 18.5 -102t80.5 -39z" />
    <glyph glyph-name="ydieresis" unicode="&#xff;" horiz-adv-x="580" 
d="M306 769q34 0 53 -22t14 -56t-30.5 -55.5t-59 -21.5t-52.5 21.5t-14 55.5t30 56t59 22zM499 769q34 0 53 -22t14 -56t-30.5 -55.5t-59 -21.5t-52.5 21.5t-14 55.5t30 56t59 22zM665 539l-319 -595q-81 -146 -229 -146q-86 0 -149 55l89 118q32 -29 67 -29q46 0 73 43
l17 27l-148 527h178l80 -358l169 358h172z" />
    <glyph glyph-name="Amacron" unicode="&#x100;" horiz-adv-x="770" 
d="M638 793h-278l17 116h278zM554 129h-306l-70 -129h-183l403 700h183l194 -700h-190zM521 264l-63 259l-139 -259h202z" />
    <glyph glyph-name="amacron" unicode="&#x101;" horiz-adv-x="600" 
d="M529 632h-278l17 116h278zM390 547q110 0 164.5 -51.5t42.5 -143.5l-51 -352h-169l9 62q-63 -70 -175 -70q-85 0 -128.5 47t-32.5 122q11 77 71 119.5t160 43.5h142l1 8q4 27 -5 45.5t-31 29t-57 10.5q-72 0 -167 -45l-33 114q140 61 259 61zM281 109q11 0 22.5 2t22 5
t20.5 8t18.5 11.5t15.5 13.5t13 16t9 18l7 48h-109q-78 0 -86 -58q-4 -30 13.5 -47t53.5 -17z" />
    <glyph glyph-name="Abreve" unicode="&#x102;" horiz-adv-x="770" 
d="M495 762q-47 0 -80.5 19.5t-49.5 55t-11 83.5h108q-2 -26 11 -42t36 -16t41 16t24 42h108q-15 -72 -66 -115t-121 -43zM554 129h-306l-70 -129h-183l403 700h183l194 -700h-190zM521 264l-63 259l-139 -259h202z" />
    <glyph glyph-name="abreve" unicode="&#x103;" horiz-adv-x="600" 
d="M385.5 601q-70.5 0 -109 43t-32.5 115h108q-1 -26 12 -42t36 -16q11 0 22 4.5t19 12t14 18t9 23.5h108q-14 -72 -65 -115t-121.5 -43zM390 547q110 0 164.5 -51.5t42.5 -143.5l-51 -352h-169l9 62q-63 -70 -175 -70q-85 0 -128.5 47t-32.5 122q11 77 71 119.5t160 43.5
h142l1 8q4 27 -5 45.5t-31 29t-57 10.5q-72 0 -167 -45l-33 114q140 61 259 61zM281 109q11 0 22.5 2t22 5t20.5 8t18.5 11.5t15.5 13.5t13 16t9 18l7 48h-109q-78 0 -86 -58q-4 -30 13.5 -47t53.5 -17z" />
    <glyph glyph-name="Aogonek" unicode="&#x104;" horiz-adv-x="770" 
d="M775 0h-51q-52 -63 -56 -92q-4 -24 17 -24q22 0 48 31l36 -51q-48 -67 -117 -67q-35 0 -58.5 20t-17.5 63q7 48 65 120h-55l-32 129h-305l-71 -129h-183l403 701h183zM319 264h204l-64 259z" />
    <glyph glyph-name="aogonek" unicode="&#x105;" horiz-adv-x="605" 
d="M392 547q111 0 165.5 -51.5t42.5 -143.5l-51 -352h-41q-53 -64 -57 -92q-4 -24 18 -24t48 31l36 -51q-15 -21 -34.5 -36.5t-40.5 -23t-42 -7.5q-35 0 -58.5 20t-17.5 63q7 52 65 120h-46l9 62q-63 -70 -176 -70q-86 0 -129.5 47t-32.5 122q11 77 71.5 119.5t160.5 43.5
h144l1 9q4 40 -19.5 62t-75.5 22q-72 0 -168 -45l-33 114q140 61 261 61zM412 231h-111q-79 0 -87 -58q-4 -29 14 -46.5t54 -17.5q39 0 74.5 21t48.5 51z" />
    <glyph glyph-name="Cacute" unicode="&#x106;" horiz-adv-x="692" 
d="M685 874l-146 -113h-132l130 168zM500 706q77 0 148.5 -32t116.5 -86l-121 -122q-28 42 -72 66.5t-91 24.5q-83 0 -147.5 -58.5t-76.5 -144.5q-8 -58 10.5 -105t59.5 -74t95 -27q44 0 95 22t93 60l88 -110q-65 -58 -148 -93t-159 -35q-104 0 -181.5 47t-113.5 129.5
t-21 183.5q14 100 74.5 181t153 127t197.5 46z" />
    <glyph glyph-name="cacute" unicode="&#x107;" horiz-adv-x="562" 
d="M571 713l-147 -113h-132l131 168zM383 545q53 0 97 -14t75.5 -41.5t49.5 -65.5l-135 -75q-32 56 -101 56q-50 0 -86.5 -37.5t-45.5 -98.5q-9 -62 17 -99.5t76 -37.5q76 0 119 61l115 -74q-42 -60 -110 -92.5t-153 -32.5q-124 0 -190 75.5t-48 198.5q18 124 106 200.5
t214 76.5z" />
    <glyph glyph-name="Ccaron" unicode="&#x10c;" horiz-adv-x="692" 
d="M316 922h135l48 -92l74 92h135l-145 -164h-150zM500 706q77 0 148.5 -32t116.5 -86l-121 -122q-28 42 -72 66.5t-91 24.5q-83 0 -147.5 -58.5t-76.5 -144.5q-8 -58 10.5 -105t59.5 -74t95 -27q44 0 95 22t93 60l88 -110q-65 -58 -148 -93t-159 -35q-104 0 -181.5 47
t-113.5 129.5t-21 183.5q14 100 74.5 181t153 127t197.5 46z" />
    <glyph glyph-name="ccaron" unicode="&#x10d;" horiz-adv-x="562" 
d="M203 760h135l47 -92l75 92h135l-145 -164h-150zM383 545q53 0 97 -14t75.5 -41.5t49.5 -65.5l-135 -75q-32 56 -101 56q-50 0 -86.5 -37.5t-45.5 -98.5q-9 -62 17 -99.5t76 -37.5q76 0 119 61l115 -74q-42 -60 -110 -92.5t-153 -32.5q-124 0 -190 75.5t-48 198.5
q18 124 106 200.5t214 76.5z" />
    <glyph glyph-name="Dcaron" unicode="&#x10e;" horiz-adv-x="767" 
d="M291 922h135l48 -92l74 92h135l-145 -164h-150zM171 700h301q165 0 254.5 -97t66.5 -253q-22 -155 -141 -252.5t-288 -97.5h-294zM328 558l-60 -416h127q54 0 100.5 26t77.5 73t39 108q9 61 -9 109t-59 74t-97 26h-119z" />
    <glyph glyph-name="dcaron" unicode="&#x10f;" horiz-adv-x="786" 
d="M546 742h173l-107 -742h-173l10 71q-70 -78 -173 -78q-114 0 -172 77t-40 202q18 124 97 199t191 75q106 0 154 -78zM843 677q34 0 54.5 -22t15.5 -60q-5 -32 -32 -66l-88 -106h-82l60 107q-30 22 -23 65q5 36 31.5 59t63.5 23zM337.5 127q53.5 0 92.5 39t48 102
q6 41 -4.5 73t-35.5 49.5t-60 17.5q-54 0 -93 -38.5t-48 -101.5t19 -102t81.5 -39z" />
    <glyph glyph-name="Dcroat" unicode="&#x110;" horiz-adv-x="767" 
d="M611 793h-278l17 116h278zM171 700h301q165 0 254.5 -97t66.5 -253q-22 -155 -141 -252.5t-288 -97.5h-294zM328 558l-60 -416h127q54 0 100.5 26t77.5 73t39 108q9 61 -9 109t-59 74t-97 26h-119z" />
    <glyph glyph-name="dcroat" unicode="&#x111;" horiz-adv-x="686" 
d="M763 595h-65l-86 -595h-173l10 71q-70 -78 -173 -78q-114 0 -172 77t-40 202q18 124 97 199t191 75q106 0 154 -78l19 127h-85l13 89h85l8 58h173l-8 -58h65zM337.5 127q53.5 0 92.5 39t48 102q6 41 -4.5 73t-35.5 49.5t-60 17.5q-54 0 -93 -38.5t-48 -101.5t19 -102
t81.5 -39z" />
    <glyph glyph-name="Emacron" unicode="&#x112;" horiz-adv-x="674" 
d="M599 793h-278l17 116h278zM699 560h-370l-20 -139h334l-21 -140h-334l-20 -141h381l-20 -140h-559l101 700h548z" />
    <glyph glyph-name="emacron" unicode="&#x113;" horiz-adv-x="602" 
d="M531 632h-278l17 116h278zM384 545q140 0 198 -86t27 -236h-379q4 -32 18.5 -54.5t38.5 -34t56 -11.5q74 0 137 55l78 -89q-101 -95 -249 -95q-131 0 -197.5 75t-48.5 199q18 125 106.5 201t214.5 76zM241 316h216q7 49 -17.5 79t-71.5 30q-44 0 -78 -29.5t-49 -79.5z
" />
    <glyph glyph-name="Edotaccent" unicode="&#x116;" horiz-adv-x="674" 
d="M482 946q40 0 62 -25.5t16 -65.5t-35 -66t-69 -26t-62 26t-16 66q4 26 18.5 47t37 32.5t48.5 11.5zM699 560h-370l-20 -139h334l-21 -140h-334l-20 -141h381l-20 -140h-559l101 700h548z" />
    <glyph glyph-name="edotaccent" unicode="&#x117;" horiz-adv-x="602" 
d="M388 602q-40 0 -62 26t-16 66t35 65.5t69 25.5t62 -25.5t16 -65.5t-35 -66t-69 -26zM384 545q140 0 198 -86t27 -236h-379q4 -32 18.5 -54.5t38.5 -34t56 -11.5q74 0 137 55l78 -89q-101 -95 -249 -95q-131 0 -197.5 75t-48.5 199q18 125 106.5 201t214.5 76zM241 316
h216q7 49 -17.5 79t-71.5 30q-44 0 -78 -29.5t-49 -79.5z" />
    <glyph glyph-name="Eogonek" unicode="&#x118;" horiz-adv-x="678" 
d="M704 564h-375l-20 -143h339l-20 -136h-339l-21 -149h385l-20 -136h-71q-52 -62 -56 -92q-4 -24 17 -24q22 0 48 31l37 -51q-50 -67 -118 -67q-22 0 -39.5 7.5t-28.5 27t-7 48.5q7 50 64 120h-409l101 700h553z" />
    <glyph glyph-name="eogonek" unicode="&#x119;" horiz-adv-x="602" 
d="M385 545q137 1 196.5 -85.5t27.5 -236.5h-378q6 -48 34.5 -74.5t77.5 -26.5q73 0 137 56l78 -89q-127 -125 -135 -180q-4 -25 17 -25q22 0 47 31l36 -51q-48 -67 -116 -67q-35 0 -58.5 20.5t-17.5 63.5q8 59 75 136q-47 -23 -99 -23q-129 0 -195 75t-48 200
q17 123 104 199t217 77zM369 425q-45 0 -80 -30t-48 -79h216q6 48 -18 78.5t-70 30.5z" />
    <glyph glyph-name="Ecaron" unicode="&#x11a;" horiz-adv-x="674" 
d="M279 922h135l48 -92l74 92h135l-145 -164h-150zM699 560h-370l-20 -139h334l-21 -140h-334l-20 -141h381l-20 -140h-559l101 700h548z" />
    <glyph glyph-name="ecaron" unicode="&#x11b;" horiz-adv-x="602" 
d="M307 596l-97 164h135l47 -92l75 92h135l-145 -164h-150zM384 545q140 0 198 -86t27 -236h-379q4 -32 18.5 -54.5t38.5 -34t56 -11.5q74 0 137 55l78 -89q-101 -95 -249 -95q-131 0 -197.5 75t-48.5 199q18 125 106.5 201t214.5 76zM241 316h216q7 49 -17.5 79t-71.5 30
q-44 0 -78 -29.5t-49 -79.5z" />
    <glyph glyph-name="Gbreve" unicode="&#x11e;" horiz-adv-x="743" 
d="M502 762q-47 0 -80.5 19.5t-49.5 55t-11 83.5h108q-2 -26 11 -42t36 -16t41 16t24 42h108q-15 -72 -66 -115t-121 -43zM586 356h154l-39 -273q-63 -40 -147 -65.5t-157 -25.5q-105 0 -184 46.5t-116 128.5t-23 183q11 75 50 141t97 113t133.5 74.5t157.5 27.5
q78 0 151 -28t120 -76l-118 -121q-22 23 -50.5 40.5t-60.5 26.5t-65 9q-86 0 -153 -59.5t-80 -147.5q-12 -89 38 -149t137 -60q56 0 129 34z" />
    <glyph glyph-name="gbreve" unicode="&#x11f;" horiz-adv-x="647" 
d="M410.5 601q-70.5 0 -109 43t-32.5 115h108q-1 -26 12 -42t36 -16q11 0 22 4.5t19 12t14 18t9 23.5h108q-14 -72 -65 -115t-121.5 -43zM662 539l-71 -490q-16 -114 -106.5 -182t-221.5 -68q-134 0 -230 71l77 117q70 -54 159 -54q62 0 102 30t47 81l9 57q-66 -72 -166 -72
q-102 0 -156.5 72t-37.5 189q16 114 89.5 184.5t175.5 70.5q102 1 148 -72l10 66h172zM322 154q33 0 61 16.5t46.5 46.5t23.5 68q6 39 -4 69t-33 46.5t-56 16.5q-51 0 -87.5 -36.5t-45.5 -95.5q-8 -58 18 -94.5t77 -36.5z" />
    <glyph glyph-name="Gcommaaccent" unicode="&#x122;" horiz-adv-x="743" 
d="M586 356h154l-39 -273q-63 -40 -147 -65.5t-157 -25.5q-105 0 -184 46.5t-116 128.5t-23 183q11 75 50 141t97 113t133.5 74.5t157.5 27.5q78 0 151 -28t120 -76l-118 -121q-22 23 -50.5 40.5t-60.5 26.5t-65 9q-86 0 -153 -59.5t-80 -147.5q-12 -89 38 -149t137 -60
q56 0 129 34zM392 -41q35 0 55.5 -22t14.5 -60q-5 -34 -31 -66l-89 -106h-82l61 106q-30 23 -24 65q5 37 32 60t63 23z" />
    <glyph glyph-name="gcommaaccent" unicode="&#x123;" horiz-adv-x="647" 
d="M401 580q-35 0 -55.5 22t-15.5 60q5 34 32 66l88 106h82l-60 -106q30 -23 24 -65q-6 -37 -32.5 -60t-62.5 -23zM662 539l-71 -490q-16 -114 -106.5 -182t-221.5 -68q-134 0 -230 71l77 117q70 -54 159 -54q62 0 102 30t47 81l9 57q-66 -72 -166 -72q-102 0 -156.5 72
t-37.5 189q16 114 89.5 184.5t175.5 70.5q102 1 148 -72l10 66h172zM322 154q33 0 61 16.5t46.5 46.5t23.5 68q6 39 -4 69t-33 46.5t-56 16.5q-51 0 -87.5 -36.5t-45.5 -95.5q-8 -58 18 -94.5t77 -36.5z" />
    <glyph glyph-name="hbar" unicode="&#x127;" horiz-adv-x="743" 
d="M507 547q89 0 135 -56.5t32 -150.5l-49 -340h-173l42 292q5 31 -3.5 54t-28 35.5t-48.5 12.5q-50 0 -85.5 -36t-43.5 -92l-38 -266h-173l83 576h-79l14 94h79l10 72h173l-10 -72h118l-14 -94h-118l-18 -126q70 95 195 97z" />
    <glyph glyph-name="Itilde" unicode="&#x128;" horiz-adv-x="318" 
d="M221 938q26 0 47 -12t36 -23.5t25 -11.5q31 0 37 42h105q-22 -155 -126 -155q-26 0 -47 12t-36 23.5t-26 11.5q-30 0 -36 -43h-106q22 156 127 156zM248 0h-178l101 700h178z" />
    <glyph glyph-name="itilde" unicode="&#x129;" horiz-adv-x="311" 
d="M194 777q25 0 46 -11.5t36 -23.5t26 -12q31 0 37 42h105q-22 -155 -126 -155q-26 0 -47 11.5t-36 23.5t-26 12q-30 0 -37 -43h-106q23 156 128 156zM241 0h-172l78 539h172z" />
    <glyph glyph-name="Imacron" unicode="&#x12a;" horiz-adv-x="318" 
d="M412 793h-278l17 116h278zM248 0h-178l101 700h178z" />
    <glyph glyph-name="imacron" unicode="&#x12b;" horiz-adv-x="311" 
d="M385 632h-278l17 116h278zM241 0h-172l78 539h172z" />
    <glyph glyph-name="Iogonek" unicode="&#x12e;" horiz-adv-x="318" 
d="M219 -85l36 -51q-23 -32 -54 -49.5t-63 -17.5q-35 0 -58.5 20t-17.5 63q7 50 64 120h-56l101 701h178l-101 -701h-38q-53 -64 -57 -92q-4 -24 17 -24q23 0 49 31z" />
    <glyph glyph-name="iogonek" unicode="&#x12f;" horiz-adv-x="290" 
d="M259 785q41 0 63 -26t16 -66t-35.5 -65.5t-69.5 -25.5t-62.5 25.5t-16.5 65.5t35.5 66t69.5 26zM232 0h-40q-53 -64 -57 -92q-4 -24 18 -24t48 31l36 -51q-23 -32 -54 -49.5t-63 -17.5q-36 0 -59 20t-17 63q7 50 64 120h-48l78 539h172z" />
    <glyph glyph-name="Idotaccent" unicode="&#x130;" horiz-adv-x="318" 
d="M295 946q40 0 62 -25.5t16 -65.5t-35 -66t-69 -26t-62 26t-16 66q4 26 18.5 47t37 32.5t48.5 11.5zM248 0h-178l101 700h178z" />
    <glyph glyph-name="dotlessi" unicode="&#x131;" horiz-adv-x="311" 
d="M241 0h-172l78 539h172z" />
    <glyph glyph-name="IJ" unicode="&#x132;" horiz-adv-x="853" 
d="M897 701l-68 -474q-16 -111 -90 -173t-186 -62q-143 0 -225 112l99 119q31 -38 67.5 -58t68.5 -20q36 0 58.5 22t28.5 64l47 326h-240l21 144h419zM248 0h-178l101 700h178z" />
    <glyph glyph-name="ij" unicode="&#x133;" horiz-adv-x="630" 
d="M269 785q40 0 62 -25.5t16 -65.5t-35 -66t-69 -26q-26 0 -45.5 11.5t-28 32.5t-4.5 48q6 40 35 65.5t69 25.5zM581 785q44 0 67.5 -25.5t17.5 -66.5q-4 -26 -19.5 -47t-39.5 -32.5t-52 -11.5q-43 0 -67 25.5t-18 65.5q4 27 19.5 48t39.5 32.5t52 11.5zM241 0h-172l78 539
h172zM633 539l-80 -555q-13 -88 -75 -137t-148 -48q-79 0 -130 35l62 121q28 -19 58 -19q24 -1 40.5 14t20.5 45l79 544h173z" />
    <glyph glyph-name="Jcircumflex" unicode="&#x134;" horiz-adv-x="536" 
d="M559 771h-124l-46 85l-70 -85h-124l135 151h138zM579 701l-68 -474q-16 -111 -90 -173t-186 -62q-143 0 -225 112l99 119q31 -38 67.5 -58t68.5 -20q36 0 58.5 22t28.5 64l47 326h-240l21 144h419z" />
    <glyph glyph-name="jcircumflex" unicode="&#x135;" horiz-adv-x="308" 
d="M421 610h-124l-46 85l-70 -85h-124l135 151h138zM322 539l-81 -559q-12 -85 -70.5 -133.5t-146.5 -47.5q-82 2 -138 35l57 119q31 -19 61 -19q57 -2 68 71l77 534h173z" />
    <glyph glyph-name="Kcommaaccent" unicode="&#x136;" horiz-adv-x="747" 
d="M739 0h-213l-145 275l-108 -103l-25 -172h-178l101 700h178l-44 -303l312 303h206l-302 -290zM364 -41q35 0 55.5 -22t14.5 -60q-5 -34 -31 -66l-89 -106h-82l61 106q-30 23 -24 65q5 37 32 60t63 23z" />
    <glyph glyph-name="kcedilla" unicode="&#x137;" horiz-adv-x="630" 
d="M335 208l-67 -61l-21 -147h-46l-33 -49q29 -8 45 -29.5t12 -49.5q-7 -48 -45.5 -77t-96.5 -29q-49 0 -88 31l41 71q18 -19 44 -19q21 0 34.5 11t15.5 29q2 17 -8.5 27.5t-31.5 10.5q-18 0 -35 -3l49 76h-30l107 742h173l-57 -392l206 189h196l-228 -207l156 -332h-205z
" />
    <glyph glyph-name="kgreenlandic" unicode="&#x138;" horiz-adv-x="624" 
d="M329 208l-67 -61l-21 -147h-172l78 539h172l-28 -189l206 189h196l-228 -207l156 -332h-205z" />
    <glyph glyph-name="Lacute" unicode="&#x139;" horiz-adv-x="560" 
d="M457 874l-146 -113h-132l130 168zM269 149h297l-21 -149h-475l101 700h178z" />
    <glyph glyph-name="lacute" unicode="&#x13a;" horiz-adv-x="321" 
d="M468 916l-146 -113h-132l130 168zM247 0h-173l107 742h173z" />
    <glyph glyph-name="Lcommaaccent" unicode="&#x13b;" horiz-adv-x="560" 
d="M566 149l-21 -149h-475l101 700h178l-80 -551h297zM291 -41q35 0 55.5 -22t14.5 -60q-5 -34 -31 -66l-89 -106h-82l61 106q-30 23 -24 65q5 37 32 60t63 23z" />
    <glyph glyph-name="lcommaaccent" unicode="&#x13c;" horiz-adv-x="321" 
d="M247 0h-173l107 742h173zM162 -41q35 0 55.5 -22t14.5 -60q-5 -34 -31 -66l-89 -106h-82l61 106q-30 23 -24 65q5 37 32 60t63 23z" />
    <glyph glyph-name="Lcaron" unicode="&#x13d;" horiz-adv-x="560" 
d="M566 149l-21 -149h-475l101 700h178l-80 -551h297zM416 415l60 107q-30 22 -23 65q5 36 31.5 59t62.5 23q35 0 55.5 -22t15.5 -60q-5 -32 -32 -66l-88 -106h-82z" />
    <glyph glyph-name="lcaron" unicode="&#x13e;" horiz-adv-x="406" 
d="M181 742h173l-107 -742h-173zM463 677q34 0 54.5 -22t15.5 -60q-5 -32 -32 -66l-88 -106h-82l60 107q-30 22 -23 65q5 36 31.5 59t63.5 23z" />
    <glyph glyph-name="Ldot" unicode="&#x13f;" horiz-adv-x="560" 
d="M269 149h297l-21 -149h-475l101 700h178zM494 562q36 0 56 -23t15 -59t-32 -59t-63 -23q-35 0 -54.5 23t-14.5 59t31.5 59t61.5 23z" />
    <glyph glyph-name="ldot" unicode="&#x140;" horiz-adv-x="393" 
d="M247 0h-173l107 742h173zM404 395q36 0 55.5 -23t14.5 -60t-31.5 -60t-62.5 -23q-37 0 -56.5 23t-14.5 60q3 24 16.5 43t34 29.5t44.5 10.5z" />
    <glyph glyph-name="Lslash" unicode="&#x141;" horiz-adv-x="580" 
d="M585 149l-21 -149h-475l48 333l-76 -21l-14 104l106 30l37 254h178l-29 -203l150 42l14 -105l-181 -50l-34 -235h297z" />
    <glyph glyph-name="lslash" unicode="&#x142;" horiz-adv-x="343" 
d="M326 402l-58 -402h-173l51 352l-103 -28l-15 104l134 37l40 277h173l-33 -227l86 24l14 -105z" />
    <glyph glyph-name="Nacute" unicode="&#x143;" horiz-adv-x="786" 
d="M695 874l-146 -113h-132l130 168zM716 0h-157l-260 431l-62 -431h-167l101 700h157l261 -432l62 432h166z" />
    <glyph glyph-name="nacute" unicode="&#x144;" horiz-adv-x="673" 
d="M485 600h-132l131 168l148 -55zM501 547q89 0 135 -56.5t32 -150.5l-49 -340h-172l42 292q7 47 -15 74.5t-65 27.5q-47 0 -80 -30t-46 -79l-41 -285h-173l78 539h173l-13 -88q71 94 194 96z" />
    <glyph glyph-name="Ncommaaccent" unicode="&#x145;" horiz-adv-x="786" 
d="M817 700l-101 -700h-157l-260 431l-62 -431h-167l101 700h157l261 -432l62 432h166zM394 -41q35 0 55.5 -22t14.5 -60q-5 -34 -31 -66l-89 -106h-82l61 106q-30 23 -24 65q5 37 32 60t63 23z" />
    <glyph glyph-name="ncommaaccent" unicode="&#x146;" horiz-adv-x="673" 
d="M501 547q89 0 135 -56.5t32 -150.5l-49 -340h-172l42 292q7 47 -15 74.5t-65 27.5q-47 0 -80 -30t-46 -79l-41 -285h-173l78 539h173l-13 -88q71 94 194 96zM342 -41q35 0 55.5 -22t14.5 -60q-5 -34 -31 -66l-89 -106h-82l61 106q-30 23 -24 65q5 37 32 60t63 23z" />
    <glyph glyph-name="Ncaron" unicode="&#x147;" horiz-adv-x="786" 
d="M326 922h135l48 -92l74 92h135l-145 -164h-150zM716 0h-157l-260 431l-62 -431h-167l101 700h157l261 -432l62 432h166z" />
    <glyph glyph-name="ncaron" unicode="&#x148;" horiz-adv-x="673" 
d="M360 597l-97 164h135l47 -92l75 92h135l-145 -164h-150zM501 547q89 0 135 -56.5t32 -150.5l-49 -340h-172l42 292q7 47 -15 74.5t-65 27.5q-47 0 -80 -30t-46 -79l-41 -285h-173l78 539h173l-13 -88q71 94 194 96z" />
    <glyph glyph-name="Omacron" unicode="&#x14c;" horiz-adv-x="805" 
d="M648 793h-278l17 116h278zM504 706q107 0 187 -46t117.5 -127.5t23.5 -181.5q-15 -101 -76 -183t-154.5 -129t-200.5 -47t-186.5 46.5t-117 129t-22.5 183.5q14 101 75 182t154 127t200 46zM484 557q-82 0 -148.5 -59.5t-79 -147.5t37 -148.5t131 -60.5t146.5 60.5
t77.5 148.5t-35 147.5t-129.5 59.5z" />
    <glyph glyph-name="omacron" unicode="&#x14d;" horiz-adv-x="637" 
d="M548 632h-278l17 116h278zM398 545q132 0 202 -75.5t52 -199.5t-110 -200t-224 -76q-133 0 -203 76t-52 200t110 199.5t225 75.5zM378 408q-36 0 -66 -17.5t-49.5 -49.5t-25.5 -73q-9 -63 18.5 -101.5t81.5 -38.5t93 38.5t48 101.5q9 62 -19 101t-81 39z" />
    <glyph glyph-name="Ohungarumlaut" unicode="&#x150;" horiz-adv-x="805" 
d="M564 883l-107 -123h-126l109 171zM758 883l-107 -123h-126l109 171zM504 706q107 0 187 -46t117.5 -127.5t23.5 -181.5q-15 -101 -76 -183t-154.5 -129t-200.5 -47t-186.5 46.5t-117 129t-22.5 183.5q14 101 75 182t154 127t200 46zM484 557q-82 0 -148.5 -59.5
t-79 -147.5t37 -148.5t131 -60.5t146.5 60.5t77.5 148.5t-35 147.5t-129.5 59.5z" />
    <glyph glyph-name="ohungarumlaut" unicode="&#x151;" horiz-adv-x="637" 
d="M465 721l-108 -123h-126l110 171zM659 721l-108 -123h-126l110 171zM398 545q132 0 202 -75.5t52 -199.5t-110 -200t-224 -76q-133 0 -203 76t-52 200t110 199.5t225 75.5zM378 408q-36 0 -66 -17.5t-49.5 -49.5t-25.5 -73q-9 -63 18.5 -101.5t81.5 -38.5t93 38.5
t48 101.5q9 62 -19 101t-81 39z" />
    <glyph glyph-name="OE" unicode="&#x152;" horiz-adv-x="1113" 
d="M1088 140l-20 -140h-667q-106 0 -185.5 45t-117.5 125.5t-24 178.5q22 150 144 251t284 101h657l-20 -141h-371l-20 -139h334l-20 -139h-334l-21 -142h381zM530 144l59 410h-107q-84 0 -148.5 -59t-77.5 -147t35 -146.5t132 -58.5z" />
    <glyph glyph-name="oe" unicode="&#x153;" horiz-adv-x="1019" 
d="M794 545q134 0 197.5 -85.5t35.5 -227.5h-391q4 -52 34.5 -80.5t81.5 -28.5q74 0 139 55l78 -89q-103 -95 -251 -95q-132 0 -185 90q-82 -90 -215 -90t-203 76t-52 200t110 199.5t225 75.5q134 0 189 -91q78 91 207 91zM647 315h220q8 50 -17 82t-72 32q-45 0 -80 -31.5
t-51 -82.5zM337 128q54 0 93 38.5t48 101.5q9 62 -19 101t-81 39q-36 0 -66 -17.5t-49.5 -49.5t-25.5 -73q-9 -63 18.5 -101.5t81.5 -38.5z" />
    <glyph glyph-name="Racute" unicode="&#x154;" horiz-adv-x="724" 
d="M519 761h-132l130 168l148 -55zM492 0l-76 197h-5h-135l-28 -197h-178l101 700h313q139 0 206 -63.5t50 -180.5q-24 -161 -160 -225l114 -231h-202zM297 337h135q58 0 94 29t44 84q5 36 -6 61t-36.5 37t-63.5 12h-135z" />
    <glyph glyph-name="racute" unicode="&#x155;" horiz-adv-x="427" 
d="M356 600h-132l131 168l148 -55zM320 539l-13 -91q71 97 189 99l-23 -156q-73 7 -124.5 -24.5t-66.5 -89.5l-40 -277h-173l78 539h173z" />
    <glyph glyph-name="Rcommaaccent" unicode="&#x156;" horiz-adv-x="724" 
d="M694 0h-202l-76 197h-5h-135l-28 -197h-178l101 700h313q139 0 206 -63.5t50 -180.5q-24 -161 -160 -225zM297 337h135q58 0 94 29t44 84q5 36 -6 61t-36.5 37t-63.5 12h-135zM360 -41q35 0 55.5 -22t14.5 -60q-5 -34 -31 -66l-89 -106h-82l61 106q-30 23 -24 65
q5 37 32 60t63 23z" />
    <glyph glyph-name="rcommaaccent" unicode="&#x157;" horiz-adv-x="427" 
d="M320 539l-13 -91q71 97 189 99l-23 -156q-73 7 -124.5 -24.5t-66.5 -89.5l-40 -277h-173l78 539h173zM151 -41q35 0 55.5 -22t14.5 -60q-5 -34 -31 -66l-89 -106h-82l61 106q-30 23 -24 65q5 37 32 60t63 23z" />
    <glyph glyph-name="Rcaron" unicode="&#x158;" horiz-adv-x="724" 
d="M393 758l-97 164h135l48 -92l74 92h135l-145 -164h-150zM492 0l-76 197h-5h-135l-28 -197h-178l101 700h313q139 0 206 -63.5t50 -180.5q-24 -161 -160 -225l114 -231h-202zM297 337h135q58 0 94 29t44 84q5 36 -6 61t-36.5 37t-63.5 12h-135z" />
    <glyph glyph-name="rcaron" unicode="&#x159;" horiz-adv-x="427" 
d="M231 597l-97 164h135l47 -92l75 92h135l-145 -164h-150zM320 539l-13 -91q71 97 189 99l-23 -156q-73 7 -124.5 -24.5t-66.5 -89.5l-40 -277h-173l78 539h173z" />
    <glyph glyph-name="Sacute" unicode="&#x15a;" horiz-adv-x="644" 
d="M641 874l-146 -113h-132l130 168zM441 708q75 0 145 -21t120 -57l-87 -139q-51 32 -111 52.5t-103 20.5q-23 0 -41 -5.5t-29.5 -17t-13.5 -28.5q-4 -24 14 -41.5t49 -28t69 -21t75.5 -26.5t67 -38t44 -60.5t7.5 -89.5q-15 -101 -102 -157.5t-209 -56.5q-87 0 -167.5 30
t-136.5 82l89 137q46 -46 114 -75.5t124 -29.5q43 0 69 15.5t31 45.5q3 25 -15 42.5t-49 28t-69 20.5t-75 25t-67 36t-45 58.5t-7 87.5q14 96 98.5 153.5t210.5 57.5z" />
    <glyph glyph-name="sacute" unicode="&#x15b;" horiz-adv-x="513" 
d="M544 713l-147 -113h-132l131 168zM341 547q119 0 213 -61l-75 -112q-93 54 -162 54q-53 0 -59 -37q-2 -15 12 -26t38 -18.5t53 -16t57.5 -21t51 -30t33.5 -47t6 -67.5q-12 -81 -81.5 -126.5t-170.5 -45.5q-143 0 -231 76l71 110q85 -67 181 -67q27 0 44.5 9.5t19.5 27.5
q3 16 -11 27.5t-37.5 19.5t-52 16t-56 20.5t-50 29.5t-33.5 46.5t-5 67.5q12 81 79.5 126t164.5 45z" />
    <glyph glyph-name="Scedilla" unicode="&#x15e;" horiz-adv-x="644" 
d="M647 208q-13 -88 -81 -142.5t-168 -67.5l-32 -49q30 -8 45 -29.5t11 -51.5q-7 -47 -45.5 -75t-94.5 -28q-49 0 -90 31l42 71q19 -20 46 -20q13 0 23 5t16.5 13.5t8 18.5t-2.5 18t-14 13t-25 5q-12 0 -36 -4l49 79q-77 7 -147.5 36t-119.5 75l89 137q46 -46 114 -75.5
t124 -29.5q43 0 69 15.5t31 45.5q3 25 -15 42.5t-49 28t-69 20.5t-75 25t-67 36t-45 58.5t-7 87.5q14 96 98.5 153.5t210.5 57.5q75 0 145 -21t120 -57l-87 -139q-51 32 -111 52.5t-103 20.5q-23 0 -41 -5.5t-29.5 -17t-13.5 -28.5q-4 -24 14 -41.5t49 -28t69 -21
t75.5 -26.5t67 -38t44 -60.5t7.5 -89.5z" />
    <glyph glyph-name="scedilla" unicode="&#x15f;" horiz-adv-x="513" 
d="M258 391q-2 -15 12 -26t38 -18.5t53 -16t57.5 -21t51 -30t33.5 -47t6 -67.5q-10 -67 -60 -110t-127 -57l-32 -49q30 -8 45 -29.5t11 -51.5q-7 -47 -45.5 -75t-94.5 -28q-49 0 -90 31l42 71q19 -20 46 -20q13 0 23 5t16.5 13.5t8 18.5t-2.5 18t-14 13t-25 5q-12 0 -36 -4
l49 78q-122 9 -197 75l71 110q85 -67 181 -67q27 0 44.5 9.5t19.5 27.5q3 16 -11 27.5t-37.5 19.5t-52 16t-56 20.5t-50 29.5t-33.5 46.5t-5 67.5q12 81 79.5 126t164.5 45q119 0 213 -61l-75 -112q-93 54 -162 54q-53 0 -59 -37z" />
    <glyph glyph-name="Scaron" unicode="&#x160;" horiz-adv-x="644" 
d="M272 922h135l48 -92l74 92h135l-145 -164h-150zM441 708q75 0 145 -21t120 -57l-87 -139q-51 32 -111 52.5t-103 20.5q-23 0 -41 -5.5t-29.5 -17t-13.5 -28.5q-4 -24 14 -41.5t49 -28t69 -21t75.5 -26.5t67 -38t44 -60.5t7.5 -89.5q-15 -101 -102 -157.5t-209 -56.5
q-87 0 -167.5 30t-136.5 82l89 137q46 -46 114 -75.5t124 -29.5q43 0 69 15.5t31 45.5q3 25 -15 42.5t-49 28t-69 20.5t-75 25t-67 36t-45 58.5t-7 87.5q14 96 98.5 153.5t210.5 57.5z" />
    <glyph glyph-name="scaron" unicode="&#x161;" horiz-adv-x="513" 
d="M176 761h135l47 -92l75 92h135l-145 -164h-150zM341 547q119 0 213 -61l-75 -112q-93 54 -162 54q-53 0 -59 -37q-2 -15 12 -26t38 -18.5t53 -16t57.5 -21t51 -30t33.5 -47t6 -67.5q-12 -81 -81.5 -126.5t-170.5 -45.5q-143 0 -231 76l71 110q85 -67 181 -67
q27 0 44.5 9.5t19.5 27.5q3 16 -11 27.5t-37.5 19.5t-52 16t-56 20.5t-50 29.5t-33.5 46.5t-5 67.5q12 81 79.5 126t164.5 45z" />
    <glyph glyph-name="Tcedilla" unicode="&#x162;" horiz-adv-x="611" 
d="M361 0l-33 -51q30 -8 45 -29.5t11 -51.5q-7 -47 -45.5 -75t-94.5 -28q-49 0 -90 31l42 71q19 -20 46 -20q13 0 23 5t16.5 13.5t8 18.5t-2.5 18t-14 13t-25 5q-12 0 -36 -4l52 84h-48l80 557h-209l21 144h598l-21 -144h-211l-80 -557h-33z" />
    <glyph glyph-name="tcedilla" unicode="&#x163;" horiz-adv-x="435" 
d="M325 -3l-31 -48q30 -8 45 -29.5t11 -51.5q-7 -47 -45.5 -75t-94.5 -28q-49 0 -90 31l42 71q19 -20 46 -20q13 0 23 5t16.5 13.5t8 18.5t-2.5 18t-14 13t-25 5q-12 0 -36 -4l49 80q-60 12 -90 55t-20 112l35 238h-75l16 113h75l22 150h172l-22 -149h141l-16 -114h-141
l-31 -211q-8 -61 42 -59q24 0 69 18l17 -120q-46 -25 -96 -32z" />
    <glyph glyph-name="Tcaron" unicode="&#x164;" horiz-adv-x="611" 
d="M250 922h135l48 -92l74 92h135l-145 -164h-150zM685 557h-211l-80 -557h-178l80 557h-209l21 144h598z" />
    <glyph glyph-name="tcaron" unicode="&#x165;" horiz-adv-x="428" 
d="M522 833q35 0 55.5 -22t14.5 -60q-4 -32 -31 -66l-89 -106h-82l61 107q-30 22 -24 65q5 36 32 59t63 23zM335 131q24 0 69 18l17 -120q-68 -37 -149 -37t-123.5 44.5t-31.5 126.5l35 238h-75l16 113h75l22 150h172l-22 -149h141l-16 -114h-141l-31 -211q-8 -61 42 -59z
" />
    <glyph glyph-name="Umacron" unicode="&#x16a;" horiz-adv-x="758" 
d="M632 793h-278l17 116h278zM801 700l-59 -406q-20 -139 -117.5 -220.5t-244.5 -81.5q-148 0 -224 81.5t-56 220.5l59 406h178l-59 -406q-10 -70 25 -111.5t99 -41.5t108.5 41t54.5 112l59 406h177z" />
    <glyph glyph-name="umacron" unicode="&#x16b;" horiz-adv-x="663" 
d="M557 632h-278l17 116h278zM672 539l-78 -539h-173l13 89q-70 -96 -189 -96q-88 0 -132.5 56t-30.5 150l49 340h173l-42 -291q-7 -48 13 -75.5t62 -27.5q32 0 58.5 17t43 45.5t21.5 65.5l39 266h173z" />
    <glyph glyph-name="Uring" unicode="&#x16e;" horiz-adv-x="758" 
d="M519.5 975q50.5 0 80.5 -35t23 -85t-47.5 -85t-90.5 -35t-80.5 35t-23.5 85t47.5 85t91 35zM510 907q-15 0 -28 -7t-22 -19t-11 -26t3.5 -26t16.5 -19t26 -7q22 0 39.5 15t20.5 37q3 21 -10.5 36.5t-34.5 15.5zM801 700l-59 -406q-20 -139 -117.5 -220.5t-244.5 -81.5
q-148 0 -224 81.5t-56 220.5l59 406h178l-59 -406q-10 -70 25 -111.5t99 -41.5t108.5 41t54.5 112l59 406h177z" />
    <glyph glyph-name="uring" unicode="&#x16f;" horiz-adv-x="663" 
d="M410 574q-50 0 -80.5 35t-23.5 85t47.5 85t90.5 35t80.5 -35t23.5 -85t-47.5 -85t-90.5 -35zM434.5 746q-21.5 0 -39.5 -15.5t-21 -36.5q-3 -22 10.5 -37t35 -15t39.5 15t21 37q3 21 -10.5 36.5t-35 15.5zM672 539l-78 -539h-173l13 89q-70 -96 -189 -96q-88 0 -132.5 56
t-30.5 150l49 340h173l-42 -291q-7 -48 13 -75.5t62 -27.5q32 0 58.5 17t43 45.5t21.5 65.5l39 266h173z" />
    <glyph glyph-name="Uhungarumlaut" unicode="&#x170;" horiz-adv-x="758" 
d="M549 883l-107 -123h-126l109 171zM743 883l-107 -123h-126l109 171zM801 700l-59 -406q-20 -139 -117.5 -220.5t-244.5 -81.5q-148 0 -224 81.5t-56 220.5l59 406h178l-59 -406q-10 -70 25 -111.5t99 -41.5t108.5 41t54.5 112l59 406h177z" />
    <glyph glyph-name="uhungarumlaut" unicode="&#x171;" horiz-adv-x="663" 
d="M365 599h-126l110 171l124 -48zM433 599l110 171l124 -48l-108 -123h-126zM672 539l-78 -539h-173l13 89q-70 -96 -189 -96q-88 0 -132.5 56t-30.5 150l49 340h173l-42 -291q-7 -48 13 -75.5t62 -27.5q32 0 58.5 17t43 45.5t21.5 65.5l39 266h173z" />
    <glyph glyph-name="Uogonek" unicode="&#x172;" horiz-adv-x="759" 
d="M802 701l-59 -407q-10 -70 -41.5 -127.5t-81 -97t-114.5 -59.5q-60 -73 -64 -102q-4 -24 17 -24q22 0 48 31l36 -51q-48 -67 -117 -67q-35 0 -58.5 20t-17.5 63q7 50 59 113l-29 -1q-148 0 -224 81.5t-56 220.5l59 407h177l-59 -407q-10 -70 25 -111.5t100 -41.5
q64 0 108.5 41t54.5 112l59 407h178z" />
    <glyph glyph-name="uogonek" unicode="&#x173;" horiz-adv-x="660" 
d="M598 0h-42q-53 -62 -57 -92q-4 -24 18 -24t48 31l36 -51q-23 -32 -54 -49.5t-63 -17.5q-35 0 -58.5 20t-17.5 63q7 50 64 120h-46l13 89q-70 -96 -191 -96q-89 0 -134 56t-31 150l49 340h172l-42 -291q-7 -48 14 -75.5t65 -27.5q46 1 79 33t44 84l40 277h172z" />
    <glyph glyph-name="Wcircumflex" unicode="&#x174;" horiz-adv-x="1081" 
d="M807 771h-124l-46 85l-70 -85h-124l135 151h138zM857 0h-183l-60 484l-202 -484h-184l-128 700h190l63 -515l208 515h174l63 -515l209 515h182z" />
    <glyph glyph-name="wcircumflex" unicode="&#x175;" horiz-adv-x="937" 
d="M739 610h-124l-46 85l-70 -85h-124l135 151h138zM747 0h-171l-57 342l-155 -342h-172l-119 539h176l57 -373l162 373h165l57 -373l163 373h169z" />
    <glyph glyph-name="Ycircumflex" unicode="&#x176;" horiz-adv-x="680" 
d="M393 771h-124l135 151h138l91 -151h-124l-46 85zM464 226l-33 -226h-177l32 221l-190 479h178l125 -305l209 305h178z" />
    <glyph glyph-name="ycircumflex" unicode="&#x177;" horiz-adv-x="580" 
d="M561 610h-124l-46 85l-70 -85h-124l135 151h138zM665 539l-319 -595q-81 -146 -229 -146q-86 0 -149 55l89 118q32 -29 67 -29q46 0 73 43l17 27l-148 527h178l80 -358l169 358h172z" />
    <glyph glyph-name="Ydieresis" unicode="&#x178;" horiz-adv-x="680" 
d="M356 775q-34 0 -53 21.5t-14 55.5t30 56t59 22t53 -22t14 -56t-30 -55.5t-59 -21.5zM549 775q-34 0 -53 21.5t-14 55.5t30 56t59 22t53 -22t14 -56t-30 -55.5t-59 -21.5zM464 226l-33 -226h-177l32 221l-190 479h178l125 -305l209 305h178z" />
    <glyph glyph-name="Zacute" unicode="&#x179;" horiz-adv-x="675" 
d="M654 874l-146 -113h-132l130 168zM724 586l-438 -445h380l-20 -141h-618l16 114l440 445h-362l20 141h599z" />
    <glyph glyph-name="zacute" unicode="&#x17a;" horiz-adv-x="553" 
d="M555 713l-147 -113h-132l131 168zM578 435l-308 -305h273l-19 -130h-490l15 104l309 305h-255l19 130h471z" />
    <glyph glyph-name="Zdotaccent" unicode="&#x17b;" horiz-adv-x="675" 
d="M489.5 946q39.5 0 61.5 -25.5t16 -65.5t-35 -66t-69 -26t-62 26t-16 66t35.5 65.5t69 25.5zM724 586l-438 -445h380l-20 -141h-618l16 114l440 445h-362l20 141h599z" />
    <glyph glyph-name="zdotaccent" unicode="&#x17c;" horiz-adv-x="553" 
d="M390 785q40 0 62 -25.5t16 -65.5t-35 -66t-69 -26t-62 26t-16 66t35 65.5t69 25.5zM578 435l-308 -305h273l-19 -130h-490l15 104l309 305h-255l19 130h471z" />
    <glyph glyph-name="Zcaron" unicode="&#x17d;" horiz-adv-x="675" 
d="M285 922h135l48 -92l74 92h135l-145 -164h-150zM724 586l-438 -445h380l-20 -141h-618l16 114l440 445h-362l20 141h599z" />
    <glyph glyph-name="zcaron" unicode="&#x17e;" horiz-adv-x="553" 
d="M186 760h135l47 -92l75 92h135l-145 -164h-150zM578 435l-308 -305h273l-19 -130h-490l15 104l309 305h-255l19 130h471z" />
    <glyph glyph-name="florin" unicode="&#x192;" horiz-adv-x="410" 
d="M453 618q-15 0 -28.5 -4.5t-24.5 -13.5t-19 -21.5t-12 -28.5l-22 -84h122l-30 -111h-122l-100 -379q-23 -82 -86 -130.5t-151 -47.5q-33 1 -65.5 11.5t-50.5 27.5l61 119q23 -23 54 -23q27 -1 45.5 17.5t26.5 50.5l95 354h-73l30 111h73l29 109q21 81 87 129.5t153 47.5
q40 0 78.5 -10.5t63.5 -28.5l-75 -118q-25 21 -59 23z" />
    <glyph glyph-name="Scommaaccent" unicode="&#x218;" horiz-adv-x="644" 
d="M321 513q-4 -24 14 -41.5t49 -28t69 -21t75.5 -26.5t67 -38t44 -60.5t7.5 -89.5q-15 -101 -102 -157.5t-209 -56.5q-87 0 -167.5 30t-136.5 82l89 137q46 -46 114 -75.5t124 -29.5q43 0 69 15.5t31 45.5q3 25 -15 42.5t-49 28t-69 20.5t-75 25t-67 36t-45 58.5t-7 87.5
q14 96 98.5 153.5t210.5 57.5q75 0 145 -21t120 -57l-87 -139q-51 32 -111 52.5t-103 20.5q-23 0 -41 -5.5t-29.5 -17t-13.5 -28.5zM332 -41q35 0 55.5 -22t14.5 -60q-5 -34 -31 -66l-89 -106h-82l61 106q-30 23 -24 65q5 37 32 60t63 23z" />
    <glyph glyph-name="scommaaccent" unicode="&#x219;" horiz-adv-x="513" 
d="M258 391q-2 -15 12 -26t38 -18.5t53 -16t57.5 -21t51 -30t33.5 -47t6 -67.5q-12 -81 -81.5 -126.5t-170.5 -45.5q-143 0 -231 76l71 110q85 -67 181 -67q27 0 44.5 9.5t19.5 27.5q3 16 -11 27.5t-37.5 19.5t-52 16t-56 20.5t-50 29.5t-33.5 46.5t-5 67.5q12 81 79.5 126
t164.5 45q119 0 213 -61l-75 -112q-93 54 -162 54q-53 0 -59 -37zM256 -41q35 0 55.5 -22t14.5 -60q-5 -34 -31 -66l-89 -106h-82l61 106q-30 23 -24 65q5 37 32 60t63 23z" />
    <glyph glyph-name="Tcommaaccent" unicode="&#x21a;" horiz-adv-x="611" 
d="M706 701l-21 -144h-211l-80 -557h-178l80 557h-209l21 144h598zM294 -41q35 0 55.5 -22t14.5 -60q-5 -34 -31 -66l-89 -106h-82l61 106q-30 23 -24 65q5 37 32 60t63 23z" />
    <glyph glyph-name="tcommaaccent" unicode="&#x21b;" horiz-adv-x="435" 
d="M404 149l17 -120q-68 -37 -149 -37t-123.5 44.5t-31.5 126.5l35 238h-75l16 113h75l22 150h172l-22 -149h141l-16 -114h-141l-31 -211q-8 -61 42 -59q24 0 69 18zM259 -41q35 0 55.5 -22t14.5 -60q-5 -34 -31 -66l-89 -106h-82l61 106q-30 23 -24 65q5 37 32 60t63 23z
" />
    <glyph glyph-name="dotlessj" unicode="&#x237;" horiz-adv-x="308" 
d="M322 539l-81 -559q-12 -85 -70.5 -133.5t-146.5 -47.5q-82 2 -138 35l57 119q31 -19 61 -19q57 -2 68 71l77 534h173z" />
    <glyph glyph-name="circumflex" unicode="&#x2c6;" 
d="M445 611h-124l-46 85l-70 -85h-124l135 151h138z" />
    <glyph glyph-name="caron" unicode="&#x2c7;" 
d="M89 762h135l48 -92l74 92h135l-145 -164h-150z" />
    <glyph glyph-name="firsttonechinese" unicode="&#x2c9;" 
d="M405 632h-278l17 116h278z" />
    <glyph glyph-name="breve" unicode="&#x2d8;" 
d="M340 759h108q-14 -72 -65 -115t-121.5 -43t-109 43t-32.5 115h108q-1 -26 12 -42t36 -16q15 0 28.5 7.5t22.5 20.5t13 30z" />
    <glyph glyph-name="dotaccent" unicode="&#x2d9;" 
d="M288 785q40 0 62 -25.5t16 -65.5t-35 -66t-69 -26q-26 0 -45.5 11.5t-28 32.5t-4.5 48q6 40 35 65.5t69 25.5z" />
    <glyph glyph-name="ring" unicode="&#x2da;" 
d="M292 814q50 0 80.5 -35t23.5 -85t-47.5 -85t-90.5 -35t-80.5 35t-23.5 85t47.5 85t90.5 35zM282.5 746q-21.5 0 -39.5 -15.5t-21 -36.5q-3 -22 10.5 -37t35 -15t39.5 15t21 37q3 21 -10.5 36.5t-35 15.5z" />
    <glyph glyph-name="ogonek" unicode="&#x2db;" 
d="M141 18h84q-69 -78 -73 -110q-1 -8 1 -13.5t6.5 -8t10.5 -2.5q22 0 48 31l36 -51q-48 -67 -117 -67q-35 0 -58.5 20t-17.5 63q8 57 80 138z" />
    <glyph glyph-name="tilde" unicode="&#x2dc;" 
d="M214 777q25 0 46 -11.5t36 -23.5t26 -12q31 0 37 42h105q-22 -155 -126 -155q-26 0 -47 11.5t-36 23.5t-26 12q-30 0 -37 -43h-106q23 156 128 156z" />
    <glyph glyph-name="hungarumlaut" unicode="&#x2dd;" 
d="M290 723l-108 -123h-126l110 171zM484 723l-108 -123h-126l110 171z" />
    <glyph glyph-name="commaaccent" unicode="&#x326;" horiz-adv-x="0" 
d="M116 -41q35 0 55.5 -22t14.5 -60q-5 -34 -31 -66l-89 -106h-82l61 106q-30 23 -24 65q5 37 32 60t63 23z" />
    <glyph glyph-name="Delta" unicode="&#x394;" horiz-adv-x="770" 
d="M775 0h-780l403 700h183zM555 129l-97 394l-210 -394h307z" />
    <glyph glyph-name="pi" unicode="&#x3c0;" horiz-adv-x="729" 
d="M652 418l-60 -418h-143l60 418h-89l-105 -418h-142l104 418h-31q-30 0 -52 -17.5t-25 -45.5q-4 -30 12 -69l-125 -41q-27 69 -17 139q9 67 66.5 111t136.5 44h553l-17 -121h-126z" />
    <glyph glyph-name="Wgrave" unicode="&#x1e80;" horiz-adv-x="1081" 
d="M712 761h-132l-114 113l164 55zM857 0h-183l-60 484l-202 -484h-184l-128 700h190l63 -515l208 515h174l63 -515l209 515h182z" />
    <glyph glyph-name="wgrave" unicode="&#x1e81;" horiz-adv-x="937" 
d="M643 600h-132l-113 113l164 55zM747 0h-171l-57 342l-155 -342h-172l-119 539h176l57 -373l162 373h165l57 -373l163 373h169z" />
    <glyph glyph-name="Wacute" unicode="&#x1e82;" horiz-adv-x="1081" 
d="M816 874l-146 -113h-132l130 168zM857 0h-183l-60 484l-202 -484h-184l-128 700h190l63 -515l208 515h174l63 -515l209 515h182z" />
    <glyph glyph-name="wacute" unicode="&#x1e83;" horiz-adv-x="937" 
d="M747 713l-147 -113h-132l131 168zM747 0h-171l-57 342l-155 -342h-172l-119 539h176l57 -373l162 373h165l57 -373l163 373h169z" />
    <glyph glyph-name="Wdieresis" unicode="&#x1e84;" horiz-adv-x="1081" 
d="M552 930q34 0 53 -22t14 -56t-30 -55.5t-59 -21.5t-53 21.5t-14 55.5t30 56t59 22zM745 930q34 0 53 -22t14 -56t-30 -55.5t-59 -21.5q-23 0 -39 10t-23.5 27.5t-4.5 39.5q5 34 30 56t59 22zM857 0h-183l-60 484l-202 -484h-184l-128 700h190l63 -515l208 515h174
l63 -515l209 515h182z" />
    <glyph glyph-name="wdieresis" unicode="&#x1e85;" horiz-adv-x="937" 
d="M484 769q34 0 53 -22t14 -56t-30.5 -55.5t-59 -21.5t-52.5 21.5t-14 55.5t30 56t59 22zM677 769q34 0 53 -22t14 -56t-30.5 -55.5t-59 -21.5t-52.5 21.5t-14 55.5t30 56t59 22zM747 0h-171l-57 342l-155 -342h-172l-119 539h176l57 -373l162 373h165l57 -373l163 373h169
z" />
    <glyph glyph-name="Ygrave" unicode="&#x1ef2;" horiz-adv-x="680" 
d="M406 761l-114 113l164 55l82 -168h-132zM464 226l-33 -226h-177l32 221l-190 479h178l125 -305l209 305h178z" />
    <glyph glyph-name="ygrave" unicode="&#x1ef3;" horiz-adv-x="580" 
d="M464 600h-132l-113 113l164 55zM665 539l-319 -595q-81 -146 -229 -146q-86 0 -149 55l89 118q32 -29 67 -29q46 0 73 43l17 27l-148 527h178l80 -358l169 358h172z" />
    <glyph glyph-name="endash" unicode="&#x2013;" horiz-adv-x="407" 
d="M438 217h-407l16 109h407z" />
    <glyph glyph-name="emdash" unicode="&#x2014;" horiz-adv-x="648" 
d="M679 217h-648l16 109h648z" />
    <glyph glyph-name="quoteleft" unicode="&#x2018;" horiz-adv-x="241" 
d="M305 703l-59 -106q29 -23 23 -65q-6 -36 -32.5 -59t-62.5 -23q-35 0 -55.5 22t-14.5 60q4 32 31 66l88 105h82z" />
    <glyph glyph-name="quoteright" unicode="&#x2019;" horiz-adv-x="241" 
d="M223 701q34 0 55 -22t15 -60q-5 -34 -31 -66l-89 -106h-82l61 106q-30 23 -24 65q5 37 32 60t63 23z" />
    <glyph glyph-name="quotesinglbase" unicode="&#x201a;" horiz-adv-x="241" 
d="M145 158q34 0 54.5 -22t15.5 -60q-5 -32 -32 -66l-88 -106h-82l61 107q-30 22 -24 65q5 36 32 59t63 23z" />
    <glyph glyph-name="quotedblleft" unicode="&#x201c;" horiz-adv-x="394" 
d="M305 704l-60 -107q30 -22 24 -65q-6 -36 -32.5 -59t-62.5 -23q-35 0 -55.5 22t-14.5 60q4 32 31 66l88 106h82zM490 704l-60 -107q30 -22 24 -65q-6 -36 -32.5 -59t-62.5 -23q-35 0 -55.5 22t-14.5 60q4 32 31 66l88 106h82z" />
    <glyph glyph-name="quotedblright" unicode="&#x201d;" horiz-adv-x="412" 
d="M223 701q35 0 55.5 -22t14.5 -60q-4 -32 -31 -66l-89 -106h-82l61 107q-30 22 -24 65q5 36 32 59t63 23zM408 701q35 0 55.5 -22t14.5 -60q-4 -32 -31 -66l-89 -106h-82l61 107q-30 22 -24 65q5 36 32 59t63 23z" />
    <glyph glyph-name="quotedblbase" unicode="&#x201e;" horiz-adv-x="426" 
d="M145 158q34 0 54.5 -22t15.5 -60q-5 -32 -32 -66l-88 -106h-82l61 107q-30 22 -24 65q5 36 32 59t63 23zM330 158q34 0 54.5 -22t15.5 -60q-5 -32 -32 -66l-88 -106h-82l61 107q-30 22 -24 65q5 36 32 59t63 23z" />
    <glyph glyph-name="dagger" unicode="&#x2020;" horiz-adv-x="574" 
d="M440 494h187l-20 -140h-187l-78 -541h-170l78 541h-181l20 140h181l30 205h170z" />
    <glyph glyph-name="daggerdbl" unicode="&#x2021;" horiz-adv-x="574" 
d="M420 354l-26 -183h187l-21 -140h-187l-31 -218h-170l31 218h-181l21 140h181l26 183h-181l20 140h181l30 205h170l-30 -205h187l-20 -140h-187z" />
    <glyph glyph-name="bullet" unicode="&#x2022;" horiz-adv-x="327" 
d="M221 401q36 0 62.5 -16t38.5 -44.5t7 -64.5q-8 -56 -48.5 -91.5t-96.5 -35.5q-54 0 -84 35.5t-22 91.5q8 55 48 90t95 35z" />
    <glyph glyph-name="ellipsis" unicode="&#x2026;" horiz-adv-x="680" 
d="M141 156q36 0 56 -23t14.5 -59t-31.5 -59t-62 -23q-35 0 -55 23t-14 59q3 24 16 42.5t33 29t43 10.5zM361 156q36 0 56 -23t14.5 -59t-31.5 -59t-62 -23q-35 0 -55 23t-14 59q3 24 16 42.5t33 29t43 10.5zM581 156q36 0 56 -23t14.5 -59t-31.5 -59t-62 -23q-35 0 -55 23
t-14 59q3 24 16 42.5t33 29t43 10.5z" />
    <glyph glyph-name="perthousand" unicode="&#x2030;" horiz-adv-x="1476" 
d="M328 703q90 0 134.5 -57t30.5 -154q-9 -65 -40 -113t-78.5 -73.5t-107.5 -25.5q-90 0 -134.5 57t-30.5 155q14 97 75 154t151 57zM178 0l601 701h162l-601 -701h-162zM315 611q-40 0 -67 -31.5t-35 -87.5t10 -87.5t58 -31.5q26 0 47.5 14.5t35.5 41t19 63.5
q8 56 -10 87.5t-58 31.5zM858 420q90 0 134 -57t30 -154q-14 -98 -75 -155.5t-151 -57.5t-134.5 57.5t-30.5 155.5q7 48 26.5 87.5t49 66.5t68 42t83.5 15zM1310.5 420q90.5 0 134.5 -57t30 -154q-14 -98 -75 -155.5t-151 -57.5t-134.5 57.5t-30.5 155.5q14 97 75 154
t151.5 57zM844.5 328q-39.5 0 -67 -31.5t-35.5 -87.5q-5 -37 1 -64t23 -41.5t44 -14.5q40 0 67 32t35 88t-10 87.5t-57.5 31.5zM1297.5 328q-39.5 0 -67 -31.5t-35.5 -87.5t10 -88t58 -32t67 32t35 88t-10 87.5t-57.5 31.5z" />
    <glyph glyph-name="guilsinglleft" unicode="&#x2039;" horiz-adv-x="281" 
d="M194 266l80 -184h-140l-94 184l147 184h140z" />
    <glyph glyph-name="guilsinglright" unicode="&#x203a;" horiz-adv-x="286" 
d="M180 266l-80 184h140l93 -184l-146 -184h-140z" />
    <glyph glyph-name="fraction" unicode="&#x2044;" horiz-adv-x="117" 
d="M-275 0l601 701h162l-601 -701h-162z" />
    <glyph glyph-name="Euro" unicode="&#x20ac;" horiz-adv-x="782" 
d="M700 230l98 -110q-65 -58 -147.5 -93t-160.5 -35q-125 0 -210.5 68t-104.5 179h-102l11 75h87q-11 13 -7 38q2 13 7 35h-87l11 75h102q51 110 157.5 177t235.5 67q77 0 148.5 -32t115.5 -86l-120 -122q-29 42 -73 66.5t-91 24.5q-35 0 -69 -11.5t-62 -33t-48 -50.5h226
l-11 -75h-253q-5 -22 -7 -33q-3 -21 -3 -40h252l-11 -75h-223q10 -21 25 -38t34 -28.5t42.5 -18t48.5 -6.5q23 0 47.5 6t48.5 16.5t48 25.5t45 34z" />
    <glyph glyph-name="literSign" unicode="&#x2113;" horiz-adv-x="473" 
d="M425 709q57 0 84 -35.5t18 -99.5q-7 -43 -29.5 -87.5t-49 -78.5t-68.5 -72.5t-70.5 -61.5t-70.5 -54q-35 -112 37 -112q57 0 133 79l42 -61q-103 -132 -229 -132q-132 0 -121 152l-51 -30l-14 71l91 58l74 240q36 112 95.5 168t128.5 56zM408 619q-45 0 -83 -119
l-49 -157q58 51 102.5 112t52.5 116q7 48 -23 48z" />
    <glyph glyph-name="trademark" unicode="&#x2122;" horiz-adv-x="904" 
d="M426 600h-112l-46 -320h-125l46 320h-111l15 101h348zM903 280h-112l36 245l-116 -204h-84l-56 204l-36 -245h-112l61 421h137l70 -231l136 231h137z" />
    <glyph glyph-name="Omega" unicode="&#x2126;" horiz-adv-x="856" 
d="M530 709q156 0 244.5 -93t68.5 -235q-6 -42 -27 -87.5t-53 -86t-69 -68.5h175l-20 -139h-349l19 129q62 37 108.5 104.5t56.5 132.5q12 86 -37.5 142t-137.5 56t-153 -56t-77 -142q-6 -43 4 -88.5t34.5 -85t57.5 -64.5l-18 -128h-350l20 139h176q-44 42 -66.5 110
t-13.5 132q20 142 135.5 235t271.5 93z" />
    <glyph glyph-name="estimated" unicode="&#x212e;" horiz-adv-x="809" 
d="M785 312h-543q-5 0 -6 -4l-23 -164q-2 -9 5 -19q22 -28 51 -47.5t65.5 -30.5t76.5 -11q63 0 123.5 26.5t105.5 72.5h49q-53 -54 -128 -85.5t-153 -31.5q-91 0 -162.5 40.5t-106.5 109.5t-23 151t67 151.5t137.5 110t174 40.5t162.5 -40.5t106 -110t23 -151.5zM666 333
l24 165q1 11 -6 20q-35 40 -84 62.5t-107 22.5q-120 0 -218 -88q-10 -9 -12 -20l-23 -162q-1 -5 4 -5h416q5 0 6 5z" />
    <glyph glyph-name="oneeighth" unicode="&#x215b;" horiz-adv-x="895" 
d="M67 0l601 701h162l-601 -701h-162zM130 283l46 324h-79l14 93h201l-60 -417h-122zM747 422q73 0 112 -31t31 -83q-3 -25 -20.5 -48t-43.5 -37q33 -14 49 -42.5t11 -62.5q-8 -57 -62 -90t-138 -33q-83 0 -127.5 33t-36.5 88q5 35 31 64t65 43q-24 15 -36.5 39t-8.5 50
q7 50 54.5 80t119.5 30zM737 345q-57 0 -63 -43q-3 -20 10 -31t40 -11q57 0 64 42q2 14 -3.5 23.5t-17.5 14.5t-30 5zM712 176q-67 0 -74 -48q-3 -24 12.5 -36t48.5 -12q67 0 73 48q4 23 -11.5 35.5t-48.5 12.5z" />
    <glyph glyph-name="threeeighths" unicode="&#x215c;" horiz-adv-x="954" 
d="M127 0l601 701h162l-601 -701h-162zM294 533l19 -4q46 -8 70.5 -37.5t17.5 -76.5q-9 -61 -60.5 -99t-128.5 -38q-46 0 -89.5 14.5t-69.5 37.5l61 89q41 -54 101 -54q28 0 45.5 13t21 36t-10.5 35t-44 12h-72l9 61l107 92h-157l13 85h295l-10 -67zM806 422q73 0 112 -31
t31 -83q-3 -25 -20.5 -48t-43.5 -37q33 -14 49 -42.5t11 -62.5q-8 -57 -62 -90t-138 -33q-83 0 -127.5 33t-36.5 88q5 35 31 64t65 43q-24 15 -36.5 39t-8.5 50q7 50 54.5 80t119.5 30zM796 345q-57 0 -63 -43q-3 -20 10 -31t40 -11q57 0 64 42q2 14 -3.5 23.5t-17.5 14.5
t-30 5zM771 176q-67 0 -74 -48q-3 -24 12.5 -36t48.5 -12q67 0 73 48q4 23 -11.5 35.5t-48.5 12.5z" />
    <glyph glyph-name="fiveeighths" unicode="&#x215d;" horiz-adv-x="969" 
d="M142 0l601 701h162l-601 -701h-162zM250 610l-9 -65q16 2 33 2q76 0 116.5 -33.5t32.5 -89.5q-9 -66 -63 -106t-135 -40q-43 0 -88 14.5t-76 38.5l62 90q39 -55 101 -55q60 0 67 50q3 22 -10.5 33.5t-43.5 11.5q-81 0 -120 -3l35 242h292l-13 -90h-181zM821 422
q73 0 112 -31t31 -83q-3 -25 -20.5 -48t-43.5 -37q33 -14 49 -42.5t11 -62.5q-8 -57 -62 -90t-138 -33q-83 0 -127.5 33t-36.5 88q5 35 31 64t65 43q-24 15 -36.5 39t-8.5 50q7 50 54.5 80t119.5 30zM811 345q-57 0 -63 -43q-3 -20 10 -31t40 -11q57 0 64 42q2 14 -3.5 23.5
t-17.5 14.5t-30 5zM786 176q-67 0 -74 -48q-3 -24 12.5 -36t48.5 -12q67 0 73 48q4 23 -11.5 35.5t-48.5 12.5z" />
    <glyph glyph-name="seveneighths" unicode="&#x215e;" horiz-adv-x="941" 
d="M113 0l601 701h162l-601 -701h-162zM256 283h-128l199 327h-105l-9 -59h-107l22 149h346l-12 -79zM793 422q73 0 112 -31t31 -83q-1 -13 -6.5 -25t-14 -23t-19.5 -20.5t-24 -16.5q33 -14 49 -42.5t11 -62.5q-8 -57 -62 -90t-138 -33q-83 0 -127.5 33t-36.5 88q5 35 31 64
t65 43q-24 15 -36.5 39t-8.5 50q7 50 54.5 80t119.5 30zM783 345q-57 0 -63 -43q-3 -20 10 -31t40 -11q57 0 64 42q2 14 -3.5 23.5t-17.5 14.5t-30 5zM758 176q-67 0 -74 -48q-3 -24 12.5 -36t48.5 -12q67 0 73 48q4 23 -11.5 35.5t-48.5 12.5z" />
    <glyph glyph-name="partialdiff" unicode="&#x2202;" horiz-adv-x="632" 
d="M377 708q144 0 216 -98.5t48 -262.5q-24 -165 -118 -260t-235 -95q-118 0 -180 65.5t-46 175.5q14 103 86.5 165t177.5 62q58 0 95.5 -23.5t52.5 -63.5q18 95 -15 146t-113 51q-89 0 -163 -55l-50 126q52 31 117.5 49t126.5 18zM341 330q-49 0 -78.5 -25t-35.5 -71
q-7 -48 16.5 -73.5t71.5 -25.5q52 0 82.5 27.5t36.5 69.5q7 44 -18 71t-75 27z" />
    <glyph glyph-name="product" unicode="&#x220f;" horiz-adv-x="742" 
d="M644 -194h-173l115 800h-256l-115 -800h-173l135 936h602z" />
    <glyph glyph-name="summation" unicode="&#x2211;" horiz-adv-x="616" 
d="M686 596h-357l195 -293l-280 -292h368l-22 -149h-583l18 124l310 317l-208 315l18 126h562z" />
    <glyph glyph-name="minus" unicode="&#x2212;" horiz-adv-x="510" 
d="M516 272h-444l16 109h444z" />
    <glyph glyph-name="divisionslash" unicode="&#x2215;" horiz-adv-x="353" 
d="M93 -111h-145l456 922h145z" />
    <glyph glyph-name="bulletoperator" unicode="&#x2219;" horiz-adv-x="327" 
d="M221 401q36 0 62.5 -16t38.5 -44.5t7 -64.5q-8 -56 -48.5 -91.5t-96.5 -35.5q-54 0 -84 35.5t-22 91.5q8 55 48 90t95 35z" />
    <glyph glyph-name="radical" unicode="&#x221a;" horiz-adv-x="708" 
d="M305 408l55 -393l302 731h166l-402 -903h-184l-75 430h-126l20 135h244z" />
    <glyph glyph-name="infinity" unicode="&#x221e;" horiz-adv-x="854" 
d="M699 513q88 0 138 -60.5t36 -152.5q-13 -93 -80 -154t-156 -61q-68 0 -109 32.5t-70 90.5q-17 -22 -32.5 -38.5t-36.5 -33t-42.5 -27.5t-49 -17.5t-57.5 -6.5q-88 0 -137 61t-36 153t80 153t155 61q69 0 109.5 -32.5t69.5 -90.5q47 58 97 90.5t121 32.5zM257 201
q48 0 84 25.5t73 74.5q-15 30 -30.5 49t-40.5 33t-58 14q-37 0 -66 -28t-35 -70q-6 -43 14.5 -70.5t58.5 -27.5zM654 202q38 0 67 27.5t35 70.5q6 42 -15 69.5t-59 27.5q-47 0 -83 -25.5t-73 -73.5q23 -46 52.5 -71t75.5 -25z" />
    <glyph glyph-name="integral" unicode="&#x222b;" horiz-adv-x="390" 
d="M522 829l-33 -110q-28 11 -54 11q-43 0 -65 -24.5t-30 -83.5q-7 -46 -24.5 -253.5t-25.5 -261.5q-19 -133 -70 -189t-153 -56q-64 0 -103 26l37 110q36 -18 62 -18q45 0 68 26.5t32 88.5q7 54 23.5 259.5t22.5 252.5q19 132 70 188t153 56q41 0 90 -22z" />
    <glyph glyph-name="approxequal" unicode="&#x2248;" horiz-adv-x="510" 
d="M245 528q29 0 54.5 -12.5t44.5 -25t31 -12.5q33 0 40 46h115q-25 -170 -138 -170q-29 0 -54.5 12.5t-44 25t-31.5 12.5q-32 0 -38 -46h-116q24 170 137 170zM212 298q29 0 54.5 -12.5t44 -25t31.5 -12.5q33 0 39 46h115q-24 -170 -137 -170q-29 0 -54.5 12.5t-44 25
t-31.5 12.5q-32 0 -39 -46h-116q25 170 138 170z" />
    <glyph glyph-name="notequal" unicode="&#x2260;" horiz-adv-x="510" 
d="M387 380l-49 -106h178l-15 -109h-213l-66 -143h-130l66 143h-101l15 109h136l49 106h-169l15 109h204l63 137h130l-63 -137h110l-15 -109h-145z" />
    <glyph glyph-name="lessequal" unicode="&#x2264;" horiz-adv-x="510" 
d="M553 527l-351 -129l314 -128l-17 -117l-418 178l19 134l470 179zM477 2h-444l16 110h444z" />
    <glyph glyph-name="greaterequal" unicode="&#x2265;" horiz-adv-x="510" 
d="M72 277l352 129l-315 128l17 117l419 -179l-19 -133l-471 -179zM477 2h-444l16 110h444z" />
    <glyph glyph-name="lozenge" unicode="&#x25ca;" horiz-adv-x="508" 
d="M531 330l-280 -344l-178 344l278 341zM198 330l80 -155l128 155l-82 154z" />
    <glyph glyph-name="zero.dnom" horiz-adv-x="453" 
d="M288 420q90 0 134 -57t30 -154q-14 -98 -75 -155.5t-151 -57.5t-134.5 57.5t-30.5 155.5q9 64 40 112t79 73.5t108 25.5zM274.5 328q-39.5 0 -67 -31.5t-35.5 -87.5t10 -88t58 -32t67 32t35 88t-10 87.5t-57.5 31.5z" />
    <glyph glyph-name="one.dnom" horiz-adv-x="274" 
d="M89 0l47 324h-79l13 93h201l-60 -417h-122z" />
    <glyph glyph-name="two.dnom" horiz-adv-x="389" 
d="M262 422q66 0 104 -30.5t31 -80.5q-9 -59 -103 -139l-94 -82h176l-13 -90h-331l11 75l177 154q44 42 48 66q2 15 -8.5 23.5t-30.5 8.5q-52 0 -126 -53l-33 84q100 64 192 64z" />
    <glyph glyph-name="three.dnom" horiz-adv-x="365" 
d="M253 249l19 -3q46 -8 70.5 -38t17.5 -77q-9 -61 -60.5 -98.5t-128.5 -37.5q-46 0 -89.5 14t-69.5 38l62 89q40 -54 100 -54q28 0 46 13t21 36t-11 34.5t-43 11.5h-72l8 62l108 91h-157l12 85h295l-10 -66z" />
    <glyph glyph-name="four.dnom" horiz-adv-x="414" 
d="M255 171l12 89h113l-12 -89h58l-12 -84h-58l-13 -87h-113l13 87h-207l11 79l170 251h117l-162 -246h83z" />
    <glyph glyph-name="five.dnom" horiz-adv-x="387" 
d="M209 327l-9 -66q12 3 33 3q77 0 117 -33.5t32 -89.5q-9 -66 -63 -106t-135 -40q-43 0 -88 14.5t-76 38.5l62 90q40 -56 101 -56q60 0 67 51q3 22 -10.5 33.5t-42.5 11.5q-81 0 -121 -3l35 242h292l-13 -90h-181z" />
    <glyph glyph-name="six.dnom" horiz-adv-x="410" 
d="M298 422q82 0 139 -35l-59 -83q-32 27 -86 27q-49 0 -77 -25.5t-34 -74.5q37 44 107 44q63 0 96 -37t24 -99q-9 -66 -60 -105t-127 -39q-88 0 -131.5 55.5t-29.5 152.5q15 99 79.5 159t158.5 60zM246 190q-28 0 -45.5 -13.5t-20.5 -37.5q-2 -11 0.5 -20t8.5 -16
t16.5 -10.5t25.5 -3.5q57 0 64 52q4 23 -9 36t-40 13z" />
    <glyph glyph-name="seven.dnom" horiz-adv-x="388" 
d="M215 0h-128l199 327h-105l-9 -60h-107l22 150h346l-11 -80z" />
    <glyph glyph-name="eight.dnom" horiz-adv-x="416" 
d="M268 422q73 0 112 -31t31 -83q-3 -25 -20.5 -48t-43.5 -37q33 -14 49 -42.5t11 -62.5q-5 -38 -31.5 -65.5t-70 -42.5t-98.5 -15q-83 0 -127.5 33t-36.5 88q5 35 31 64t65 43q-24 15 -36.5 39t-8.5 50q7 50 54.5 80t119.5 30zM258 345q-57 0 -63 -43q-3 -20 10 -31t40 -11
q57 0 64 42q3 21 -10.5 32t-40.5 11zM233 176q-67 0 -74 -48q-3 -24 12.5 -36t48.5 -12q67 0 73 48q3 15 -3.5 26t-20.5 16.5t-36 5.5z" />
    <glyph glyph-name="nine.dnom" horiz-adv-x="412" 
d="M174 -5q-82 0 -139 35l58 82q35 -26 87 -26q99 0 111 100q-38 -45 -107 -45q-63 0 -96 37.5t-24 98.5q6 44 31 77t65 50.5t90 17.5q89 0 132 -56t29 -152q-15 -100 -79 -159.5t-158 -59.5zM225 227q19 0 33 6.5t22.5 17.5t10.5 27q3 23 -9.5 36.5t-40.5 13.5
q-57 0 -64 -52q-4 -23 8.5 -36t39.5 -13z" />
    <glyph glyph-name="zero.numr" horiz-adv-x="453" 
d="M328 703q90 0 134.5 -57t30.5 -154q-9 -65 -40 -113t-78.5 -73.5t-107.5 -25.5q-90 0 -134.5 57t-30.5 155q14 97 75 154t151 57zM315 611q-40 0 -67 -31.5t-35 -87.5t10 -87.5t58 -31.5q26 0 47.5 14.5t35.5 41t19 63.5q8 56 -10 87.5t-58 31.5z" />
    <glyph glyph-name="one.numr" horiz-adv-x="274" 
d="M130 283l46 324h-79l14 93h201l-60 -417h-122z" />
    <glyph glyph-name="two.numr" horiz-adv-x="389" 
d="M303 705q66 0 104 -30.5t31 -79.5q-9 -60 -103 -140l-94 -81h176l-13 -91h-331l11 75l177 155q44 40 47 65q3 16 -7.5 24t-30.5 8q-54 0 -126 -53l-34 84q101 64 193 64z" />
    <glyph glyph-name="three.numr" horiz-adv-x="365" 
d="M294 533l19 -4q46 -8 70.5 -37.5t17.5 -76.5q-9 -61 -60.5 -99t-128.5 -38q-46 0 -89.5 14.5t-69.5 37.5l61 89q41 -54 101 -54q28 0 45.5 13t21 36t-10.5 35t-44 12h-72l9 61l107 92h-157l13 85h295l-10 -67z" />
    <glyph glyph-name="four.numr" horiz-adv-x="414" 
d="M296 455l12 89h113l-12 -89h58l-13 -84h-58l-12 -88h-113l12 88h-207l12 78l170 251h117l-162 -245h83z" />
    <glyph glyph-name="five.numr" horiz-adv-x="387" 
d="M250 610l-9 -65q16 2 33 2q76 0 116.5 -33.5t32.5 -89.5q-9 -66 -63 -106t-135 -40q-43 0 -88 14.5t-76 38.5l62 90q39 -55 101 -55q60 0 67 50q3 22 -10.5 33.5t-43.5 11.5q-81 0 -120 -3l35 242h292l-13 -90h-181z" />
    <glyph glyph-name="six.numr" horiz-adv-x="410" 
d="M339 705q82 0 139 -35l-59 -82q-32 27 -86 27q-49 0 -77 -26t-34 -75q37 44 106 44q64 0 97 -37t24 -98q-10 -66 -61 -105.5t-126 -39.5q-88 0 -131.5 56t-29.5 152q6 39 20 73.5t36 61t49.5 45.5t61 29t71.5 10zM287 473q-28 0 -45.5 -13.5t-20.5 -37.5q-3 -22 9.5 -36
t41.5 -14q57 0 64 52q7 49 -49 49z" />
    <glyph glyph-name="seven.numr" horiz-adv-x="388" 
d="M256 283h-128l199 327h-105l-9 -59h-107l22 149h346l-12 -79z" />
    <glyph glyph-name="eight.numr" horiz-adv-x="416" 
d="M309 705q73 0 112 -31t31 -83q-3 -25 -20.5 -48t-43.5 -37q32 -14 48.5 -42t11.5 -62q-4 -28 -20.5 -51.5t-42 -39.5t-61 -24.5t-76.5 -8.5q-83 0 -127.5 33t-37.5 88q6 35 32 64t65 43q-16 10 -27 24t-16 31t-2 34q5 33 28 58t60.5 38.5t85.5 13.5zM298 628
q-57 0 -63 -43q-1 -10 1.5 -17.5t9 -13t17 -8t23.5 -2.5q57 0 63 41q3 21 -10 32t-41 11zM274 460q-32 0 -51 -12.5t-23 -35.5q-3 -24 12.5 -36.5t47.5 -12.5q67 0 74 48q4 23 -12 36t-48 13z" />
    <glyph glyph-name="nine.numr" horiz-adv-x="412" 
d="M215 278q-83 0 -139 36l58 81q34 -26 87 -26q32 0 55.5 11.5t37.5 34t18 54.5q-39 -45 -107 -45q-63 0 -96 37.5t-24 99.5q9 66 59.5 105t126.5 39q89 0 131.5 -56t29.5 -152q-15 -99 -79 -159t-158 -60zM265 510q29 0 46 13.5t21 37.5q3 23 -9.5 37t-40.5 14
q-57 0 -64 -52q-8 -50 47 -50z" />
    </font>
</defs>
</svg>
