<?xml version="1.0" standalone="no"?>
<!DOCTYPE svg PUBLIC "-//W3C//DTD SVG 1.1//EN" "http://www.w3.org/Graphics/SVG/1.1/DTD/svg11.dtd" >
<svg xmlns="http://www.w3.org/2000/svg" xmlns:xlink="http://www.w3.org/1999/xlink" version="1.1">
<metadata>
Created by FontForge 20170731 at Tue Jun 30 23:49:10 2015
 By Aleksey,,,
Copyright (c) 2011-2015, Julieta Ulanovsky (julieta.ulanovsky@gmail.com), Design Modifications and new Weights 2015, Jasper @ Cannot Into Space Fonts (cannotintospacefonts@gmail.com)
</metadata>
<defs>
<font id="TruenoUltLtIt" horiz-adv-x="772" >
  <font-face 
    font-family="Trueno"
    font-weight="200"
    font-style="italic"
    font-stretch="normal"
    units-per-em="1000"
    panose-1="0 0 3 0 0 0 0 0 0 0"
    ascent="800"
    descent="-200"
    x-height="521"
    cap-height="699"
    bbox="-279 -206 1333.81 964"
    underline-thickness="50"
    underline-position="-200"
    unicode-range="U+0020-FB02"
  />
<missing-glyph horiz-adv-x="500" 
d="M0 0l101 700h500l-101 -700h-500zM307 395l207 255h-340zM330 350l134 -255l73 510zM87 50h340l-133 255zM137 605l-73 -510l206 255z" />
    <glyph glyph-name="fi" unicode="fi" horiz-adv-x="555" 
d="M189 516l10 67q11 75 62.5 121.5t115.5 46.5q49 -1 88 -28l-7 -43q-41 30 -86 30q-49 1 -86 -33.5t-45 -89.5l-11 -71h161l-5 -37h-161l-69 -479h-41l69 479h-66l5 37h66zM533 707q9 0 16.5 -5t11 -13t2.5 -18q-3 -16 -14.5 -26.5t-26.5 -10.5t-23.5 10.5t-5.5 26.5
q1 7 4.5 14t9 11.5t12.5 7.5t14 3zM485 521h41l-75 -521h-41z" />
    <glyph glyph-name="fl" unicode="fl" horiz-adv-x="569" 
d="M189 516l11 71q10 71 61 118.5t116 46.5q52 -2 88 -27l-6 -43q-36 29 -82 31q-50 1 -89.5 -36.5t-47.5 -93.5l-10 -67h161l-5 -37h-161l-69 -479h-41l69 479h-66l5 37h66zM566 742l-107 -742h-41l107 742h41z" />
    <glyph glyph-name=".notdef" horiz-adv-x="500" 
d="M0 0l101 700h500l-101 -700h-500zM307 395l207 255h-340zM330 350l134 -255l73 510zM87 50h340l-133 255zM137 605l-73 -510l206 255z" />
    <glyph glyph-name=".null" horiz-adv-x="0" 
 />
    <glyph glyph-name="nonmarkingreturn" horiz-adv-x="333" 
 />
    <glyph glyph-name="space" unicode=" " horiz-adv-x="291" 
 />
    <glyph glyph-name="exclam" unicode="!" horiz-adv-x="196" 
d="M196 520l-51 -323h-32l43 323l24 164h40zM110.5 64q14.5 0 22.5 -10t6 -25q-2 -16 -13.5 -26.5t-25.5 -10.5t-22.5 10.5t-6.5 26.5q2 15 13.5 25t26 10z" />
    <glyph glyph-name="quotedbl" unicode="&#x22;" horiz-adv-x="264" 
d="M166 495h-35l30 204h35zM275 495h-35l30 204h35z" />
    <glyph glyph-name="numbersign" unicode="#" horiz-adv-x="711" 
d="M582 460l-60 -224h146l-6 -37h-149l-54 -199h-34l53 199h-226l-53 -199h-34l53 199h-146l6 37h150l60 224h-147l6 36h150l55 203h34l-55 -203h226l55 203h35l-55 -203h146l-6 -36h-150zM548 460h-226l-60 -224h226z" />
    <glyph glyph-name="dollar" unicode="$" horiz-adv-x="599" 
d="M409 657l-41 -279q50 -16 77 -27t60.5 -34t45.5 -57.5t5 -82.5q-11 -75 -76.5 -123t-165.5 -54l-18 -125h-35l18 124q-66 1 -127 29t-100 72l28 37q34 -42 89.5 -67.5t115.5 -27.5l44 302q-37 12 -59 20t-50 24.5t-42 34.5t-22 47t-3 65q10 70 71.5 114.5t155.5 50.5
l16 111h35l-16 -110q51 -1 100.5 -16.5t83.5 -40.5l-25 -38q-66 48 -165 51zM199 538q-4 -26 1.5 -47.5t16.5 -36t31.5 -27.5t39.5 -21t47 -17l39 267q-74 -5 -121 -36.5t-54 -81.5zM510 176q5 16 2.5 30.5t-4.5 26t-10 22t-15 18.5t-19 16t-22 13.5t-25 11.5t-27 10t-28 9
l-42 -290q80 5 131 40.5t59 92.5z" />
    <glyph glyph-name="percent" unicode="%" horiz-adv-x="910" 
d="M319 700q82 0 119.5 -53.5t23.5 -151.5t-66.5 -151t-135.5 -53q-81 0 -118.5 53t-23.5 151q10 65 36.5 111t68.5 70t96 24zM159 0l634 699h44l-633 -699h-45zM314 669q-44 0 -77.5 -20t-55 -59t-29.5 -95q-12 -84 17 -129t95 -45q68 0 110 45t54 129q8 56 -2 95t-38.5 59
t-73.5 20zM749 408q82 0 119.5 -53.5t23.5 -150.5q-7 -49 -24 -87.5t-42.5 -64.5t-60 -39.5t-75.5 -13.5q-81 0 -118.5 53.5t-23.5 151.5q14 97 67 150.5t134 53.5zM744 378q-66 0 -108 -45t-54 -129q-12 -85 17 -129.5t95 -44.5q68 0 110 44.5t54 129.5q13 84 -16.5 129
t-97.5 45z" />
    <glyph glyph-name="ampersand" unicode="&#x26;" horiz-adv-x="634" 
d="M520 147l110 -127l-27 -25q-74 87 -108 125q-121 -121 -239 -121q-83 0 -132.5 53t-37.5 133q5 37 22.5 68t47.5 55.5t57.5 41.5t68.5 37q-63 100 -53 171q9 61 59.5 101.5t120.5 40.5q44 0 75 -16.5t45 -46.5t9 -69q-4 -27 -18.5 -51.5t-31.5 -42t-47 -37t-51 -30.5
t-58 -29q47 -68 166 -205q53 61 102 146l28 -23q-50 -85 -108 -149zM265 558q-9 -63 50 -155l54 27t46.5 26.5t43 32t27.5 35.5t16 44q4 30 -6 52.5t-33.5 35t-57.5 12.5q-55 0 -94 -31.5t-46 -78.5zM262 35q103 0 211 111q-132 154 -174 215q-38 -19 -63 -34t-51.5 -36.5
t-42 -47.5t-19.5 -56q-10 -66 30.5 -109t108.5 -43z" />
    <glyph glyph-name="quotesingle" unicode="'" horiz-adv-x="155" 
d="M166 495h-35l30 204h35z" />
    <glyph glyph-name="parenleft" unicode="(" horiz-adv-x="286" 
d="M319 742h39q-67 -83 -112.5 -194.5t-63.5 -238.5q-19 -128 -5.5 -239t56.5 -194h-39q-44 83 -57.5 194t5.5 239q18 127 63.5 238.5t113.5 194.5z" />
    <glyph glyph-name="parenright" unicode=")" horiz-adv-x="291" 
d="M165 742h38q44 -83 57.5 -194t-4.5 -239q-19 -127 -64.5 -238.5t-113.5 -194.5h-38q45 55 80 123t59.5 147t37.5 163q18 128 4.5 239t-56.5 194z" />
    <glyph glyph-name="asterisk" unicode="*" horiz-adv-x="309" 
d="M248 558l-16 -113h-27l16 113l-106 -57l-10 27l106 56l-90 56l18 26l90 -57l16 113h27l-16 -113l106 57l10 -26l-107 -56l91 -56l-18 -27z" />
    <glyph glyph-name="plus" unicode="+" horiz-adv-x="484" 
d="M489 304h-187l-27 -187h-32l27 187h-187l5 34h187l27 187h32l-27 -187h187z" />
    <glyph glyph-name="comma" unicode="," horiz-adv-x="180" 
d="M101 64q14 0 22.5 -10.5t6.5 -25.5q-2 -13 -17 -32l-45 -57h-28l36 57q-17 9 -14 32q2 16 13.5 26t25.5 10z" />
    <glyph glyph-name="hyphen" unicode="-" horiz-adv-x="359" 
d="M332 284h-223l5 34h223z" />
    <glyph glyph-name="period" unicode="." horiz-adv-x="181" 
d="M99 64q7 0 13 -2.5t10 -7.5t6 -11.5t1 -13.5q-2 -16 -14 -26.5t-26 -10.5t-22.5 10.5t-6.5 26.5q2 15 13.5 25t25.5 10z" />
    <glyph glyph-name="slash" unicode="/" horiz-adv-x="302" 
d="M19 -127h-39l446 951h38z" />
    <glyph glyph-name="zero" unicode="0" horiz-adv-x="677" 
d="M439 700q136 0 196 -90.5t35.5 -259.5t-110.5 -260t-222 -91q-135 0 -195 91t-35.5 260t110.5 259.5t221 90.5zM433 662q-115 0 -188 -79.5t-95 -232.5q-21 -152 28.5 -232.5t164.5 -80.5q78 0 136.5 36t96 106t51.5 171q22 153 -27.5 232.5t-166.5 79.5z" />
    <glyph glyph-name="one" unicode="1" horiz-adv-x="354" 
d="M209 0h-42l95 658h-147l6 41h189z" />
    <glyph glyph-name="two" unicode="2" horiz-adv-x="574" 
d="M366 700q93 0 141 -44.5t37 -121.5q-7 -46 -47.5 -105t-105.5 -119l-285 -269h415l-6 -41h-465l6 42l310 295q57 51 93.5 103t41.5 90q9 61 -29.5 95.5t-115.5 34.5q-50 0 -104.5 -23t-99.5 -63l-17 33q51 44 112 68.5t119 24.5z" />
    <glyph glyph-name="three" unicode="3" horiz-adv-x="515" 
d="M244 398l41 -1q103 -2 157.5 -51t42.5 -134q-14 -95 -87 -154t-181 -59q-56 0 -108 17t-89 46l25 36q73 -60 175 -60q92 0 152 47.5t70 123.5q7 50 -12 84.5t-60.5 52t-104.5 17.5h-76l5 30l268 265h-327l6 41h381l-5 -32z" />
    <glyph glyph-name="four" unicode="4" horiz-adv-x="555" 
d="M112 241h293l30 208h40l-30 -208h110l-6 -42h-110l-29 -199h-40l29 199h-337l6 41l328 459h43z" />
    <glyph glyph-name="five" unicode="5" horiz-adv-x="554" 
d="M567 658h-346l-37 -255q76 21 144 21q105 0 159.5 -54.5t42.5 -143.5q-15 -103 -87.5 -164.5t-179.5 -61.5q-54 0 -111.5 19.5t-100.5 52.5l23 35q20 -15 44 -27.5t48.5 -21t50 -13t49.5 -4.5q89 0 148.5 49.5t71.5 133.5q11 73 -35 116t-134 43q-86 0 -179 -29l50 345
h385z" />
    <glyph glyph-name="six" unicode="6" horiz-adv-x="593" 
d="M432 701q96 0 181 -47l-23 -35q-73 42 -160 42q-124 0 -200.5 -103t-87.5 -282q30 78 95.5 122t154.5 44q101 0 151 -58.5t35 -159.5q-15 -104 -85 -164.5t-173 -60.5q-124 0 -181 86.5t-34 246.5q24 168 112.5 268.5t214.5 100.5zM381 404q-92 0 -156 -54.5t-74 -130.5
q-4 -23 -0.5 -47.5t15.5 -48.5t31.5 -42.5t51.5 -30t72 -11.5q85 0 145 50.5t73 136.5q11 82 -31.5 130t-126.5 48z" />
    <glyph glyph-name="seven" unicode="7" horiz-adv-x="538" 
d="M599 658l-398 -658h-45l399 658h-380l-16 -108l-22 108l6 41h462z" />
    <glyph glyph-name="eight" unicode="8" horiz-adv-x="607" 
d="M405 700q100 0 150.5 -44.5t39.5 -124.5q-17 -116 -147 -157q71 -19 105.5 -65t24.5 -114q-13 -92 -86 -144t-188 -52q-116 0 -174.5 51.5t-45.5 143.5q10 69 58 115t126 65q-57 20 -84 60t-18 98q11 79 75 123.5t164 44.5zM399.5 664q-82.5 0 -135 -36t-61.5 -100
q-5 -32 3.5 -58t29 -44t52 -27.5t72.5 -9.5q55 0 97 17t67.5 48t31.5 74q9 64 -32.5 100t-124 36zM354 352q-96 0 -157 -41t-71 -112q-11 -76 37.5 -119t145.5 -43t158 42.5t72 118.5q10 71 -39.5 112.5t-145.5 41.5z" />
    <glyph glyph-name="nine" unicode="9" horiz-adv-x="593" 
d="M271 -2q-96 0 -182 47l24 35q73 -42 159 -42q124 0 201 103t88 282q-30 -78 -95.5 -122t-154.5 -44q-101 0 -151 58.5t-36 159.5q15 104 85 164.5t174 60.5q124 0 181 -86.5t34 -246.5q-24 -168 -112.5 -268.5t-214.5 -100.5zM322 295q92 0 155.5 54.5t74.5 130.5
q4 30 -3 60t-25.5 57.5t-55.5 45t-86 17.5q-86 0 -145.5 -50.5t-72.5 -136.5q-6 -41 2.5 -74t29 -56t52.5 -35.5t74 -12.5z" />
    <glyph glyph-name="colon" unicode=":" horiz-adv-x="179" 
d="M142 361q9 0 16.5 -4.5t11 -12.5t2.5 -18q-2 -16 -14 -26.5t-26 -10.5q-10 0 -17 5t-10.5 13.5t-1.5 18.5q2 15 13.5 25t25.5 10zM99 64q7 0 13 -2.5t10 -7.5t6 -11.5t1 -13.5q-2 -16 -14 -26.5t-26 -10.5t-22.5 10.5t-6.5 26.5q2 15 13.5 25t25.5 10z" />
    <glyph glyph-name="semicolon" unicode=";" horiz-adv-x="180" 
d="M132 289q-10 0 -17 5t-10.5 13.5t-1.5 18.5q2 15 13.5 25t25.5 10q9 0 16.5 -4.5t11 -12.5t2.5 -18q-2 -16 -14 -26.5t-26 -10.5zM101 64q14 0 22.5 -10.5t6.5 -25.5q-2 -13 -17 -32l-45 -57h-28l36 57q-17 9 -14 32q2 16 13.5 26t25.5 10z" />
    <glyph glyph-name="less" unicode="&#x3c;" horiz-adv-x="484" 
d="M517 497l-399 -170l350 -169l-6 -39l-379 186l6 45l433 186z" />
    <glyph glyph-name="equal" unicode="=" horiz-adv-x="484" 
d="M503 405h-406l5 35h406zM474 202h-406l5 35h406z" />
    <glyph glyph-name="greater" unicode="&#x3e;" horiz-adv-x="484" 
d="M62 159l398 170l-349 169l5 39l380 -186l-7 -45l-433 -186z" />
    <glyph glyph-name="question" unicode="?" horiz-adv-x="406" 
d="M119 524l-36 2q16 75 70.5 116t133.5 41q81 0 124.5 -39.5t32.5 -115.5q-7 -47 -28.5 -82t-49 -58t-54.5 -45t-48.5 -55.5t-28.5 -76.5h-35q7 47 28.5 82.5t48 58t53 44.5t47 54t27.5 74q8 59 -26.5 89.5t-98.5 30.5t-106 -30.5t-54 -89.5zM194.5 64q14.5 0 22.5 -10
t6 -25q-2 -16 -13.5 -26.5t-25.5 -10.5t-22.5 10.5t-6.5 26.5q2 15 13.5 25t26 10z" />
    <glyph glyph-name="at" unicode="@" horiz-adv-x="999" 
d="M607 716q128 0 222 -58.5t136.5 -162t24.5 -233.5q-12 -81 -40.5 -141.5t-69 -93.5t-88.5 -33q-41 0 -65 28t-19 76l8 52q-38 -63 -101.5 -100t-137.5 -37q-107 0 -167.5 72t-45.5 182q16 110 96 182.5t187 72.5q51 0 92.5 -18t68 -47.5t36.5 -67.5l19 129h40l-59 -408
q-6 -38 10.5 -60t46.5 -22q35 0 66.5 28.5t55 82t33.5 123.5q17 119 -22 214.5t-126 149.5t-206 54q-120 0 -224.5 -54t-173 -149.5t-85.5 -213.5q-16 -113 23.5 -204.5t126 -142.5t203.5 -51q43 0 96 13.5t92 34.5l11 -32q-42 -23 -100.5 -38t-104.5 -15q-126 0 -220 56
t-137 155.5t-25 223.5q11 77 43.5 147t81.5 125.5t111 96t135.5 62.5t151.5 22zM546.5 481q-91.5 0 -159 -60.5t-80.5 -152.5q-14 -93 36.5 -153.5t141.5 -60.5q60 0 112 27.5t86 76.5t43 110q13 92 -37.5 152.5t-142 60.5z" />
    <glyph glyph-name="A" unicode="A" horiz-adv-x="698" 
d="M582 199h-409l-119 -199h-46l418 699h45l219 -699h-46zM569 241l-128 410l-244 -410h372z" />
    <glyph glyph-name="B" unicode="B" horiz-adv-x="725" 
d="M221 699h286q103 0 154 -45.5t39 -127.5q-6 -43 -27 -76.5t-54.5 -55t-76.5 -29.5q78 -10 116.5 -56.5t27.5 -120.5q-13 -89 -86 -138.5t-192 -49.5h-288zM257 658l-40 -276h243q84 0 135.5 36t61.5 103q9 65 -32 101t-125 36h-243zM211 341l-43 -300h243q101 0 162 39.5
t72 112.5q10 71 -40 109.5t-151 38.5h-243z" />
    <glyph glyph-name="C" unicode="C" horiz-adv-x="703" 
d="M508 700q69 0 129 -25t103 -69l-29 -32q-38 41 -92 63.5t-116 22.5q-133 0 -239.5 -90.5t-124.5 -218.5q-13 -85 19.5 -156.5t100.5 -113t155 -41.5q125 0 232 85l22 -29q-56 -46 -124 -71.5t-137 -25.5q-98 0 -174.5 47t-113 128t-23.5 176q11 71 49 136t93 112
t126 74.5t144 27.5z" />
    <glyph glyph-name="D" unicode="D" horiz-adv-x="803" 
d="M221 699h278q98 0 174 -46.5t112 -127t22 -176.5q-13 -95 -72.5 -175.5t-149.5 -127t-188 -46.5h-277zM257 658l-89 -617h236q131 0 236.5 90t123.5 218q12 85 -20 156t-99 112t-153 41h-235z" />
    <glyph glyph-name="E" unicode="E" horiz-adv-x="647" 
d="M666 658h-409l-40 -279h364l-6 -42h-364l-43 -296h422l-6 -41h-464l101 699h451z" />
    <glyph glyph-name="F" unicode="F" horiz-adv-x="552" 
d="M636 658h-379l-44 -302h336l-6 -42h-336l-45 -314h-42l101 699h421z" />
    <glyph glyph-name="G" unicode="G" horiz-adv-x="758" 
d="M666 343h38l-36 -253q-56 -43 -124 -67t-137 -24q-98 0 -174.5 47t-113 128t-23 176t74 176t150.5 127.5t189 46.5q141 0 233 -92l-30 -31q-19 20 -42 35t-49.5 26t-56.5 16.5t-61 5.5q-87 0 -167 -41.5t-133 -113t-66 -155.5q-12 -85 21 -156.5t101 -113t155 -41.5
q116 0 218 72z" />
    <glyph glyph-name="H" unicode="H" horiz-adv-x="797" 
d="M677 0h-42l48 330h-473l-48 -330h-42l101 699h42l-48 -328h473l48 328h42z" />
    <glyph glyph-name="I" unicode="I" horiz-adv-x="282" 
d="M162 0h-42l101 699h42z" />
    <glyph glyph-name="J" unicode="J" horiz-adv-x="468" 
d="M424 699h42l-72 -497q-14 -98 -69 -150.5t-142 -52.5q-110 0 -167 98l28 33q52 -88 145 -88q68 0 110 41.5t53 119.5z" />
    <glyph glyph-name="K" unicode="K" horiz-adv-x="681" 
d="M601 0l-234 356l-178 -168l-27 -188h-42l101 699h42l-65 -450l483 450h52l-330 -310l251 -389h-53z" />
    <glyph glyph-name="L" unicode="L" horiz-adv-x="501" 
d="M168 41h311l-6 -41h-353l101 699h42z" />
    <glyph glyph-name="M" unicode="M" horiz-adv-x="916" 
d="M796 0h-40l91 641l-368 -565h-19l-208 565l-92 -641h-40l101 699h58l201 -550l359 550h58z" />
    <glyph glyph-name="N" unicode="N" horiz-adv-x="797" 
d="M677 0h-49l-374 635l-92 -635h-42l101 699h49l375 -635l92 635h41z" />
    <glyph glyph-name="O" unicode="O" horiz-adv-x="816" 
d="M508.5 700q98.5 0 175.5 -46.5t113.5 -127.5t23 -176t-73.5 -176t-150.5 -128t-189 -47t-175 47t-113 128t-23 176t73.5 176t150 127.5t188.5 46.5zM503 659q-86 0 -165.5 -41.5t-132.5 -112.5t-65.5 -155t20.5 -155.5t100.5 -113t153.5 -41.5t165.5 41.5t132.5 113
t65.5 155.5t-20.5 155t-100.5 112.5t-153.5 41.5z" />
    <glyph glyph-name="P" unicode="P" horiz-adv-x="664" 
d="M221 699h246q128 0 189.5 -60t46.5 -170q-17 -113 -96 -174.5t-207 -61.5h-204l-34 -233h-42zM257 658l-56 -384h203q110 0 177.5 50.5t80.5 143.5q14 92 -39 141t-163 49h-203z" />
    <glyph glyph-name="Q" unicode="Q" horiz-adv-x="836" 
d="M786 -24l16 -31q-91 -76 -178 -76q-108 0 -199 130h-17q-99 0 -175.5 47t-113 128t-23 176t73.5 176t150 127.5t188.5 46.5t175.5 -46.5t113.5 -127.5t22.5 -176q-9 -64 -40 -123t-77 -104t-105.5 -76t-123.5 -42q81 -97 159 -97q67 0 153 68zM139.5 350
q-12.5 -84 20.5 -155.5t100.5 -113t153.5 -41.5t165.5 41.5t132.5 113t65.5 155.5t-20.5 155t-100.5 112.5t-153.5 41.5t-165.5 -41.5t-132.5 -112.5t-65.5 -155z" />
    <glyph glyph-name="R" unicode="R" horiz-adv-x="722" 
d="M591 0l-131 237q-26 -4 -59 -4h-205l-34 -233h-42l101 699h247q129 0 191 -60t47 -170q-9 -59 -35.5 -105t-69 -76t-100.5 -44l140 -244h-50zM201 274h206q110 0 177 50t80 144q6 37 0.5 67t-21.5 53t-41 38.5t-60.5 23.5t-78.5 8h-206z" />
    <glyph glyph-name="S" unicode="S" horiz-adv-x="599" 
d="M407 701q53 0 104.5 -15.5t87.5 -41.5l-25 -38q-23 17 -53 28.5t-61 17t-61 5.5q-84 0 -138.5 -32t-61.5 -87q-6 -38 7.5 -66t40 -44t61.5 -30t72 -23.5t71.5 -26t60.5 -36t38.5 -54.5t5.5 -81q-12 -81 -85.5 -129.5t-183.5 -48.5q-69 0 -132 27.5t-103 73.5l28 37
q36 -44 94 -69.5t120 -25.5q60 0 106.5 16.5t75.5 46.5t34 71q6 39 -7 68t-39.5 45t-61 30.5t-71.5 24t-72 25t-61 34.5t-38.5 53t-6.5 79q7 50 41 87.5t89.5 58t123.5 20.5z" />
    <glyph glyph-name="T" unicode="T" horiz-adv-x="538" 
d="M621 658h-236l-95 -658h-42l95 658h-236l6 41h514z" />
    <glyph glyph-name="U" unicode="U" 
d="M770 699l-60 -413q-19 -136 -104.5 -211.5t-219.5 -75.5t-197.5 75.5t-44.5 211.5l60 413h42l-60 -413q-17 -117 37.5 -181.5t168.5 -64.5q75 0 133.5 29t95 84t47.5 133l60 413h42z" />
    <glyph glyph-name="V" unicode="V" horiz-adv-x="640" 
d="M342 0h-44l-189 699h47l171 -649l360 649h46z" />
    <glyph glyph-name="W" unicode="W" horiz-adv-x="998" 
d="M756 0h-43l-120 640l-305 -640h-44l-135 699h47l118 -649l306 649h44l119 -649l305 649h45z" />
    <glyph glyph-name="X" unicode="X" horiz-adv-x="638" 
d="M392 363l208 -363h-50l-189 326l-283 -326h-49l312 361l-192 338h49l173 -301l262 301h49z" />
    <glyph glyph-name="Y" unicode="Y" horiz-adv-x="613" 
d="M366 256l-37 -256h-41l37 254l-216 445h45l198 -393l309 393h45z" />
    <glyph glyph-name="Z" unicode="Z" horiz-adv-x="654" 
d="M696 659l-590 -618h505l-6 -41h-556l6 40l590 618h-488l7 41h538z" />
    <glyph glyph-name="bracketleft" unicode="[" horiz-adv-x="323" 
d="M387 704h-128l-113 -790h128l-6 -38h-166l125 866h166z" />
    <glyph glyph-name="backslash" unicode="\" horiz-adv-x="350" 
d="M157 824l172 -951h-38l-172 951h38z" />
    <glyph glyph-name="bracketright" unicode="]" horiz-adv-x="352" 
d="M339 742l-125 -866h-167l6 38h128l113 790h-128l6 38h167z" />
    <glyph glyph-name="asciicircum" unicode="^" horiz-adv-x="491" 
d="M433 128l-117 368l-222 -368h-39l244 399h45l128 -399h-39z" />
    <glyph glyph-name="underscore" unicode="_" horiz-adv-x="543" 
d="M514 -204h-543l4 32h543z" />
    <glyph glyph-name="grave" unicode="`" horiz-adv-x="350" 
d="M350 620h-47l-113 103l44 20z" />
    <glyph glyph-name="a" unicode="a" horiz-adv-x="567" 
d="M439 0l14 103q-79 -104 -223 -104q-77 0 -118.5 43t-31.5 110q9 65 66.5 102.5t147.5 37.5h185l7 51q6 44 -6.5 75.5t-45 48.5t-83.5 17q-86 0 -185 -68l-15 32q55 37 105 55.5t106 18.5q91 0 134 -47t32 -129l-48 -346h-41zM241 37q156 0 221 133l13 85h-182
q-77 0 -121.5 -26t-51.5 -76q-7 -52 25.5 -84t95.5 -32z" />
    <glyph glyph-name="b" unicode="b" horiz-adv-x="671" 
d="M447 522q110 0 170 -73.5t43 -188.5q-16 -114 -97 -187.5t-191 -73.5q-76 0 -128.5 36.5t-72.5 100.5l-20 -136h-42l107 742h42l-52 -358q39 65 102.5 101.5t138.5 36.5zM371 38q95 0 165 62.5t83.5 159.5t-38 160t-145.5 63t-164 -63t-83.5 -160t38 -159.5t144.5 -62.5z
" />
    <glyph glyph-name="c" unicode="c" horiz-adv-x="559" 
d="M378 522q113 0 176 -73l-29 -30q-58 63 -152 63t-163 -62t-83 -159q-15 -99 36.5 -161t145.5 -62q108 0 181 73l21 -27q-85 -85 -208 -85q-111 0 -172.5 73.5t-45 187.5t99.5 188t193 74z" />
    <glyph glyph-name="d" unicode="d" horiz-adv-x="675" 
d="M673 742l-107 -742h-42l20 136q-39 -65 -103 -102t-139 -37q-111 0 -172 74t-45 189q17 115 99 189.5t193 74.5q76 0 129 -37t73 -102l52 357h42zM312 36q95 0 165 63t84.5 161t-38 161t-146.5 63t-165 -63.5t-86 -160.5q-13 -98 39 -161t147 -63z" />
    <glyph glyph-name="e" unicode="e" horiz-adv-x="589" 
d="M377 522q114 0 168.5 -75.5t34.5 -197.5h-455q-9 -95 42 -153.5t142 -58.5q111 0 187 72l20 -27q-89 -83 -214 -83q-111 0 -172 73.5t-44.5 188t99 188t192.5 73.5zM131 286h416q7 90 -40 144t-135 54t-154.5 -54.5t-86.5 -143.5z" />
    <glyph glyph-name="f" unicode="f" horiz-adv-x="306" 
d="M371 703q-48 1 -86 -34t-46 -90l-10 -71h161l-5 -36h-161l-68 -472h-41l68 472h-66l5 36h66l10 68q11 74 62.5 121t115.5 46q59 0 101 -37l-24 -34q-36 31 -82 31z" />
    <glyph glyph-name="g" unicode="g" horiz-adv-x="632" 
d="M617 521l-67 -464q-16 -115 -94.5 -183.5t-193.5 -67.5q-119 3 -199 85l27 31q68 -74 177 -77q96 -1 162.5 57t80.5 155l14 98q-24 -41 -59 -71.5t-79.5 -46.5t-93.5 -16q-105 0 -163 70.5t-42 179.5t94 180t182 71q74 0 125 -36t70 -99l19 134h40zM302 57q90 0 158 60.5
t81 152.5q13 93 -37 153.5t-140 60.5t-157.5 -60.5t-80.5 -153.5t36.5 -153t139.5 -60z" />
    <glyph glyph-name="h" unicode="h" horiz-adv-x="654" 
d="M440 522q95 0 141 -54.5t32 -149.5l-46 -318h-42l45 310q7 53 -7.5 91.5t-50 58.5t-88.5 20q-96 -2 -158.5 -62t-77.5 -163l-37 -255h-42l107 742h42l-52 -357q73 134 234 137z" />
    <glyph glyph-name="i" unicode="i" horiz-adv-x="250" 
d="M227 707q9 0 16.5 -5t11 -13t2.5 -18q-2 -10 -8 -18.5t-14.5 -13.5t-18.5 -5q-14 0 -23 10.5t-6 26.5q1 10 7 18t15 13t18 5zM145 0h-41l75 521h41z" />
    <glyph glyph-name="j" unicode="j" horiz-adv-x="247" 
d="M223 707q10 0 17.5 -5t11 -13t2.5 -18q-2 -10 -8 -18.5t-15 -13.5t-19 -5q-15 0 -24 10.5t-6 26.5q1 7 4.5 14t9 11.5t13 7.5t14.5 3zM216 521l-79 -548q-12 -83 -52 -125.5t-100 -42.5q-58 2 -99 37l23 35q33 -31 81 -31q42 -1 69.5 30.5t36.5 93.5l79 551h41z" />
    <glyph glyph-name="k" unicode="k" horiz-adv-x="551" 
d="M325 289l-152 -136l-22 -153h-42l107 742h42l-76 -529l352 308h51l-226 -202l177 -319h-48z" />
    <glyph glyph-name="l" unicode="l" horiz-adv-x="260" 
d="M151 0h-42l107 742h42z" />
    <glyph glyph-name="m" unicode="m" horiz-adv-x="1045" 
d="M835 522q94 0 138.5 -54t30.5 -150l-46 -318h-41l45 310q11 80 -26.5 125t-116.5 45q-93 -2 -154 -62t-76 -163l-37 -255h-41l45 310q7 53 -7.5 91.5t-49 58.5t-86.5 20q-94 -2 -155 -62.5t-76 -162.5l-37 -255h-41l75 521h41l-20 -137q71 135 230 138q79 0 123 -39.5
t47 -111.5q35 73 95 111t140 40z" />
    <glyph glyph-name="n" unicode="n" horiz-adv-x="648" 
d="M434 522q95 0 141 -54.5t32 -149.5l-46 -318h-42l45 310q7 53 -7.5 91.5t-50 58.5t-88.5 20q-90 -2 -151 -54.5t-80 -143.5l-41 -282h-42l75 521h42l-19 -133q72 131 232 134z" />
    <glyph glyph-name="o" unicode="o" horiz-adv-x="610" 
d="M380 522q112 0 174 -73.5t46 -187.5q-17 -115 -100 -188.5t-195 -73.5t-174 73.5t-45 188.5q16 114 99.5 187.5t194.5 73.5zM374 482q-94 0 -163.5 -62t-84 -160t37.5 -160t146 -62q95 0 164.5 62t84 160t-37.5 160t-147 62z" />
    <glyph glyph-name="p" unicode="p" horiz-adv-x="671" 
d="M447 522q110 0 170 -73.5t43 -188.5q-16 -114 -97 -187.5t-191 -73.5q-76 0 -128.5 36.5t-72.5 100.5l-48 -330h-42l103 715h42l-20 -137q39 65 102.5 101.5t138.5 36.5zM371 38q95 0 165 62.5t83.5 159.5t-38 160t-145.5 63t-164 -63t-83.5 -160t38 -159.5t144.5 -62.5z
" />
    <glyph glyph-name="q" unicode="q" horiz-adv-x="675" 
d="M641 521l-103 -715h-42l48 330q-39 -65 -103 -102t-139 -37q-111 0 -172 74t-45 189q17 115 99 189.5t193 74.5q76 0 129 -37t73 -102l20 136h42zM312 36q95 0 165 63t84.5 161t-38 161t-146.5 63t-165 -63.5t-86 -160.5q-13 -98 39 -161t147 -63z" />
    <glyph glyph-name="r" unicode="r" horiz-adv-x="350" 
d="M221 521l-19 -131q34 63 88.5 96.5t124.5 35.5l-6 -43q-85 0 -143.5 -52.5t-78.5 -144.5l-41 -282h-42l75 521h42z" />
    <glyph glyph-name="s" unicode="s" horiz-adv-x="437" 
d="M302 522q82 0 143 -41l-23 -34q-52 37 -126 37q-58 0 -97.5 -22.5t-45.5 -67.5q-4 -28 9.5 -48t39 -31.5t56.5 -21t61.5 -21t55.5 -26.5t37.5 -42.5t7.5 -64.5q-10 -69 -67.5 -104.5t-133.5 -35.5q-55 0 -102.5 19t-78.5 53l24 32q61 -66 164 -66q38 0 69.5 9.5
t54.5 31.5t29 54q5 30 -8 51t-38 33.5t-56.5 22.5t-62.5 21.5t-56 26.5t-38 41.5t-8 62.5q10 65 63 98t127 33z" />
    <glyph glyph-name="t" unicode="t" horiz-adv-x="372" 
d="M343 70l11 -34q-58 -37 -114 -37q-57 -1 -82.5 36t-14.5 109l47 328h-76l5 36h76l19 129h40l-19 -129h177l-5 -36h-177l-47 -323q-15 -111 68 -109q45 0 92 30z" />
    <glyph glyph-name="u" unicode="u" horiz-adv-x="641" 
d="M611 521l-75 -521h-41l20 139q-34 -68 -93 -103.5t-136 -36.5q-94 0 -139 54t-31 150l46 318h41l-45 -310q-11 -80 26.5 -125t116.5 -45q94 2 156 62t76 163l37 255h41z" />
    <glyph glyph-name="v" unicode="v" horiz-adv-x="471" 
d="M262 0h-43l-136 521h45l119 -476l256 476h44z" />
    <glyph glyph-name="w" unicode="w" horiz-adv-x="835" 
d="M639 0h-43l-106 466l-242 -466h-43l-122 521h45l105 -476l242 476h45l105 -476l242 476h44z" />
    <glyph glyph-name="x" unicode="x" horiz-adv-x="503" 
d="M294 300l193 221h47l-218 -252l156 -269h-48l-140 237l-209 -237h-48l236 269l-146 252h48z" />
    <glyph glyph-name="y" unicode="y" horiz-adv-x="473" 
d="M549 521l-328 -596q-32 -58 -73.5 -89t-87.5 -31q-59 0 -95 30l23 36q31 -24 76 -24q73 0 125 94l33 59l-140 521h44l124 -472l255 472h44z" />
    <glyph glyph-name="z" unicode="z" horiz-adv-x="516" 
d="M530 482l-420 -444l363 -1l-5 -38l-410 1l5 38l420 444h-347l6 39l394 -1z" />
    <glyph glyph-name="braceleft" unicode="{" horiz-adv-x="294" 
d="M253 625l-33 -228q-5 -38 -19 -59t-40 -30q24 -8 31.5 -29t2.5 -59l-33 -229q-3 -20 1 -35t15.5 -25t30.5 -14.5t46 -4.5l-5 -38h-14q-68 0 -95.5 26t-19.5 82l35 240q10 67 -42 67h-22l5 38h22q52 0 62 68l34 239q9 57 43.5 82.5t102.5 25.5h14l-6 -38q-54 0 -82 -19
t-34 -60z" />
    <glyph glyph-name="bar" unicode="|" horiz-adv-x="231" 
d="M115 -126h-35l136 947h35z" />
    <glyph glyph-name="braceright" unicode="}" horiz-adv-x="310" 
d="M315 327l-5 -38h-21q-53 0 -63 -67l-35 -240q-8 -56 -43 -82t-102 -26h-14l5 38q56 0 84 19t34 60l33 229q3 26 10 43t18.5 28t28.5 17q-23 9 -30 29.5t-2 59.5l33 228q6 41 -16.5 60t-78.5 19l6 38h14q45 0 72 -11t37.5 -35t4.5 -62l-34 -239q-10 -68 43 -68h21z" />
    <glyph glyph-name="asciitilde" unicode="~" horiz-adv-x="484" 
d="M208 369q25 0 55 -16.5t57.5 -33.5t48.5 -17q23 0 37.5 15t18.5 42h33q-7 -45 -30.5 -69.5t-59.5 -24.5q-28 0 -57.5 16.5t-55.5 33t-47 16.5q-9 0 -17 -2.5t-14.5 -7t-11 -11.5t-8 -16t-5.5 -20h-34q5 30 17 51.5t30.5 32.5t42.5 11z" />
    <glyph glyph-name="nbspace" unicode="&#xa0;" horiz-adv-x="291" 
 />
    <glyph glyph-name="exclamdown" unicode="&#xa1;" horiz-adv-x="196" 
d="M166.5 455q-14.5 0 -22.5 10.5t-6 25.5t13.5 25.5t25.5 10.5t22.5 -10.5t6.5 -25.5t-13.5 -25.5t-26 -10.5zM81 0l51 323h32l-43 -323l-24 -165h-40z" />
    <glyph glyph-name="cent" unicode="&#xa2;" horiz-adv-x="559" 
d="M490 111l21 -27q-80 -80 -198 -85l-18 -124h-35l18 125q-100 9 -154 81t-38.5 179t90.5 179.5t177 81.5l20 140h35l-20 -139q106 -3 166 -73l-29 -30q-56 60 -143 63l-64 -444q103 3 172 73zM127 261q-14 -91 30 -152t127 -70l63 442q-85 -9 -146 -69.5t-74 -150.5z" />
    <glyph glyph-name="sterling" unicode="&#xa3;" horiz-adv-x="535" 
d="M496 39l-6 -39h-441l6 39h91l40 283h-91l6 36h91l20 139q14 98 68.5 151t141.5 53q52 0 95 -25t71 -72l-27 -33q-49 88 -142 88q-46 0 -80.5 -18.5t-56 -54.5t-28.5 -89l-20 -139h188l-6 -36h-188l-40 -283h308z" />
    <glyph glyph-name="currency" unicode="&#xa4;" horiz-adv-x="723" 
d="M687 317q-15 -103 -98 -180l89 -106l-28 -27l-93 108q-88 -63 -189 -63t-169 64l-124 -109l-23 27l123 107q-60 77 -45 179q14 103 97 180l-92 107l30 27l92 -108q86 65 189 65t171 -64l123 107l21 -27l-120 -106q61 -77 46 -181zM166 317q-14 -95 47 -162t161 -67
q101 0 182 67t95 162q13 95 -48.5 163.5t-162.5 68.5q-99 0 -180 -68.5t-94 -163.5z" />
    <glyph glyph-name="yen" unicode="&#xa5;" horiz-adv-x="611" 
d="M397 297h181l-4 -27h-197l-11 -14l-14 -97h206l-4 -28h-206l-19 -131h-41l19 131h-207l4 28h207l14 95l-8 16h-197l4 27h180l-195 402h45l198 -393l309 393h45z" />
    <glyph glyph-name="brokenbar" unicode="&#xa6;" horiz-adv-x="231" 
d="M201 469h-35l50 352h35zM115 -126h-35l50 351h35z" />
    <glyph glyph-name="section" unicode="&#xa7;" horiz-adv-x="445" 
d="M333 694q83 0 144 -42l-22 -30q-52 37 -127 37q-41 0 -72.5 -10.5t-51.5 -31t-24 -49.5q-3 -23 5 -41t24 -29.5t38 -20.5t47 -17t49.5 -16t46 -19.5t37.5 -26t23.5 -36.5t3.5 -50q-8 -52 -49.5 -88t-88.5 -43q107 -39 95 -126q-9 -61 -65.5 -98.5t-136.5 -37.5
q-57 0 -105 19.5t-78 53.5l23 29q64 -67 163 -67q41 0 75.5 11.5t57.5 35t28 54.5q4 25 -7 44.5t-31 31t-46.5 22t-54.5 18.5t-54 20t-46 26.5t-30 39t-5 55.5q8 53 50 84.5t110 38.5q-69 24 -96 55t-20 76q8 59 60.5 93.5t129.5 34.5zM287 407q-63 0 -103.5 -24t-46.5 -64
q-6 -45 36 -79t103 -34q53 0 93 28.5t46 72.5q7 45 -27.5 72.5t-100.5 27.5z" />
    <glyph glyph-name="dieresis" unicode="&#xa8;" horiz-adv-x="358" 
d="M199.5 710q14.5 0 22.5 -10.5t6 -25.5t-13.5 -25.5t-25.5 -10.5t-22.5 10.5t-6.5 25.5t13.5 25.5t26 10.5zM355 710q15 0 23 -10.5t6 -25.5q-1 -10 -7 -18t-14.5 -13t-17.5 -5q-14 0 -22.5 10.5t-6.5 25.5q2 10 7.5 18t14 13t17.5 5z" />
    <glyph glyph-name="copyright" unicode="&#xa9;" horiz-adv-x="770" 
d="M484 689q93 0 164.5 -45.5t105 -123.5t19.5 -170q-13 -91 -69 -169.5t-141 -125t-179 -46.5q-93 0 -164 46t-104 124t-20 169t69 169.5t141 125t178 46.5zM480 659q-131 0 -233.5 -91t-121.5 -220q-12 -84 18 -155t95 -112.5t151 -41.5q131 0 234.5 91t121.5 220
q13 84 -17.5 155t-96 112.5t-151.5 41.5zM466 528q73 0 121 -50l-21 -21q-40 43 -104 43q-66 0 -118.5 -44.5t-61.5 -106.5q-9 -63 31 -107.5t105 -44.5q64 0 116 42l16 -19q-63 -52 -138 -52q-76 0 -123 53t-36 128q11 74 73 126.5t140 52.5z" />
    <glyph glyph-name="ordfeminine" unicode="&#xaa;" horiz-adv-x="375" 
d="M343 458l9 61q-49 -62 -136 -62q-46 0 -71 25t-19 64q5 39 40 60.5t90 21.5h110l5 29q4 37 -16 57t-65 20q-51 0 -115 -37l-7 26q70 41 132 41q28 0 49.5 -7.5t34.5 -20.5t18.5 -32.5t1.5 -43.5l-28 -202h-33zM229 483q84 0 128 71l6 52h-105q-43 0 -69 -14.5t-30 -42.5
q-4 -29 15 -47.5t55 -18.5z" />
    <glyph glyph-name="guillemetleft" unicode="&#xab;" horiz-adv-x="398" 
d="M129 250l85 -158h-40l-88 158l134 161h40zM257 250l85 -158h-40l-88 158l134 161h40z" />
    <glyph glyph-name="logicalnot" unicode="&#xac;" horiz-adv-x="540" 
d="M503 371l-31 -215h-34l26 180h-377l5 35h411z" />
    <glyph glyph-name="softhyphen" unicode="&#xad;" horiz-adv-x="359" 
d="M332 284h-223l5 34h223z" />
    <glyph glyph-name="registered" unicode="&#xae;" horiz-adv-x="770" 
d="M484 689q93 0 164.5 -45.5t105 -123.5t19.5 -170q-13 -91 -69 -169.5t-141 -125t-179 -46.5q-93 0 -164 46t-104 124t-20 169t69 169.5t141 125t178 46.5zM389 39q131 0 234.5 91t121.5 220q13 84 -17.5 155t-96 112.5t-151.5 41.5q-131 0 -233.5 -91t-121.5 -220
q-12 -84 18 -155t95 -112.5t151 -41.5zM593 419q-6 -46 -33 -76.5t-72 -42.5l73 -127h-34l-67 122q-19 -2 -29 -2h-104l-17 -120h-28l53 366h132q69 0 102 -31t24 -89zM331 320h104q36 0 64 11.5t45 34t21 53.5q7 45 -20 69t-82 24h-104z" />
    <glyph glyph-name="macron" unicode="&#xaf;" horiz-adv-x="350" 
d="M382 653h-225l5 36h225z" />
    <glyph glyph-name="degree" unicode="&#xb0;" horiz-adv-x="310" 
d="M305 799q46 0 75.5 -33t23 -77t-45 -77t-85.5 -33q-45 0 -74 33t-23 77q4 29 23.5 54.5t47.5 40.5t58 15zM301 772q-35 0 -64.5 -25t-34 -58t17.5 -57.5t57 -24.5q18 0 35 6.5t30.5 18t22.5 26.5t11 31q5 33 -17 58t-58 25z" />
    <glyph glyph-name="plusminus" unicode="&#xb1;" horiz-adv-x="484" 
d="M501 392l-5 -35h-187l-26 -185h-32l26 185h-187l5 35h187l27 185h32l-27 -185h187zM51 81h406l-5 -35h-406z" />
    <glyph glyph-name="twosuperior" unicode="&#xb2;" horiz-adv-x="376" 
d="M278 700q57 0 86.5 -26.5t23.5 -71.5q-9 -59 -93 -131l-164 -149h244l-4 -31h-286l4 30l185 169q71 61 78 108q5 33 -17 51.5t-66 18.5q-64 0 -123 -50l-13 26q69 56 145 56z" />
    <glyph glyph-name="threesuperior" unicode="&#xb3;" horiz-adv-x="342" 
d="M212 525l24 -1q59 -2 91.5 -30.5t25.5 -77.5q-8 -56 -52.5 -90.5t-110.5 -34.5q-73 0 -123 37l20 29q42 -37 105 -37q26 0 48 7t38 19.5t26.5 29.5t13.5 38q6 41 -20.5 62.5t-80.5 21.5h-49l3 23l156 148h-194l5 29h236l-4 -23z" />
    <glyph glyph-name="acute" unicode="&#xb4;" horiz-adv-x="350" 
d="M367 723l-143 -103h-47l152 123z" />
    <glyph glyph-name="mu" unicode="&#xb5;" horiz-adv-x="663" 
d="M633 521l-75 -521h-41l20 139q-34 -68 -93 -103.5t-136 -36.5q-105 0 -148 66l-37 -259h-42l103 715h42l-48 -333q-4 -70 34 -108.5t111 -38.5q63 1 112 29t80 78t40 118l37 255h41z" />
    <glyph glyph-name="paragraph" unicode="&#xb6;" horiz-adv-x="570" 
d="M434 -111h-35l118 820h-171l-118 -820h-35l74 515q-26 -2 -36 -2q-38 0 -67 11t-44 28.5t-25 40t-10 44.5t2 42q5 34 21 64.5t42.5 55.5t69 39.5t95.5 14.5h242z" />
    <glyph glyph-name="periodcentered" unicode="&#xb7;" horiz-adv-x="179" 
d="M134 308q10 0 17 -5t10.5 -13t1.5 -18q-2 -15 -13.5 -25.5t-25.5 -10.5t-22.5 10.5t-6.5 25.5t13.5 25.5t25.5 10.5z" />
    <glyph glyph-name="cedilla" unicode="&#xb8;" horiz-adv-x="350" 
d="M208 6l-32 -55q32 -2 49.5 -22t13.5 -50q-2 -18 -11 -34t-22 -27t-30.5 -17.5t-37.5 -6.5q-44 0 -72 22l17 28q21 -19 58 -19q27 0 46 16t22 40q2 20 -10.5 33.5t-34.5 13.5q-24 0 -31 -1l44 79h31z" />
    <glyph glyph-name="onesuperior" unicode="&#xb9;" horiz-adv-x="246" 
d="M154 291l54 377h-87l5 31h122l-59 -408h-35z" />
    <glyph glyph-name="ordmasculine" unicode="&#xba;" horiz-adv-x="398" 
d="M309 764q69 0 107.5 -43t28.5 -110q-10 -68 -60.5 -111t-119.5 -43q-46 0 -79 19.5t-47.5 54.5t-8.5 80q10 67 60 110t119 43zM304.5 733q-54.5 0 -94 -34.5t-47.5 -88.5t22 -88.5t84 -34.5t93.5 34t47.5 89t-21.5 89t-84 34z" />
    <glyph glyph-name="guillemetright" unicode="&#xbb;" horiz-adv-x="400" 
d="M221 253l-85 158h40l88 -158l-134 -161h-40zM348 253l-85 158h40l88 -158l-134 -161h-40z" />
    <glyph glyph-name="onequarter" unicode="&#xbc;" horiz-adv-x="735" 
d="M154 291l54 377h-87l5 31h122l-59 -408h-35zM28 0l634 699h44l-633 -699h-45zM623 141l18 120h34l-18 -120h65l-4 -29h-65l-16 -112h-34l16 112h-203l5 31l193 265h35l-193 -267h167z" />
    <glyph glyph-name="onehalf" unicode="&#xbd;" horiz-adv-x="758" 
d="M154 291l54 377h-87l5 31h122l-59 -408h-35zM28 0l634 699h44l-633 -699h-45zM618 409q57 0 86.5 -27t23.5 -72q-9 -58 -93 -130l-164 -149h244l-4 -31h-286l4 30l185 169q72 61 78 108q5 32 -17 51t-66 19q-64 0 -123 -50l-13 26q69 56 145 56z" />
    <glyph glyph-name="threequarters" unicode="&#xbe;" horiz-adv-x="801" 
d="M94 0l634 699h44l-633 -699h-45zM212 525l24 -1q59 -2 91.5 -30.5t25.5 -77.5q-8 -56 -52.5 -90.5t-110.5 -34.5q-73 0 -123 37l20 29q42 -37 105 -37q26 0 48 7t38 19.5t26.5 29.5t13.5 38q6 41 -20.5 62.5t-80.5 21.5h-49l3 23l156 148h-194l5 29h236l-4 -23zM689 141
l18 120h34l-18 -120h65l-4 -29h-65l-16 -112h-34l16 112h-203l5 31l193 265h35l-193 -267h167z" />
    <glyph glyph-name="questiondown" unicode="&#xbf;" horiz-adv-x="406" 
d="M287 455q-15 0 -23.5 10.5t-6.5 25.5t14 25.5t26 10.5t22.5 -10.5t6.5 -25.5q-2 -10 -7.5 -18t-14 -13t-17.5 -5zM362 -5l35 -1q-10 -50 -38.5 -85.5t-70.5 -53.5t-94 -18q-81 0 -124.5 39.5t-32.5 115.5q6 39 22.5 70.5t37.5 51t45 40.5t44.5 39.5t37 48t21.5 66.5h35
q-6 -47 -27.5 -82.5t-48.5 -58t-53.5 -44t-47.5 -54t-27 -74.5q-8 -58 26.5 -88.5t99.5 -30.5q64 0 105.5 30.5t54.5 88.5z" />
    <glyph glyph-name="Agrave" unicode="&#xc0;" horiz-adv-x="698" 
d="M455 799l-113 103l44 20l116 -123h-47zM582 199h-409l-119 -199h-46l418 699h45l219 -699h-46zM569 241l-128 410l-244 -410h372z" />
    <glyph glyph-name="Aacute" unicode="&#xc1;" horiz-adv-x="698" 
d="M471 799h-47l152 123l38 -20zM582 199h-409l-119 -199h-46l418 699h45l219 -699h-46zM569 241l-128 410l-244 -410h372z" />
    <glyph glyph-name="Acircumflex" unicode="&#xc2;" horiz-adv-x="698" 
d="M383 800h-42l117 117h46l83 -117h-42l-67 93zM582 199h-409l-119 -199h-46l418 699h45l219 -699h-46zM569 241l-128 410l-244 -410h372z" />
    <glyph glyph-name="Atilde" unicode="&#xc3;" horiz-adv-x="698" 
d="M415 873q-47 0 -55 -57h-32q6 44 29 68t58 24q21 0 41 -16.5t38.5 -33t34.5 -16.5q47 0 56 57h32q-5 -29 -16.5 -50t-29.5 -31.5t-42 -10.5q-19 0 -36 10.5t-27 22.5t-23.5 22.5t-27.5 10.5zM582 199h-409l-119 -199h-46l418 699h45l219 -699h-46zM569 241l-128 410
l-244 -410h372z" />
    <glyph glyph-name="Adieresis" unicode="&#xc4;" horiz-adv-x="698" 
d="M389 817q-14 0 -22.5 10.5t-6.5 25.5t13.5 25.5t25.5 10.5q9 0 16.5 -5t11 -13t2.5 -18q-2 -15 -14 -25.5t-26 -10.5zM545 817q-14 0 -22.5 10.5t-6.5 25.5t13.5 25.5t25.5 10.5q9 0 16.5 -5t11 -13t2.5 -18q-2 -15 -14 -25.5t-26 -10.5zM582 199h-409l-119 -199h-46
l418 699h45l219 -699h-46zM569 241l-128 410l-244 -410h372z" />
    <glyph glyph-name="Aring" unicode="&#xc5;" horiz-adv-x="698" 
d="M582 199h-409l-119 -199h-46l406 678q-34 11 -52.5 40.5t-13.5 65.5q6 45 45 78.5t85 33.5q47 0 76 -33.5t23 -78.5q-5 -37 -33 -66.5t-66 -40.5l212 -677h-46zM375 784q-5 -34 17.5 -58.5t57.5 -24.5q36 0 65.5 24.5t34.5 58.5t-17.5 58.5t-58.5 24.5q-23 0 -45 -11.5
t-36.5 -30.5t-17.5 -41zM569 241l-128 410l-244 -410h372z" />
    <glyph glyph-name="AE" unicode="&#xc6;" horiz-adv-x="1001" 
d="M945 42l-6 -42h-464l30 211h-295l-156 -211h-46l519 699h500l-6 -41h-410l-40 -279h365l-6 -42h-365l-43 -295h423zM511 249l59 411h-28l-304 -411h273z" />
    <glyph glyph-name="Ccedilla" unicode="&#xc7;" horiz-adv-x="703" 
d="M423 -1l-28 -48q32 -2 49.5 -22t13.5 -50q-4 -37 -32.5 -61t-68.5 -24q-44 0 -72 22l17 28q21 -19 58 -19q27 0 46 16t22 40q2 20 -10.5 33.5t-34.5 13.5q-24 0 -31 -1l40 72q-94 4 -167 51.5t-107.5 127t-21.5 172.5q11 71 49 136t93 112t126 74.5t144 27.5
q69 0 129 -25t103 -69l-29 -32q-38 41 -92 63.5t-116 22.5q-133 0 -239.5 -90.5t-124.5 -218.5q-13 -85 19.5 -156.5t100.5 -113t155 -41.5q125 0 232 85l22 -29q-110 -91 -245 -97z" />
    <glyph glyph-name="Egrave" unicode="&#xc8;" horiz-adv-x="647" 
d="M503 799h-47l-113 103l44 20zM666 658h-409l-40 -279h364l-6 -42h-364l-43 -296h422l-6 -41h-464l101 699h451z" />
    <glyph glyph-name="Eacute" unicode="&#xc9;" horiz-adv-x="647" 
d="M615 902l-143 -103h-47l152 123zM666 658h-409l-40 -279h364l-6 -42h-364l-43 -296h422l-6 -41h-464l101 699h451z" />
    <glyph glyph-name="Ecircumflex" unicode="&#xca;" horiz-adv-x="647" 
d="M588 800h-42l-67 93l-95 -93h-42l117 117h46zM666 658h-409l-40 -279h364l-6 -42h-364l-43 -296h422l-6 -41h-464l101 699h451z" />
    <glyph glyph-name="Edieresis" unicode="&#xcb;" horiz-adv-x="647" 
d="M400 889q9 0 16.5 -5t11 -13t2.5 -18q-2 -15 -14 -25.5t-26 -10.5t-22.5 10.5t-6.5 25.5t13.5 25.5t25.5 10.5zM556 889q9 0 16.5 -5t11 -13t2.5 -18q-2 -15 -14 -25.5t-26 -10.5t-22.5 10.5t-6.5 25.5t13.5 25.5t25.5 10.5zM666 658h-409l-40 -279h364l-6 -42h-364
l-43 -296h422l-6 -41h-464l101 699h451z" />
    <glyph glyph-name="Igrave" unicode="&#xcc;" horiz-adv-x="282" 
d="M294 799h-47l-113 103l44 20zM162 0h-42l101 699h42z" />
    <glyph glyph-name="Iacute" unicode="&#xcd;" horiz-adv-x="282" 
d="M406 902l-143 -103h-47l152 123zM162 0h-42l101 699h42z" />
    <glyph glyph-name="Icircumflex" unicode="&#xce;" horiz-adv-x="282" 
d="M379 800h-42l-67 93l-95 -93h-42l117 117h46zM162 0h-42l101 699h42z" />
    <glyph glyph-name="Idieresis" unicode="&#xcf;" horiz-adv-x="282" 
d="M191 889q9 0 16.5 -5t11 -13t2.5 -18q-2 -15 -14 -25.5t-26 -10.5t-22.5 10.5t-6.5 25.5t13.5 25.5t25.5 10.5zM347 889q9 0 16.5 -5t11 -13t2.5 -18q-2 -15 -14 -25.5t-26 -10.5t-22.5 10.5t-6.5 25.5q1 10 7 18t14.5 13t17.5 5zM162 0h-42l101 699h42z" />
    <glyph glyph-name="Eth" unicode="&#xd0;" horiz-adv-x="807" 
d="M225 699h278q98 0 174 -46.5t112 -127t22 -176.5q-13 -96 -72.5 -176t-149 -126.5t-188.5 -46.5h-277l48 336h-124l5 32h124zM172 41h237q131 0 236.5 90t123.5 218q12 85 -20 156t-99 112t-153 41h-236l-42 -290h248l-5 -32h-248z" />
    <glyph glyph-name="Ntilde" unicode="&#xd1;" horiz-adv-x="797" 
d="M466 908q21 0 41 -16.5t38.5 -33t34.5 -16.5q47 0 56 57h32q-5 -29 -16.5 -50t-29.5 -31.5t-42 -10.5q-19 0 -36 10.5t-27 22.5t-23.5 22.5t-27.5 10.5q-47 0 -55 -57h-32q6 44 29 68t58 24zM677 0h-49l-374 635l-92 -635h-42l101 699h49l375 -635l92 635h41z" />
    <glyph glyph-name="Ograve" unicode="&#xd2;" horiz-adv-x="816" 
d="M560 799h-47l-113 103l44 20zM508.5 700q98.5 0 175.5 -46.5t113.5 -127.5t23 -176t-73.5 -176t-150.5 -128t-189 -47t-175 47t-113 128t-23 176t73.5 176t150 127.5t188.5 46.5zM503 659q-86 0 -165.5 -41.5t-132.5 -112.5t-65.5 -155t20.5 -155.5t100.5 -113
t153.5 -41.5t165.5 41.5t132.5 113t65.5 155.5t-20.5 155t-100.5 112.5t-153.5 41.5z" />
    <glyph glyph-name="Oacute" unicode="&#xd3;" horiz-adv-x="816" 
d="M672 902l-143 -103h-47l152 123zM508.5 700q98.5 0 175.5 -46.5t113.5 -127.5t23 -176t-73.5 -176t-150.5 -128t-189 -47t-175 47t-113 128t-23 176t73.5 176t150 127.5t188.5 46.5zM503 659q-86 0 -165.5 -41.5t-132.5 -112.5t-65.5 -155t20.5 -155.5t100.5 -113
t153.5 -41.5t165.5 41.5t132.5 113t65.5 155.5t-20.5 155t-100.5 112.5t-153.5 41.5z" />
    <glyph glyph-name="Ocircumflex" unicode="&#xd4;" horiz-adv-x="816" 
d="M645 800h-42l-67 93l-95 -93h-42l117 117h46zM508.5 700q98.5 0 175.5 -46.5t113.5 -127.5t23 -176t-73.5 -176t-150.5 -128t-189 -47t-175 47t-113 128t-23 176t73.5 176t150 127.5t188.5 46.5zM503 659q-86 0 -165.5 -41.5t-132.5 -112.5t-65.5 -155t20.5 -155.5
t100.5 -113t153.5 -41.5t165.5 41.5t132.5 113t65.5 155.5t-20.5 155t-100.5 112.5t-153.5 41.5z" />
    <glyph glyph-name="Otilde" unicode="&#xd5;" horiz-adv-x="816" 
d="M474 908q21 0 41 -16.5t38.5 -33t34.5 -16.5q47 0 56 57h32q-5 -29 -16.5 -50t-29.5 -31.5t-42 -10.5q-19 0 -36 10.5t-27 22.5t-23.5 22.5t-27.5 10.5q-47 0 -55 -57h-32q6 44 29 68t58 24zM508.5 700q98.5 0 175.5 -46.5t113.5 -127.5t23 -176t-73.5 -176t-150.5 -128
t-189 -47t-175 47t-113 128t-23 176t73.5 176t150 127.5t188.5 46.5zM503 659q-86 0 -165.5 -41.5t-132.5 -112.5t-65.5 -155t20.5 -155.5t100.5 -113t153.5 -41.5t165.5 41.5t132.5 113t65.5 155.5t-20.5 155t-100.5 112.5t-153.5 41.5z" />
    <glyph glyph-name="Odieresis" unicode="&#xd6;" horiz-adv-x="816" 
d="M457 889q9 0 16.5 -5t11 -13t2.5 -18q-2 -15 -14 -25.5t-26 -10.5t-22.5 10.5t-6.5 25.5q1 10 7 18t14.5 13t17.5 5zM613 889q9 0 16.5 -5t11 -13t2.5 -18q-2 -15 -14 -25.5t-26 -10.5t-22.5 10.5t-6.5 25.5t13.5 25.5t25.5 10.5zM508.5 700q98.5 0 175.5 -46.5
t113.5 -127.5t23 -176t-73.5 -176t-150.5 -128t-189 -47t-175 47t-113 128t-23 176t73.5 176t150 127.5t188.5 46.5zM503 659q-86 0 -165.5 -41.5t-132.5 -112.5t-65.5 -155t20.5 -155.5t100.5 -113t153.5 -41.5t165.5 41.5t132.5 113t65.5 155.5t-20.5 155t-100.5 112.5
t-153.5 41.5z" />
    <glyph glyph-name="multiply" unicode="&#xd7;" horiz-adv-x="484" 
d="M312 321l112 -131l-26 -25l-113 132l-151 -132l-20 25l150 131l-112 132l27 24l113 -132l151 132l19 -24z" />
    <glyph glyph-name="Oslash" unicode="&#xd8;" horiz-adv-x="816" 
d="M682 815l-62 -133q105 -35 161 -126t39 -206q-13 -95 -73 -176t-150.5 -128t-188.5 -47q-52 0 -101 14l-69 -148h-32l73 158q-97 39 -147.5 128t-35.5 199q14 95 74 176t150 127.5t189 46.5q45 0 83 -10l58 125h32zM139 350q-13 -96 31 -174.5t128 -113.5l276 589
q-36 8 -71 8q-86 0 -165.5 -41.5t-132.5 -112.5t-66 -155zM414 40q86 0 165.5 41.5t132.5 113t65 155.5q15 101 -34.5 181.5t-140.5 111.5l-276 -590q40 -13 88 -13z" />
    <glyph glyph-name="Ugrave" unicode="&#xd9;" 
d="M539 799h-47l-113 103l44 20zM770 699l-60 -413q-19 -136 -104.5 -211.5t-219.5 -75.5t-197.5 75.5t-44.5 211.5l60 413h42l-60 -413q-17 -117 37.5 -181.5t168.5 -64.5q75 0 133.5 29t95 84t47.5 133l60 413h42z" />
    <glyph glyph-name="Uacute" unicode="&#xda;" 
d="M651 902l-143 -103h-47l152 123zM770 699l-60 -413q-19 -136 -104.5 -211.5t-219.5 -75.5t-197.5 75.5t-44.5 211.5l60 413h42l-60 -413q-17 -117 37.5 -181.5t168.5 -64.5q75 0 133.5 29t95 84t47.5 133l60 413h42z" />
    <glyph glyph-name="Ucircumflex" unicode="&#xdb;" 
d="M624 800h-42l-67 93l-95 -93h-42l117 117h46zM770 699l-60 -413q-19 -136 -104.5 -211.5t-219.5 -75.5t-197.5 75.5t-44.5 211.5l60 413h42l-60 -413q-17 -117 37.5 -181.5t168.5 -64.5q75 0 133.5 29t95 84t47.5 133l60 413h42z" />
    <glyph glyph-name="Udieresis" unicode="&#xdc;" 
d="M436 889q9 0 16.5 -5t11 -13t2.5 -18q-2 -15 -14 -25.5t-26 -10.5t-22.5 10.5t-6.5 25.5q1 10 7 18t14.5 13t17.5 5zM592 889q9 0 16.5 -5t11 -13t2.5 -18q-2 -15 -14 -25.5t-26 -10.5t-22.5 10.5t-6.5 25.5t13.5 25.5t25.5 10.5zM770 699l-60 -413
q-19 -136 -104.5 -211.5t-219.5 -75.5t-197.5 75.5t-44.5 211.5l60 413h42l-60 -413q-17 -117 37.5 -181.5t168.5 -64.5q75 0 133.5 29t95 84t47.5 133l60 413h42z" />
    <glyph glyph-name="Yacute" unicode="&#xdd;" horiz-adv-x="613" 
d="M429 799h-47l152 123l38 -20zM366 256l-37 -256h-41l37 254l-216 445h45l198 -393l309 393h45z" />
    <glyph glyph-name="Thorn" unicode="&#xde;" horiz-adv-x="666" 
d="M247 590h178q148 0 214.5 -56t50.5 -167q-33 -230 -330 -230h-178l-20 -137h-42l101 699h42zM187 176h177q255 0 283 190q13 93 -43.5 139t-185.5 46h-177z" />
    <glyph glyph-name="germandbls" unicode="&#xdf;" horiz-adv-x="643" 
d="M438 743q95 0 145 -50.5t37 -134.5q-9 -68 -55 -117t-113 -63q80 -11 121.5 -58.5t31.5 -119.5q-13 -90 -87 -145t-185 -55h-54l5 37h56q92 0 153 44.5t72 117.5q10 72 -42 114t-150 42h-6l5 37q55 0 99.5 20t72.5 56.5t35 85.5q6 46 -9.5 80t-51 52.5t-85.5 18.5
q-86 0 -145 -57t-73 -152l-71 -496h-41l71 494q17 113 88.5 181t175.5 68z" />
    <glyph glyph-name="agrave" unicode="&#xe0;" horiz-adv-x="567" 
d="M359 620l-113 103l44 20l116 -123h-47zM439 0l14 103q-79 -104 -223 -104q-77 0 -118.5 43t-31.5 110q9 65 66.5 102.5t147.5 37.5h185l7 51q6 44 -6.5 75.5t-45 48.5t-83.5 17q-86 0 -185 -68l-15 32q55 37 105 55.5t106 18.5q91 0 134 -47t32 -129l-48 -346h-41z
M241 37q156 0 221 133l13 85h-182q-77 0 -121.5 -26t-51.5 -76q-7 -52 25.5 -84t95.5 -32z" />
    <glyph glyph-name="aacute" unicode="&#xe1;" horiz-adv-x="567" 
d="M375 620h-47l152 123l38 -20zM439 0l14 103q-79 -104 -223 -104q-77 0 -118.5 43t-31.5 110q9 65 66.5 102.5t147.5 37.5h185l7 51q6 44 -6.5 75.5t-45 48.5t-83.5 17q-86 0 -185 -68l-15 32q55 37 105 55.5t106 18.5q91 0 134 -47t32 -129l-48 -346h-41zM241 37
q156 0 221 133l13 85h-182q-77 0 -121.5 -26t-51.5 -76q-7 -52 25.5 -84t95.5 -32z" />
    <glyph glyph-name="acircumflex" unicode="&#xe2;" horiz-adv-x="567" 
d="M286 621h-42l117 117h46l83 -117h-42l-67 93zM439 0l14 103q-79 -104 -223 -104q-77 0 -118.5 43t-31.5 110q9 65 66.5 102.5t147.5 37.5h185l7 51q6 44 -6.5 75.5t-45 48.5t-83.5 17q-86 0 -185 -68l-15 32q55 37 105 55.5t106 18.5q91 0 134 -47t32 -129l-48 -346h-41z
M241 37q156 0 221 133l13 85h-182q-77 0 -121.5 -26t-51.5 -76q-7 -52 25.5 -84t95.5 -32z" />
    <glyph glyph-name="atilde" unicode="&#xe3;" horiz-adv-x="567" 
d="M319 694q-47 0 -55 -57h-32q4 29 15.5 50t30 31.5t41.5 10.5q22 0 42 -16.5t38 -33t35 -16.5q47 0 55 57h32q-7 -44 -29.5 -68t-58.5 -24q-19 0 -36 10.5t-27 22.5t-23.5 22.5t-27.5 10.5zM439 0l14 103q-79 -104 -223 -104q-77 0 -118.5 43t-31.5 110q9 65 66.5 102.5
t147.5 37.5h185l7 51q6 44 -6.5 75.5t-45 48.5t-83.5 17q-86 0 -185 -68l-15 32q55 37 105 55.5t106 18.5q91 0 134 -47t32 -129l-48 -346h-41zM241 37q156 0 221 133l13 85h-182q-77 0 -121.5 -26t-51.5 -76q-7 -52 25.5 -84t95.5 -32z" />
    <glyph glyph-name="adieresis" unicode="&#xe4;" horiz-adv-x="567" 
d="M292 638q-14 0 -22.5 10.5t-6.5 25.5q2 10 7.5 18t14 13t18 5t16.5 -5t11 -13t2 -18q-2 -15 -14 -25.5t-26 -10.5zM448 638q-14 0 -22.5 10.5t-6.5 25.5q2 10 7.5 18t14 13t18 5t16.5 -5t11 -13t2 -18q-2 -15 -14 -25.5t-26 -10.5zM439 0l14 103q-79 -104 -223 -104
q-77 0 -118.5 43t-31.5 110q9 65 66.5 102.5t147.5 37.5h185l7 51q6 44 -6.5 75.5t-45 48.5t-83.5 17q-86 0 -185 -68l-15 32q55 37 105 55.5t106 18.5q91 0 134 -47t32 -129l-48 -346h-41zM241 37q156 0 221 133l13 85h-182q-77 0 -121.5 -26t-51.5 -76q-7 -52 25.5 -84
t95.5 -32z" />
    <glyph glyph-name="aring" unicode="&#xe5;" horiz-adv-x="567" 
d="M359 561q-46 0 -75 33t-22 77q6 45 44 78t84.5 33t75.5 -33t23 -78q-7 -44 -45.5 -77t-84.5 -33zM386.5 754q-35.5 0 -64.5 -24.5t-34 -58.5q-5 -33 17.5 -57.5t57.5 -24.5t64.5 24.5t34.5 57.5q5 34 -17.5 58.5t-58 24.5zM439 0l14 103q-79 -104 -223 -104
q-77 0 -118.5 43t-31.5 110q9 65 66.5 102.5t147.5 37.5h185l7 51q6 44 -6.5 75.5t-45 48.5t-83.5 17q-86 0 -185 -68l-15 32q55 37 105 55.5t106 18.5q91 0 134 -47t32 -129l-48 -346h-41zM241 37q156 0 221 133l13 85h-182q-77 0 -121.5 -26t-51.5 -76q-7 -52 25.5 -84
t95.5 -32z" />
    <glyph glyph-name="ae" unicode="&#xe6;" horiz-adv-x="985" 
d="M770 522q111 0 168 -75t39 -193h-459q-11 -97 41 -157t144 -60q108 0 186 72l21 -27q-90 -83 -214 -83q-80 0 -135.5 40t-74.5 109q-84 -149 -255 -149q-77 0 -119 42.5t-32 109.5q9 65 66.5 101t148.5 36h186l6 55q10 67 -24.5 104t-110.5 37q-89 0 -191 -68l-11 33
q115 73 212 73q78 0 121 -34.5t47 -96.5q41 61 104 96t136 35zM523 285h417q7 90 -40.5 145.5t-135 55.5t-154.5 -56t-87 -145zM242 34q77 0 135.5 36.5t101.5 119.5q-2 28 0 53l-4 1l2 13h-182q-77 0 -122.5 -27t-52.5 -77q-8 -53 25.5 -86t96.5 -33z" />
    <glyph glyph-name="ccedilla" unicode="&#xe7;" horiz-adv-x="559" 
d="M490 111l21 -27q-78 -79 -193 -85l-28 -48q32 -2 49.5 -22t13.5 -50q-4 -37 -32.5 -61t-68.5 -24q-44 0 -72 22l17 28q21 -19 58 -19q27 0 46 16t22 40q2 20 -10.5 33.5t-34.5 13.5q-24 0 -31 -1l40 72q-104 6 -160.5 78.5t-41.5 182.5q17 114 100 188t193 74
q113 0 176 -73l-29 -30q-58 63 -152 63t-163 -62t-83 -159q-15 -99 36.5 -161t145.5 -62q108 0 181 73z" />
    <glyph glyph-name="egrave" unicode="&#xe8;" horiz-adv-x="589" 
d="M376 620l-113 103l44 20l116 -123h-47zM377 522q114 0 168.5 -75.5t34.5 -197.5h-455q-9 -95 42 -153.5t142 -58.5q111 0 187 72l20 -27q-89 -83 -214 -83q-111 0 -172 73.5t-44.5 188t99 188t192.5 73.5zM131 286h416q7 90 -40 144t-135 54t-154.5 -54.5t-86.5 -143.5z
" />
    <glyph glyph-name="eacute" unicode="&#xe9;" horiz-adv-x="589" 
d="M392 620h-47l152 123l38 -20zM377 522q114 0 168.5 -75.5t34.5 -197.5h-455q-9 -95 42 -153.5t142 -58.5q111 0 187 72l20 -27q-89 -83 -214 -83q-111 0 -172 73.5t-44.5 188t99 188t192.5 73.5zM131 286h416q7 90 -40 144t-135 54t-154.5 -54.5t-86.5 -143.5z" />
    <glyph glyph-name="ecircumflex" unicode="&#xea;" horiz-adv-x="589" 
d="M304 621h-42l117 117h46l83 -117h-42l-67 93zM377 522q114 0 168.5 -75.5t34.5 -197.5h-455q-9 -95 42 -153.5t142 -58.5q111 0 187 72l20 -27q-89 -83 -214 -83q-111 0 -172 73.5t-44.5 188t99 188t192.5 73.5zM131 286h416q7 90 -40 144t-135 54t-154.5 -54.5
t-86.5 -143.5z" />
    <glyph glyph-name="edieresis" unicode="&#xeb;" horiz-adv-x="589" 
d="M310 638q-14 0 -22.5 10.5t-6.5 25.5q2 10 7.5 18t14 13t18 5t16.5 -5t11 -13t2 -18q-2 -15 -14 -25.5t-26 -10.5zM466 638q-14 0 -22.5 10.5t-6.5 25.5t13.5 25.5t25.5 10.5q10 0 17 -5t11 -13t2 -18q-2 -15 -14 -25.5t-26 -10.5zM377 522q114 0 168.5 -75.5
t34.5 -197.5h-455q-9 -95 42 -153.5t142 -58.5q111 0 187 72l20 -27q-89 -83 -214 -83q-111 0 -172 73.5t-44.5 188t99 188t192.5 73.5zM131 286h416q7 90 -40 144t-135 54t-154.5 -54.5t-86.5 -143.5z" />
    <glyph glyph-name="igrave" unicode="&#xec;" horiz-adv-x="250" 
d="M252 620h-47l-113 103l44 20zM145 0h-41l75 521h41z" />
    <glyph glyph-name="iacute" unicode="&#xed;" horiz-adv-x="250" 
d="M364 723l-143 -103h-47l152 123zM145 0h-41l75 521h41z" />
    <glyph glyph-name="icircumflex" unicode="&#xee;" horiz-adv-x="250" 
d="M337 621h-42l-67 93l-95 -93h-42l117 117h46zM145 0h-41l75 521h41z" />
    <glyph glyph-name="idieresis" unicode="&#xef;" horiz-adv-x="250" 
d="M149 710q10 0 17 -5t11 -13t2.5 -18t-7.5 -18t-15 -13t-18 -5q-14 0 -22.5 10.5t-6.5 25.5t13.5 25.5t25.5 10.5zM305.5 710q9.5 0 16.5 -5t11 -13t2 -18q-2 -15 -14 -25.5t-26 -10.5t-22.5 10.5t-6.5 25.5q2 10 7.5 18t14 13t18 5zM145 0h-41l75 521h41z" />
    <glyph glyph-name="eth" unicode="&#xf0;" horiz-adv-x="571" 
d="M538 652l-108 -31q76 -84 109.5 -184.5t19.5 -200.5q-16 -108 -91.5 -172.5t-186.5 -64.5q-103 0 -156 61t-38 163q14 98 84.5 157t173.5 59q67 0 117 -30.5t67 -81.5q-21 153 -141 281l-144 -42l-4 29l124 37q-53 51 -112 84l30 27q66 -39 126 -98l126 37zM293 39
q89 0 149 49t72 131q12 84 -34 134t-135 50q-88 0 -147 -48t-70 -129q-13 -85 32 -136t133 -51z" />
    <glyph glyph-name="ntilde" unicode="&#xf1;" horiz-adv-x="648" 
d="M376 694q-47 0 -55 -57h-32q4 29 15.5 50t30 31.5t41.5 10.5q22 0 42 -16.5t38 -33t35 -16.5q47 0 55 57h32q-4 -29 -16 -50t-30 -31.5t-42 -10.5q-19 0 -36 10.5t-27 22.5t-23.5 22.5t-27.5 10.5zM434 522q95 0 141 -54.5t32 -149.5l-46 -318h-42l45 310q7 53 -7.5 91.5
t-50 58.5t-88.5 20q-90 -2 -151 -54.5t-80 -143.5l-41 -282h-42l75 521h42l-19 -133q72 131 232 134z" />
    <glyph glyph-name="ograve" unicode="&#xf2;" horiz-adv-x="610" 
d="M432 620h-47l-113 103l44 20zM380 522q112 0 174 -73.5t46 -187.5q-17 -115 -100 -188.5t-195 -73.5t-174 73.5t-45 188.5q16 114 99.5 187.5t194.5 73.5zM374 482q-94 0 -163.5 -62t-84 -160t37.5 -160t146 -62q95 0 164.5 62t84 160t-37.5 160t-147 62z" />
    <glyph glyph-name="oacute" unicode="&#xf3;" horiz-adv-x="610" 
d="M545 723l-143 -103h-47l152 123zM380 522q112 0 174 -73.5t46 -187.5q-17 -115 -100 -188.5t-195 -73.5t-174 73.5t-45 188.5q16 114 99.5 187.5t194.5 73.5zM374 482q-94 0 -163.5 -62t-84 -160t37.5 -160t146 -62q95 0 164.5 62t84 160t-37.5 160t-147 62z" />
    <glyph glyph-name="ocircumflex" unicode="&#xf4;" horiz-adv-x="610" 
d="M517 621h-42l-67 93l-95 -93h-42l117 117h46zM380 522q112 0 174 -73.5t46 -187.5q-17 -115 -100 -188.5t-195 -73.5t-174 73.5t-45 188.5q16 114 99.5 187.5t194.5 73.5zM374 482q-94 0 -163.5 -62t-84 -160t37.5 -160t146 -62q95 0 164.5 62t84 160t-37.5 160t-147 62z
" />
    <glyph glyph-name="otilde" unicode="&#xf5;" horiz-adv-x="610" 
d="M346 729q22 0 42 -16.5t38 -33t35 -16.5q47 0 55 57h32q-7 -44 -29.5 -68t-58.5 -24q-19 0 -36 10.5t-27 22.5t-23.5 22.5t-27.5 10.5q-47 0 -55 -57h-32q4 29 15.5 50t30 31.5t41.5 10.5zM380 522q112 0 174 -73.5t46 -187.5q-17 -115 -100 -188.5t-195 -73.5t-174 73.5
t-45 188.5q16 114 99.5 187.5t194.5 73.5zM374 482q-94 0 -163.5 -62t-84 -160t37.5 -160t146 -62q95 0 164.5 62t84 160t-37.5 160t-147 62z" />
    <glyph glyph-name="odieresis" unicode="&#xf6;" horiz-adv-x="610" 
d="M329.5 710q9.5 0 16.5 -5t11 -13t2 -18q-2 -15 -14 -25.5t-26 -10.5t-22.5 10.5t-6.5 25.5q2 10 7.5 18t14 13t18 5zM485 710q10 0 17 -5t11 -13t2 -18q-2 -15 -14 -25.5t-26 -10.5t-22.5 10.5t-6.5 25.5t13.5 25.5t25.5 10.5zM380 522q112 0 174 -73.5t46 -187.5
q-17 -115 -100 -188.5t-195 -73.5t-174 73.5t-45 188.5q16 114 99.5 187.5t194.5 73.5zM374 482q-94 0 -163.5 -62t-84 -160t37.5 -160t146 -62q95 0 164.5 62t84 160t-37.5 160t-147 62z" />
    <glyph glyph-name="divide" unicode="&#xf7;" horiz-adv-x="484" 
d="M322 536q14 0 22.5 -10.5t6.5 -25.5q-1 -10 -7 -18t-14.5 -13t-17.5 -5q-14 0 -23 10.5t-7 25.5t14 25.5t26 10.5zM489 304h-406l5 34h406zM271.5 185q14.5 0 23 -10.5t5.5 -25.5q-1 -10 -6.5 -18t-14 -13t-18.5 -5q-14 0 -23 10.5t-6.5 25.5t14 25.5t26 10.5z" />
    <glyph glyph-name="oslash" unicode="&#xf8;" horiz-adv-x="610" 
d="M540 656l-70 -149q72 -26 107 -92t23 -154q-17 -115 -100 -188.5t-195 -73.5q-34 0 -66 8l-74 -158h-28l77 166q-71 27 -106 92.5t-22 153.5q16 114 99.5 187.5t194.5 73.5q34 0 66 -8l66 142h28zM125 260q-10 -75 18.5 -130.5t86.5 -79.5l199 429q-25 6 -54 6
q-95 0 -165 -63t-85 -162zM310 36q95 0 165 62.5t84 161.5q11 75 -17.5 131t-87.5 80l-199 -429q26 -6 55 -6z" />
    <glyph glyph-name="ugrave" unicode="&#xf9;" horiz-adv-x="641" 
d="M398 620l-113 103l44 20l116 -123h-47zM611 521l-75 -521h-41l20 139q-34 -68 -93 -103.5t-136 -36.5q-94 0 -139 54t-31 150l46 318h41l-45 -310q-11 -80 26.5 -125t116.5 -45q94 2 156 62t76 163l37 255h41z" />
    <glyph glyph-name="uacute" unicode="&#xfa;" horiz-adv-x="641" 
d="M414 620h-47l152 123l38 -20zM611 521l-75 -521h-41l20 139q-34 -68 -93 -103.5t-136 -36.5q-94 0 -139 54t-31 150l46 318h41l-45 -310q-11 -80 26.5 -125t116.5 -45q94 2 156 62t76 163l37 255h41z" />
    <glyph glyph-name="ucircumflex" unicode="&#xfb;" horiz-adv-x="641" 
d="M326 621h-42l117 117h46l83 -117h-42l-67 93zM611 521l-75 -521h-41l20 139q-34 -68 -93 -103.5t-136 -36.5q-94 0 -139 54t-31 150l46 318h41l-45 -310q-11 -80 26.5 -125t116.5 -45q94 2 156 62t76 163l37 255h41z" />
    <glyph glyph-name="udieresis" unicode="&#xfc;" horiz-adv-x="641" 
d="M332 638q-14 0 -22.5 10.5t-6.5 25.5q2 10 7.5 18t14 13t18 5t16.5 -5t11 -13t2 -18q-2 -15 -14 -25.5t-26 -10.5zM488 638q-14 0 -22.5 10.5t-6.5 25.5t13.5 25.5t25.5 10.5q10 0 17 -5t11 -13t2 -18q-2 -15 -14 -25.5t-26 -10.5zM611 521l-75 -521h-41l20 139
q-34 -68 -93 -103.5t-136 -36.5q-94 0 -139 54t-31 150l46 318h41l-45 -310q-11 -80 26.5 -125t116.5 -45q94 2 156 62t76 163l37 255h41z" />
    <glyph glyph-name="yacute" unicode="&#xfd;" horiz-adv-x="473" 
d="M480 723l-143 -103h-47l152 123zM549 521l-328 -596q-32 -58 -73.5 -89t-87.5 -31q-59 0 -95 30l23 36q31 -24 76 -24q73 0 125 94l33 59l-140 521h44l124 -472l255 472h44z" />
    <glyph glyph-name="thorn" unicode="&#xfe;" horiz-adv-x="671" 
d="M447 522q110 0 170 -73.5t43 -188.5q-16 -114 -97 -187.5t-191 -73.5q-76 0 -128.5 36.5t-72.5 100.5l-48 -330h-42l135 936h42l-52 -358q39 65 102.5 101.5t138.5 36.5zM371 38q95 0 165 62.5t83.5 159.5t-38 160t-145.5 63t-164 -63t-83.5 -160t38 -159.5t144.5 -62.5z
" />
    <glyph glyph-name="ydieresis" unicode="&#xff;" horiz-adv-x="473" 
d="M265 710q10 0 17 -5t11 -13t2 -18q-2 -15 -14 -25.5t-26 -10.5t-22.5 10.5t-6.5 25.5t13.5 25.5t25.5 10.5zM421 710q10 0 17 -5t11 -13t2 -18q-2 -15 -14 -25.5t-26 -10.5t-22.5 10.5t-6.5 25.5t13.5 25.5t25.5 10.5zM549 521l-328 -596q-32 -58 -73.5 -89t-87.5 -31
q-59 0 -95 30l23 36q31 -24 76 -24q73 0 125 94l33 59l-140 521h44l124 -472l255 472h44z" />
    <glyph glyph-name="Amacron" unicode="&#x100;" horiz-adv-x="698" 
d="M581 832h-225l5 36h225zM582 199h-409l-119 -199h-46l418 699h45l219 -699h-46zM569 241l-128 410l-244 -410h372z" />
    <glyph glyph-name="amacron" unicode="&#x101;" horiz-adv-x="567" 
d="M485 653h-225l5 36h225zM439 0l14 103q-79 -104 -223 -104q-77 0 -118.5 43t-31.5 110q9 65 66.5 102.5t147.5 37.5h185l7 51q6 44 -6.5 75.5t-45 48.5t-83.5 17q-86 0 -185 -68l-15 32q55 37 105 55.5t106 18.5q91 0 134 -47t32 -129l-48 -346h-41zM241 37
q156 0 221 133l13 85h-182q-77 0 -121.5 -26t-51.5 -76q-7 -52 25.5 -84t95.5 -32z" />
    <glyph glyph-name="Abreve" unicode="&#x102;" horiz-adv-x="698" 
d="M464 796q-47 0 -75 32t-22 82h33q-3 -34 16.5 -57t52.5 -23t59 22.5t32 57.5h33q-4 -25 -16 -46t-29.5 -36t-39 -23.5t-44.5 -8.5zM582 199h-409l-119 -199h-46l418 699h45l219 -699h-46zM569 241l-128 410l-244 -410h372z" />
    <glyph glyph-name="abreve" unicode="&#x103;" horiz-adv-x="567" 
d="M367 618q-47 0 -74.5 32t-22.5 82h33q-3 -35 16.5 -57.5t52.5 -22.5q22 0 41.5 10.5t32.5 28.5t17 41h33q-4 -25 -16 -46t-29.5 -36t-39 -23.5t-44.5 -8.5zM439 0l14 103q-79 -104 -223 -104q-77 0 -118.5 43t-31.5 110q9 65 66.5 102.5t147.5 37.5h185l7 51
q6 44 -6.5 75.5t-45 48.5t-83.5 17q-86 0 -185 -68l-15 32q55 37 105 55.5t106 18.5q91 0 134 -47t32 -129l-48 -346h-41zM241 37q156 0 221 133l13 85h-182q-77 0 -121.5 -26t-51.5 -76q-7 -52 25.5 -84t95.5 -32z" />
    <glyph glyph-name="Aogonek" unicode="&#x104;" horiz-adv-x="698" 
d="M690 0h-8q-69 -77 -76 -125q-3 -20 7 -32t28 -12q27 0 63 34l15 -20q-41 -45 -86 -45q-28 0 -44.5 19t-12.5 52q7 46 76 129h-8l-63 199h-408l-119 -199h-46l419 699h44zM196 241h375l-130 410z" />
    <glyph glyph-name="aogonek" unicode="&#x105;" horiz-adv-x="571" 
d="M366 522q90 0 133 -47t32 -129l-50 -346h-8q-52 -43 -73.5 -72t-24.5 -53q-3 -21 6.5 -32.5t27.5 -11.5q29 0 63 34l15 -20q-42 -45 -86 -45q-18 0 -32 8.5t-21 24.5t-4 37q8 55 103 135h-5l14 97q-41 -52 -98.5 -77.5t-120.5 -25.5q-83 0 -125 43t-32 108
q9 67 66.5 104.5t148.5 37.5h187l7 51q9 67 -25 104t-109 37q-89 0 -189 -68l-15 32q36 24 67.5 39.5t69.5 25t78 9.5zM478 255h-184q-159 0 -174 -104q-7 -50 25.5 -82t102.5 -32q66 0 124.5 32.5t92.5 97.5z" />
    <glyph glyph-name="Cacute" unicode="&#x106;" horiz-adv-x="703" 
d="M623 902l-143 -103h-47l152 123zM508 700q69 0 129 -25t103 -69l-29 -32q-38 41 -92 63.5t-116 22.5q-133 0 -239.5 -90.5t-124.5 -218.5q-13 -85 19.5 -156.5t100.5 -113t155 -41.5q125 0 232 85l22 -29q-56 -46 -124 -71.5t-137 -25.5q-98 0 -174.5 47t-113 128
t-23.5 176q11 71 49 136t93 112t126 74.5t144 27.5z" />
    <glyph glyph-name="cacute" unicode="&#x107;" horiz-adv-x="559" 
d="M520 723l-143 -103h-47l152 123zM378 522q113 0 176 -73l-29 -30q-58 63 -152 63t-163 -62t-83 -159q-15 -99 36.5 -161t145.5 -62q108 0 181 73l21 -27q-85 -85 -208 -85q-111 0 -172.5 73.5t-45 187.5t99.5 188t193 74z" />
    <glyph glyph-name="Ccircumflex" unicode="&#x108;" horiz-adv-x="703" 
d="M595 800h-42l-67 93l-95 -93h-42l117 117h46zM508 700q69 0 129 -25t103 -69l-29 -32q-38 41 -92 63.5t-116 22.5q-133 0 -239.5 -90.5t-124.5 -218.5q-13 -85 19.5 -156.5t100.5 -113t155 -41.5q125 0 232 85l22 -29q-56 -46 -124 -71.5t-137 -25.5q-98 0 -174.5 47
t-113 128t-23.5 176q11 71 49 136t93 112t126 74.5t144 27.5z" />
    <glyph glyph-name="ccircumflex" unicode="&#x109;" horiz-adv-x="559" 
d="M493 621h-42l-67 93l-95 -93h-42l117 117h46zM378 522q113 0 176 -73l-29 -30q-58 63 -152 63t-163 -62t-83 -159q-15 -99 36.5 -161t145.5 -62q108 0 181 73l21 -27q-85 -85 -208 -85q-111 0 -172.5 73.5t-45 187.5t99.5 188t193 74z" />
    <glyph glyph-name="Cdotaccent" unicode="&#x10a;" horiz-adv-x="703" 
d="M485 886q9 0 16.5 -5t11 -13t1.5 -18q-2 -16 -13.5 -26.5t-26 -10.5t-23.5 10.5t-7 26.5q3 15 14.5 25.5t26.5 10.5zM508 700q69 0 129 -25t103 -69l-29 -32q-38 41 -92 63.5t-116 22.5q-133 0 -239.5 -90.5t-124.5 -218.5q-13 -85 19.5 -156.5t100.5 -113t155 -41.5
q125 0 232 85l22 -29q-56 -46 -124 -71.5t-137 -25.5q-98 0 -174.5 47t-113 128t-23.5 176q11 71 49 136t93 112t126 74.5t144 27.5z" />
    <glyph glyph-name="cdotaccent" unicode="&#x10b;" horiz-adv-x="559" 
d="M383 707q9 0 16.5 -5t11 -13t2.5 -18q-3 -16 -14.5 -26.5t-26 -10.5t-23.5 10.5t-6 26.5q2 15 14 25.5t26 10.5zM378 522q113 0 176 -73l-29 -30q-58 63 -152 63t-163 -62t-83 -159q-15 -99 36.5 -161t145.5 -62q108 0 181 73l21 -27q-85 -85 -208 -85
q-111 0 -172.5 73.5t-45 187.5t99.5 188t193 74z" />
    <glyph glyph-name="Ccaron" unicode="&#x10c;" horiz-adv-x="703" 
d="M364 917h43l68 -95l96 95h43l-118 -120h-48zM508 700q69 0 129 -25t103 -69l-29 -32q-38 41 -92 63.5t-116 22.5q-133 0 -239.5 -90.5t-124.5 -218.5q-13 -85 19.5 -156.5t100.5 -113t155 -41.5q125 0 232 85l22 -29q-56 -46 -124 -71.5t-137 -25.5q-98 0 -174.5 47
t-113 128t-23.5 176q11 71 49 136t93 112t126 74.5t144 27.5z" />
    <glyph glyph-name="ccaron" unicode="&#x10d;" horiz-adv-x="559" 
d="M261 738h43l69 -95l95 95h43l-118 -120h-48zM378 522q113 0 176 -73l-29 -30q-58 63 -152 63t-163 -62t-83 -159q-15 -99 36.5 -161t145.5 -62q108 0 181 73l21 -27q-85 -85 -208 -85q-111 0 -172.5 73.5t-45 187.5t99.5 188t193 74z" />
    <glyph glyph-name="Dcaron" unicode="&#x10e;" horiz-adv-x="803" 
d="M388 917h43l68 -95l96 95h43l-118 -120h-48zM221 699h278q98 0 174 -46.5t112 -127t22 -176.5q-13 -95 -72.5 -175.5t-149.5 -127t-188 -46.5h-277zM257 658l-89 -617h236q131 0 236.5 90t123.5 218q12 85 -20 156t-99 112t-153 41h-235z" />
    <glyph glyph-name="dcaron" unicode="&#x10f;" horiz-adv-x="683" 
d="M631 742h42l-107 -742h-42l20 136q-39 -65 -103 -102t-139 -37q-111 0 -172 74t-45 189q17 115 99 189.5t193 74.5q76 0 129 -37t73 -102zM774 696q14 0 22.5 -10.5t6.5 -25.5q-2 -13 -17 -32l-45 -57h-28l36 57q-17 9 -14 32q2 16 13.5 26t25.5 10zM312 36q95 0 165 63
t84.5 161t-38 161t-146.5 63t-165 -63.5t-86 -160.5q-13 -98 39 -161t147 -63z" />
    <glyph glyph-name="Dcroat" unicode="&#x110;" horiz-adv-x="803" 
d="M614 832h-225l5 36h225zM221 699h278q98 0 174 -46.5t112 -127t22 -176.5q-13 -95 -72.5 -175.5t-149.5 -127t-188 -46.5h-277zM257 658l-89 -617h236q131 0 236.5 90t123.5 218q12 85 -20 156t-99 112t-153 41h-235z" />
    <glyph glyph-name="dcroat" unicode="&#x111;" horiz-adv-x="675" 
d="M733 647h-74l-93 -647h-42l20 136q-39 -65 -103 -102t-139 -37q-111 0 -172 74t-45 189q17 115 99 189.5t193 74.5q76 0 129 -37t73 -102l38 262h-116l5 31h116l9 64h42l-9 -64h74zM312 36q95 0 165 63t84.5 161t-38 161t-146.5 63t-165 -63.5t-86 -160.5
q-13 -98 39 -161t147 -63z" />
    <glyph glyph-name="Emacron" unicode="&#x112;" horiz-adv-x="647" 
d="M582 832h-225l5 36h225zM666 658h-409l-40 -279h364l-6 -42h-364l-43 -296h422l-6 -41h-464l101 699h451z" />
    <glyph glyph-name="emacron" unicode="&#x113;" horiz-adv-x="589" 
d="M502 653h-225l5 36h225zM377 522q114 0 168.5 -75.5t34.5 -197.5h-455q-9 -95 42 -153.5t142 -58.5q111 0 187 72l20 -27q-89 -83 -214 -83q-111 0 -172 73.5t-44.5 188t99 188t192.5 73.5zM131 286h416q7 90 -40 144t-135 54t-154.5 -54.5t-86.5 -143.5z" />
    <glyph glyph-name="Ebreve" unicode="&#x114;" horiz-adv-x="647" 
d="M561 910h33q-4 -25 -16 -46t-29.5 -36t-39 -23.5t-44.5 -8.5q-47 0 -75 32t-22 82h33q-3 -34 16.5 -57t52.5 -23t59 22.5t32 57.5zM666 658h-409l-40 -279h364l-6 -42h-364l-43 -296h422l-6 -41h-464l101 699h451z" />
    <glyph glyph-name="ebreve" unicode="&#x115;" horiz-adv-x="589" 
d="M385 618q-47 0 -74.5 32t-22.5 82h33q-3 -35 16.5 -57.5t52.5 -22.5t59 23t32 57h33q-3 -20 -11.5 -37.5t-21 -31.5t-27.5 -24t-33 -15.5t-36 -5.5zM377 522q114 0 168.5 -75.5t34.5 -197.5h-455q-9 -95 42 -153.5t142 -58.5q111 0 187 72l20 -27q-89 -83 -214 -83
q-111 0 -172 73.5t-44.5 188t99 188t192.5 73.5zM131 286h416q7 90 -40 144t-135 54t-154.5 -54.5t-86.5 -143.5z" />
    <glyph glyph-name="Edotaccent" unicode="&#x116;" horiz-adv-x="647" 
d="M478 886q9 0 16.5 -5t11 -13t1.5 -18q-2 -16 -13.5 -26.5t-26 -10.5t-23.5 10.5t-7 26.5q3 15 14.5 25.5t26.5 10.5zM666 658h-409l-40 -279h364l-6 -42h-364l-43 -296h422l-6 -41h-464l101 699h451z" />
    <glyph glyph-name="edotaccent" unicode="&#x117;" horiz-adv-x="589" 
d="M387 634q-14 0 -23 10.5t-6 26.5q2 15 14 25.5t26 10.5q9 0 16.5 -5t11 -13t2.5 -18q-2 -10 -8 -18.5t-14.5 -13.5t-18.5 -5zM377 522q114 0 168.5 -75.5t34.5 -197.5h-455q-9 -95 42 -153.5t142 -58.5q111 0 187 72l20 -27q-89 -83 -214 -83q-111 0 -172 73.5t-44.5 188
t99 188t192.5 73.5zM131 286h416q7 90 -40 144t-135 54t-154.5 -54.5t-86.5 -143.5z" />
    <glyph glyph-name="Eogonek" unicode="&#x118;" horiz-adv-x="649" 
d="M668 660h-411l-41 -282h366l-5 -39h-366l-43 -300h424l-6 -39h-58q-69 -78 -76 -125q-3 -21 6.5 -32.5t28.5 -11.5q28 0 62 34l16 -20q-41 -45 -86 -45q-29 0 -45 19t-12 52q7 48 77 129h-379l101 699h453z" />
    <glyph glyph-name="eogonek" unicode="&#x119;" horiz-adv-x="589" 
d="M377 522q113 1 168 -74.5t35 -198.5h-454q-11 -94 40 -153t143 -59q111 0 187 72l20 -27q-115 -124 -127 -206q-2 -14 2 -24.5t12.5 -15.5t20.5 -5q25 0 61 34l15 -20q-41 -45 -84 -45q-29 0 -45.5 19t-12.5 52q11 73 98 174q-72 -46 -155 -46q-110 0 -171 73.5
t-44 188.5q16 113 97.5 186.5t193.5 74.5zM372 484q-88 0 -155 -55t-86 -143h416q7 89 -40 143.5t-135 54.5z" />
    <glyph glyph-name="Ecaron" unicode="&#x11a;" horiz-adv-x="647" 
d="M356 917h43l68 -95l96 95h43l-118 -120h-48zM666 658h-409l-40 -279h364l-6 -42h-364l-43 -296h422l-6 -41h-464l101 699h451z" />
    <glyph glyph-name="ecaron" unicode="&#x11b;" horiz-adv-x="589" 
d="M360 618l-84 120h43l69 -95l95 95h43l-118 -120h-48zM377 522q114 0 168.5 -75.5t34.5 -197.5h-455q-9 -95 42 -153.5t142 -58.5q111 0 187 72l20 -27q-89 -83 -214 -83q-111 0 -172 73.5t-44.5 188t99 188t192.5 73.5zM131 286h416q7 90 -40 144t-135 54t-154.5 -54.5
t-86.5 -143.5z" />
    <glyph glyph-name="Gcircumflex" unicode="&#x11c;" horiz-adv-x="758" 
d="M416 800h-42l117 117h46l83 -117h-42l-67 93zM666 343h38l-36 -253q-56 -43 -124 -67t-137 -24q-98 0 -174.5 47t-113 128t-23 176t74 176t150.5 127.5t189 46.5q141 0 233 -92l-30 -31q-19 20 -42 35t-49.5 26t-56.5 16.5t-61 5.5q-87 0 -167 -41.5t-133 -113
t-66 -155.5q-12 -85 21 -156.5t101 -113t155 -41.5q116 0 218 72z" />
    <glyph glyph-name="gcircumflex" unicode="&#x11d;" horiz-adv-x="632" 
d="M324 621h-42l117 117h46l83 -117h-42l-67 93zM617 521l-67 -464q-16 -115 -94.5 -183.5t-193.5 -67.5q-119 3 -199 85l27 31q68 -74 177 -77q96 -1 162.5 57t80.5 155l14 98q-24 -41 -59 -71.5t-79.5 -46.5t-93.5 -16q-105 0 -163 70.5t-42 179.5t94 180t182 71
q74 0 125 -36t70 -99l19 134h40zM302 57q90 0 158 60.5t81 152.5q13 93 -37 153.5t-140 60.5t-157.5 -60.5t-80.5 -153.5t36.5 -153t139.5 -60z" />
    <glyph glyph-name="Gbreve" unicode="&#x11e;" horiz-adv-x="758" 
d="M497 796q-47 0 -75 32t-22 82h33q-3 -34 16.5 -57t52.5 -23t59 22.5t32 57.5h33q-4 -25 -16 -46t-29.5 -36t-39 -23.5t-44.5 -8.5zM666 343h38l-36 -253q-56 -43 -124 -67t-137 -24q-98 0 -174.5 47t-113 128t-23 176t74 176t150.5 127.5t189 46.5q141 0 233 -92l-30 -31
q-19 20 -42 35t-49.5 26t-56.5 16.5t-61 5.5q-87 0 -167 -41.5t-133 -113t-66 -155.5q-12 -85 21 -156.5t101 -113t155 -41.5q116 0 218 72z" />
    <glyph glyph-name="gbreve" unicode="&#x11f;" horiz-adv-x="632" 
d="M405 618q-47 0 -74.5 32t-22.5 82h33q-3 -35 16.5 -57.5t52.5 -22.5q22 0 41.5 10.5t32.5 28.5t17 41h33q-4 -25 -16 -46t-29.5 -36t-39 -23.5t-44.5 -8.5zM617 521l-67 -464q-16 -115 -94.5 -183.5t-193.5 -67.5q-119 3 -199 85l27 31q68 -74 177 -77q96 -1 162.5 57
t80.5 155l14 98q-24 -41 -59 -71.5t-79.5 -46.5t-93.5 -16q-105 0 -163 70.5t-42 179.5t94 180t182 71q74 0 125 -36t70 -99l19 134h40zM302 57q90 0 158 60.5t81 152.5q13 93 -37 153.5t-140 60.5t-157.5 -60.5t-80.5 -153.5t36.5 -153t139.5 -60z" />
    <glyph glyph-name="Gdotaccent" unicode="&#x120;" horiz-adv-x="758" 
d="M499.5 813q-14.5 0 -23.5 10.5t-7 26.5q3 15 14.5 25.5t26.5 10.5q9 0 16.5 -5t11 -13t1.5 -18q-2 -16 -13.5 -26.5t-26 -10.5zM666 343h38l-36 -253q-56 -43 -124 -67t-137 -24q-98 0 -174.5 47t-113 128t-23 176t74 176t150.5 127.5t189 46.5q141 0 233 -92l-30 -31
q-19 20 -42 35t-49.5 26t-56.5 16.5t-61 5.5q-87 0 -167 -41.5t-133 -113t-66 -155.5q-12 -85 21 -156.5t101 -113t155 -41.5q116 0 218 72z" />
    <glyph glyph-name="gdotaccent" unicode="&#x121;" horiz-adv-x="632" 
d="M407.5 634q-14.5 0 -23.5 10.5t-6 26.5q2 15 14 25.5t26 10.5q9 0 16.5 -5t11 -13t2.5 -18q-3 -16 -14.5 -26.5t-26 -10.5zM617 521l-67 -464q-16 -115 -94.5 -183.5t-193.5 -67.5q-119 3 -199 85l27 31q68 -74 177 -77q96 -1 162.5 57t80.5 155l14 98q-24 -41 -59 -71.5
t-79.5 -46.5t-93.5 -16q-105 0 -163 70.5t-42 179.5t94 180t182 71q74 0 125 -36t70 -99l19 134h40zM302 57q90 0 158 60.5t81 152.5q13 93 -37 153.5t-140 60.5t-157.5 -60.5t-80.5 -153.5t36.5 -153t139.5 -60z" />
    <glyph glyph-name="Gcommaaccent" unicode="&#x122;" horiz-adv-x="758" 
d="M666 343h38l-36 -253q-56 -43 -124 -67t-137 -24q-98 0 -174.5 47t-113 128t-23 176t74 176t150.5 127.5t189 46.5q141 0 233 -92l-30 -31q-19 20 -42 35t-49.5 26t-56.5 16.5t-61 5.5q-87 0 -167 -41.5t-133 -113t-66 -155.5q-12 -85 21 -156.5t101 -113t155 -41.5
q116 0 218 72zM377 -61q14 0 22.5 -10.5t6.5 -25.5q-2 -13 -17 -32l-45 -57h-28l36 57q-17 9 -14 33q2 15 13.5 25t25.5 10z" />
    <glyph glyph-name="gcommaaccent" unicode="&#x123;" horiz-adv-x="632" 
d="M395 582q-14 0 -22.5 10.5t-6.5 25.5q2 13 17 32l45 57h28l-36 -57q17 -9 14 -33q-2 -15 -13.5 -25t-25.5 -10zM617 521l-67 -464q-16 -115 -94.5 -183.5t-193.5 -67.5q-119 3 -199 85l27 31q68 -74 177 -77q96 -1 162.5 57t80.5 155l14 98q-24 -41 -59 -71.5
t-79.5 -46.5t-93.5 -16q-105 0 -163 70.5t-42 179.5t94 180t182 71q74 0 125 -36t70 -99l19 134h40zM302 57q90 0 158 60.5t81 152.5q13 93 -37 153.5t-140 60.5t-157.5 -60.5t-80.5 -153.5t36.5 -153t139.5 -60z" />
    <glyph glyph-name="Hcircumflex" unicode="&#x124;" horiz-adv-x="797" 
d="M638 800h-42l-67 93l-95 -93h-42l117 117h46zM677 0h-42l48 330h-473l-48 -330h-42l101 699h42l-48 -328h473l48 328h42z" />
    <glyph glyph-name="hcircumflex" unicode="&#x125;" horiz-adv-x="654" 
d="M265 935l-95 -93h-42l117 117h46l83 -117h-42zM440 522q95 0 141 -54.5t32 -149.5l-46 -318h-42l45 310q7 53 -7.5 91.5t-50 58.5t-88.5 20q-96 -2 -158.5 -62t-77.5 -163l-37 -255h-42l107 742h42l-52 -357q73 134 234 137z" />
    <glyph glyph-name="Hbar" unicode="&#x126;" horiz-adv-x="826" 
d="M850 525h-82l-76 -525h-42l48 330h-474l-48 -330h-42l76 525h-82l5 36h82l20 138h42l-20 -138h474l20 138h42l-20 -138h82zM726 525h-474l-23 -154h474z" />
    <glyph glyph-name="hbar" unicode="&#x127;" horiz-adv-x="680" 
d="M440 522q95 0 141 -54.5t32 -149.5l-46 -318h-42l45 310q7 53 -7.5 91.5t-50 58.5t-88.5 20q-96 -2 -158.5 -62t-77.5 -163l-37 -255h-42l88 609h-88l4 32h88l15 101h42l-15 -101h171l-4 -32h-171l-33 -224q73 134 234 137z" />
    <glyph glyph-name="Itilde" unicode="&#x128;" horiz-adv-x="282" 
d="M207 908q21 0 41 -16.5t38.5 -33t34.5 -16.5q47 0 56 57h32q-3 -18 -8.5 -32.5t-13 -25.5t-17.5 -18.5t-22.5 -11.5t-26.5 -4q-19 0 -36 10.5t-27 22.5t-23.5 22.5t-27.5 10.5q-47 0 -55 -57h-32q6 44 29 68t58 24zM162 0h-42l101 699h42z" />
    <glyph glyph-name="itilde" unicode="&#x129;" horiz-adv-x="250" 
d="M165 729q22 0 42 -16.5t38 -33t35 -16.5q47 0 55 57h32q-7 -44 -29.5 -68t-58.5 -24q-16 0 -29.5 7t-23.5 16.5t-19 19t-20 16.5t-22 7q-47 0 -55 -57h-32q4 29 15.5 50t30 31.5t41.5 10.5zM145 0h-41l75 521h41z" />
    <glyph glyph-name="Imacron" unicode="&#x12a;" horiz-adv-x="282" 
d="M373 832h-225l5 36h225zM162 0h-42l101 699h42z" />
    <glyph glyph-name="imacron" unicode="&#x12b;" horiz-adv-x="250" 
d="M331 653h-225l5 36h225zM145 0h-41l75 521h41z" />
    <glyph glyph-name="Ibreve" unicode="&#x12c;" horiz-adv-x="282" 
d="M352 910h33q-3 -20 -11.5 -37.5t-21 -31.5t-27.5 -24t-33 -15.5t-36 -5.5q-47 0 -75 32t-22 82h33q-3 -34 16.5 -57t52.5 -23t59 22.5t32 57.5zM162 0h-42l101 699h42z" />
    <glyph glyph-name="ibreve" unicode="&#x12d;" horiz-adv-x="250" 
d="M310 732h33q-4 -25 -16 -46t-29.5 -36t-39 -23.5t-44.5 -8.5q-47 0 -74.5 32t-22.5 82h33q-2 -23 6 -41t24.5 -28.5t38.5 -10.5t41.5 10.5t32.5 28.5t17 41zM145 0h-41l75 521h41z" />
    <glyph glyph-name="Iogonek" unicode="&#x12e;" horiz-adv-x="282" 
d="M178 -135l16 -20q-41 -45 -86 -45q-29 0 -45 19t-12 52q8 51 78 132h-9l101 696h42l-101 -699h-6q-68 -77 -75 -125q-3 -21 6.5 -32.5t28.5 -11.5q28 0 62 34z" />
    <glyph glyph-name="iogonek" unicode="&#x12f;" horiz-adv-x="238" 
d="M221 707q10 0 17.5 -5t11 -13t2.5 -18q-2 -10 -8 -18.5t-15 -13.5t-19 -5q-14 0 -23 10.5t-6 26.5q2 15 14 25.5t26 10.5zM140 0h-6q-62 -78 -69 -125q-3 -20 7 -32t28 -12q29 0 63 34l15 -20q-41 -45 -86 -45q-28 0 -44.5 19t-12.5 52q7 46 72 129h-8l75 521h41z" />
    <glyph glyph-name="Idotaccent" unicode="&#x130;" horiz-adv-x="282" 
d="M269 886q9 0 16.5 -5t11 -13t1.5 -18q-2 -16 -13.5 -26.5t-26 -10.5t-23.5 10.5t-7 26.5q3 15 14.5 25.5t26.5 10.5zM162 0h-42l101 699h42z" />
    <glyph glyph-name="dotlessi" unicode="&#x131;" horiz-adv-x="250" 
d="M145 0h-41l75 521h41z" />
    <glyph glyph-name="IJ" unicode="&#x132;" horiz-adv-x="750" 
d="M162 0h-42l101 699h42zM748 699l-72 -497q-14 -98 -69 -150.5t-142 -52.5q-110 0 -167 98l28 33q52 -88 145 -88q68 0 110 41.5t53 119.5l66 455h-257l6 41h299z" />
    <glyph glyph-name="ij" unicode="&#x133;" horiz-adv-x="497" 
d="M227 707q9 0 16.5 -5t11 -13t2.5 -18q-2 -10 -8 -18.5t-14.5 -13.5t-18.5 -5q-14 0 -23 10.5t-6 26.5q1 10 7 18t15 13t18 5zM473 707q10 0 17.5 -5t11 -13t2.5 -18q-2 -10 -8 -18.5t-15 -13.5t-19 -5q-15 0 -24 10.5t-6 26.5q1 7 4.5 14t9 11.5t13 7.5t14.5 3zM145 0
h-41l75 521h41zM466 521l-79 -548q-12 -83 -52 -125.5t-100 -42.5q-58 2 -99 37l23 35q33 -31 81 -31q42 -1 69.5 30.5t36.5 93.5l79 551h41z" />
    <glyph glyph-name="Jcircumflex" unicode="&#x134;" horiz-adv-x="468" 
d="M450 800h-42l-67 93l-95 -93h-42l117 117h46zM466 699l-72 -497q-14 -98 -69 -150.5t-142 -52.5q-110 0 -167 98l28 33q52 -88 145 -88q68 0 110 41.5t53 119.5l66 455h-257l6 41h299z" />
    <glyph glyph-name="jcircumflex" unicode="&#x135;" horiz-adv-x="231" 
d="M332 621h-42l-67 93l-95 -93h-42l117 117h46zM216 521l-79 -550q-12 -82 -50 -124t-100 -41q-60 2 -103 36l21 33q35 -28 83 -30q89 -2 108 130l79 546h41z" />
    <glyph glyph-name="Kcommaaccent" unicode="&#x136;" horiz-adv-x="681" 
d="M654 0h-53l-234 356l-178 -168l-27 -188h-42l101 699h42l-65 -450l483 450h52l-330 -310zM335 -61q14 0 22.5 -10.5t6.5 -25.5q-2 -13 -17 -32l-45 -57h-28l36 57q-17 9 -14 33q2 15 13.5 25t25.5 10z" />
    <glyph glyph-name="kcommaaccent" unicode="&#x137;" horiz-adv-x="551" 
d="M138 0l-26 -45q30 -1 47.5 -21t13.5 -49q-3 -38 -32 -62t-69 -24q-45 0 -71 21l16 28q22 -19 56 -19q14 0 26.5 4.5t22 12t15.5 18t7 23.5q2 21 -11 35t-34 14h-29l38 66h1l107 740h42l-76 -529l352 308h51l-226 -202l177 -319h-48l-163 289l-152 -136l-22 -153h-13z" />
    <glyph glyph-name="kgreenlandic" unicode="&#x138;" horiz-adv-x="547" 
d="M322 289l-155 -139l-22 -150h-41l75 521h41l-45 -311l355 311h51l-226 -202l178 -319h-49z" />
    <glyph glyph-name="Lacute" unicode="&#x139;" horiz-adv-x="501" 
d="M415 902l-143 -103h-47l152 123zM168 41h311l-6 -41h-353l101 699h42z" />
    <glyph glyph-name="lacute" unicode="&#x13a;" horiz-adv-x="260" 
d="M402 944l-143 -103h-47l152 123zM151 0h-42l107 742h42z" />
    <glyph glyph-name="Lcommaaccent" unicode="&#x13b;" horiz-adv-x="501" 
d="M479 41l-6 -41h-353l101 699h42l-95 -658h311zM284 -61q14 0 22.5 -10.5t6.5 -25.5q-2 -13 -17 -32l-45 -57h-28l36 57q-17 9 -14 33q2 15 13.5 25t25.5 10z" />
    <glyph glyph-name="lcommaaccent" unicode="&#x13c;" horiz-adv-x="260" 
d="M151 0h-42l107 742h42zM126 -61q14 0 22.5 -10.5t6.5 -25.5q-2 -13 -17 -32l-45 -57h-28l36 57q-17 9 -14 33q2 15 13.5 25t25.5 10z" />
    <glyph glyph-name="Lcaron" unicode="&#x13d;" horiz-adv-x="501" 
d="M479 41l-6 -41h-353l101 699h42l-95 -658h311zM456 543l36 57q-17 9 -14 32q2 10 7.5 18.5t14 13t17.5 4.5q14 0 22.5 -10.5t6.5 -25.5q-2 -13 -17 -32l-45 -57h-28z" />
    <glyph glyph-name="lcaron" unicode="&#x13e;" horiz-adv-x="259" 
d="M216 742h42l-107 -742h-42zM351 696q14 0 22.5 -10.5t6.5 -25.5q-2 -13 -17 -32l-45 -57h-28l36 57q-17 9 -14 32q2 16 13.5 26t25.5 10z" />
    <glyph glyph-name="Ldot" unicode="&#x13f;" horiz-adv-x="501" 
d="M168 41h311l-6 -41h-353l101 699h42zM441 465q14 0 22.5 -10.5t6.5 -25.5t-13.5 -25t-25.5 -10t-22 10t-6 25t13 25.5t25 10.5z" />
    <glyph glyph-name="ldot" unicode="&#x140;" horiz-adv-x="257" 
d="M151 0h-42l107 742h42zM295 342q14 0 22.5 -10.5t6.5 -25.5t-13.5 -25t-25.5 -10t-22.5 10t-6.5 25q2 10 7.5 18t14 13t17.5 5z" />
    <glyph glyph-name="Lslash" unicode="&#x141;" horiz-adv-x="514" 
d="M492 41l-6 -41h-353l61 421l-99 -28l-5 33l109 30l35 243h42l-33 -230l185 52l4 -34l-195 -54l-56 -392h311z" />
    <glyph glyph-name="lslash" unicode="&#x142;" horiz-adv-x="325" 
d="M256 452l-65 -452h-42l63 440l-121 -34l-4 33l131 37l38 266h42l-37 -254l117 33l3 -34z" />
    <glyph glyph-name="Nacute" unicode="&#x143;" horiz-adv-x="797" 
d="M665 902l-143 -103h-47l152 123zM677 0h-49l-374 635l-92 -635h-42l101 699h49l375 -635l92 635h41z" />
    <glyph glyph-name="nacute" unicode="&#x144;" horiz-adv-x="648" 
d="M432 620h-47l152 123l38 -20zM434 522q95 0 141 -54.5t32 -149.5l-46 -318h-42l45 310q7 53 -7.5 91.5t-50 58.5t-88.5 20q-90 -2 -151 -54.5t-80 -143.5l-41 -282h-42l75 521h42l-19 -133q72 131 232 134z" />
    <glyph glyph-name="Ncommaaccent" unicode="&#x145;" horiz-adv-x="797" 
d="M778 699l-101 -699h-49l-374 635l-92 -635h-42l101 699h49l375 -635l92 635h41zM395 -61q14 0 22.5 -10.5t6.5 -25.5q-2 -13 -17 -32l-45 -57h-28l36 57q-17 9 -14 33q2 15 13.5 25t25.5 10z" />
    <glyph glyph-name="ncommaaccent" unicode="&#x146;" horiz-adv-x="648" 
d="M434 522q95 0 141 -54.5t32 -149.5l-46 -318h-42l45 310q7 53 -7.5 91.5t-50 58.5t-88.5 20q-90 -2 -151 -54.5t-80 -143.5l-41 -282h-42l75 521h42l-19 -133q72 131 232 134zM323 -61q14 0 22.5 -10.5t6.5 -25.5q-2 -13 -17 -32l-45 -57h-28l36 57q-17 9 -14 33
q2 15 13.5 25t25.5 10z" />
    <glyph glyph-name="Ncaron" unicode="&#x147;" horiz-adv-x="797" 
d="M405 917h43l68 -95l96 95h43l-118 -120h-48zM677 0h-49l-374 635l-92 -635h-42l101 699h49l375 -635l92 635h41z" />
    <glyph glyph-name="ncaron" unicode="&#x148;" horiz-adv-x="648" 
d="M399 618l-84 120h43l69 -95l95 95h43l-118 -120h-48zM434 522q95 0 141 -54.5t32 -149.5l-46 -318h-42l45 310q7 53 -7.5 91.5t-50 58.5t-88.5 20q-90 -2 -151 -54.5t-80 -143.5l-41 -282h-42l75 521h42l-19 -133q72 131 232 134z" />
    <glyph glyph-name="Eng" unicode="&#x14a;" horiz-adv-x="797" 
d="M778 699l-101 -699q-9 -62 -36.5 -106.5t-72 -68t-102.5 -23.5q-108 0 -165 93l28 34q51 -83 144 -83q43 0 76.5 17.5t55 52t30.5 84.5h-7l-374 635l-92 -635h-42l101 699h49l375 -635l92 635h41z" />
    <glyph glyph-name="eng" unicode="&#x14b;" horiz-adv-x="648" 
d="M434 522q95 0 141 -54.5t32 -149.5l-50 -345q-12 -83 -52.5 -125.5t-100.5 -42.5q-58 2 -99 37l23 35q35 -31 81 -31q88 -2 106 123l49 341q7 53 -7.5 91.5t-50 58.5t-88.5 20q-90 -2 -151 -54.5t-80 -143.5l-41 -282h-42l75 521h42l-19 -133q72 131 232 134z" />
    <glyph glyph-name="Omacron" unicode="&#x14c;" horiz-adv-x="816" 
d="M640 832h-225l5 36h225zM508.5 700q98.5 0 175.5 -46.5t113.5 -127.5t23 -176t-73.5 -176t-150.5 -128t-189 -47t-175 47t-113 128t-23 176t73.5 176t150 127.5t188.5 46.5zM503 659q-86 0 -165.5 -41.5t-132.5 -112.5t-65.5 -155t20.5 -155.5t100.5 -113t153.5 -41.5
t165.5 41.5t132.5 113t65.5 155.5t-20.5 155t-100.5 112.5t-153.5 41.5z" />
    <glyph glyph-name="omacron" unicode="&#x14d;" horiz-adv-x="610" 
d="M512 653h-225l5 36h225zM380 522q112 0 174 -73.5t46 -187.5q-17 -115 -100 -188.5t-195 -73.5t-174 73.5t-45 188.5q16 114 99.5 187.5t194.5 73.5zM374 482q-94 0 -163.5 -62t-84 -160t37.5 -160t146 -62q95 0 164.5 62t84 160t-37.5 160t-147 62z" />
    <glyph glyph-name="Obreve" unicode="&#x14e;" horiz-adv-x="816" 
d="M618 910h33q-4 -25 -16 -46t-29.5 -36t-39 -23.5t-44.5 -8.5q-47 0 -75 32t-22 82h33q-3 -34 16.5 -57t52.5 -23t59 22.5t32 57.5zM508.5 700q98.5 0 175.5 -46.5t113.5 -127.5t23 -176t-73.5 -176t-150.5 -128t-189 -47t-175 47t-113 128t-23 176t73.5 176t150 127.5
t188.5 46.5zM503 659q-86 0 -165.5 -41.5t-132.5 -112.5t-65.5 -155t20.5 -155.5t100.5 -113t153.5 -41.5t165.5 41.5t132.5 113t65.5 155.5t-20.5 155t-100.5 112.5t-153.5 41.5z" />
    <glyph glyph-name="obreve" unicode="&#x14f;" horiz-adv-x="610" 
d="M490 732h33q-4 -25 -16 -46t-29.5 -36t-39 -23.5t-44.5 -8.5q-47 0 -74.5 32t-22.5 82h33q-3 -35 16.5 -57.5t52.5 -22.5q22 0 41.5 10.5t32.5 28.5t17 41zM380 522q112 0 174 -73.5t46 -187.5q-17 -115 -100 -188.5t-195 -73.5t-174 73.5t-45 188.5q16 114 99.5 187.5
t194.5 73.5zM374 482q-94 0 -163.5 -62t-84 -160t37.5 -160t146 -62q95 0 164.5 62t84 160t-37.5 160t-147 62z" />
    <glyph glyph-name="Ohungarumlaut" unicode="&#x150;" horiz-adv-x="816" 
d="M562 903l-109 -105h-41l118 125zM691 903l-109 -105h-41l118 125zM508.5 700q98.5 0 175.5 -46.5t113.5 -127.5t23 -176t-73.5 -176t-150.5 -128t-189 -47t-175 47t-113 128t-23 176t73.5 176t150 127.5t188.5 46.5zM503 659q-86 0 -165.5 -41.5t-132.5 -112.5
t-65.5 -155t20.5 -155.5t100.5 -113t153.5 -41.5t165.5 41.5t132.5 113t65.5 155.5t-20.5 155t-100.5 112.5t-153.5 41.5z" />
    <glyph glyph-name="ohungarumlaut" unicode="&#x151;" horiz-adv-x="610" 
d="M434 724l-109 -105h-41l118 125zM563 724l-109 -105h-41l118 125zM380 522q112 0 174 -73.5t46 -187.5q-17 -115 -100 -188.5t-195 -73.5t-174 73.5t-45 188.5q16 114 99.5 187.5t194.5 73.5zM374 482q-94 0 -163.5 -62t-84 -160t37.5 -160t146 -62q95 0 164.5 62t84 160
t-37.5 160t-147 62z" />
    <glyph glyph-name="OE" unicode="&#x152;" horiz-adv-x="1091" 
d="M1035 42l-6 -42h-621q-98 0 -175 46.5t-113.5 127.5t-23.5 176q9 57 35 110.5t65.5 96t88.5 75t107 50t117 17.5h607l-6 -41h-409l-40 -279h364l-6 -42h-364l-43 -295h423zM570 39l89 619h-156q-133 0 -239.5 -90t-125.5 -218q-18 -129 62.5 -219t213.5 -90z" />
    <glyph glyph-name="oe" unicode="&#x153;" horiz-adv-x="1067" 
d="M851 522q55 0 98.5 -20t70.5 -55t37.5 -84.5t1.5 -107.5h-461q-12 -97 40 -157.5t146 -60.5q108 0 188 72l20 -27q-90 -83 -215 -83q-42 0 -78.5 11.5t-63.5 33t-45 52.5t-25 68q-37 -76 -106.5 -120.5t-153.5 -44.5q-112 0 -174 73.5t-45 188.5q16 114 99.5 187.5
t194.5 73.5q85 0 141.5 -44.5t71.5 -120.5q37 76 106 120.5t152 44.5zM603 285h419q8 90 -40 145.5t-136 55.5t-155.5 -56t-87.5 -145zM310 38q95 0 164.5 62t84 160t-37.5 160t-147 62q-94 0 -163.5 -62t-84 -160t37.5 -160t146 -62z" />
    <glyph glyph-name="Racute" unicode="&#x154;" horiz-adv-x="722" 
d="M467 799h-47l152 123l38 -20zM591 0l-131 237q-26 -4 -59 -4h-205l-34 -233h-42l101 699h247q129 0 191 -60t47 -170q-9 -59 -35.5 -105t-69 -76t-100.5 -44l140 -244h-50zM201 274h206q110 0 177 50t80 144q6 37 0.5 67t-21.5 53t-41 38.5t-60.5 23.5t-78.5 8h-206z" />
    <glyph glyph-name="racute" unicode="&#x155;" horiz-adv-x="350" 
d="M271 620h-47l152 123l38 -20zM221 521l-19 -131q34 63 88.5 96.5t124.5 35.5l-6 -43q-85 0 -143.5 -52.5t-78.5 -144.5l-41 -282h-42l75 521h42z" />
    <glyph glyph-name="Rcommaaccent" unicode="&#x156;" horiz-adv-x="722" 
d="M591 0l-131 237q-26 -4 -59 -4h-205l-34 -233h-42l101 699h247q129 0 191 -60t47 -170q-9 -59 -35.5 -105t-69 -76t-100.5 -44l140 -244h-50zM201 274h206q110 0 177 50t80 144q6 37 0.5 67t-21.5 53t-41 38.5t-60.5 23.5t-78.5 8h-206zM357 -61q14 0 22.5 -10.5
t6.5 -25.5q-2 -13 -17 -32l-45 -57h-28l36 57q-17 9 -14 33q2 15 13.5 25t25.5 10z" />
    <glyph glyph-name="rcommaaccent" unicode="&#x157;" horiz-adv-x="350" 
d="M221 521l-19 -131q34 63 88.5 96.5t124.5 35.5l-6 -43q-85 0 -143.5 -52.5t-78.5 -144.5l-41 -282h-42l75 521h42zM120 -61q14 0 22.5 -10.5t6.5 -25.5q-2 -13 -17 -32l-45 -57h-28l36 57q-17 9 -14 33q2 15 13.5 25t25.5 10z" />
    <glyph glyph-name="Rcaron" unicode="&#x158;" horiz-adv-x="722" 
d="M435 797l-84 120h43l68 -95l96 95h43l-118 -120h-48zM591 0l-131 237q-26 -4 -59 -4h-205l-34 -233h-42l101 699h247q129 0 191 -60t47 -170q-9 -59 -35.5 -105t-69 -76t-100.5 -44l140 -244h-50zM201 274h206q110 0 177 50t80 144q6 37 0.5 67t-21.5 53t-41 38.5
t-60.5 23.5t-78.5 8h-206z" />
    <glyph glyph-name="rcaron" unicode="&#x159;" horiz-adv-x="350" 
d="M239 618l-84 120h43l69 -95l95 95h43l-118 -120h-48zM221 521l-19 -131q34 63 88.5 96.5t124.5 35.5l-6 -43q-85 0 -143.5 -52.5t-78.5 -144.5l-41 -282h-42l75 521h42z" />
    <glyph glyph-name="Sacute" unicode="&#x15a;" horiz-adv-x="599" 
d="M560 902l-143 -103h-47l152 123zM407 701q53 0 104.5 -15.5t87.5 -41.5l-25 -38q-23 17 -53 28.5t-61 17t-61 5.5q-84 0 -138.5 -32t-61.5 -87q-6 -38 7.5 -66t40 -44t61.5 -30t72 -23.5t71.5 -26t60.5 -36t38.5 -54.5t5.5 -81q-12 -81 -85.5 -129.5t-183.5 -48.5
q-69 0 -132 27.5t-103 73.5l28 37q36 -44 94 -69.5t120 -25.5q60 0 106.5 16.5t75.5 46.5t34 71q6 39 -7 68t-39.5 45t-61 30.5t-71.5 24t-72 25t-61 34.5t-38.5 53t-6.5 79q7 50 41 87.5t89.5 58t123.5 20.5z" />
    <glyph glyph-name="sacute" unicode="&#x15b;" horiz-adv-x="437" 
d="M459 723l-143 -103h-47l152 123zM302 522q82 0 143 -41l-23 -34q-52 37 -126 37q-58 0 -97.5 -22.5t-45.5 -67.5q-4 -28 9.5 -48t39 -31.5t56.5 -21t61.5 -21t55.5 -26.5t37.5 -42.5t7.5 -64.5q-10 -69 -67.5 -104.5t-133.5 -35.5q-55 0 -102.5 19t-78.5 53l24 32
q61 -66 164 -66q38 0 69.5 9.5t54.5 31.5t29 54q5 30 -8 51t-38 33.5t-56.5 22.5t-62.5 21.5t-56 26.5t-38 41.5t-8 62.5q10 65 63 98t127 33z" />
    <glyph glyph-name="Scircumflex" unicode="&#x15c;" horiz-adv-x="599" 
d="M532 800h-42l-67 93l-95 -93h-42l117 117h46zM407 701q53 0 104.5 -15.5t87.5 -41.5l-25 -38q-23 17 -53 28.5t-61 17t-61 5.5q-84 0 -138.5 -32t-61.5 -87q-6 -38 7.5 -66t40 -44t61.5 -30t72 -23.5t71.5 -26t60.5 -36t38.5 -54.5t5.5 -81q-12 -81 -85.5 -129.5
t-183.5 -48.5q-69 0 -132 27.5t-103 73.5l28 37q36 -44 94 -69.5t120 -25.5q60 0 106.5 16.5t75.5 46.5t34 71q6 39 -7 68t-39.5 45t-61 30.5t-71.5 24t-72 25t-61 34.5t-38.5 53t-6.5 79q7 50 41 87.5t89.5 58t123.5 20.5z" />
    <glyph glyph-name="scircumflex" unicode="&#x15d;" horiz-adv-x="437" 
d="M431 621h-42l-67 93l-95 -93h-42l117 117h46zM302 522q82 0 143 -41l-23 -34q-52 37 -126 37q-58 0 -97.5 -22.5t-45.5 -67.5q-4 -28 9.5 -48t39 -31.5t56.5 -21t61.5 -21t55.5 -26.5t37.5 -42.5t7.5 -64.5q-10 -69 -67.5 -104.5t-133.5 -35.5q-55 0 -102.5 19t-78.5 53
l24 32q61 -66 164 -66q38 0 69.5 9.5t54.5 31.5t29 54q5 30 -8 51t-38 33.5t-56.5 22.5t-62.5 21.5t-56 26.5t-38 41.5t-8 62.5q10 65 63 98t127 33z" />
    <glyph glyph-name="Scedilla" unicode="&#x15e;" horiz-adv-x="599" 
d="M199 538q-6 -38 7.5 -66t40 -44t61.5 -30t72 -23.5t71.5 -26t60.5 -36t38.5 -54.5t5.5 -81q-11 -72 -71.5 -119t-153.5 -57l-29 -50q32 -2 49.5 -22t13.5 -50q-4 -37 -32.5 -61t-68.5 -24q-44 0 -72 22l17 28q21 -19 58 -19q27 0 46 16t22 40q2 20 -10.5 33.5t-34.5 13.5
q-24 0 -31 -1l40 72h-12q-69 0 -132 27.5t-103 73.5l28 37q36 -44 94 -69.5t120 -25.5q60 0 106.5 16.5t75.5 46.5t34 71q6 39 -7 68t-39.5 45t-61 30.5t-71.5 24t-72 25t-61 34.5t-38.5 53t-6.5 79q7 50 41 87.5t89.5 58t123.5 20.5q53 0 104.5 -15.5t87.5 -41.5l-25 -38
q-23 17 -53 28.5t-61 17t-61 5.5q-84 0 -138.5 -32t-61.5 -87z" />
    <glyph glyph-name="scedilla" unicode="&#x15f;" horiz-adv-x="437" 
d="M420 139q-9 -63 -58 -98t-118 -41l-28 -49q32 -2 49.5 -22t13.5 -50q-4 -37 -32.5 -61t-68.5 -24q-44 0 -72 22l17 28q21 -19 58 -19q27 0 46 16t22 40q2 20 -10.5 33.5t-34.5 13.5q-24 0 -31 -1l40 72q-111 2 -175 72l24 32q61 -66 164 -66q38 0 69.5 9.5t54.5 31.5
t29 54q5 30 -8 51t-38 33.5t-56.5 22.5t-62.5 21.5t-56 26.5t-38 41.5t-8 62.5q10 65 63 98t127 33q82 0 143 -41l-23 -34q-52 37 -126 37q-58 0 -97.5 -22.5t-45.5 -67.5q-4 -28 9.5 -48t39 -31.5t56.5 -21t61.5 -21t55.5 -26.5t37.5 -42.5t7.5 -64.5z" />
    <glyph glyph-name="Scaron" unicode="&#x160;" horiz-adv-x="599" 
d="M300 917h43l68 -95l96 95h43l-118 -120h-48zM407 701q53 0 104.5 -15.5t87.5 -41.5l-25 -38q-23 17 -53 28.5t-61 17t-61 5.5q-84 0 -138.5 -32t-61.5 -87q-6 -38 7.5 -66t40 -44t61.5 -30t72 -23.5t71.5 -26t60.5 -36t38.5 -54.5t5.5 -81q-12 -81 -85.5 -129.5
t-183.5 -48.5q-69 0 -132 27.5t-103 73.5l28 37q36 -44 94 -69.5t120 -25.5q60 0 106.5 16.5t75.5 46.5t34 71q6 39 -7 68t-39.5 45t-61 30.5t-71.5 24t-72 25t-61 34.5t-38.5 53t-6.5 79q7 50 41 87.5t89.5 58t123.5 20.5z" />
    <glyph glyph-name="scaron" unicode="&#x161;" horiz-adv-x="437" 
d="M200 738h43l69 -95l95 95h43l-118 -120h-48zM302 522q82 0 143 -41l-23 -34q-52 37 -126 37q-58 0 -97.5 -22.5t-45.5 -67.5q-4 -28 9.5 -48t39 -31.5t56.5 -21t61.5 -21t55.5 -26.5t37.5 -42.5t7.5 -64.5q-10 -69 -67.5 -104.5t-133.5 -35.5q-55 0 -102.5 19t-78.5 53
l24 32q61 -66 164 -66q38 0 69.5 9.5t54.5 31.5t29 54q5 30 -8 51t-38 33.5t-56.5 22.5t-62.5 21.5t-56 26.5t-38 41.5t-8 62.5q10 65 63 98t127 33z" />
    <glyph glyph-name="Tcedilla" unicode="&#x162;" horiz-adv-x="538" 
d="M283 0l-28 -49q32 -2 49.5 -22t13.5 -50q-4 -37 -32.5 -61t-68.5 -24q-44 0 -72 22l17 28q21 -19 58 -19q27 0 46 16t22 40q2 20 -10.5 33.5t-34.5 13.5q-24 0 -31 -1l41 73h-5l95 658h-236l6 41h514l-6 -41h-236l-95 -658h-7z" />
    <glyph glyph-name="tcedilla" unicode="&#x163;" horiz-adv-x="372" 
d="M255 0l-28 -49q32 -2 49.5 -22t13.5 -50q-4 -37 -32.5 -61t-68.5 -24q-44 0 -72 22l17 28q21 -19 58 -19q27 0 46 16t22 40q1 10 -1.5 18.5t-8.5 15t-15 10t-20 3.5q-24 0 -31 -1l40 73q-48 4 -69.5 40.5t-11.5 103.5l47 328h-76l5 36h76l19 129h40l-19 -129h177l-5 -36
h-177l-47 -323q-15 -111 68 -109q45 0 92 30l11 -34q-50 -32 -99 -36z" />
    <glyph glyph-name="Tcaron" unicode="&#x164;" horiz-adv-x="538" 
d="M277 917h43l68 -95l96 95h43l-118 -120h-48zM621 658h-236l-95 -658h-42l95 658h-236l6 41h514z" />
    <glyph glyph-name="tcaron" unicode="&#x165;" horiz-adv-x="366" 
d="M327 597l36 57q-17 9 -14 32q2 16 13.5 26t25.5 10t22.5 -10.5t6.5 -25.5q-2 -13 -17 -32l-45 -57h-28zM343 70l11 -34q-58 -37 -114 -37q-57 -1 -82.5 36t-14.5 109l47 328h-76l5 36h76l19 129h40l-19 -129h177l-5 -36h-177l-47 -323q-15 -111 68 -109q45 0 92 30z" />
    <glyph glyph-name="Tbar" unicode="&#x166;" horiz-adv-x="538" 
d="M503 832h-225l5 36h225zM621 658h-236l-95 -658h-42l95 658h-236l6 41h514z" />
    <glyph glyph-name="tbar" unicode="&#x167;" horiz-adv-x="372" 
d="M343 70l11 -34q-58 -37 -114 -37q-57 -1 -82.5 36t-14.5 109l20 140h-76l5 37h76l22 151h-76l5 36h76l19 129h40l-19 -129h177l-5 -36h-177l-22 -151h177l-5 -37h-177l-20 -135q-15 -111 68 -109q45 0 92 30z" />
    <glyph glyph-name="Utilde" unicode="&#x168;" 
d="M453 908q21 0 41 -16.5t38.5 -33t34.5 -16.5q47 0 56 57h32q-5 -29 -16.5 -50t-29.5 -31.5t-42 -10.5q-19 0 -36 10.5t-27 22.5t-23.5 22.5t-27.5 10.5q-47 0 -55 -57h-32q6 44 29 68t58 24zM770 699l-60 -413q-19 -136 -104.5 -211.5t-219.5 -75.5t-197.5 75.5
t-44.5 211.5l60 413h42l-60 -413q-17 -117 37.5 -181.5t168.5 -64.5q75 0 133.5 29t95 84t47.5 133l60 413h42z" />
    <glyph glyph-name="utilde" unicode="&#x169;" horiz-adv-x="641" 
d="M358 694q-47 0 -55 -57h-32q4 29 15.5 50t30 31.5t41.5 10.5q22 0 42 -16.5t38 -33t35 -16.5q47 0 55 57h32q-7 -44 -29.5 -68t-58.5 -24q-19 0 -36 10.5t-27 22.5t-23.5 22.5t-27.5 10.5zM611 521l-75 -521h-41l20 139q-34 -68 -93 -103.5t-136 -36.5q-94 0 -139 54
t-31 150l46 318h41l-45 -310q-11 -80 26.5 -125t116.5 -45q94 2 156 62t76 163l37 255h41z" />
    <glyph glyph-name="Umacron" unicode="&#x16a;" 
d="M619 832h-225l5 36h225zM770 699l-60 -413q-19 -136 -104.5 -211.5t-219.5 -75.5t-197.5 75.5t-44.5 211.5l60 413h42l-60 -413q-17 -117 37.5 -181.5t168.5 -64.5q75 0 133.5 29t95 84t47.5 133l60 413h42z" />
    <glyph glyph-name="umacron" unicode="&#x16b;" horiz-adv-x="641" 
d="M524 653h-225l5 36h225zM611 521l-75 -521h-41l20 139q-34 -68 -93 -103.5t-136 -36.5q-94 0 -139 54t-31 150l46 318h41l-45 -310q-11 -80 26.5 -125t116.5 -45q94 2 156 62t76 163l37 255h41z" />
    <glyph glyph-name="Ubreve" unicode="&#x16c;" 
d="M597 910h33q-4 -25 -16 -46t-29.5 -36t-39 -23.5t-44.5 -8.5q-47 0 -75 32t-22 82h33q-3 -34 16.5 -57t52.5 -23t59 22.5t32 57.5zM770 699l-60 -413q-19 -136 -104.5 -211.5t-219.5 -75.5t-197.5 75.5t-44.5 211.5l60 413h42l-60 -413q-17 -117 37.5 -181.5t168.5 -64.5
q75 0 133.5 29t95 84t47.5 133l60 413h42z" />
    <glyph glyph-name="ubreve" unicode="&#x16d;" horiz-adv-x="641" 
d="M407 618q-47 0 -74.5 32t-22.5 82h33q-3 -35 16.5 -57.5t52.5 -22.5t59 23t32 57h33q-4 -25 -16 -46t-29.5 -36t-39 -23.5t-44.5 -8.5zM611 521l-75 -521h-41l20 139q-34 -68 -93 -103.5t-136 -36.5q-94 0 -139 54t-31 150l46 318h41l-45 -310q-11 -80 26.5 -125
t116.5 -45q94 2 156 62t76 163l37 255h41z" />
    <glyph glyph-name="Uring" unicode="&#x16e;" 
d="M524.5 961q46.5 0 75.5 -33t22 -78q-6 -44 -44.5 -77t-85 -33t-75 33t-22.5 77q7 45 45 78t84.5 33zM520 933q-23 0 -44.5 -11.5t-36 -30.5t-18.5 -41q-4 -33 18 -57.5t57.5 -24.5t65 24.5t33.5 57.5q5 34 -17 58.5t-58 24.5zM770 699l-60 -413q-19 -136 -104.5 -211.5
t-219.5 -75.5t-197.5 75.5t-44.5 211.5l60 413h42l-60 -413q-17 -117 37.5 -181.5t168.5 -64.5q75 0 133.5 29t95 84t47.5 133l60 413h42z" />
    <glyph glyph-name="uring" unicode="&#x16f;" horiz-adv-x="641" 
d="M398 561q-46 0 -75 33t-22 77q6 45 44 78t84.5 33t75.5 -33t23 -78q-7 -44 -45.5 -77t-84.5 -33zM425.5 754q-35.5 0 -64.5 -24.5t-34 -58.5q-3 -22 6 -41t27.5 -30t41.5 -11q35 0 64.5 24.5t34.5 57.5q5 34 -17.5 58.5t-58 24.5zM611 521l-75 -521h-41l20 139
q-34 -68 -93 -103.5t-136 -36.5q-94 0 -139 54t-31 150l46 318h41l-45 -310q-11 -80 26.5 -125t116.5 -45q94 2 156 62t76 163l37 255h41z" />
    <glyph glyph-name="Uhungarumlaut" unicode="&#x170;" 
d="M541 903l-109 -105h-41l118 125zM670 903l-109 -105h-41l118 125zM770 699l-60 -413q-19 -136 -104.5 -211.5t-219.5 -75.5t-197.5 75.5t-44.5 211.5l60 413h42l-60 -413q-17 -117 37.5 -181.5t168.5 -64.5q75 0 133.5 29t95 84t47.5 133l60 413h42z" />
    <glyph glyph-name="uhungarumlaut" unicode="&#x171;" horiz-adv-x="641" 
d="M337 619h-41l118 125l32 -20zM425 619l118 125l32 -20l-109 -105h-41zM611 521l-75 -521h-41l20 139q-34 -68 -93 -103.5t-136 -36.5q-94 0 -139 54t-31 150l46 318h41l-45 -310q-11 -80 26.5 -125t116.5 -45q94 2 156 62t76 163l37 255h41z" />
    <glyph glyph-name="Uogonek" unicode="&#x172;" 
d="M770 699l-60 -413q-10 -74 -40.5 -130.5t-79 -93.5t-112.5 -52q-75 -85 -82 -135q-3 -21 6.5 -32.5t28.5 -11.5q28 0 62 34l16 -20q-41 -45 -86 -45q-29 0 -45 19t-12 52q8 50 77 132q-24 -4 -57 -4q-134 0 -197.5 75.5t-44.5 211.5l60 413h41l-60 -413
q-17 -117 37.5 -181.5t169.5 -64.5q75 0 133.5 29t95 84t47.5 133l60 413h42z" />
    <glyph glyph-name="uogonek" unicode="&#x173;" horiz-adv-x="641" 
d="M541 0h-6q-73 -74 -80 -125q-6 -44 34 -44q29 0 63 34l15 -20q-42 -45 -86 -45q-27 0 -44.5 17.5t-12.5 51.5q8 52 85 135h-8l18 130q-34 -64 -93 -99t-138 -35q-96 0 -140.5 53.5t-30.5 149.5l46 318h41l-45 -310q-11 -81 28 -126t118 -44q86 1 148 54t81 144l41 282h41
z" />
    <glyph glyph-name="Wcircumflex" unicode="&#x174;" horiz-adv-x="998" 
d="M661 800h-42l-67 93l-95 -93h-42l117 117h46zM756 0h-43l-120 640l-305 -640h-44l-135 699h47l118 -649l306 649h44l119 -649l305 649h45z" />
    <glyph glyph-name="wcircumflex" unicode="&#x175;" horiz-adv-x="835" 
d="M629 621h-42l-67 93l-95 -93h-42l117 117h46zM639 0h-43l-106 466l-242 -466h-43l-122 521h45l105 -476l242 476h45l105 -476l242 476h44z" />
    <glyph glyph-name="Ycircumflex" unicode="&#x176;" horiz-adv-x="613" 
d="M340 800h-42l117 117h46l83 -117h-42l-67 93zM366 256l-37 -256h-41l37 254l-216 445h45l198 -393l309 393h45z" />
    <glyph glyph-name="ycircumflex" unicode="&#x177;" horiz-adv-x="473" 
d="M453 621h-42l-67 93l-95 -93h-42l117 117h46zM549 521l-328 -596q-32 -58 -73.5 -89t-87.5 -31q-59 0 -95 30l23 36q31 -24 76 -24q73 0 125 94l33 59l-140 521h44l124 -472l255 472h44z" />
    <glyph glyph-name="Ydieresis" unicode="&#x178;" horiz-adv-x="613" 
d="M346 817q-14 0 -22.5 10.5t-6.5 25.5q1 10 7 18t14.5 13t17.5 5t16.5 -5t11 -13t2.5 -18q-2 -15 -14 -25.5t-26 -10.5zM502 817q-14 0 -22.5 10.5t-6.5 25.5t13.5 25.5t25.5 10.5q9 0 16.5 -5t11 -13t2.5 -18q-2 -15 -14 -25.5t-26 -10.5zM366 256l-37 -256h-41l37 254
l-216 445h45l198 -393l309 393h45z" />
    <glyph glyph-name="Zacute" unicode="&#x179;" horiz-adv-x="654" 
d="M594 902l-143 -103h-47l152 123zM696 659l-590 -618h505l-6 -41h-556l6 40l590 618h-488l7 41h538z" />
    <glyph glyph-name="zacute" unicode="&#x17a;" horiz-adv-x="516" 
d="M497 723l-143 -103h-47l152 123zM530 482l-420 -444l363 -1l-5 -38l-410 1l5 38l420 444h-347l6 39l394 -1z" />
    <glyph glyph-name="Zdotaccent" unicode="&#x17b;" horiz-adv-x="654" 
d="M457 886q9 0 16.5 -5t11 -13t1.5 -18q-2 -16 -13.5 -26.5t-26 -10.5t-23.5 10.5t-7 26.5q3 15 14.5 25.5t26.5 10.5zM696 659l-590 -618h505l-6 -41h-556l6 40l590 618h-488l7 41h538z" />
    <glyph glyph-name="zdotaccent" unicode="&#x17c;" horiz-adv-x="516" 
d="M360 707q9 0 16.5 -5t11 -13t2.5 -18q-3 -16 -14.5 -26.5t-26 -10.5t-23.5 10.5t-6 26.5q2 15 14 25.5t26 10.5zM530 482l-420 -444l363 -1l-5 -38l-410 1l5 38l420 444h-347l6 39l394 -1z" />
    <glyph glyph-name="Zcaron" unicode="&#x17d;" horiz-adv-x="654" 
d="M335 917h43l68 -95l96 95h43l-118 -120h-48zM696 659l-590 -618h505l-6 -41h-556l6 40l590 618h-488l7 41h538z" />
    <glyph glyph-name="zcaron" unicode="&#x17e;" horiz-adv-x="516" 
d="M238 738h43l69 -95l95 95h43l-118 -120h-48zM530 482l-420 -444l363 -1l-5 -38l-410 1l5 38l420 444h-347l6 39l394 -1z" />
    <glyph glyph-name="florin" unicode="&#x192;" horiz-adv-x="324" 
d="M398 713q-30 0 -57 -14.5t-47 -42t-30 -64.5l-34 -129h162l-8 -35h-163l-125 -467q-42 -157 -159 -156q-51 2 -87 37l23 33q27 -29 69 -31q81 -1 114 121l123 463h-64l9 35h65l35 133q13 47 39 82.5t62 54.5t76 19q58 -2 100 -37l-25 -33q-33 29 -78 31z" />
    <glyph glyph-name="Scommaaccent" unicode="&#x218;" horiz-adv-x="599" 
d="M199 538q-6 -38 7.5 -66t40 -44t61.5 -30t72 -23.5t71.5 -26t60.5 -36t38.5 -54.5t5.5 -81q-12 -81 -85.5 -129.5t-183.5 -48.5q-69 0 -132 27.5t-103 73.5l28 37q36 -44 94 -69.5t120 -25.5q60 0 106.5 16.5t75.5 46.5t34 71q6 39 -7 68t-39.5 45t-61 30.5t-71.5 24
t-72 25t-61 34.5t-38.5 53t-6.5 79q7 50 41 87.5t89.5 58t123.5 20.5q53 0 104.5 -15.5t87.5 -41.5l-25 -38q-23 17 -53 28.5t-61 17t-61 5.5q-84 0 -138.5 -32t-61.5 -87zM297 -61q14 0 22.5 -10.5t6.5 -25.5q-2 -13 -17 -32l-45 -57h-28l36 57q-17 9 -14 33q2 15 13.5 25
t25.5 10z" />
    <glyph glyph-name="scommaaccent" unicode="&#x219;" horiz-adv-x="437" 
d="M153 394q-4 -28 9.5 -48t39 -31.5t56.5 -21t61.5 -21t55.5 -26.5t37.5 -42.5t7.5 -64.5q-10 -69 -67.5 -104.5t-133.5 -35.5q-55 0 -102.5 19t-78.5 53l24 32q61 -66 164 -66q38 0 69.5 9.5t54.5 31.5t29 54q5 30 -8 51t-38 33.5t-56.5 22.5t-62.5 21.5t-56 26.5
t-38 41.5t-8 62.5q10 65 63 98t127 33q82 0 143 -41l-23 -34q-52 37 -126 37q-58 0 -97.5 -22.5t-45.5 -67.5zM211 -61q14 0 22.5 -10.5t6.5 -25.5q-2 -13 -17 -32l-45 -57h-28l36 57q-17 9 -14 33q2 15 13.5 25t25.5 10z" />
    <glyph glyph-name="Tcommaaccent" unicode="&#x21a;" horiz-adv-x="538" 
d="M627 699l-6 -41h-236l-95 -658h-42l95 658h-236l6 41h514zM250 -61q14 0 22.5 -10.5t6.5 -25.5q-2 -13 -17 -32l-45 -57h-28l36 57q-17 9 -14 33q2 10 7.5 18t14 12.5t17.5 4.5z" />
    <glyph glyph-name="tcommaaccent" unicode="&#x21b;" horiz-adv-x="372" 
d="M240 -1q-57 -1 -82.5 36t-14.5 109l47 328h-76l5 36h76l19 129h40l-19 -129h177l-5 -36h-177l-47 -323q-15 -111 68 -109q45 0 92 30l11 -34q-58 -37 -114 -37zM222 -61q14 0 22.5 -10.5t6.5 -25.5q-2 -13 -17 -32l-45 -57h-28l36 57q-17 9 -14 33q2 15 13.5 25t25.5 10z
" />
    <glyph glyph-name="dotlessj" unicode="&#x237;" horiz-adv-x="231" 
d="M216 521l-79 -550q-12 -82 -50 -124t-100 -41q-60 2 -103 36l21 33q35 -28 83 -30q89 -2 108 130l79 546h41z" />
    <glyph glyph-name="circumflex" unicode="&#x2c6;" horiz-adv-x="350" 
d="M388 622h-42l-68 93l-94 -93h-42l116 117h46z" />
    <glyph glyph-name="caron" unicode="&#x2c7;" horiz-adv-x="350" 
d="M156 739h43l69 -95l95 95h43l-118 -120h-48z" />
    <glyph glyph-name="firsttonechinese" unicode="&#x2c9;" horiz-adv-x="350" 
d="M382 653h-225l5 36h225z" />
    <glyph glyph-name="breve" unicode="&#x2d8;" horiz-adv-x="350" 
d="M360 732h33q-3 -20 -11.5 -37.5t-21 -31.5t-27.5 -24t-33 -15.5t-36 -5.5q-47 0 -74.5 32t-22.5 82h33q-3 -35 16.5 -57.5t52.5 -22.5t59 23t32 57z" />
    <glyph glyph-name="dotaccent" unicode="&#x2d9;" horiz-adv-x="350" 
d="M277 707q9 0 16.5 -5t11 -13t2.5 -18q-3 -16 -14.5 -26.5t-26 -10.5t-23.5 10.5t-6 26.5q2 15 14 25.5t26 10.5z" />
    <glyph glyph-name="ring" unicode="&#x2da;" horiz-adv-x="350" 
d="M287.5 782q46.5 0 75.5 -33t23 -78q-7 -44 -45.5 -77t-84.5 -33t-75 33t-22 77q6 45 44 78t84.5 33zM283.5 754q-35.5 0 -64.5 -24.5t-34 -58.5q-5 -33 17.5 -57.5t57.5 -24.5t64.5 24.5t34.5 57.5q5 34 -17.5 58.5t-58 24.5z" />
    <glyph glyph-name="ogonek" unicode="&#x2db;" horiz-adv-x="350" 
d="M162 3h29q-71 -82 -78 -128q-3 -20 7 -32t28 -12q29 0 63 34l15 -20q-41 -45 -86 -45q-28 0 -44.5 19t-12.5 52q7 48 79 132z" />
    <glyph glyph-name="tilde" unicode="&#x2dc;" horiz-adv-x="350" 
d="M216 729q22 0 42 -16.5t38 -33t35 -16.5q47 0 55 57h32q-7 -44 -29.5 -68t-58.5 -24q-19 0 -36 10.5t-27 22.5t-23.5 22.5t-27.5 10.5q-47 0 -55 -57h-32q3 22 10.5 39t18.5 29t25.5 18t32.5 6z" />
    <glyph glyph-name="hungarumlaut" unicode="&#x2dd;" horiz-adv-x="350" 
d="M282 725l-109 -105h-41l118 125zM411 725l-109 -105h-41l118 125z" />
    <glyph glyph-name="commaaccent" unicode="&#x326;" horiz-adv-x="0" 
d="M83 -61q14 0 22.5 -10.5t6.5 -25.5q-2 -13 -17 -32l-45 -57h-28l36 57q-17 9 -14 33q2 15 13.5 25t25.5 10z" />
    <glyph glyph-name="Delta" unicode="&#x394;" horiz-adv-x="698" 
d="M690 0h-682l418 699h45zM632 38l-191 613l-365 -613h556z" />
    <glyph glyph-name="Omega" unicode="&#x3a9;" horiz-adv-x="916" 
d="M559 701q154 0 242.5 -98t67.5 -245q-14 -91 -72.5 -179.5t-139.5 -138.5h253l-6 -40h-310l6 39q57 28 106 78.5t81.5 112.5t41.5 125q19 132 -59 218.5t-217 86.5t-242 -86.5t-122 -218.5q-14 -95 25.5 -184.5t113.5 -132.5l-5 -38h-311l6 40h254q-67 50 -101 138.5
t-20 179.5q21 147 137.5 245t270.5 98z" />
    <glyph glyph-name="pi" unicode="&#x3c0;" horiz-adv-x="720" 
d="M782 484h-174l-70 -484h-37l70 484h-221l-126 -484h-37l126 484h-78q-57 0 -99.5 -33t-48.5 -83q-6 -45 18 -87l-32 -16q-28 48 -21 108q8 62 61.5 105t123.5 43h551z" />
    <glyph glyph-name="Wgrave" unicode="&#x1e80;" horiz-adv-x="998" 
d="M576 799h-47l-113 103l44 20zM756 0h-43l-120 640l-305 -640h-44l-135 699h47l118 -649l306 649h44l119 -649l305 649h45z" />
    <glyph glyph-name="wgrave" unicode="&#x1e81;" horiz-adv-x="835" 
d="M545 620h-47l-113 103l44 20zM639 0h-43l-106 466l-242 -466h-43l-122 521h45l105 -476l242 476h45l105 -476l242 476h44z" />
    <glyph glyph-name="Wacute" unicode="&#x1e82;" horiz-adv-x="998" 
d="M688 902l-143 -103h-47l152 123zM756 0h-43l-120 640l-305 -640h-44l-135 699h47l118 -649l306 649h44l119 -649l305 649h45z" />
    <glyph glyph-name="wacute" unicode="&#x1e83;" horiz-adv-x="835" 
d="M657 723l-143 -103h-47l152 123zM639 0h-43l-106 466l-242 -466h-43l-122 521h45l105 -476l242 476h45l105 -476l242 476h44z" />
    <glyph glyph-name="Wdieresis" unicode="&#x1e84;" horiz-adv-x="998" 
d="M473 889q9 0 16.5 -5t11 -13t2.5 -18q-2 -15 -14 -25.5t-26 -10.5t-22.5 10.5t-6.5 25.5q1 10 7 18t14.5 13t17.5 5zM629 889q9 0 16.5 -5t11 -13t2.5 -18q-2 -15 -14 -25.5t-26 -10.5t-22.5 10.5t-6.5 25.5t13.5 25.5t25.5 10.5zM756 0h-43l-120 640l-305 -640h-44
l-135 699h47l118 -649l306 649h44l119 -649l305 649h45z" />
    <glyph glyph-name="wdieresis" unicode="&#x1e85;" horiz-adv-x="835" 
d="M441.5 710q9.5 0 16.5 -5t11 -13t2 -18q-2 -15 -14 -25.5t-26 -10.5t-22.5 10.5t-6.5 25.5q2 10 7.5 18t14 13t18 5zM597 710q10 0 17 -5t11 -13t2 -18q-2 -15 -14 -25.5t-26 -10.5t-22.5 10.5t-6.5 25.5t13.5 25.5t25.5 10.5zM639 0h-43l-106 466l-242 -466h-43
l-122 521h45l105 -476l242 476h45l105 -476l242 476h44z" />
    <glyph glyph-name="Ygrave" unicode="&#x1ef2;" horiz-adv-x="613" 
d="M413 799l-113 103l44 20l116 -123h-47zM366 256l-37 -256h-41l37 254l-216 445h45l198 -393l309 393h45z" />
    <glyph glyph-name="ygrave" unicode="&#x1ef3;" horiz-adv-x="473" 
d="M368 620h-47l-113 103l44 20zM549 521l-328 -596q-32 -58 -73.5 -89t-87.5 -31q-59 0 -95 30l23 36q31 -24 76 -24q73 0 125 94l33 59l-140 521h44l124 -472l255 472h44z" />
    <glyph glyph-name="endash" unicode="&#x2013;" horiz-adv-x="401" 
d="M435 236h-401l5 35h401z" />
    <glyph glyph-name="emdash" unicode="&#x2014;" horiz-adv-x="745" 
d="M779 236h-745l5 35h745z" />
    <glyph glyph-name="quoteleft" unicode="&#x2018;" horiz-adv-x="180" 
d="M228 708l-37 -57q18 -9 14 -32q-2 -15 -13 -25t-26 -10q-14 0 -22.5 10t-6.5 26q2 14 17 31l45 57h29z" />
    <glyph glyph-name="quoteright" unicode="&#x2019;" horiz-adv-x="180" 
d="M193 699q14 0 22.5 -10.5t6.5 -25.5q-2 -13 -17 -32l-45 -56h-28l36 57q-18 7 -14 32q1 10 6.5 18t14 12.5t18.5 4.5z" />
    <glyph glyph-name="quotesinglbase" unicode="&#x201a;" horiz-adv-x="180" 
d="M101 64q14 0 22.5 -10.5t6.5 -25.5q-2 -13 -17 -32l-45 -57h-28l36 57q-17 9 -14 32q2 16 13.5 26t25.5 10z" />
    <glyph glyph-name="quotedblleft" unicode="&#x201c;" horiz-adv-x="268" 
d="M227 708l-36 -57q18 -9 14 -32q-1 -8 -4.5 -14.5t-9 -11.5t-12 -7.5t-13.5 -2.5q-14 0 -22.5 10.5t-6.5 25.5q2 13 17 32l45 57h28zM330 708l-36 -57q18 -9 14 -32q-2 -16 -13.5 -26t-25.5 -10t-22.5 10.5t-6.5 25.5q2 13 17 32l45 57h28z" />
    <glyph glyph-name="quotedblright" unicode="&#x201d;" horiz-adv-x="276" 
d="M193 700q14 0 22.5 -10.5t6.5 -25.5q-2 -13 -17 -32l-45 -57h-28l36 57q-18 9 -14 32q2 16 13 26t26 10zM296 700q14 0 22.5 -10.5t6.5 -25.5q-2 -13 -17 -32l-45 -57h-28l36 57q-18 9 -14 32q2 16 13 26t26 10z" />
    <glyph glyph-name="quotedblbase" unicode="&#x201e;" horiz-adv-x="283" 
d="M101 64q14 0 22.5 -10.5t6.5 -25.5q-2 -13 -17 -32l-45 -57h-28l36 57q-17 9 -14 32q2 16 13.5 26t25.5 10zM204 64q9 0 16 -4.5t11 -13t2 -18.5q-2 -13 -17 -32l-45 -57h-28l36 57q-17 9 -14 32q2 16 13.5 26t25.5 10z" />
    <glyph glyph-name="dagger" unicode="&#x2020;" horiz-adv-x="492" 
d="M333 467h215l-6 -41h-215l-89 -619h-40l89 619h-215l6 41h215l34 232h40z" />
    <glyph glyph-name="daggerdbl" unicode="&#x2021;" horiz-adv-x="492" 
d="M327 426l-45 -313h215l-6 -41h-215l-38 -265h-40l38 265h-215l6 41h215l45 313h-215l6 41h215l34 232h40l-34 -232h215l-6 -41h-215z" />
    <glyph glyph-name="bullet" unicode="&#x2022;" horiz-adv-x="215" 
d="M154 323q21 0 34 -15.5t10 -38.5t-20.5 -38.5t-39.5 -15.5q-21 0 -33.5 16t-9.5 38t20 38t39 16z" />
    <glyph glyph-name="ellipsis" unicode="&#x2026;" horiz-adv-x="516" 
d="M99 64q14 0 22.5 -10.5t6.5 -25.5t-13.5 -25t-25.5 -10t-22.5 10t-6.5 25t13.5 25.5t25.5 10.5zM267 64q14 0 22.5 -10.5t6.5 -25.5t-13.5 -25t-25.5 -10t-22.5 10t-6.5 25t14 25.5t25 10.5zM436 64q14 0 22.5 -10.5t6.5 -25.5t-13.5 -25t-25.5 -10t-22.5 10t-6.5 25
q1 10 7 18t14.5 13t17.5 5z" />
    <glyph glyph-name="perthousand" unicode="&#x2030;" horiz-adv-x="1348" 
d="M319 700q82 0 119.5 -53.5t23.5 -151.5t-66.5 -151t-135.5 -53q-81 0 -118.5 53t-23.5 151q10 65 36.5 111t68.5 70t96 24zM159 0l634 699h44l-633 -699h-45zM314 669q-44 0 -77.5 -20t-55 -59t-29.5 -95q-12 -84 17 -129t95 -45q68 0 110 45t54 129q8 56 -2 95t-38.5 59
t-73.5 20zM749 408q82 0 119.5 -53.5t23.5 -150.5q-7 -49 -24 -87.5t-42.5 -64.5t-60 -39.5t-75.5 -13.5q-81 0 -118.5 53.5t-23.5 151.5q14 97 67 150.5t134 53.5zM1187 408q82 0 119.5 -53.5t23.5 -150.5q-14 -98 -67 -151.5t-135 -53.5q-81 0 -118.5 53.5t-23.5 151.5
q14 97 67 150.5t134 53.5zM744 378q-66 0 -108 -45t-54 -129q-12 -85 17 -129.5t95 -44.5q68 0 110 44.5t54 129.5q13 84 -16.5 129t-97.5 45zM1182 378q-43 0 -77 -20t-55.5 -59t-29.5 -95q-12 -85 17 -129.5t95 -44.5q68 0 110 44.5t54 129.5q8 56 -2 95t-38.5 59
t-73.5 20z" />
    <glyph glyph-name="guilsinglleft" unicode="&#x2039;" horiz-adv-x="270" 
d="M129 250l85 -158h-40l-88 158l134 161h40z" />
    <glyph glyph-name="guilsinglright" unicode="&#x203a;" horiz-adv-x="272" 
d="M221 253l-85 158h40l87 -158l-133 -161h-40z" />
    <glyph glyph-name="fraction" unicode="&#x2044;" horiz-adv-x="33" 
d="M-279 0l634 699h44l-633 -699h-45z" />
    <glyph glyph-name="euro" unicode="&#x20ac;" horiz-adv-x="802" 
d="M744 125l23 -29q-121 -97 -262 -97q-116 0 -199 64t-106 167h-118l5 33h107q-5 44 1 87q5 35 19 73h-104l5 34h113q51 107 155.5 175t223.5 68q69 0 129 -25t103 -69l-30 -32q-80 86 -208 86q-102 0 -192.5 -56.5t-137.5 -146.5h295l-5 -34h-305q-14 -35 -19 -72
q-7 -42 0 -88h301l-5 -33h-289q17 -56 54.5 -99t93 -67t120.5 -24q127 0 232 85z" />
    <glyph glyph-name="literSign" unicode="&#x2113;" horiz-adv-x="463" 
d="M426 701q41 0 64 -27.5t15 -80.5q-11 -81 -92.5 -179t-221.5 -196q-30 -88 -20 -135.5t70 -47.5q84 0 180 96l17 -21q-104 -111 -207 -111q-49 0 -73 24t-23.5 66.5t14.5 100.5l-67 -47l-10 25l89 62l97 308q27 80 72 121.5t96 41.5zM422 670q-38 0 -72.5 -33.5
t-57.5 -99.5l-87 -275q119 84 190 173t80 158q6 38 -9.5 57.5t-43.5 19.5z" />
    <glyph glyph-name="trademark" unicode="&#x2122;" horiz-adv-x="863" 
d="M403 666h-137l-56 -386h-34l56 386h-137l5 33h308zM837 280h-32l53 374l-212 -329h-20l-117 329l-54 -374h-33l61 419h47l114 -322l207 322h47z" />
    <glyph glyph-name="estimated" unicode="&#x212e;" horiz-adv-x="809" 
d="M785 312h-543q-5 0 -6 -4l-23 -164q-2 -9 5 -19q22 -28 51 -47.5t65.5 -30.5t76.5 -11q63 0 123.5 26.5t105.5 72.5h49q-53 -54 -128 -85.5t-153 -31.5q-91 0 -162.5 40.5t-106.5 109.5t-23 151t67 151.5t137.5 110t174 40.5t162.5 -40.5t106 -110t23 -151.5zM666 333
l24 165q1 11 -6 20q-35 40 -84 62.5t-107 22.5q-120 0 -218 -88q-10 -9 -12 -20l-23 -162q-1 -5 4 -5h416q5 0 6 5z" />
    <glyph glyph-name="oneeighth" unicode="&#x215b;" horiz-adv-x="756" 
d="M154 291l54 377h-87l5 31h122l-59 -408h-35zM28 0l634 699h44l-633 -699h-45zM617 409q61 0 92.5 -27t24.5 -74q-9 -64 -85 -90q42 -11 62 -38t14 -66q-7 -54 -51.5 -84.5t-114.5 -30.5q-72 0 -107.5 30t-28.5 84q6 39 34.5 66.5t73.5 38.5q-70 26 -60 91q6 46 45.5 73
t100.5 27zM614 382q-48 0 -78 -20.5t-35 -55.5q-3 -24 6.5 -41t31 -26t53.5 -9q47 0 76.5 20t34.5 56q5 35 -18.5 55.5t-70.5 20.5zM587 201q-55 0 -90 -22.5t-40 -61.5q-6 -42 22 -65.5t84 -23.5q36 0 64 10.5t45 30t21 47.5q3 20 -3 35.5t-19.5 26.5t-34.5 17t-49 6z" />
    <glyph glyph-name="threeeighths" unicode="&#x215c;" horiz-adv-x="822" 
d="M94 0l634 699h44l-633 -699h-45zM212 525l24 -1q59 -2 91.5 -30.5t25.5 -77.5q-8 -56 -52.5 -90.5t-110.5 -34.5q-73 0 -123 37l20 29q42 -37 105 -37q26 0 48 7t38 19.5t26.5 29.5t13.5 38q6 41 -20.5 62.5t-80.5 21.5h-49l3 23l156 148h-194l5 29h236l-4 -23zM683 409
q61 0 92.5 -27t24.5 -74q-9 -64 -85 -90q42 -11 62 -38t14 -66q-7 -54 -51.5 -84.5t-114.5 -30.5q-72 0 -107.5 30t-28.5 84q6 39 34.5 66.5t73.5 38.5q-70 26 -60 91q6 46 45.5 73t100.5 27zM680 382q-48 0 -78 -20.5t-35 -55.5q-3 -24 6.5 -41t31 -26t53.5 -9
q47 0 76.5 20t34.5 56q5 35 -18.5 55.5t-70.5 20.5zM653 201q-55 0 -90 -22.5t-40 -61.5q-6 -42 22 -65.5t84 -23.5q36 0 64 10.5t45 30t21 47.5q5 40 -22.5 62.5t-83.5 22.5z" />
    <glyph glyph-name="fiveeighths" unicode="&#x215d;" horiz-adv-x="843" 
d="M194 668l-20 -143q42 13 81 13q64 0 98 -31t26 -83q-9 -60 -53 -96.5t-110 -36.5q-33 0 -69 12t-63 31l20 29q22 -20 53 -31t60 -11q34 0 61 12.5t43.5 35t21.5 53.5q6 40 -20.5 63.5t-77.5 23.5q-59 0 -109 -17l30 207h237l-5 -31h-204zM115 0l634 699h44l-633 -699h-45
zM704 409q61 0 92.5 -27t24.5 -74q-9 -64 -85 -90q42 -11 62 -38t14 -66q-7 -54 -51.5 -84.5t-114.5 -30.5q-72 0 -107.5 30t-28.5 84q6 39 34.5 66.5t73.5 38.5q-70 26 -60 91q6 46 45.5 73t100.5 27zM701 382q-48 0 -78 -20.5t-35 -55.5q-3 -24 6.5 -41t31 -26t53.5 -9
q47 0 76.5 20t34.5 56q5 35 -18.5 55.5t-70.5 20.5zM674 201q-55 0 -90 -22.5t-40 -61.5q-6 -42 22 -65.5t84 -23.5q36 0 64 10.5t45 30t21 47.5q3 20 -3 35.5t-19.5 26.5t-34.5 17t-49 6z" />
    <glyph glyph-name="seveneighths" unicode="&#x215e;" horiz-adv-x="806" 
d="M185 291h-37l234 377h-216l-9 -63h-32l14 94h285l-5 -30zM77 0l634 699h44l-633 -699h-45zM666 409q61 0 92.5 -27t24.5 -74q-9 -64 -85 -90q42 -11 62 -38t14 -66q-7 -54 -51.5 -84.5t-114.5 -30.5q-72 0 -107.5 30t-28.5 84q6 39 34.5 66.5t73.5 38.5q-70 26 -60 91
q6 46 45.5 73t100.5 27zM663 382q-48 0 -78 -20.5t-35 -55.5q-3 -24 6.5 -41t31 -26t53.5 -9q47 0 76.5 20t34.5 56q5 35 -18.5 55.5t-70.5 20.5zM636 201q-37 0 -65 -10t-44.5 -29t-20.5 -45q-4 -28 7 -48t36.5 -30.5t62.5 -10.5q55 0 89.5 23t40.5 65q5 40 -22.5 62.5
t-83.5 22.5z" />
    <glyph glyph-name="partialdiff" unicode="&#x2202;" horiz-adv-x="593" 
d="M364 700q126 0 185 -100t35 -266q-23 -161 -105 -248t-206 -87q-104 0 -156.5 60.5t-37.5 164.5q15 101 82 159.5t169 58.5q89 0 142 -46t59 -126q41 182 -6 286.5t-170 104.5q-87 0 -174 -52l-13 35q99 56 196 56zM329 403q-84 0 -141 -47.5t-68 -129.5
q-13 -86 33 -136.5t132 -50.5q48 0 89.5 17.5t68 45t42.5 57.5t21 60q10 75 -37.5 129.5t-139.5 54.5z" />
    <glyph glyph-name="product" unicode="&#x220f;" horiz-adv-x="760" 
d="M612 -194h-41l129 897h-438l-129 -897h-41l135 936h520z" />
    <glyph glyph-name="summation" unicode="&#x2211;" horiz-adv-x="605" 
d="M695 701h-504l274 -390l-391 -408h516l-6 -41h-566l6 41l392 408l-273 390l6 41h552z" />
    <glyph glyph-name="minus" unicode="&#x2212;" horiz-adv-x="484" 
d="M489 304h-406l5 34h406z" />
    <glyph glyph-name="divisionslash" unicode="&#x2215;" horiz-adv-x="302" 
d="M19 -127h-39l446 951h38z" />
    <glyph glyph-name="bulletoperator" unicode="&#x2219;" horiz-adv-x="215" 
d="M154 323q21 0 34 -15.5t10 -38.5t-20.5 -38.5t-39.5 -15.5q-21 0 -33.5 16t-9.5 38t20 38t39 16z" />
    <glyph glyph-name="radical" unicode="&#x221a;" horiz-adv-x="665" 
d="M225 385l94 -483l392 853h42l-419 -903h-44l-98 494h-120l5 39h148z" />
    <glyph glyph-name="infinity" unicode="&#x221e;" horiz-adv-x="902" 
d="M744 488q78 0 121.5 -52t32.5 -130t-70 -130.5t-136 -52.5q-44 0 -77.5 11.5t-57 35.5t-37 46t-30.5 57q-25 -35 -45.5 -57t-50.5 -46t-67 -36t-81 -12q-77 0 -121 52.5t-33 130.5t70.5 130t135.5 52q44 0 77.5 -11.5t57 -35.5t37 -46t30.5 -57q20 27 35.5 46t39 40.5
t47 34.5t55 21.5t67.5 8.5zM697 159q64 0 111.5 41.5t56.5 105.5q9 63 -26.5 104.5t-99.5 41.5q-40 0 -73 -11t-61 -35t-46.5 -45t-44.5 -56q15 -35 28 -56t34 -44.5t51 -34.5t70 -11zM251 158q40 0 73 11.5t61 35t47 45t44 56.5q-15 34 -28 55.5t-34.5 44.5t-51.5 34
t-69 11q-41 0 -77.5 -19t-60 -52.5t-29.5 -74.5q-9 -64 26.5 -105.5t98.5 -41.5z" />
    <glyph glyph-name="integral" unicode="&#x222b;" horiz-adv-x="282" 
d="M392 814l-14 -33q-18 11 -43 11q-38 0 -58.5 -31.5t-31.5 -107.5q-11 -77 -33.5 -290.5t-34.5 -297.5q-14 -97 -43.5 -138t-84.5 -41q-28 0 -57 15l15 34q19 -13 44 -13q39 0 59.5 32t31.5 108q12 84 34.5 297.5t33.5 290.5q9 65 25 104t41 57t61 18q24 0 55 -15z" />
    <glyph glyph-name="approxequal" unicode="&#x2248;" horiz-adv-x="484" 
d="M225 485q25 0 54.5 -16.5t57.5 -33t48 -16.5q24 0 38.5 15t18.5 42h33q-7 -45 -30.5 -70t-59.5 -25q-28 0 -57.5 16.5t-56 33.5t-46.5 17q-12 0 -21 -4t-16 -11t-12 -18t-7 -24h-34q7 45 30.5 69.5t59.5 24.5zM195 280q26 0 55.5 -17t57 -33.5t48.5 -16.5q23 0 37.5 15
t18.5 43h33q-7 -46 -30 -70.5t-60 -24.5q-28 0 -57.5 16.5t-55.5 33t-47 16.5q-47 0 -55 -57h-34q6 46 29.5 70.5t59.5 24.5z" />
    <glyph glyph-name="notequal" unicode="&#x2260;" horiz-adv-x="484" 
d="M337 405l-77 -168h219l-5 -35h-230l-73 -157h-35l73 157h-141l5 35h152l78 168h-206l5 35h217l71 153h34l-71 -153h155l-5 -35h-166z" />
    <glyph glyph-name="lessequal" unicode="&#x2264;" horiz-adv-x="484" 
d="M524 550l-398 -169l350 -169l-6 -38l-379 185l6 44l433 185zM452 46h-406l5 35h406z" />
    <glyph glyph-name="greaterequal" unicode="&#x2265;" horiz-adv-x="484" 
d="M70 213l398 169l-350 169l6 38l379 -185l-6 -44l-433 -185zM452 46h-406l5 35h406z" />
    <glyph glyph-name="lozenge" unicode="&#x25ca;" horiz-adv-x="507" 
d="M507 330l-251 -310l-160 310l250 307zM138 330l128 -241l199 241l-129 240z" />
    <glyph glyph-name="A.ss01" 
d="M486.5 700q133.5 0 198 -76t45.5 -211l-60 -413h-42l31 215h-483l-31 -215h-42l60 413q19 135 104.5 211t219 76zM481 659q-114 0 -187 -65t-89 -181l-23 -156h483l23 156q16 116 -38.5 181t-168.5 65z" />
    <glyph glyph-name="Aacute.ss01" 
d="M652 902l-143 -103h-47l152 123zM486.5 700q133.5 0 198 -76t45.5 -211l-60 -413h-42l31 215h-483l-31 -215h-42l60 413q19 135 104.5 211t219 76zM481 659q-114 0 -187 -65t-89 -181l-23 -156h483l23 156q16 116 -38.5 181t-168.5 65z" />
    <glyph glyph-name="Abreve.ss01" 
d="M597 910h33q-4 -25 -16 -46t-29.5 -36t-39 -23.5t-44.5 -8.5q-47 0 -75 32t-22 82h33q-3 -34 16.5 -57t52.5 -23t59 22.5t32 57.5zM486.5 700q133.5 0 198 -76t45.5 -211l-60 -413h-42l31 215h-483l-31 -215h-42l60 413q19 135 104.5 211t219 76zM481 659
q-114 0 -187 -65t-89 -181l-23 -156h483l23 156q16 116 -38.5 181t-168.5 65z" />
    <glyph glyph-name="Acircumflex.ss01" 
d="M624 800h-42l-67 93l-95 -93h-42l117 117h46zM486.5 700q133.5 0 198 -76t45.5 -211l-60 -413h-42l31 215h-483l-31 -215h-42l60 413q19 135 104.5 211t219 76zM481 659q-114 0 -187 -65t-89 -181l-23 -156h483l23 156q16 116 -38.5 181t-168.5 65z" />
    <glyph glyph-name="Adieresis.ss01" 
d="M436 889q9 0 16.5 -5t11 -13t2.5 -18q-2 -15 -14 -25.5t-26 -10.5t-22.5 10.5t-6.5 25.5q1 10 7 18t14.5 13t17.5 5zM592 889q9 0 16.5 -5t11 -13t2.5 -18q-2 -15 -14 -25.5t-26 -10.5t-22.5 10.5t-6.5 25.5t13.5 25.5t25.5 10.5zM486.5 700q133.5 0 198 -76t45.5 -211
l-60 -413h-42l31 215h-483l-31 -215h-42l60 413q19 135 104.5 211t219 76zM481 659q-114 0 -187 -65t-89 -181l-23 -156h483l23 156q16 116 -38.5 181t-168.5 65z" />
    <glyph glyph-name="Agrave.ss01" 
d="M539 799h-47l-113 103l44 20zM486.5 700q133.5 0 198 -76t45.5 -211l-60 -413h-42l31 215h-483l-31 -215h-42l60 413q19 135 104.5 211t219 76zM481 659q-114 0 -187 -65t-89 -181l-23 -156h483l23 156q16 116 -38.5 181t-168.5 65z" />
    <glyph glyph-name="Amacron.ss01" 
d="M619 832h-225l5 36h225zM486.5 700q133.5 0 198 -76t45.5 -211l-60 -413h-42l31 215h-483l-31 -215h-42l60 413q19 135 104.5 211t219 76zM481 659q-114 0 -187 -65t-89 -181l-23 -156h483l23 156q16 116 -38.5 181t-168.5 65z" />
    <glyph glyph-name="Aogonek.ss01" horiz-adv-x="774" 
d="M486.5 700q133.5 0 198 -76t45.5 -211l-60 -413h-6q-69 -77 -76 -125q-3 -21 6.5 -32.5t28.5 -11.5q28 0 62 34l16 -20q-41 -45 -86 -45q-29 0 -45 19t-12 52q7 44 78 129h-8l31 216h-483l-31 -216h-42l60 413q19 135 104.5 211t219 76zM481 659q-114 0 -187 -65
t-89 -181l-23 -156h483l23 156q16 116 -38.5 181t-168.5 65z" />
    <glyph glyph-name="Aring.ss01" 
d="M524.5 961q46.5 0 75.5 -33t22 -78q-6 -44 -44.5 -77t-85 -33t-75 33t-22.5 77q7 45 45 78t84.5 33zM520 933q-23 0 -44.5 -11.5t-36 -30.5t-18.5 -41q-4 -33 18 -57.5t57.5 -24.5t65 24.5t33.5 57.5q5 34 -17 58.5t-58 24.5zM486.5 700q133.5 0 198 -76t45.5 -211
l-60 -413h-42l31 215h-483l-31 -215h-42l60 413q19 135 104.5 211t219 76zM481 659q-114 0 -187 -65t-89 -181l-23 -156h483l23 156q16 116 -38.5 181t-168.5 65z" />
    <glyph glyph-name="Atilde.ss01" 
d="M453 908q21 0 41 -16.5t38.5 -33t34.5 -16.5q47 0 56 57h32q-5 -29 -16.5 -50t-29.5 -31.5t-42 -10.5q-19 0 -36 10.5t-27 22.5t-23.5 22.5t-27.5 10.5q-47 0 -55 -57h-32q6 44 29 68t58 24zM486.5 700q133.5 0 198 -76t45.5 -211l-60 -413h-42l31 215h-483l-31 -215h-42
l60 413q19 135 104.5 211t219 76zM481 659q-114 0 -187 -65t-89 -181l-23 -156h483l23 156q16 116 -38.5 181t-168.5 65z" />
    <glyph glyph-name="E.ss01" horiz-adv-x="548" 
d="M419 701q44 0 92 -11t78 -27l-22 -36q-26 14 -69.5 23.5t-83.5 9.5q-83 0 -142.5 -38t-68 -97t39.5 -97.5t131 -38.5h116l-6 -41h-116q-95 0 -163.5 -44t-77.5 -112q-10 -67 44.5 -109.5t149.5 -42.5q46 0 102.5 14t96.5 34l12 -37q-27 -15 -64.5 -27t-78 -18.5
t-75.5 -6.5q-112 0 -177.5 54t-53.5 136q10 68 69 119.5t140 61.5q-64 11 -100 55t-28 102q11 76 83 125t172 49z" />
    <glyph glyph-name="Eacute.ss01" horiz-adv-x="548" 
d="M540 902l-143 -103h-47l152 123zM419 701q44 0 92 -11t78 -27l-22 -36q-26 14 -69.5 23.5t-83.5 9.5q-83 0 -142.5 -38t-68 -97t39.5 -97.5t131 -38.5h116l-6 -41h-116q-95 0 -163.5 -44t-77.5 -112q-10 -67 44.5 -109.5t149.5 -42.5q46 0 102.5 14t96.5 34l12 -37
q-27 -15 -64.5 -27t-78 -18.5t-75.5 -6.5q-112 0 -177.5 54t-53.5 136q10 68 69 119.5t140 61.5q-64 11 -100 55t-28 102q11 76 83 125t172 49z" />
    <glyph glyph-name="Ebreve.ss01" horiz-adv-x="548" 
d="M485 910h33q-4 -25 -16 -46t-29.5 -36t-39 -23.5t-44.5 -8.5q-47 0 -75 32t-22 82h33q-3 -34 16.5 -57t52.5 -23t59 22.5t32 57.5zM419 701q44 0 92 -11t78 -27l-22 -36q-26 14 -69.5 23.5t-83.5 9.5q-83 0 -142.5 -38t-68 -97t39.5 -97.5t131 -38.5h116l-6 -41h-116
q-95 0 -163.5 -44t-77.5 -112q-10 -67 44.5 -109.5t149.5 -42.5q46 0 102.5 14t96.5 34l12 -37q-27 -15 -64.5 -27t-78 -18.5t-75.5 -6.5q-112 0 -177.5 54t-53.5 136q10 68 69 119.5t140 61.5q-64 11 -100 55t-28 102q11 76 83 125t172 49z" />
    <glyph glyph-name="Ecaron.ss01" horiz-adv-x="548" 
d="M280 917h43l68 -95l96 95h43l-118 -120h-48zM419 701q44 0 92 -11t78 -27l-22 -36q-26 14 -69.5 23.5t-83.5 9.5q-83 0 -142.5 -38t-68 -97t39.5 -97.5t131 -38.5h116l-6 -41h-116q-95 0 -163.5 -44t-77.5 -112q-10 -67 44.5 -109.5t149.5 -42.5q46 0 102.5 14t96.5 34
l12 -37q-27 -15 -64.5 -27t-78 -18.5t-75.5 -6.5q-112 0 -177.5 54t-53.5 136q10 68 69 119.5t140 61.5q-64 11 -100 55t-28 102q11 76 83 125t172 49z" />
    <glyph glyph-name="Ecircumflex.ss01" horiz-adv-x="548" 
d="M512 800h-42l-67 93l-95 -93h-42l117 117h46zM419 701q44 0 92 -11t78 -27l-22 -36q-26 14 -69.5 23.5t-83.5 9.5q-83 0 -142.5 -38t-68 -97t39.5 -97.5t131 -38.5h116l-6 -41h-116q-95 0 -163.5 -44t-77.5 -112q-10 -67 44.5 -109.5t149.5 -42.5q46 0 102.5 14t96.5 34
l12 -37q-27 -15 -64.5 -27t-78 -18.5t-75.5 -6.5q-112 0 -177.5 54t-53.5 136q10 68 69 119.5t140 61.5q-64 11 -100 55t-28 102q11 76 83 125t172 49z" />
    <glyph glyph-name="Edieresis.ss01" horiz-adv-x="548" 
d="M324 889q9 0 16.5 -5t11 -13t2.5 -18q-2 -15 -14 -25.5t-26 -10.5t-22.5 10.5t-6.5 25.5t13.5 25.5t25.5 10.5zM480 889q9 0 16.5 -5t11 -13t2.5 -18q-2 -15 -14 -25.5t-26 -10.5t-22.5 10.5t-6.5 25.5t13.5 25.5t25.5 10.5zM419 701q44 0 92 -11t78 -27l-22 -36
q-26 14 -69.5 23.5t-83.5 9.5q-83 0 -142.5 -38t-68 -97t39.5 -97.5t131 -38.5h116l-6 -41h-116q-95 0 -163.5 -44t-77.5 -112q-10 -67 44.5 -109.5t149.5 -42.5q46 0 102.5 14t96.5 34l12 -37q-27 -15 -64.5 -27t-78 -18.5t-75.5 -6.5q-112 0 -177.5 54t-53.5 136
q10 68 69 119.5t140 61.5q-64 11 -100 55t-28 102q11 76 83 125t172 49z" />
    <glyph glyph-name="Edotaccent.ss01" horiz-adv-x="548" 
d="M402 886q9 0 16.5 -5t11 -13t1.5 -18q-2 -16 -13.5 -26.5t-26 -10.5t-23.5 10.5t-7 26.5q3 15 14.5 25.5t26.5 10.5zM419 701q44 0 92 -11t78 -27l-22 -36q-26 14 -69.5 23.5t-83.5 9.5q-83 0 -142.5 -38t-68 -97t39.5 -97.5t131 -38.5h116l-6 -41h-116q-95 0 -163.5 -44
t-77.5 -112q-10 -67 44.5 -109.5t149.5 -42.5q46 0 102.5 14t96.5 34l12 -37q-27 -15 -64.5 -27t-78 -18.5t-75.5 -6.5q-112 0 -177.5 54t-53.5 136q10 68 69 119.5t140 61.5q-64 11 -100 55t-28 102q11 76 83 125t172 49z" />
    <glyph glyph-name="Egrave.ss01" horiz-adv-x="548" 
d="M427 799h-47l-113 103l44 20zM419 701q44 0 92 -11t78 -27l-22 -36q-26 14 -69.5 23.5t-83.5 9.5q-83 0 -142.5 -38t-68 -97t39.5 -97.5t131 -38.5h116l-6 -41h-116q-95 0 -163.5 -44t-77.5 -112q-10 -67 44.5 -109.5t149.5 -42.5q46 0 102.5 14t96.5 34l12 -37
q-27 -15 -64.5 -27t-78 -18.5t-75.5 -6.5q-112 0 -177.5 54t-53.5 136q10 68 69 119.5t140 61.5q-64 11 -100 55t-28 102q11 76 83 125t172 49z" />
    <glyph glyph-name="Emacron.ss01" horiz-adv-x="548" 
d="M507 832h-225l5 36h225zM419 701q44 0 92 -11t78 -27l-22 -36q-26 14 -69.5 23.5t-83.5 9.5q-83 0 -142.5 -38t-68 -97t39.5 -97.5t131 -38.5h116l-6 -41h-116q-95 0 -163.5 -44t-77.5 -112q-10 -67 44.5 -109.5t149.5 -42.5q46 0 102.5 14t96.5 34l12 -37
q-27 -15 -64.5 -27t-78 -18.5t-75.5 -6.5q-112 0 -177.5 54t-53.5 136q10 68 69 119.5t140 61.5q-64 11 -100 55t-28 102q11 76 83 125t172 49z" />
    <glyph glyph-name="Eogonek.ss01" horiz-adv-x="548" 
d="M393 -169q29 0 63 34l15 -20q-41 -45 -86 -45q-28 0 -44.5 19t-12.5 52q8 55 85 139q-53 -11 -99 -11q-112 0 -177.5 54t-53.5 136q10 68 69 119.5t140 61.5q-64 11 -100 55t-28 102q11 76 83 125t172 49q44 0 92 -11t78 -27l-22 -36q-26 14 -69.5 23.5t-83.5 9.5
q-83 0 -142.5 -38t-68 -97t39.5 -97.5t131 -38.5h116l-6 -41h-116q-95 0 -163.5 -44t-77.5 -112q-10 -67 44.5 -109.5t149.5 -42.5q46 0 102.5 14t96.5 34l12 -37q-33 -18 -81 -32q-85 -90 -93 -144q-3 -20 7 -32t28 -12z" />
    <glyph glyph-name="F.ss01" horiz-adv-x="499" 
d="M400 659q-73 0 -123.5 -45t-61.5 -119l-20 -144h289l-6 -42h-289l-45 -309h-41l71 496q14 94 76 149t154 55q99 0 178 -41l-20 -40q-32 18 -77 29t-85 11z" />
    <glyph glyph-name="G.ss01" horiz-adv-x="758" 
d="M667 346h38l-50 -346h-35l12 80q-108 -81 -227 -81q-98 0 -173.5 47t-112 128t-23 176t74 176t150.5 127.5t189 46.5q140 0 234 -92l-31 -31q-19 20 -42 35t-49.5 26t-56.5 16.5t-61 5.5q-87 0 -167 -41.5t-133 -113t-66 -155.5q-12 -85 20.5 -156.5t100.5 -113
t155 -41.5q120 0 221 87z" />
    <glyph glyph-name="Gbreve.ss01" horiz-adv-x="758" 
d="M494 796q-47 0 -75 32t-22 82h33q-3 -34 16.5 -57t52.5 -23t59 22.5t32 57.5h33q-4 -25 -16 -46t-29.5 -36t-39 -23.5t-44.5 -8.5zM667 346h38l-50 -346h-35l12 80q-108 -81 -227 -81q-98 0 -173.5 47t-112 128t-23 176t74 176t150.5 127.5t189 46.5q140 0 234 -92
l-31 -31q-19 20 -42 35t-49.5 26t-56.5 16.5t-61 5.5q-87 0 -167 -41.5t-133 -113t-66 -155.5q-12 -85 20.5 -156.5t100.5 -113t155 -41.5q120 0 221 87z" />
    <glyph glyph-name="Gcircumflex.ss01" horiz-adv-x="758" 
d="M413 800h-42l117 117h46l83 -117h-42l-67 93zM667 346h38l-50 -346h-35l12 80q-108 -81 -227 -81q-98 0 -173.5 47t-112 128t-23 176t74 176t150.5 127.5t189 46.5q140 0 234 -92l-31 -31q-19 20 -42 35t-49.5 26t-56.5 16.5t-61 5.5q-87 0 -167 -41.5t-133 -113
t-66 -155.5q-12 -85 20.5 -156.5t100.5 -113t155 -41.5q120 0 221 87z" />
    <glyph glyph-name="Gcommaaccent.ss01" horiz-adv-x="758" 
d="M667 346h38l-50 -346h-35l12 80q-108 -81 -227 -81q-98 0 -173.5 47t-112 128t-23 176t74 176t150.5 127.5t189 46.5q140 0 234 -92l-31 -31q-19 20 -42 35t-49.5 26t-56.5 16.5t-61 5.5q-87 0 -167 -41.5t-133 -113t-66 -155.5q-12 -85 20.5 -156.5t100.5 -113
t155 -41.5q120 0 221 87zM375 -61q14 0 22.5 -10.5t6.5 -25.5q-2 -13 -17 -32l-45 -57h-28l36 57q-17 9 -14 33q2 15 13.5 25t25.5 10z" />
    <glyph glyph-name="Gdotaccent.ss01" horiz-adv-x="758" 
d="M496.5 813q-14.5 0 -23.5 10.5t-7 26.5q3 15 14.5 25.5t26.5 10.5q9 0 16.5 -5t11 -13t1.5 -18q-2 -16 -13.5 -26.5t-26 -10.5zM667 346h38l-50 -346h-35l12 80q-108 -81 -227 -81q-98 0 -173.5 47t-112 128t-23 176t74 176t150.5 127.5t189 46.5q140 0 234 -92l-31 -31
q-19 20 -42 35t-49.5 26t-56.5 16.5t-61 5.5q-87 0 -167 -41.5t-133 -113t-66 -155.5q-12 -85 20.5 -156.5t100.5 -113t155 -41.5q120 0 221 87z" />
    <glyph glyph-name="I.ss01" horiz-adv-x="456" 
d="M344 658l-89 -616h149l-6 -42h-340l6 42h149l89 616h-149l6 41h340l-6 -41h-149z" />
    <glyph glyph-name="IJ.ss01" horiz-adv-x="923" 
d="M499 699l-6 -41h-149l-89 -616h149l-6 -42h-340l6 42h149l89 616h-149l6 41h340zM921 699l-86 -597q-14 -98 -68.5 -150.5t-142.5 -52.5q-109 0 -166 98l27 33q52 -88 146 -88q45 0 79 18.5t55 54.5t29 88l80 555h-257l6 41h298z" />
    <glyph glyph-name="Iacute.ss01" horiz-adv-x="456" 
d="M350 799h-47l152 123l38 -20zM344 658l-89 -616h149l-6 -42h-340l6 42h149l89 616h-149l6 41h340l-6 -41h-149z" />
    <glyph glyph-name="Ibreve.ss01" horiz-adv-x="456" 
d="M343 796q-47 0 -75 32t-22 82h33q-3 -34 16.5 -57t52.5 -23t59 22.5t32 57.5h33q-4 -25 -16 -46t-29.5 -36t-39 -23.5t-44.5 -8.5zM344 658l-89 -616h149l-6 -42h-340l6 42h149l89 616h-149l6 41h340l-6 -41h-149z" />
    <glyph glyph-name="Icircumflex.ss01" horiz-adv-x="456" 
d="M262 800h-42l117 117h46l83 -117h-42l-67 93zM344 658l-89 -616h149l-6 -42h-340l6 42h149l89 616h-149l6 41h340l-6 -41h-149z" />
    <glyph glyph-name="Idieresis.ss01" horiz-adv-x="456" 
d="M268 817q-14 0 -22.5 10.5t-6.5 25.5q1 10 7 18t14.5 13t17.5 5t16.5 -5t11 -13t2.5 -18q-2 -15 -14 -25.5t-26 -10.5zM424 817q-14 0 -22.5 10.5t-6.5 25.5t13.5 25.5t25.5 10.5q9 0 16.5 -5t11 -13t2.5 -18q-2 -15 -14 -25.5t-26 -10.5zM344 658l-89 -616h149l-6 -42
h-340l6 42h149l89 616h-149l6 41h340l-6 -41h-149z" />
    <glyph glyph-name="Idotaccent.ss01" horiz-adv-x="456" 
d="M345.5 813q-14.5 0 -23.5 10.5t-7 26.5q3 15 14.5 25.5t26.5 10.5q9 0 16.5 -5t11 -13t1.5 -18q-2 -16 -13.5 -26.5t-26 -10.5zM344 658l-89 -616h149l-6 -42h-340l6 42h149l89 616h-149l6 41h340l-6 -41h-149z" />
    <glyph glyph-name="Igrave.ss01" horiz-adv-x="456" 
d="M334 799l-113 103l44 20l116 -123h-47zM344 658l-89 -616h149l-6 -42h-340l6 42h149l89 616h-149l6 41h340l-6 -41h-149z" />
    <glyph glyph-name="Imacron.ss01" horiz-adv-x="456" 
d="M461 832h-225l5 36h225zM344 658l-89 -616h149l-6 -42h-340l6 42h149l89 616h-149l6 41h340l-6 -41h-149z" />
    <glyph glyph-name="Iogonek.ss01" horiz-adv-x="456" 
d="M373 -135l15 -20q-41 -45 -86 -45q-28 0 -44.5 19t-12.5 52q7 48 77 129h-264l6 42h149l89 616h-149l6 41h340l-6 -41h-149l-89 -616h149l-6 -42h-47q-70 -80 -76 -125q-3 -20 7 -32t28 -12q29 0 63 34z" />
    <glyph glyph-name="Itilde.ss01" horiz-adv-x="456" 
d="M295 873q-47 0 -55 -57h-32q6 44 29 68t58 24q21 0 41 -16.5t38.5 -33t34.5 -16.5q47 0 56 57h32q-5 -29 -16.5 -50t-29.5 -31.5t-42 -10.5q-19 0 -36 10.5t-27 22.5t-23.5 22.5t-27.5 10.5zM344 658l-89 -616h149l-6 -42h-340l6 42h149l89 616h-149l6 41h340l-6 -41
h-149z" />
    <glyph glyph-name="J.ss01" horiz-adv-x="467" 
d="M465 699l-86 -597q-14 -98 -68.5 -150.5t-142.5 -52.5q-109 0 -166 98l27 33q52 -88 146 -88q67 0 109.5 41.5t53.5 119.5l80 555h-257l6 41h298z" />
    <glyph glyph-name="M.ss01" horiz-adv-x="1220" 
d="M988 699q100 0 154.5 -71.5t38.5 -182.5l-64 -445h-42l63 438q7 47 -2 87.5t-31 69t-56 45t-76 16.5q-104 -2 -182 -71.5t-93 -172.5l-59 -412h-42l63 438q14 95 -33 156.5t-132 61.5q-98 -2 -173 -64t-97 -157l-63 -435h-42l101 699h42l-22 -153q42 70 113.5 111
t155.5 42q54 0 96 -22.5t67.5 -63t31.5 -94.5q26 53 68.5 93.5t97.5 63t117 23.5z" />
    <glyph glyph-name="N.ss01" horiz-adv-x="787" 
d="M537 699q108 0 167.5 -71.5t43.5 -182.5l-64 -445h-42l63 438q14 95 -38 156.5t-145 61.5q-110 -2 -192.5 -64.5t-104.5 -157.5l-63 -434h-42l101 699h42l-23 -158q45 71 123.5 114t173.5 44z" />
    <glyph glyph-name="Nacute.ss01" horiz-adv-x="787" 
d="M516 799h-47l152 123l38 -20zM537 699q108 0 167.5 -71.5t43.5 -182.5l-64 -445h-42l63 438q14 95 -38 156.5t-145 61.5q-110 -2 -192.5 -64.5t-104.5 -157.5l-63 -434h-42l101 699h42l-23 -158q45 71 123.5 114t173.5 44z" />
    <glyph glyph-name="Ncaron.ss01" horiz-adv-x="787" 
d="M484 797l-84 120h43l68 -95l96 95h43l-118 -120h-48zM537 699q108 0 167.5 -71.5t43.5 -182.5l-64 -445h-42l63 438q14 95 -38 156.5t-145 61.5q-110 -2 -192.5 -64.5t-104.5 -157.5l-63 -434h-42l101 699h42l-23 -158q45 71 123.5 114t173.5 44z" />
    <glyph glyph-name="Ncommaaccent.ss01" horiz-adv-x="787" 
d="M537 699q108 0 167.5 -71.5t43.5 -182.5l-64 -445h-42l63 438q14 95 -38 156.5t-145 61.5q-110 -2 -192.5 -64.5t-104.5 -157.5l-63 -434h-42l101 699h42l-23 -158q45 71 123.5 114t173.5 44zM389 -61q14 0 22.5 -10.5t6.5 -25.5q-2 -13 -17 -32l-45 -57h-28l36 57
q-17 9 -14 33q2 10 7.5 18t14 12.5t17.5 4.5z" />
    <glyph glyph-name="Eng.ss01" horiz-adv-x="787" 
d="M537 699q108 0 167.5 -71.5t43.5 -182.5l-64 -445q-14 -94 -69 -146t-142 -52q-108 0 -165 93l28 34q51 -83 144 -83q67 0 109.5 41.5t53.5 120.5l62 430q14 95 -38 156.5t-145 61.5q-110 -2 -192.5 -64.5t-104.5 -157.5l-63 -434h-42l101 699h42l-23 -158
q45 71 123.5 114t173.5 44z" />
    <glyph glyph-name="Ntilde.ss01" horiz-adv-x="787" 
d="M460 873q-47 0 -55 -57h-32q6 44 29 68t58 24q21 0 41 -16.5t38.5 -33t34.5 -16.5q47 0 56 57h32q-5 -29 -16.5 -50t-29.5 -31.5t-42 -10.5q-19 0 -36 10.5t-27 22.5t-23.5 22.5t-27.5 10.5zM537 699q108 0 167.5 -71.5t43.5 -182.5l-64 -445h-42l63 438q14 95 -38 156.5
t-145 61.5q-110 -2 -192.5 -64.5t-104.5 -157.5l-63 -434h-42l101 699h42l-23 -158q45 71 123.5 114t173.5 44z" />
    <glyph glyph-name="Q.ss01" horiz-adv-x="816" 
d="M820 350q-13 -92 -70 -171t-143 -127t-181 -53l-19 -132h-38l19 133q-93 5 -165 53t-106 126.5t-21 170.5q14 95 74 176t150 127.5t188.5 46.5t175.5 -46.5t113.5 -127.5t22.5 -176zM460 235l-28 -195q127 8 227.5 97.5t117.5 212.5q13 84 -20 155t-100.5 112.5
t-153.5 41.5t-165.5 -41.5t-132.5 -112.5t-66 -155q-11 -81 19 -150t92.5 -111.5t143.5 -47.5l28 194h38z" />
    <glyph glyph-name="T.ss01" horiz-adv-x="613" 
d="M666 635l-22 -38q-93 54 -222 60l-95 -657h-42l95 657q-126 -5 -240 -60l-9 39q131 64 275 64q145 0 260 -65z" />
    <glyph glyph-name="Tbar.ss01" horiz-adv-x="613" 
d="M539 832h-225l5 36h225zM666 635l-22 -38q-93 54 -222 60l-95 -657h-42l95 657q-126 -5 -240 -60l-9 39q131 64 275 64q145 0 260 -65z" />
    <glyph glyph-name="Tcaron.ss01" horiz-adv-x="613" 
d="M397 797l-84 120h43l68 -95l96 95h43l-118 -120h-48zM666 635l-22 -38q-93 54 -222 60l-95 -657h-42l95 657q-126 -5 -240 -60l-9 39q131 64 275 64q145 0 260 -65z" />
    <glyph glyph-name="Tcedilla.ss01" horiz-adv-x="613" 
d="M321 0l-28 -49q32 -2 49.5 -22t13.5 -50q-4 -37 -32.5 -61t-68.5 -24q-44 0 -72 22l17 28q21 -19 58 -19q27 0 46 16t22 40q2 20 -10.5 33.5t-34.5 13.5q-24 0 -31 -1l41 73h-6l95 657q-126 -5 -240 -60l-9 39q131 64 275 64q145 0 260 -65l-22 -38q-93 54 -222 60
l-95 -657h-6z" />
    <glyph glyph-name="Tcommaaccent.ss01" horiz-adv-x="613" 
d="M406 700q145 0 260 -65l-22 -38q-93 54 -222 60l-95 -657h-42l95 657q-126 -5 -240 -60l-9 39q131 64 275 64zM288 -61q14 0 22.5 -10.5t6.5 -25.5q-2 -13 -17 -32l-45 -57h-28l36 57q-17 9 -14 33q2 15 13.5 25t25.5 10z" />
    <glyph glyph-name="U.ss01" horiz-adv-x="787" 
d="M768 699l-101 -699h-42l23 158q-46 -71 -124.5 -114t-172.5 -44q-108 0 -167.5 71.5t-43.5 182.5l64 445h42l-63 -438q-9 -62 11 -112t65.5 -78t106.5 -28q109 2 192 64.5t105 157.5l63 434h42z" />
    <glyph glyph-name="Uacute.ss01" horiz-adv-x="787" 
d="M517 799h-47l152 123l38 -20zM768 699l-101 -699h-42l23 158q-46 -71 -124.5 -114t-172.5 -44q-108 0 -167.5 71.5t-43.5 182.5l64 445h42l-63 -438q-9 -62 11 -112t65.5 -78t106.5 -28q109 2 192 64.5t105 157.5l63 434h42z" />
    <glyph glyph-name="Ubreve.ss01" horiz-adv-x="787" 
d="M510 796q-47 0 -75 32t-22 82h33q-3 -34 16.5 -57t52.5 -23t59 22.5t32 57.5h33q-4 -25 -16 -46t-29.5 -36t-39 -23.5t-44.5 -8.5zM768 699l-101 -699h-42l23 158q-46 -71 -124.5 -114t-172.5 -44q-108 0 -167.5 71.5t-43.5 182.5l64 445h42l-63 -438q-9 -62 11 -112
t65.5 -78t106.5 -28q109 2 192 64.5t105 157.5l63 434h42z" />
    <glyph glyph-name="Ucircumflex.ss01" horiz-adv-x="787" 
d="M429 800h-42l117 117h46l83 -117h-42l-67 93zM768 699l-101 -699h-42l23 158q-46 -71 -124.5 -114t-172.5 -44q-108 0 -167.5 71.5t-43.5 182.5l64 445h42l-63 -438q-9 -62 11 -112t65.5 -78t106.5 -28q109 2 192 64.5t105 157.5l63 434h42z" />
    <glyph glyph-name="Udieresis.ss01" horiz-adv-x="787" 
d="M435 817q-14 0 -22.5 10.5t-6.5 25.5t13.5 25.5t25.5 10.5q9 0 16.5 -5t11 -13t2.5 -18q-2 -15 -14 -25.5t-26 -10.5zM591 817q-14 0 -22.5 10.5t-6.5 25.5t13.5 25.5t25.5 10.5q9 0 16.5 -5t11 -13t2.5 -18q-2 -15 -14 -25.5t-26 -10.5zM768 699l-101 -699h-42l23 158
q-46 -71 -124.5 -114t-172.5 -44q-108 0 -167.5 71.5t-43.5 182.5l64 445h42l-63 -438q-9 -62 11 -112t65.5 -78t106.5 -28q109 2 192 64.5t105 157.5l63 434h42z" />
    <glyph glyph-name="Ugrave.ss01" horiz-adv-x="787" 
d="M501 799l-113 103l44 20l116 -123h-47zM768 699l-101 -699h-42l23 158q-46 -71 -124.5 -114t-172.5 -44q-108 0 -167.5 71.5t-43.5 182.5l64 445h42l-63 -438q-9 -62 11 -112t65.5 -78t106.5 -28q109 2 192 64.5t105 157.5l63 434h42z" />
    <glyph glyph-name="Uhungarumlaut.ss01" horiz-adv-x="787" 
d="M440 798h-41l118 125l32 -20zM528 798l118 125l32 -20l-109 -105h-41zM768 699l-101 -699h-42l23 158q-46 -71 -124.5 -114t-172.5 -44q-108 0 -167.5 71.5t-43.5 182.5l64 445h42l-63 -438q-9 -62 11 -112t65.5 -78t106.5 -28q109 2 192 64.5t105 157.5l63 434h42z" />
    <glyph glyph-name="Umacron.ss01" horiz-adv-x="787" 
d="M627 832h-225l5 36h225zM768 699l-101 -699h-42l23 158q-46 -71 -124.5 -114t-172.5 -44q-108 0 -167.5 71.5t-43.5 182.5l64 445h42l-63 -438q-9 -62 11 -112t65.5 -78t106.5 -28q109 2 192 64.5t105 157.5l63 434h42z" />
    <glyph glyph-name="Uogonek.ss01" horiz-adv-x="787" 
d="M684 -135l15 -20q-41 -45 -86 -45q-28 0 -44.5 19t-12.5 52q7 48 77 129h-8l23 158q-46 -71 -124.5 -114t-172.5 -44q-108 0 -167.5 71.5t-43.5 182.5l64 445h42l-63 -438q-9 -62 11 -112t65.5 -78t106.5 -28q109 2 192 64.5t105 157.5l63 434h42l-101 -699h-5
q-70 -80 -76 -125q-3 -20 7 -32t28 -12q29 0 63 34z" />
    <glyph glyph-name="Uring.ss01" horiz-adv-x="787" 
d="M500.5 740q-46.5 0 -75 33t-22.5 77q7 45 45 78t84.5 33t75.5 -33t22 -78q-6 -44 -44.5 -77t-85 -33zM528.5 933q-35.5 0 -65 -24.5t-34.5 -58.5q-4 -33 18 -57.5t57.5 -24.5t65 24.5t33.5 57.5q5 34 -17 58.5t-57.5 24.5zM768 699l-101 -699h-42l23 158
q-46 -71 -124.5 -114t-172.5 -44q-108 0 -167.5 71.5t-43.5 182.5l64 445h42l-63 -438q-9 -62 11 -112t65.5 -78t106.5 -28q109 2 192 64.5t105 157.5l63 434h42z" />
    <glyph glyph-name="Utilde.ss01" horiz-adv-x="787" 
d="M461 873q-47 0 -55 -57h-32q6 44 29 68t58 24q21 0 41 -16.5t38.5 -33t34.5 -16.5q47 0 56 57h32q-5 -29 -16.5 -50t-29.5 -31.5t-42 -10.5q-19 0 -36 10.5t-27 22.5t-23.5 22.5t-27.5 10.5zM768 699l-101 -699h-42l23 158q-46 -71 -124.5 -114t-172.5 -44
q-108 0 -167.5 71.5t-43.5 182.5l64 445h42l-63 -438q-9 -62 11 -112t65.5 -78t106.5 -28q109 2 192 64.5t105 157.5l63 434h42z" />
    <glyph glyph-name="W.ss01" horiz-adv-x="1197" 
d="M1195 699l-66 -458q-16 -110 -94 -176t-192 -66q-89 0 -149.5 41t-72.5 109q-33 -68 -105 -109t-162 -41q-114 0 -173 66t-43 176l66 458h42l-66 -458q-13 -91 37 -146t147 -55q100 0 168 54.5t82 146.5l66 458h41l-66 -458q-13 -91 39 -146t151 -55q97 0 163.5 54.5
t79.5 146.5l66 458h41z" />
    <glyph glyph-name="Wacute.ss01" horiz-adv-x="1197" 
d="M864 902l-143 -103h-47l152 123zM1195 699l-66 -458q-16 -110 -94 -176t-192 -66q-89 0 -149.5 41t-72.5 109q-33 -68 -105 -109t-162 -41q-114 0 -173 66t-43 176l66 458h42l-66 -458q-13 -91 37 -146t147 -55q100 0 168 54.5t82 146.5l66 458h41l-66 -458
q-13 -91 39 -146t151 -55q97 0 163.5 54.5t79.5 146.5l66 458h41z" />
    <glyph glyph-name="Wcircumflex.ss01" horiz-adv-x="1197" 
d="M836 800h-42l-67 93l-95 -93h-42l117 117h46zM1195 699l-66 -458q-16 -110 -94 -176t-192 -66q-89 0 -149.5 41t-72.5 109q-33 -68 -105 -109t-162 -41q-114 0 -173 66t-43 176l66 458h42l-66 -458q-13 -91 37 -146t147 -55q100 0 168 54.5t82 146.5l66 458h41l-66 -458
q-13 -91 39 -146t151 -55q97 0 163.5 54.5t79.5 146.5l66 458h41z" />
    <glyph glyph-name="Wdieresis.ss01" horiz-adv-x="1197" 
d="M648 889q9 0 16.5 -5t11 -13t2.5 -18q-2 -15 -14 -25.5t-26 -10.5t-22.5 10.5t-6.5 25.5t13.5 25.5t25.5 10.5zM804 889q9 0 16.5 -5t11 -13t2.5 -18q-2 -15 -14 -25.5t-26 -10.5t-22.5 10.5t-6.5 25.5t13.5 25.5t25.5 10.5zM1195 699l-66 -458q-16 -110 -94 -176
t-192 -66q-89 0 -149.5 41t-72.5 109q-33 -68 -105 -109t-162 -41q-114 0 -173 66t-43 176l66 458h42l-66 -458q-13 -91 37 -146t147 -55q100 0 168 54.5t82 146.5l66 458h41l-66 -458q-13 -91 39 -146t151 -55q97 0 163.5 54.5t79.5 146.5l66 458h41z" />
    <glyph glyph-name="Wgrave.ss01" horiz-adv-x="1197" 
d="M752 799h-47l-113 103l44 20zM1195 699l-66 -458q-16 -110 -94 -176t-192 -66q-89 0 -149.5 41t-72.5 109q-33 -68 -105 -109t-162 -41q-114 0 -173 66t-43 176l66 458h42l-66 -458q-13 -91 37 -146t147 -55q100 0 168 54.5t82 146.5l66 458h41l-66 -458q-13 -91 39 -146
t151 -55q97 0 163.5 54.5t79.5 146.5l66 458h41z" />
    <glyph glyph-name="Y.ss01" horiz-adv-x="735" 
d="M733 699l-79 -546q-16 -111 -99.5 -182.5t-197.5 -71.5q-79 0 -149 32t-100 82l28 31q19 -30 54.5 -53.5t80 -37t89.5 -13.5q97 0 169 60.5t85 153.5l23 160q-42 -71 -111.5 -112.5t-152.5 -42.5q-108 0 -167 72t-43 184l41 284h42l-41 -281q-13 -95 37 -156t142 -61
q97 1 172 63t97 158l40 277h40z" />
    <glyph glyph-name="Yacute.ss01" horiz-adv-x="735" 
d="M490 799h-47l152 123l38 -20zM733 699l-79 -546q-16 -111 -99.5 -182.5t-197.5 -71.5q-79 0 -149 32t-100 82l28 31q19 -30 54.5 -53.5t80 -37t89.5 -13.5q97 0 169 60.5t85 153.5l23 160q-42 -71 -111.5 -112.5t-152.5 -42.5q-108 0 -167 72t-43 184l41 284h42l-41 -281
q-13 -95 37 -156t142 -61q97 1 172 63t97 158l40 277h40z" />
    <glyph glyph-name="Ycircumflex.ss01" horiz-adv-x="735" 
d="M402 800h-42l117 117h46l83 -117h-42l-67 93zM733 699l-79 -546q-16 -111 -99.5 -182.5t-197.5 -71.5q-79 0 -149 32t-100 82l28 31q19 -30 54.5 -53.5t80 -37t89.5 -13.5q97 0 169 60.5t85 153.5l23 160q-42 -71 -111.5 -112.5t-152.5 -42.5q-108 0 -167 72t-43 184
l41 284h42l-41 -281q-13 -95 37 -156t142 -61q97 1 172 63t97 158l40 277h40z" />
    <glyph glyph-name="Ydieresis.ss01" horiz-adv-x="735" 
d="M408 817q-14 0 -22.5 10.5t-6.5 25.5t13.5 25.5t25.5 10.5q9 0 16.5 -5t11 -13t2.5 -18q-2 -15 -14 -25.5t-26 -10.5zM564 817q-14 0 -22.5 10.5t-6.5 25.5t13.5 25.5t25.5 10.5q9 0 16.5 -5t11 -13t2.5 -18q-2 -15 -14 -25.5t-26 -10.5zM733 699l-79 -546
q-16 -111 -99.5 -182.5t-197.5 -71.5q-79 0 -149 32t-100 82l28 31q19 -30 54.5 -53.5t80 -37t89.5 -13.5q97 0 169 60.5t85 153.5l23 160q-42 -71 -111.5 -112.5t-152.5 -42.5q-108 0 -167 72t-43 184l41 284h42l-41 -281q-13 -95 37 -156t142 -61q97 1 172 63t97 158
l40 277h40z" />
    <glyph glyph-name="Ygrave.ss01" horiz-adv-x="735" 
d="M474 799l-113 103l44 20l116 -123h-47zM733 699l-79 -546q-16 -111 -99.5 -182.5t-197.5 -71.5q-79 0 -149 32t-100 82l28 31q19 -30 54.5 -53.5t80 -37t89.5 -13.5q97 0 169 60.5t85 153.5l23 160q-42 -71 -111.5 -112.5t-152.5 -42.5q-108 0 -167 72t-43 184l41 284h42
l-41 -281q-13 -95 37 -156t142 -61q97 1 172 63t97 158l40 277h40z" />
    <glyph glyph-name="Z.ss01" horiz-adv-x="654" 
d="M611 41l-6 -41h-556l6 40l279 292h-172l5 39h203l275 287h-488l7 41h538l-6 -40l-279 -292h174l-6 -39h-205l-274 -287h505z" />
    <glyph glyph-name="Zacute.ss01" horiz-adv-x="654" 
d="M449 799h-47l152 123l38 -20zM611 41l-6 -41h-556l6 40l279 292h-172l5 39h203l275 287h-488l7 41h538l-6 -40l-279 -292h174l-6 -39h-205l-274 -287h505z" />
    <glyph glyph-name="Zcaron.ss01" horiz-adv-x="654" 
d="M417 797l-84 120h43l68 -95l96 95h43l-118 -120h-48zM611 41l-6 -41h-556l6 40l279 292h-172l5 39h203l275 287h-488l7 41h538l-6 -40l-279 -292h174l-6 -39h-205l-274 -287h505z" />
    <glyph glyph-name="Zdotaccent.ss01" horiz-adv-x="654" 
d="M444.5 813q-14.5 0 -23.5 10.5t-7 26.5q3 15 14.5 25.5t26.5 10.5q9 0 16.5 -5t11 -13t1.5 -18q-2 -16 -13.5 -26.5t-26 -10.5zM611 41l-6 -41h-556l6 40l279 292h-172l5 39h203l275 287h-488l7 41h538l-6 -40l-279 -292h174l-6 -39h-205l-274 -287h505z" />
    <glyph glyph-name="a.ss01" horiz-adv-x="670" 
d="M640 521l-75 -521h-41l20 136q-39 -65 -103 -102t-139 -37q-111 0 -172 74t-45 189q17 115 99 189t193 75q76 0 129 -37t73 -102l20 136h41zM312 36q95 0 165 63t84.5 161t-38 161t-146.5 63t-165 -63.5t-86 -160.5q-13 -98 39 -161t147 -63z" />
    <glyph glyph-name="aacute.ss01" horiz-adv-x="670" 
d="M429 620h-47l152 123l38 -20zM640 521l-75 -521h-41l20 136q-39 -65 -103 -102t-139 -37q-111 0 -172 74t-45 189q17 115 99 189t193 75q76 0 129 -37t73 -102l20 136h41zM312 36q95 0 165 63t84.5 161t-38 161t-146.5 63t-165 -63.5t-86 -160.5q-13 -98 39 -161t147 -63
z" />
    <glyph glyph-name="abreve.ss01" horiz-adv-x="670" 
d="M421 618q-47 0 -74.5 32t-22.5 82h33q-3 -35 16.5 -57.5t52.5 -22.5t59 23t32 57h33q-4 -25 -16 -46t-29.5 -36t-39 -23.5t-44.5 -8.5zM640 521l-75 -521h-41l20 136q-39 -65 -103 -102t-139 -37q-111 0 -172 74t-45 189q17 115 99 189t193 75q76 0 129 -37t73 -102
l20 136h41zM312 36q95 0 165 63t84.5 161t-38 161t-146.5 63t-165 -63.5t-86 -160.5q-13 -98 39 -161t147 -63z" />
    <glyph glyph-name="acircumflex.ss01" horiz-adv-x="670" 
d="M340 621h-42l117 117h46l83 -117h-42l-67 93zM640 521l-75 -521h-41l20 136q-39 -65 -103 -102t-139 -37q-111 0 -172 74t-45 189q17 115 99 189t193 75q76 0 129 -37t73 -102l20 136h41zM312 36q95 0 165 63t84.5 161t-38 161t-146.5 63t-165 -63.5t-86 -160.5
q-13 -98 39 -161t147 -63z" />
    <glyph glyph-name="adieresis.ss01" horiz-adv-x="670" 
d="M346 638q-14 0 -22.5 10.5t-6.5 25.5t13.5 25.5t25.5 10.5q10 0 17 -5t11 -13t2 -18q-2 -15 -14 -25.5t-26 -10.5zM502 638q-14 0 -22.5 10.5t-6.5 25.5t13.5 25.5t25.5 10.5q10 0 17 -5t11 -13t2 -18q-2 -15 -14 -25.5t-26 -10.5zM640 521l-75 -521h-41l20 136
q-39 -65 -103 -102t-139 -37q-111 0 -172 74t-45 189q17 115 99 189t193 75q76 0 129 -37t73 -102l20 136h41zM312 36q95 0 165 63t84.5 161t-38 161t-146.5 63t-165 -63.5t-86 -160.5q-13 -98 39 -161t147 -63z" />
    <glyph glyph-name="agrave.ss01" horiz-adv-x="670" 
d="M412 620l-113 103l44 20l116 -123h-47zM640 521l-75 -521h-41l20 136q-39 -65 -103 -102t-139 -37q-111 0 -172 74t-45 189q17 115 99 189t193 75q76 0 129 -37t73 -102l20 136h41zM312 36q95 0 165 63t84.5 161t-38 161t-146.5 63t-165 -63.5t-86 -160.5
q-13 -98 39 -161t147 -63z" />
    <glyph glyph-name="amacron.ss01" horiz-adv-x="670" 
d="M539 653h-225l5 36h225zM640 521l-75 -521h-41l20 136q-39 -65 -103 -102t-139 -37q-111 0 -172 74t-45 189q17 115 99 189t193 75q76 0 129 -37t73 -102l20 136h41zM312 36q95 0 165 63t84.5 161t-38 161t-146.5 63t-165 -63.5t-86 -160.5q-13 -98 39 -161t147 -63z" />
    <glyph glyph-name="aogonek.ss01" horiz-adv-x="670" 
d="M581 -135l15 -20q-41 -45 -86 -45q-28 0 -44.5 19t-12.5 52q7 48 77 129h-6l20 136q-39 -65 -103 -102t-139 -37q-111 0 -172 74t-45 189q17 115 99 189t193 75q76 0 129 -37t73 -102l20 136h41l-75 -521h-6q-70 -80 -76 -125q-3 -20 7 -32t28 -12q29 0 63 34zM312 36
q95 0 165 63t84.5 161t-38 161t-146.5 63t-165 -63.5t-86 -160.5q-13 -98 39 -161t147 -63z" />
    <glyph glyph-name="aring.ss01" horiz-adv-x="670" 
d="M413 561q-46 0 -75 33t-22 77q6 45 44 78t84.5 33t75.5 -33t23 -78q-7 -44 -45.5 -77t-84.5 -33zM440.5 754q-35.5 0 -64.5 -24.5t-34 -58.5q-5 -33 17.5 -57.5t57.5 -24.5t64.5 24.5t34.5 57.5q5 34 -17.5 58.5t-58 24.5zM640 521l-75 -521h-41l20 136
q-39 -65 -103 -102t-139 -37q-111 0 -172 74t-45 189q17 115 99 189t193 75q76 0 129 -37t73 -102l20 136h41zM312 36q95 0 165 63t84.5 161t-38 161t-146.5 63t-165 -63.5t-86 -160.5q-13 -98 39 -161t147 -63z" />
    <glyph glyph-name="atilde.ss01" horiz-adv-x="670" 
d="M373 694q-47 0 -55 -57h-32q4 29 15.5 50t30 31.5t41.5 10.5q22 0 42 -16.5t38 -33t35 -16.5q47 0 55 57h32q-7 -44 -29.5 -68t-58.5 -24q-19 0 -36 10.5t-27 22.5t-23.5 22.5t-27.5 10.5zM640 521l-75 -521h-41l20 136q-39 -65 -103 -102t-139 -37q-111 0 -172 74
t-45 189q17 115 99 189t193 75q76 0 129 -37t73 -102l20 136h41zM312 36q95 0 165 63t84.5 161t-38 161t-146.5 63t-165 -63.5t-86 -160.5q-13 -98 39 -161t147 -63z" />
    <glyph glyph-name="ae.ss01" horiz-adv-x="972" 
d="M709 37q110 0 193 90l25 -23q-97 -105 -226 -105q-80 0 -136 39t-77 107q-85 -146 -256 -146q-77 0 -119.5 43t-32.5 110q5 32 22 58.5t45 44.5t65.5 27.5t82.5 9.5h187l7 51q9 67 -25.5 104t-111.5 37q-87 0 -187 -68l-15 32q56 37 106.5 55.5t106.5 18.5q78 0 121 -34
t47 -96q41 60 104.5 94.5t138.5 35.5q86 0 141.5 -47.5t62.5 -128.5l-455 -164q13 -67 62 -106t124 -39zM769 483q-95 0 -163.5 -61t-82.5 -160q-4 -26 -3 -45l416 151q-13 56 -57 85.5t-110 29.5zM242 37q165 0 237 157q-1 20 0 36h-6l4 25h-183q-78 0 -122.5 -26
t-51.5 -76q-7 -52 26 -84t96 -32z" />
    <glyph glyph-name="e.ss01" horiz-adv-x="593" 
d="M313 37q111 0 193 91l25 -24q-97 -105 -225 -105q-113 0 -175 73.5t-45 188.5q16 113 98.5 186.5t193.5 74.5q86 0 141.5 -47.5t62.5 -128.5l-455 -165q13 -66 62 -105t124 -39zM374 483q-96 0 -164.5 -61t-82.5 -160q-4 -26 -3 -45l416 151q-13 55 -57 85t-109 30z" />
    <glyph glyph-name="eacute.ss01" horiz-adv-x="593" 
d="M394 620h-47l152 123l38 -20zM313 37q111 0 193 91l25 -24q-97 -105 -225 -105q-113 0 -175 73.5t-45 188.5q16 113 98.5 186.5t193.5 74.5q86 0 141.5 -47.5t62.5 -128.5l-455 -165q13 -66 62 -105t124 -39zM374 483q-96 0 -164.5 -61t-82.5 -160q-4 -26 -3 -45l416 151
q-13 55 -57 85t-109 30z" />
    <glyph glyph-name="ebreve.ss01" horiz-adv-x="593" 
d="M386 618q-47 0 -74.5 32t-22.5 82h33q-2 -23 6 -41t24.5 -28.5t38.5 -10.5q33 0 59 23t32 57h33q-4 -25 -16 -46t-29.5 -36t-39 -23.5t-44.5 -8.5zM313 37q111 0 193 91l25 -24q-97 -105 -225 -105q-113 0 -175 73.5t-45 188.5q16 113 98.5 186.5t193.5 74.5
q86 0 141.5 -47.5t62.5 -128.5l-455 -165q13 -66 62 -105t124 -39zM374 483q-96 0 -164.5 -61t-82.5 -160q-4 -26 -3 -45l416 151q-13 55 -57 85t-109 30z" />
    <glyph glyph-name="ecaron.ss01" horiz-adv-x="593" 
d="M362 618l-84 120h43l69 -95l95 95h43l-118 -120h-48zM313 37q111 0 193 91l25 -24q-97 -105 -225 -105q-113 0 -175 73.5t-45 188.5q16 113 98.5 186.5t193.5 74.5q86 0 141.5 -47.5t62.5 -128.5l-455 -165q13 -66 62 -105t124 -39zM374 483q-96 0 -164.5 -61t-82.5 -160
q-4 -26 -3 -45l416 151q-13 55 -57 85t-109 30z" />
    <glyph glyph-name="ecircumflex.ss01" horiz-adv-x="593" 
d="M305 621h-42l117 117h46l83 -117h-42l-67 93zM313 37q111 0 193 91l25 -24q-97 -105 -225 -105q-113 0 -175 73.5t-45 188.5q16 113 98.5 186.5t193.5 74.5q86 0 141.5 -47.5t62.5 -128.5l-455 -165q13 -66 62 -105t124 -39zM374 483q-96 0 -164.5 -61t-82.5 -160
q-4 -26 -3 -45l416 151q-13 55 -57 85t-109 30z" />
    <glyph glyph-name="edieresis.ss01" horiz-adv-x="593" 
d="M311 638q-14 0 -22.5 10.5t-6.5 25.5q2 10 7.5 18t14 13t18 5t16.5 -5t11 -13t2 -18q-2 -15 -14 -25.5t-26 -10.5zM467 638q-14 0 -22.5 10.5t-6.5 25.5q2 10 7.5 18t14 13t18 5t16.5 -5t11 -13t2 -18q-2 -15 -14 -25.5t-26 -10.5zM313 37q111 0 193 91l25 -24
q-97 -105 -225 -105q-113 0 -175 73.5t-45 188.5q16 113 98.5 186.5t193.5 74.5q86 0 141.5 -47.5t62.5 -128.5l-455 -165q13 -66 62 -105t124 -39zM374 483q-96 0 -164.5 -61t-82.5 -160q-4 -26 -3 -45l416 151q-13 55 -57 85t-109 30z" />
    <glyph glyph-name="edotaccent.ss01" horiz-adv-x="593" 
d="M388.5 634q-14.5 0 -23.5 10.5t-6 26.5q2 15 14 25.5t26 10.5q9 0 16.5 -5t11 -13t2.5 -18q-3 -16 -14.5 -26.5t-26 -10.5zM313 37q111 0 193 91l25 -24q-97 -105 -225 -105q-113 0 -175 73.5t-45 188.5q16 113 98.5 186.5t193.5 74.5q86 0 141.5 -47.5t62.5 -128.5
l-455 -165q13 -66 62 -105t124 -39zM374 483q-96 0 -164.5 -61t-82.5 -160q-4 -26 -3 -45l416 151q-13 55 -57 85t-109 30z" />
    <glyph glyph-name="egrave.ss01" horiz-adv-x="593" 
d="M378 620l-113 103l44 20l116 -123h-47zM313 37q111 0 193 91l25 -24q-97 -105 -225 -105q-113 0 -175 73.5t-45 188.5q16 113 98.5 186.5t193.5 74.5q86 0 141.5 -47.5t62.5 -128.5l-455 -165q13 -66 62 -105t124 -39zM374 483q-96 0 -164.5 -61t-82.5 -160
q-4 -26 -3 -45l416 151q-13 55 -57 85t-109 30z" />
    <glyph glyph-name="emacron.ss01" horiz-adv-x="593" 
d="M504 653h-225l5 36h225zM313 37q111 0 193 91l25 -24q-97 -105 -225 -105q-113 0 -175 73.5t-45 188.5q16 113 98.5 186.5t193.5 74.5q86 0 141.5 -47.5t62.5 -128.5l-455 -165q13 -66 62 -105t124 -39zM374 483q-96 0 -164.5 -61t-82.5 -160q-4 -26 -3 -45l416 151
q-13 55 -57 85t-109 30z" />
    <glyph glyph-name="eogonek.ss01" horiz-adv-x="593" 
d="M427 -169q26 0 62 34l15 -20q-41 -45 -85 -45q-29 0 -45 19t-12 52q11 73 97 174q-73 -46 -153 -46q-113 0 -175 73.5t-45 188.5q16 113 98.5 186.5t193.5 74.5q86 0 141.5 -47.5t62.5 -128.5l-455 -165q13 -66 62 -105t124 -39q110 0 186 72l21 -27q-116 -124 -128 -207
q-3 -20 7 -32t28 -12zM374 483q-96 0 -164.5 -61t-82.5 -160q-4 -26 -3 -45l416 151q-13 55 -57 85t-109 30z" />
    <glyph glyph-name="f.ss01" horiz-adv-x="286" 
d="M350 711q-31 0 -59.5 -15.5t-47.5 -44t-24 -64.5l-12 -79h161l-5 -36h-161l-68 -472h-41l84 583q7 49 33.5 88t64.5 59.5t80 20.5q59 -2 101 -37l-24 -34q-34 29 -82 31z" />
    <glyph glyph-name="g.ss01" horiz-adv-x="632" 
d="M617 521l-67 -464q-16 -115 -94.5 -183.5t-193.5 -67.5q-71 2 -120 37t-61 92l31 23q12 -49 53.5 -80t101.5 -33q96 -1 162.5 57t80.5 155l14 98q-24 -41 -59 -71.5t-79.5 -46.5t-93.5 -16q-105 0 -163 70.5t-42 179.5t94 180t182 71q74 0 125 -36t70 -99l19 134h40z
M302 57q90 0 157.5 60.5t81.5 152.5q8 61 -11.5 110t-63 76.5t-102.5 27.5q-90 0 -157.5 -60.5t-80.5 -153.5t36.5 -153t139.5 -60z" />
    <glyph glyph-name="gbreve.ss01" horiz-adv-x="632" 
d="M402 618q-47 0 -74.5 32t-22.5 82h33q-3 -35 16.5 -57.5t52.5 -22.5t59 23t32 57h33q-4 -25 -16 -46t-29.5 -36t-39 -23.5t-44.5 -8.5zM617 521l-67 -464q-16 -115 -94.5 -183.5t-193.5 -67.5q-71 2 -120 37t-61 92l31 23q12 -49 53.5 -80t101.5 -33q96 -1 162.5 57
t80.5 155l14 98q-24 -41 -59 -71.5t-79.5 -46.5t-93.5 -16q-105 0 -163 70.5t-42 179.5t94 180t182 71q74 0 125 -36t70 -99l19 134h40zM302 57q90 0 157.5 60.5t81.5 152.5q8 61 -11.5 110t-63 76.5t-102.5 27.5q-90 0 -157.5 -60.5t-80.5 -153.5t36.5 -153t139.5 -60z" />
    <glyph glyph-name="gcircumflex.ss01" horiz-adv-x="632" 
d="M321 621h-42l117 117h46l83 -117h-42l-67 93zM617 521l-67 -464q-16 -115 -94.5 -183.5t-193.5 -67.5q-71 2 -120 37t-61 92l31 23q12 -49 53.5 -80t101.5 -33q96 -1 162.5 57t80.5 155l14 98q-24 -41 -59 -71.5t-79.5 -46.5t-93.5 -16q-105 0 -163 70.5t-42 179.5
t94 180t182 71q74 0 125 -36t70 -99l19 134h40zM302 57q90 0 157.5 60.5t81.5 152.5q8 61 -11.5 110t-63 76.5t-102.5 27.5q-90 0 -157.5 -60.5t-80.5 -153.5t36.5 -153t139.5 -60z" />
    <glyph glyph-name="gcommaaccent.ss01" horiz-adv-x="651" 
d="M393 582q-14 0 -22.5 10.5t-6.5 25.5q2 13 17 32l44 56h29l-36 -57q17 -9 14 -32q-2 -15 -13.5 -25t-25.5 -10zM617 521l-67 -464q-16 -115 -94.5 -183.5t-193.5 -67.5q-71 2 -120 37t-61 92l31 23q12 -49 53.5 -80t101.5 -33q96 -1 162.5 57t80.5 155l14 98
q-24 -41 -59 -71.5t-79.5 -46.5t-93.5 -16q-105 0 -163 70.5t-42 179.5t94 180t182 71q74 0 125 -36t70 -99l19 134h40zM302 57q90 0 157.5 60.5t81.5 152.5q8 61 -11.5 110t-63 76.5t-102.5 27.5q-90 0 -157.5 -60.5t-80.5 -153.5t36.5 -153t139.5 -60z" />
    <glyph glyph-name="gdotaccent.ss01" horiz-adv-x="632" 
d="M404.5 634q-14.5 0 -23.5 10.5t-6 26.5q2 15 14 25.5t26 10.5q9 0 16.5 -5t11 -13t2.5 -18q-3 -16 -14.5 -26.5t-26 -10.5zM617 521l-67 -464q-16 -115 -94.5 -183.5t-193.5 -67.5q-71 2 -120 37t-61 92l31 23q12 -49 53.5 -80t101.5 -33q96 -1 162.5 57t80.5 155l14 98
q-24 -41 -59 -71.5t-79.5 -46.5t-93.5 -16q-105 0 -163 70.5t-42 179.5t94 180t182 71q74 0 125 -36t70 -99l19 134h40zM302 57q90 0 157.5 60.5t81.5 152.5q8 61 -11.5 110t-63 76.5t-102.5 27.5q-90 0 -157.5 -60.5t-80.5 -153.5t36.5 -153t139.5 -60z" />
    <glyph glyph-name="l.ss01" horiz-adv-x="270" 
d="M243 742l-91 -634q-10 -68 43 -68q29 0 62 27l9 -33q-45 -35 -84 -35q-41 0 -59.5 27t-11.5 78l92 638h40z" />
    <glyph glyph-name="oe.ss01" horiz-adv-x="1066" 
d="M786 37q110 0 193 91l25 -24q-97 -105 -226 -105q-85 0 -141.5 44t-72.5 120q-37 -76 -106 -120t-153 -44q-112 0 -174 73.5t-45 188.5q16 114 99.5 187.5t194.5 73.5q84 0 140.5 -44.5t72.5 -119.5q36 74 104.5 118.5t152.5 45.5q87 0 142.5 -47.5t62.5 -128.5
l-455 -164q13 -67 62 -106t124 -39zM846 483q-95 0 -163.5 -61t-82.5 -160q-4 -26 -3 -45l416 151q-13 56 -57 85.5t-110 29.5zM310 38q95 0 164.5 62t84.5 161q14 97 -38 159t-147 62q-61 0 -114.5 -28t-88.5 -78.5t-44 -114.5q-15 -98 37 -160.5t146 -62.5z" />
    <glyph glyph-name="t.ss01" horiz-adv-x="340" 
d="M311 70l11 -34q-58 -37 -113 -37q-57 -1 -82 41t-13 124l68 473h41l-19 -129h176l-5 -36h-176l-44 -303q-18 -131 65 -129q44 0 91 30z" />
    <glyph glyph-name="tbar.ss01" horiz-adv-x="340" 
d="M311 70l11 -34q-58 -37 -113 -37q-57 -1 -82 41t-13 124l68 473h41l-19 -129h176l-5 -36h-176l-22 -151h176l-5 -37h-176l-17 -115q-18 -131 65 -129q44 0 91 30z" />
    <glyph glyph-name="tcaron.ss01" horiz-adv-x="340" 
d="M327 597l36 57q-17 9 -14 32q2 16 13.5 26t25.5 10t22.5 -10.5t6.5 -25.5q-2 -13 -17 -32l-45 -57h-28zM220 40q44 0 91 30l11 -34q-58 -37 -113 -37q-57 -1 -82 41t-13 124l68 473h41l-19 -129h176l-5 -36h-176l-44 -303q-18 -131 65 -129z" />
    <glyph glyph-name="tcedilla.ss01" horiz-adv-x="340" 
d="M221 -1l-28 -48q32 -2 49.5 -22t13.5 -50q-4 -37 -32.5 -61t-68.5 -24q-44 0 -72 22l17 28q21 -19 58 -19q27 0 46 16t22 40q1 13 -4 23.5t-15.5 17t-25.5 6.5q-24 0 -31 -1l41 73q-47 6 -67.5 47.5t-9.5 116.5l68 473h41l-19 -129h176l-5 -36h-176l-44 -303
q-18 -131 65 -129q44 0 91 30l11 -34q-49 -32 -101 -37z" />
    <glyph glyph-name="tcommaaccent.ss01" horiz-adv-x="340" 
d="M209 -1q-57 -1 -82 41t-13 124l68 473h41l-19 -129h176l-5 -36h-176l-44 -303q-18 -131 65 -129q44 0 91 30l11 -34q-58 -37 -113 -37zM188 -61q14 0 22.5 -10.5t6.5 -25.5q-2 -13 -17 -32l-45 -57h-28l36 57q-17 9 -14 33q2 10 7.5 18t14 12.5t17.5 4.5z" />
    <glyph glyph-name="w.ss01" horiz-adv-x="960" 
d="M950 521l-46 -321q-13 -91 -76 -146t-154 -55q-70 0 -117.5 34t-57.5 90q-27 -56 -85 -90t-128 -34q-91 0 -138 55t-34 146l46 321h41l-46 -319q-10 -73 28.5 -117t113.5 -44q77 0 129.5 43.5t62.5 117.5l46 319h41l-46 -319q-7 -48 8.5 -85t51 -56.5t86.5 -19.5
q74 0 125.5 44t61.5 117l46 319h41z" />
    <glyph glyph-name="wacute.ss01" horiz-adv-x="960" 
d="M720 723l-143 -103h-47l152 123zM950 521l-46 -321q-13 -91 -76 -146t-154 -55q-70 0 -117.5 34t-57.5 90q-27 -56 -85 -90t-128 -34q-91 0 -138 55t-34 146l46 321h41l-46 -319q-10 -73 28.5 -117t113.5 -44q77 0 129.5 43.5t62.5 117.5l46 319h41l-46 -319
q-7 -48 8.5 -85t51 -56.5t86.5 -19.5q74 0 125.5 44t61.5 117l46 319h41z" />
    <glyph glyph-name="wcircumflex.ss01" horiz-adv-x="960" 
d="M692 621h-42l-67 93l-95 -93h-42l117 117h46zM950 521l-46 -321q-13 -91 -76 -146t-154 -55q-70 0 -117.5 34t-57.5 90q-27 -56 -85 -90t-128 -34q-91 0 -138 55t-34 146l46 321h41l-46 -319q-10 -73 28.5 -117t113.5 -44q77 0 129.5 43.5t62.5 117.5l46 319h41l-46 -319
q-7 -48 8.5 -85t51 -56.5t86.5 -19.5q74 0 125.5 44t61.5 117l46 319h41z" />
    <glyph glyph-name="wdieresis.ss01" horiz-adv-x="960" 
d="M504.5 710q9.5 0 16.5 -5t11 -13t2 -18q-2 -15 -14 -25.5t-26 -10.5t-22.5 10.5t-6.5 25.5q2 10 7.5 18t14 13t18 5zM660 710q10 0 17 -5t11 -13t2 -18q-2 -15 -14 -25.5t-26 -10.5t-22.5 10.5t-6.5 25.5t13.5 25.5t25.5 10.5zM950 521l-46 -321q-13 -91 -76 -146
t-154 -55q-70 0 -117.5 34t-57.5 90q-27 -56 -85 -90t-128 -34q-91 0 -138 55t-34 146l46 321h41l-46 -319q-10 -73 28.5 -117t113.5 -44q77 0 129.5 43.5t62.5 117.5l46 319h41l-46 -319q-7 -48 8.5 -85t51 -56.5t86.5 -19.5q74 0 125.5 44t61.5 117l46 319h41z" />
    <glyph glyph-name="wgrave.ss01" horiz-adv-x="960" 
d="M608 620h-47l-113 103l44 20zM950 521l-46 -321q-13 -91 -76 -146t-154 -55q-70 0 -117.5 34t-57.5 90q-27 -56 -85 -90t-128 -34q-91 0 -138 55t-34 146l46 321h41l-46 -319q-10 -73 28.5 -117t113.5 -44q77 0 129.5 43.5t62.5 117.5l46 319h41l-46 -319q-7 -48 8.5 -85
t51 -56.5t86.5 -19.5q74 0 125.5 44t61.5 117l46 319h41z" />
    <glyph glyph-name="y.ss01" horiz-adv-x="634" 
d="M619 521l-67 -463q-17 -119 -90.5 -186t-187.5 -66q-40 1 -76.5 12.5t-66.5 32t-52 47.5l22 31q30 -38 76 -60t100 -24q96 -1 158 55.5t77 158.5l17 120q-73 -132 -234 -135q-94 0 -139.5 54.5t-31.5 150.5l39 272h41l-38 -264q-12 -81 26.5 -126t119.5 -45
q97 2 159 62.5t77 164.5l30 208h41z" />
    <glyph glyph-name="yacute.ss01" horiz-adv-x="634" 
d="M411 620h-47l152 123l38 -20zM619 521l-67 -463q-17 -119 -90.5 -186t-187.5 -66q-40 1 -76.5 12.5t-66.5 32t-52 47.5l22 31q30 -38 76 -60t100 -24q96 -1 158 55.5t77 158.5l17 120q-73 -132 -234 -135q-94 0 -139.5 54.5t-31.5 150.5l39 272h41l-38 -264
q-12 -81 26.5 -126t119.5 -45q97 2 159 62.5t77 164.5l30 208h41z" />
    <glyph glyph-name="ycircumflex.ss01" horiz-adv-x="634" 
d="M322 621h-42l117 117h46l83 -117h-42l-67 93zM619 521l-67 -463q-17 -119 -90.5 -186t-187.5 -66q-40 1 -76.5 12.5t-66.5 32t-52 47.5l22 31q30 -38 76 -60t100 -24q96 -1 158 55.5t77 158.5l17 120q-73 -132 -234 -135q-94 0 -139.5 54.5t-31.5 150.5l39 272h41
l-38 -264q-12 -81 26.5 -126t119.5 -45q97 2 159 62.5t77 164.5l30 208h41z" />
    <glyph glyph-name="ydieresis.ss01" horiz-adv-x="634" 
d="M328 638q-14 0 -22.5 10.5t-6.5 25.5t13.5 25.5t25.5 10.5q10 0 17 -5t11 -13t2 -18q-2 -15 -14 -25.5t-26 -10.5zM484 638q-14 0 -22.5 10.5t-6.5 25.5q2 10 7.5 18t14 13t18 5t16.5 -5t11 -13t2 -18q-2 -15 -14 -25.5t-26 -10.5zM619 521l-67 -463q-17 -119 -90.5 -186
t-187.5 -66q-40 1 -76.5 12.5t-66.5 32t-52 47.5l22 31q30 -38 76 -60t100 -24q96 -1 158 55.5t77 158.5l17 120q-73 -132 -234 -135q-94 0 -139.5 54.5t-31.5 150.5l39 272h41l-38 -264q-12 -81 26.5 -126t119.5 -45q97 2 159 62.5t77 164.5l30 208h41z" />
    <glyph glyph-name="ygrave.ss01" horiz-adv-x="634" 
d="M394 620l-113 103l44 20l116 -123h-47zM619 521l-67 -463q-17 -119 -90.5 -186t-187.5 -66q-40 1 -76.5 12.5t-66.5 32t-52 47.5l22 31q30 -38 76 -60t100 -24q96 -1 158 55.5t77 158.5l17 120q-73 -132 -234 -135q-94 0 -139.5 54.5t-31.5 150.5l39 272h41l-38 -264
q-12 -81 26.5 -126t119.5 -45q97 2 159 62.5t77 164.5l30 208h41z" />
    <glyph glyph-name="z.ss01" horiz-adv-x="516" 
d="M473 37l-5 -38l-410 1l5 38l196 207h-126l6 37h156l188 200h-347l6 39l394 -1l-6 -38l-192 -203h132l-5 -37h-161l-194 -204z" />
    <glyph glyph-name="zacute.ss01" horiz-adv-x="516" 
d="M354 620h-47l152 123l38 -20zM473 37l-5 -38l-410 1l5 38l196 207h-126l6 37h156l188 200h-347l6 39l394 -1l-6 -38l-192 -203h132l-5 -37h-161l-194 -204z" />
    <glyph glyph-name="zcaron.ss01" horiz-adv-x="516" 
d="M322 618l-84 120h43l69 -95l95 95h43l-118 -120h-48zM473 37l-5 -38l-410 1l5 38l196 207h-126l6 37h156l188 200h-347l6 39l394 -1l-6 -38l-192 -203h132l-5 -37h-161l-194 -204z" />
    <glyph glyph-name="zdotaccent.ss01" horiz-adv-x="516" 
d="M349.5 634q-14.5 0 -23.5 10.5t-6 26.5q2 15 14 25.5t26 10.5q9 0 16.5 -5t11 -13t2.5 -18q-3 -16 -14.5 -26.5t-26 -10.5zM473 37l-5 -38l-410 1l5 38l196 207h-126l6 37h156l188 200h-347l6 39l394 -1l-6 -38l-192 -203h132l-5 -37h-161l-194 -204z" />
    <glyph glyph-name="fi.ss01" horiz-adv-x="536" 
d="M93 0l84 583q5 37 22 69t41.5 53.5t54 33.5t60.5 12q49 -1 88 -28l-7 -43q-41 30 -86 30q-49 1 -86 -33.5t-45 -89.5l-12 -79h161l-5 -36h-161l-68 -472h-41zM513 707q9 0 16.5 -5t11 -13t2.5 -18q-3 -16 -14.5 -26.5t-26 -10.5t-23.5 10.5t-6 26.5q2 15 14 25.5t26 10.5
zM465 521h41l-75 -521h-41z" />
    <glyph glyph-name="fl.ss01" horiz-adv-x="580" 
d="M550 -33l9 -33q-44 -35 -83 -35q-40 0 -59 27t-11 78l84 586q8 55 -20.5 87.5t-86.5 33.5q-57 1 -95.5 -32.5t-46.5 -91.5l-12 -79h132l-5 -36h-132l-68 -472h-41l68 472h-66l5 36h66l11 78q12 77 63 121t129 43q76 -1 113 -43t26 -115l-84 -584q-10 -68 43 -68
q29 0 61 27z" />
    <glyph glyph-name="zero.ss01" horiz-adv-x="677" 
d="M424 600q124 0 191 -84.5t48 -215.5t-110.5 -216t-214.5 -85q-122 0 -189.5 85t-48.5 216t110.5 215.5t213.5 84.5zM419 561q-104 0 -181.5 -73.5t-94.5 -187.5q-16 -114 40.5 -187.5t160.5 -73.5t182 73t94 188q8 56 -3 104.5t-37 83t-68 54t-93 19.5z" />
    <glyph glyph-name="one.ss01" horiz-adv-x="354" 
d="M209 0h-42l80 558h-147l6 41h189z" />
    <glyph glyph-name="two.ss01" horiz-adv-x="544" 
d="M339 608q58 0 98.5 -17.5t59 -50t12.5 -77.5q-4 -27 -23 -59.5t-49 -66.5t-70 -68l-260 -228h384l-6 -41h-435l6 40l285 254q52 44 85 88t38 77q7 51 -28.5 80.5t-105.5 29.5q-46 0 -97 -20t-94 -55l-15 33q24 19 50.5 34t53.5 25.5t55.5 16t55.5 5.5z" />
    <glyph glyph-name="three.ss01" horiz-adv-x="515" 
d="M230 298l41 -1q103 -2 157 -51t42 -133q-9 -63 -44.5 -111.5t-93.5 -75.5t-130 -27q-55 0 -107 17t-89 46l25 36q33 -28 79.5 -44t95.5 -16q92 0 151.5 47.5t70.5 123.5q10 75 -36.5 114.5t-140.5 39.5h-76l4 31l268 263h-327l6 42h381l-4 -32z" />
    <glyph glyph-name="four.ss01" horiz-adv-x="555" 
d="M97 141h293l30 208h40l-30 -208h110l-6 -42h-110l-28 -199h-40l28 199h-337l6 41l328 459h43z" />
    <glyph glyph-name="five.ss01" horiz-adv-x="554" 
d="M552 558h-345l-36 -255q74 21 143 21q104 0 159 -54.5t42 -143.5q-10 -68 -45.5 -119t-93 -79t-127.5 -28q-54 0 -111.5 19.5t-100.5 52.5l23 35q39 -30 91.5 -48t99.5 -18q90 0 149.5 49.5t71.5 133.5q10 73 -35.5 116t-133.5 43q-87 0 -179 -29l49 345h385z" />
    <glyph glyph-name="six.ss01" horiz-adv-x="593" 
d="M432 701q96 0 181 -47l-23 -35q-73 42 -160 42q-124 0 -200.5 -103t-87.5 -282q30 78 95.5 122t154.5 44q101 0 151 -58.5t35 -159.5q-15 -104 -85 -164.5t-173 -60.5q-124 0 -181 86.5t-34 246.5q24 168 112.5 268.5t214.5 100.5zM381 404q-92 0 -156 -54.5t-74 -130.5
q-4 -23 -0.5 -47.5t15.5 -48.5t31.5 -42.5t51.5 -30t72 -11.5q85 0 145 50.5t73 136.5q11 82 -31.5 130t-126.5 48z" />
    <glyph glyph-name="seven.ss01" horiz-adv-x="538" 
d="M584 558l-397 -658h-45l398 658h-379l-16 -109h-38l21 150h462z" />
    <glyph glyph-name="eight.ss01" horiz-adv-x="607" 
d="M405 700q100 0 150.5 -44.5t39.5 -124.5q-17 -116 -147 -157q71 -19 105.5 -65t24.5 -114q-13 -92 -86 -144t-188 -52q-116 0 -174.5 51.5t-45.5 143.5q10 69 58 115t126 65q-57 20 -84 60t-18 98q11 79 75 123.5t164 44.5zM399.5 664q-82.5 0 -135 -36t-61.5 -100
q-5 -32 3.5 -58t29 -44t52 -27.5t72.5 -9.5q55 0 97 17t67.5 48t31.5 74q9 64 -32.5 100t-124 36zM354 352q-96 0 -157 -41t-71 -112q-11 -76 37.5 -119t145.5 -43t158 42.5t72 118.5q10 71 -39.5 112.5t-145.5 41.5z" />
    <glyph glyph-name="nine.ss01" horiz-adv-x="593" 
d="M256 -102q-95 0 -181 47l23 35q73 -42 160 -42q124 0 200.5 103t88.5 282q-31 -78 -96.5 -122t-153.5 -44q-102 0 -152 58.5t-35 159.5q15 104 85 164.5t173 60.5q125 0 182 -86.5t33 -246.5q-24 -168 -112.5 -268.5t-214.5 -100.5zM307 195q92 0 156 54.5t75 130.5
q4 30 -3.5 60t-26 57.5t-55 45t-85.5 17.5q-86 0 -146 -50.5t-72 -136.5q-6 -41 2 -74t28.5 -56t53 -35.5t73.5 -12.5z" />
    <glyph glyph-name="zero.dnom" horiz-adv-x="438" 
d="M277 408q82 0 119.5 -53.5t23.5 -150.5q-9 -65 -36 -111t-69 -70t-97 -24q-81 0 -118.5 53.5t-23.5 151.5q14 97 67 150.5t134 53.5zM272 378q-43 0 -77 -20t-55.5 -59t-29.5 -95q-12 -85 17 -129.5t95 -44.5q45 0 79 20t55.5 59t29.5 95q13 84 -16.5 129t-97.5 45z" />
    <glyph glyph-name="one.dnom" horiz-adv-x="246" 
d="M112 0l54 377h-87l5 31h122l-59 -408h-35z" />
    <glyph glyph-name="two.dnom" horiz-adv-x="376" 
d="M236 409q57 0 86.5 -27t23.5 -72q-9 -58 -93 -130l-164 -149h244l-4 -31h-286l4 30l185 169q72 61 78 108q5 32 -17 51t-66 19q-64 0 -123 -50l-13 26q69 56 145 56z" />
    <glyph glyph-name="three.dnom" horiz-adv-x="342" 
d="M170 233h24q60 -2 92 -31t25 -78q-8 -56 -52.5 -90.5t-110.5 -34.5q-74 0 -123 38l21 29q39 -37 104 -37q52 0 86 26t40 68q4 27 -7 46t-35 28.5t-59 9.5h-49l3 23l156 148h-194l5 29h236l-4 -24z" />
    <glyph glyph-name="four.dnom" horiz-adv-x="368" 
d="M256 141l18 120h34l-18 -120h65l-4 -29h-65l-16 -112h-34l16 112h-203l5 31l193 265h35l-193 -267h167z" />
    <glyph glyph-name="five.dnom" horiz-adv-x="364" 
d="M152 377l-20 -143q44 12 80 12q65 0 99 -30.5t26 -82.5q-9 -61 -53 -97t-110 -36q-22 0 -46 5.5t-46 15t-40 21.5l20 29q23 -19 53.5 -30.5t59.5 -11.5q51 0 85 27.5t41 73.5q6 40 -20.5 63.5t-77.5 23.5q-57 0 -109 -16l30 207h237l-5 -31h-204z" />
    <glyph glyph-name="six.dnom" horiz-adv-x="388" 
d="M275 409q58 0 112 -28l-18 -28q-43 25 -97 25q-71 0 -115 -56.5t-50 -156.5q17 44 55.5 68.5t89.5 24.5q62 0 92 -34t22 -93q-6 -41 -27.5 -70.5t-55 -45.5t-75.5 -16q-76 0 -111 51t-22 145q14 97 68 155.5t132 58.5zM243 229q-53 0 -88.5 -29.5t-42.5 -71.5
q-5 -36 19.5 -67t77.5 -31q50 0 84 28t41 75q7 45 -18 70.5t-73 25.5z" />
    <glyph glyph-name="seven.dnom" horiz-adv-x="356" 
d="M143 0h-37l234 377h-216l-9 -63h-32l14 94h285l-5 -31z" />
    <glyph glyph-name="eight.dnom" horiz-adv-x="396" 
d="M257 409q61 0 92.5 -27t24.5 -74q-9 -64 -85 -90q42 -11 62 -38t14 -66q-7 -54 -51.5 -84.5t-114.5 -30.5q-72 0 -107.5 30t-28.5 84q6 39 34.5 66.5t73.5 38.5q-70 26 -60 91q6 46 45.5 73t100.5 27zM254 382q-48 0 -78 -20.5t-35 -55.5q-3 -24 6.5 -41t31 -26t53.5 -9
q47 0 76.5 20t34.5 56q5 35 -18.5 55.5t-70.5 20.5zM227 201q-55 0 -90 -22.5t-40 -61.5q-6 -42 22 -65.5t84 -23.5q36 0 64 10.5t45 30t21 47.5q5 40 -22.5 62.5t-83.5 22.5z" />
    <glyph glyph-name="nine.dnom" horiz-adv-x="393" 
d="M178 -1q-59 0 -113 28l19 27q41 -25 95 -25q72 0 116.5 57t50.5 157q-18 -44 -56.5 -69t-90.5 -25q-61 0 -91.5 34t-21.5 93q9 61 51.5 97t106.5 36q76 0 111 -51t22 -145q-14 -97 -68 -155.5t-131 -58.5zM209 178q53 0 88.5 29.5t41.5 71.5q5 36 -19 67t-78 31
q-49 0 -83 -27.5t-40 -74.5q-7 -45 17.5 -71t72.5 -26z" />
    <glyph glyph-name="zero.numr" horiz-adv-x="438" 
d="M319 700q82 0 119.5 -53.5t23.5 -151.5t-66.5 -151t-135.5 -53q-81 0 -118.5 53t-23.5 151q10 65 36.5 111t68.5 70t96 24zM314 669q-44 0 -77.5 -20t-55 -59t-29.5 -95q-12 -84 17 -129t95 -45q68 0 110 45t54 129q8 56 -2 95t-38.5 59t-73.5 20z" />
    <glyph glyph-name="one.numr" horiz-adv-x="246" 
d="M154 291l54 377h-87l5 31h122l-59 -408h-35z" />
    <glyph glyph-name="two.numr" horiz-adv-x="376" 
d="M278 700q57 0 86.5 -26.5t23.5 -71.5q-9 -59 -93 -131l-164 -149h244l-4 -31h-286l4 30l185 169q71 61 78 108q5 33 -17 51.5t-66 18.5q-64 0 -123 -50l-13 26q69 56 145 56z" />
    <glyph glyph-name="three.numr" horiz-adv-x="342" 
d="M212 525l24 -1q59 -2 91.5 -30.5t25.5 -77.5q-8 -56 -52.5 -90.5t-110.5 -34.5q-73 0 -123 37l20 29q42 -37 105 -37q26 0 48 7t38 19.5t26.5 29.5t13.5 38q6 41 -20.5 62.5t-80.5 21.5h-49l3 23l156 148h-194l5 29h236l-4 -23z" />
    <glyph glyph-name="four.numr" horiz-adv-x="368" 
d="M298 432l18 120h34l-18 -120h65l-4 -29h-65l-16 -112h-34l16 112h-203l5 31l193 265h35l-193 -267h167z" />
    <glyph glyph-name="five.numr" horiz-adv-x="364" 
d="M194 668l-20 -143q42 13 81 13q64 0 98 -31t26 -83q-9 -60 -53 -96.5t-110 -36.5q-33 0 -69 12t-63 31l20 29q22 -20 53 -31t60 -11q34 0 61 12.5t43.5 35t21.5 53.5q6 40 -20.5 63.5t-77.5 23.5q-59 0 -109 -17l30 207h237l-5 -31h-204z" />
    <glyph glyph-name="six.numr" horiz-adv-x="388" 
d="M317 700q57 0 112 -27l-18 -28q-45 24 -97 24q-47 0 -83 -25.5t-57 -73.5t-25 -114q17 44 55.5 69t89.5 25q62 0 92 -34.5t22 -93.5q-6 -40 -27 -69.5t-55 -45.5t-76 -16q-76 0 -111 50.5t-22 144.5q14 97 68 155.5t132 58.5zM285 521q-35 0 -64 -14.5t-46 -37.5t-21 -50
q-5 -36 19.5 -67t77.5 -31q50 0 84 28t41 75q7 45 -18 71t-73 26z" />
    <glyph glyph-name="seven.numr" horiz-adv-x="356" 
d="M185 291h-37l234 377h-216l-9 -63h-32l14 94h285l-5 -30z" />
    <glyph glyph-name="eight.numr" horiz-adv-x="396" 
d="M299 700q61 0 92.5 -26.5t24.5 -74.5q-9 -64 -85 -90q42 -11 62 -38t14 -66q-5 -36 -26.5 -61.5t-57.5 -39t-82 -13.5q-71 0 -107 30t-29 84q6 39 34.5 66t73.5 38q-70 26 -60 92q6 46 45.5 72.5t100.5 26.5zM296 673q-48 0 -78 -20t-35 -55q-5 -36 19 -56.5t72 -20.5
q47 0 76.5 20.5t34.5 56.5q5 35 -18.5 55t-70.5 20zM269 492q-55 0 -90 -22.5t-40 -60.5q-4 -28 7 -48t36.5 -30.5t62.5 -10.5q55 0 89.5 23t40.5 65q5 39 -22.5 61.5t-83.5 22.5z" />
    <glyph glyph-name="nine.numr" horiz-adv-x="393" 
d="M220 291q-61 0 -113 27l19 28q42 -25 95 -25q72 0 116.5 56.5t50.5 156.5q-18 -44 -56.5 -69t-90.5 -25q-61 0 -91.5 34.5t-21.5 93.5q4 30 17.5 55t34 42t47.5 26t59 9q76 0 111 -51t22 -144q-9 -64 -36.5 -112.5t-69.5 -75t-93 -26.5zM251 469q35 0 64 14.5t45.5 37
t20.5 49.5q5 37 -18.5 68t-78.5 31q-49 0 -83 -27.5t-40 -74.5q-7 -45 17.5 -71.5t72.5 -26.5z" />
    </font>
</defs>
</svg>
