<?xml version="1.0" standalone="no"?>
<!DOCTYPE svg PUBLIC "-//W3C//DTD SVG 1.1//EN" "http://www.w3.org/Graphics/SVG/1.1/DTD/svg11.dtd" >
<svg xmlns="http://www.w3.org/2000/svg" xmlns:xlink="http://www.w3.org/1999/xlink" version="1.1">
<metadata>
Created by FontForge 20170731 at Tue Jun 30 23:45:05 2015
 By Aleksey,,,
Copyright (c) 2011-2015, Julieta Ulanovsky (julieta.ulanovsky@gmail.com), Design Modifications and new weights 2015, Jasper @ Cannot Into Space Fonts (cannotintospacefonts@gmail.com)
</metadata>
<defs>
<font id="TruenoSBdIt" horiz-adv-x="767" >
  <font-face 
    font-family="Trueno"
    font-weight="600"
    font-style="italic"
    font-stretch="normal"
    units-per-em="1000"
    panose-1="0 0 7 0 0 0 0 0 0 0"
    ascent="800"
    descent="-200"
    x-height="537"
    cap-height="700"
    bbox="-276 -284 1457.44 974"
    underline-thickness="50"
    underline-position="-200"
    unicode-range="U+0020-FB02"
  />
<missing-glyph horiz-adv-x="500" 
d="M0 0l101 700h500l-101 -700h-500zM307 395l207 255h-340zM330 350l134 -255l73 510zM87 50h340l-133 255zM137 605l-73 -510l206 255z" />
    <glyph glyph-name="fi" unicode="fi" horiz-adv-x="674" 
d="M610 605q-36 0 -56 24.5t-14.5 61.5t32.5 61.5t63 24.5q37 0 57 -24t14.5 -62t-32.5 -62t-64 -24zM178 518l6 47q13 87 77 135.5t148 48.5q59 0 101 -21l-25 -128q-39 21 -76 21q-14 0 -26 -3.5t-21.5 -10.5t-16 -19.5t-8.5 -28.5l-6 -41h127l-16 -106h-127l-59 -412
h-153l59 412h-72l16 106h72zM525 538h153l-78 -538h-153z" />
    <glyph glyph-name="fl" unicode="fl" horiz-adv-x="693" 
d="M178 518l8 56q11 80 73 129.5t151 48.5q62 -2 100 -20l-22 -129q-27 22 -65 24q-33 1 -58 -20.5t-30 -56.5l-4 -32h128l-17 -106h-127l-59 -412h-153l59 412h-72l17 106h71zM721 742l-107 -742h-154l107 742h154z" />
    <glyph glyph-name=".notdef" horiz-adv-x="500" 
d="M0 0l101 700h500l-101 -700h-500zM307 395l207 255h-340zM330 350l134 -255l73 510zM87 50h340l-133 255zM137 605l-73 -510l206 255z" />
    <glyph glyph-name=".null" horiz-adv-x="0" 
 />
    <glyph glyph-name="nonmarkingreturn" horiz-adv-x="333" 
 />
    <glyph glyph-name="space" unicode=" " horiz-adv-x="241" 
 />
    <glyph glyph-name="exclam" unicode="!" horiz-adv-x="240" 
d="M277 518l-67 -282h-94l15 282l25 177h146zM149 150q34 0 52.5 -22t13.5 -57t-30.5 -57.5t-58.5 -22.5t-51.5 22.5t-13.5 57.5t29.5 57t58.5 22z" />
    <glyph glyph-name="quotedbl" unicode="&#x22;" horiz-adv-x="414" 
d="M239 434h-116l38 266h116zM417 434h-116l38 266h116z" />
    <glyph glyph-name="numbersign" unicode="#" horiz-adv-x="732" 
d="M623 422l-40 -151h135l-28 -111h-137l-43 -160h-111l43 160h-152l-43 -160h-112l43 160h-136l28 111h138l40 151h-135l28 111h137l45 167h111l-45 -167h152l45 167h112l-45 -167h136l-27 -111h-139zM512 422h-152l-41 -151h152z" />
    <glyph glyph-name="dollar" unicode="$" horiz-adv-x="637" 
d="M305 515q-4 -26 14 -44t49.5 -29.5t69.5 -22.5t75.5 -26.5t67 -37t44.5 -60t8 -89.5q-13 -88 -81.5 -142t-169.5 -66l-22 -149h-120l22 151q-137 20 -227 106l82 129q46 -47 111 -76t122 -29q32 0 56.5 7.5t39 23t17.5 36.5q4 27 -14 45.5t-49 29.5t-69.5 21.5t-76 25
t-67.5 35.5t-45 58.5t-8 87.5q12 79 73 132.5t156 68.5l21 145h120l-20 -141q120 -12 206 -74l-80 -131q-50 33 -107.5 52.5t-100.5 19.5q-41 0 -67 -14.5t-30 -42.5z" />
    <glyph glyph-name="percent" unicode="%" horiz-adv-x="1007" 
d="M326 703q59 0 99 -25.5t56 -72.5t7 -112q-14 -98 -73.5 -155t-149.5 -57q-88 0 -131 57t-29 155q14 97 73.5 153.5t147.5 56.5zM175 0l607 700h144l-605 -700h-146zM314 617q-29 0 -52 -15t-37.5 -43t-20.5 -66q-8 -59 11.5 -92t62.5 -33q22 0 40.5 8.5t33 24.5t24 39.5
t13.5 52.5q8 58 -11.5 91t-63.5 33zM841 419q90 0 133 -56.5t29 -154.5t-73.5 -154.5t-148.5 -56.5t-132 56.5t-29 154.5t73.5 154.5t147.5 56.5zM829 333q-43 0 -72.5 -33t-37.5 -92t11.5 -92t62.5 -33q44 0 73.5 33t37.5 92t-11.5 92t-63.5 33z" />
    <glyph glyph-name="ampersand" unicode="&#x26;" horiz-adv-x="678" 
d="M589 -27l-87 100q-104 -80 -215 -80q-100 0 -158.5 57t-45.5 145q10 66 54 109.5t116 80.5q-48 84 -38 157q11 74 70.5 119.5t147.5 45.5q85 0 132.5 -43t38.5 -111q-5 -35 -22.5 -64t-47 -52.5t-57 -39.5t-67.5 -35q43 -58 103 -126q40 53 70 117l87 -73
q-34 -65 -84 -126l92 -103zM336 542q-7 -46 26 -106q54 27 84.5 53.5t36.5 62.5q4 29 -13 46.5t-48 17.5q-34 0 -57.5 -20.5t-28.5 -53.5zM309 105q60 0 123 47q-78 91 -128 157q-84 -48 -92 -103q-5 -29 6.5 -52.5t35 -36t55.5 -12.5z" />
    <glyph glyph-name="quotesingle" unicode="'" horiz-adv-x="236" 
d="M239 434h-116l38 266h116z" />
    <glyph glyph-name="parenleft" unicode="(" horiz-adv-x="337" 
d="M300 742h137q-69 -90 -116.5 -201.5t-64.5 -231.5q-17 -124 -2 -234t58 -199h-137q-49 87 -65 199t2 234q17 123 65.5 234t122.5 199z" />
    <glyph glyph-name="parenright" unicode=")" horiz-adv-x="354" 
d="M180 742h138q49 -88 65 -199.5t-1 -233.5q-18 -123 -66.5 -234.5t-122.5 -198.5h-138q69 89 117 201.5t66 231.5q16 125 0.5 234t-58.5 199z" />
    <glyph glyph-name="asterisk" unicode="*" horiz-adv-x="368" 
d="M291 487l-12 -97h-78l16 98l-92 -50l-29 69l93 48l-79 47l49 71l78 -51l12 98h78l-15 -98l91 50l29 -70l-94 -47l80 -48l-49 -70z" />
    <glyph glyph-name="plus" unicode="+" horiz-adv-x="506" 
d="M513 275h-171l-25 -169h-98l25 169h-171l14 102h171l25 170h98l-25 -170h171z" />
    <glyph glyph-name="comma" unicode="," horiz-adv-x="232" 
d="M139 149q32 0 50.5 -21t13.5 -57q-5 -33 -30 -62l-81 -101h-75l56 101q-28 22 -22 62q5 34 30 56t58 22z" />
    <glyph glyph-name="hyphen" unicode="-" horiz-adv-x="372" 
d="M352 255h-258l14 102h258z" />
    <glyph glyph-name="period" unicode="." horiz-adv-x="235" 
d="M139 150q34 0 52 -22t13 -57t-30 -57.5t-58 -22.5t-52 23t-14 57q5 35 30 57t59 22z" />
    <glyph glyph-name="slash" unicode="/" horiz-adv-x="346" 
d="M82 -112h-129l454 924h130z" />
    <glyph glyph-name="zero" unicode="0" horiz-adv-x="699" 
d="M452 705q147 0 212.5 -91.5t41.5 -262.5q-25 -172 -117.5 -264t-239.5 -92q-148 0 -213.5 92t-40.5 264q16 114 62.5 193t121 120t173.5 41zM434 584q-50 0 -85 -24t-58 -75.5t-34 -133.5q-18 -123 8.5 -179t101.5 -56q74 0 116.5 56t60.5 179q17 122 -9.5 177.5
t-100.5 55.5z" />
    <glyph glyph-name="one" unicode="1" horiz-adv-x="404" 
d="M299 0h-158l82 567h-132l19 133h290z" />
    <glyph glyph-name="two" unicode="2" horiz-adv-x="596" 
d="M402 707q104 0 162 -49.5t46 -131.5q-14 -98 -165 -232l-178 -162h310l-19 -132h-515l16 108l291 268q38 34 63 68t28 59q5 33 -16.5 51.5t-64.5 18.5t-97 -23.5t-107 -64.5l-44 118q151 104 290 104z" />
    <glyph glyph-name="three" unicode="3" horiz-adv-x="552" 
d="M361 414l33 -4q80 -12 122.5 -61.5t31.5 -129.5q-15 -101 -95.5 -163.5t-200.5 -62.5q-69 0 -134 22.5t-107 59.5l82 125q68 -81 165 -81q58 0 93 26t41 72q7 47 -20.5 71t-86.5 24h-107l13 88l188 171h-263l19 128h450l-14 -94z" />
    <glyph glyph-name="four" unicode="4" horiz-adv-x="622" 
d="M234 286h168l22 154h147l-22 -154h97l-18 -128h-97l-23 -158h-147l23 158h-333l16 112l289 430h152z" />
    <glyph glyph-name="five" unicode="5" horiz-adv-x="589" 
d="M605 568h-303l-18 -123l73 1q118 0 180.5 -59t49.5 -153q-16 -109 -99.5 -174.5t-207.5 -65.5q-66 0 -134.5 23.5t-116.5 61.5l81 125q71 -83 170 -83q57 0 93 27t43 75q3 18 -0.5 33t-12 26t-22 19t-32 12t-40.5 4q-114 0 -190 -5l57 388h448z" />
    <glyph glyph-name="six" unicode="6" horiz-adv-x="627" 
d="M462 707q56 0 114 -15.5t98 -40.5l-77 -116q-59 45 -143 45q-59 0 -102.5 -25t-68.5 -70t-33 -108q67 82 187 82q104 0 155.5 -61.5t37.5 -164.5q-11 -73 -50.5 -127.5t-101.5 -83.5t-139 -29q-138 0 -204 92.5t-43 253.5q24 167 124.5 267.5t245.5 100.5zM386 338
q-57 0 -94.5 -30.5t-43.5 -76.5q-7 -44 19.5 -75t83.5 -31q54 0 89 28.5t43 80.5q3 24 -1.5 43.5t-17 33t-32.5 20.5t-46 7z" />
    <glyph glyph-name="seven" unicode="7" horiz-adv-x="586" 
d="M653 587l-351 -587h-167l340 568h-219l-14 -98l-126 98l19 132h534z" />
    <glyph glyph-name="eight" unicode="8" horiz-adv-x="637" 
d="M420 707q113 0 172 -50.5t47 -135.5q-7 -46 -37.5 -85t-76.5 -61q56 -23 84 -70.5t19 -107.5q-13 -94 -97.5 -149t-212.5 -55q-130 0 -198 54.5t-55 147.5q9 60 52.5 108.5t110.5 71.5q-43 24 -64.5 64t-14.5 86q12 84 85.5 133t185.5 49zM405 598q-54 0 -86.5 -22.5
t-38.5 -63.5q-2 -14 -0.5 -25.5t7 -20.5t14 -16.5t20 -12.5t27 -7.5t33.5 -2.5q53 0 85 22t38 63t-20 63.5t-79 22.5zM362 308q-62 0 -100 -25t-44 -71q-7 -48 23 -73.5t94 -25.5q63 0 101.5 25.5t44.5 72.5q3 19 -0.5 34t-13 27t-24 20t-35 12t-46.5 4z" />
    <glyph glyph-name="nine" unicode="9" horiz-adv-x="627" 
d="M270 -7q-56 0 -114 15.5t-98 40.5l77 116q58 -45 143 -45q88 0 140 54t64 149q-67 -82 -187 -82q-104 0 -155.5 61.5t-37.5 164.5q16 111 95 175.5t196 64.5q138 0 204 -92.5t43 -253.5q-24 -167 -124.5 -267.5t-245.5 -100.5zM346 362q57 0 94.5 30.5t43.5 76.5
q4 28 -5 51.5t-34 39t-64 15.5q-54 0 -89 -28.5t-43 -80.5q-7 -49 18.5 -76.5t78.5 -27.5z" />
    <glyph glyph-name="colon" unicode=":" horiz-adv-x="231" 
d="M181 447q23 0 39 -10t23 -28t4 -41q-5 -35 -30 -57.5t-58 -22.5q-34 0 -52.5 23t-13.5 57q3 23 16 41t32 28t40 10zM139 150q34 0 52 -22t13 -57t-30 -57.5t-58 -22.5t-52 23t-14 57q5 35 30 57t59 22z" />
    <glyph glyph-name="semicolon" unicode=";" horiz-adv-x="233" 
d="M159 288q-34 0 -52.5 23t-13.5 57q3 23 16 41t32 28t40 10q23 0 39 -10t23 -28t4 -41q-5 -35 -30 -57.5t-58 -22.5zM139 149q32 0 50.5 -21t13.5 -57q-5 -33 -30 -62l-81 -101h-75l56 101q-28 22 -22 62q5 34 30 56t58 22z" />
    <glyph glyph-name="less" unicode="&#x3c;" horiz-adv-x="506" 
d="M539 461l-358 -136l319 -137l-16 -114l-414 186l19 129l467 186z" />
    <glyph glyph-name="equal" unicode="=" horiz-adv-x="506" 
d="M528 382h-440l15 102h440zM497 168h-440l15 102h440z" />
    <glyph glyph-name="greater" unicode="&#x3e;" horiz-adv-x="506" 
d="M61 195l359 136l-320 137l17 114l412 -186l-19 -129l-465 -186z" />
    <glyph glyph-name="question" unicode="?" horiz-adv-x="462" 
d="M191 480l-119 1q18 104 85 162t169 58q97 0 147 -45t38 -127q-4 -31 -16.5 -58t-29 -46t-35.5 -36.5t-38 -34t-35 -33t-27.5 -38.5t-15.5 -47h-116q6 43 24.5 77t40.5 55.5t43.5 40.5t38.5 42.5t21 52.5q3 24 -4.5 39.5t-24.5 23t-43 7.5q-85 0 -103 -94zM243 150
q33 0 51.5 -22t13.5 -57q-5 -34 -30 -57t-58 -23q-34 0 -52.5 22.5t-13.5 57.5t30 57t59 22z" />
    <glyph glyph-name="at" unicode="@" horiz-adv-x="936" 
d="M575 700q123 0 214.5 -55t133.5 -152.5t24 -218.5q-16 -112 -78.5 -179.5t-147.5 -67.5q-98 0 -106 78v15q-68 -82 -170 -82q-89 0 -146 65.5t-42 166.5q14 99 82 167.5t162 68.5q37 0 69 -14.5t46.5 -29t17.5 -23.5l8 56h117l-49 -340q-7 -50 34 -50q34 0 67 47.5
t43 118.5q10 72 -4.5 134.5t-51 108.5t-97.5 72.5t-139 26.5q-96 0 -184 -46t-146.5 -126t-72.5 -174q-20 -141 64.5 -234.5t228.5 -93.5q47 0 101 15.5t98 44.5l34 -77q-32 -21 -75 -38t-87.5 -25.5t-83.5 -8.5q-122 0 -213.5 54t-134 149.5t-26.5 213.5q18 120 91.5 219.5
t184.5 156.5t234 57zM508 397q-46 0 -80.5 -35.5t-41.5 -86.5q-8 -54 16 -92t72 -38q50 0 85.5 37t42.5 92q8 52 -17.5 87.5t-76.5 35.5z" />
    <glyph glyph-name="A" unicode="A" horiz-adv-x="759" 
d="M559 136h-324l-75 -136h-163l405 700h163l198 -700h-169zM526 263l-71 272l-150 -272h221z" />
    <glyph glyph-name="B" unicode="B" horiz-adv-x="712" 
d="M178 700h322q115 0 175.5 -47t49.5 -128q-9 -57 -47 -98.5t-97 -55.5q66 -13 98.5 -60.5t22.5 -116.5q-13 -90 -91.5 -142t-200.5 -52h-333zM317 571l-22 -153h156q45 0 73.5 20.5t33.5 57.5q6 36 -17 55.5t-68 19.5h-156zM278 296l-24 -167h156q56 0 91 22.5t41 62.5
q5 38 -23.5 60t-84.5 22h-156z" />
    <glyph glyph-name="C" unicode="C" horiz-adv-x="694" 
d="M502 705q50 0 98.5 -14t90 -40.5t70.5 -61.5l-108 -112q-31 42 -76 66.5t-93 24.5q-90 0 -160.5 -62t-83.5 -153q-9 -60 12 -109.5t66 -78t104 -28.5q47 0 98.5 22t95.5 60l78 -101q-64 -58 -144.5 -91.5t-156.5 -33.5q-103 0 -180.5 47t-113.5 129t-21 182
q14 100 74.5 181t152.5 127t197 46z" />
    <glyph glyph-name="D" unicode="D" horiz-adv-x="769" 
d="M178 700h297q163 0 251.5 -97.5t65.5 -252.5q-22 -155 -140 -252.5t-284 -97.5h-291zM317 567l-63 -434h143q58 0 108 27t83.5 76.5t42.5 112.5q14 96 -37 157t-141 61h-136z" />
    <glyph glyph-name="E" unicode="E" horiz-adv-x="668" 
d="M692 569h-375l-22 -152h338l-19 -131h-338l-22 -155h386l-19 -131h-544l101 700h533z" />
    <glyph glyph-name="F" unicode="F" horiz-adv-x="595" 
d="M661 569h-344l-25 -172h316l-19 -132h-316l-38 -265h-158l101 700h503z" />
    <glyph glyph-name="G" unicode="G" horiz-adv-x="745" 
d="M598 353h137l-39 -269q-62 -41 -143.5 -66t-153.5 -25q-105 0 -183.5 46.5t-115.5 128.5t-23 182q15 100 76.5 181t155.5 127.5t202 46.5q51 0 101 -12.5t92 -35.5t73 -54l-105 -113q-17 18 -38 32.5t-44 24.5t-48.5 15.5t-50.5 5.5q-93 0 -165.5 -63t-86.5 -155
q-13 -93 42 -156t148 -63q63 0 142 38z" />
    <glyph glyph-name="H" unicode="H" horiz-adv-x="787" 
d="M710 0h-158l40 276h-317l-40 -276h-158l101 700h158l-42 -292h317l42 292h158z" />
    <glyph glyph-name="I" unicode="I" horiz-adv-x="313" 
d="M235 0h-158l101 700h158z" />
    <glyph glyph-name="J" unicode="J" horiz-adv-x="524" 
d="M402 700h159l-69 -476q-15 -109 -86.5 -170t-181.5 -61q-136 0 -213 109l89 112q30 -38 66.5 -58t70.5 -20q39 0 64.5 24t32.5 68z" />
    <glyph glyph-name="K" unicode="K" horiz-adv-x="737" 
d="M537 0l-160 285l-117 -112l-25 -173h-158l101 700h158l-46 -318l337 318h183l-305 -292l222 -408h-190z" />
    <glyph glyph-name="L" unicode="L" horiz-adv-x="552" 
d="M255 138h300l-20 -138h-458l101 700h158z" />
    <glyph glyph-name="M" unicode="M" horiz-adv-x="915" 
d="M837 0h-142l68 472l-244 -401h-103l-128 401l-68 -472h-143l101 700h177l142 -428l265 428h176z" />
    <glyph glyph-name="N" unicode="N" horiz-adv-x="788" 
d="M711 0h-144l-274 449l-65 -449h-151l101 700h144l275 -450l65 450h150z" />
    <glyph glyph-name="O" unicode="O" horiz-adv-x="806" 
d="M504.5 705q105.5 0 185 -46t117 -127.5t22.5 -181.5q-14 -100 -75 -181.5t-154 -128.5t-198 -47t-185 46.5t-117 128.5t-23 182q15 100 76 181.5t153.5 127.5t198 46zM487 567q-59 0 -112.5 -28.5t-90 -78.5t-45.5 -110q-13 -92 41.5 -155.5t143.5 -63.5q88 0 159 63.5
t84.5 155.5t-39.5 154.5t-141 62.5z" />
    <glyph glyph-name="P" unicode="P" horiz-adv-x="678" 
d="M178 700h297q133 0 197.5 -63.5t47.5 -179.5q-18 -122 -101 -189.5t-216 -67.5h-139l-29 -200h-158zM317 569l-34 -237h131q67 0 107 30.5t48 89.5q8 58 -23 87.5t-98 29.5h-131z" />
    <glyph glyph-name="Q" unicode="Q" horiz-adv-x="815" 
d="M762 18l42 -103q-23 -18 -49 -32.5t-53 -24t-54.5 -15t-52.5 -5.5q-71 0 -123.5 41t-79.5 114q-156 4 -246 105.5t-69 251.5q15 100 76 181.5t153.5 127.5t198 46t185 -46t117 -127.5t22.5 -181.5q-16 -116 -94 -205.5t-192 -128.5q38 -53 88 -53q51 0 131 55zM239 350
q-13 -92 41.5 -155.5t143.5 -63.5q88 0 159 63.5t84.5 155.5t-39.5 154.5t-141 62.5q-59 0 -112.5 -28.5t-90 -78.5t-45.5 -110z" />
    <glyph glyph-name="R" unicode="R" horiz-adv-x="724" 
d="M507 0l-82 200h-15h-146l-29 -200h-158l101 700h304q137 0 203 -63.5t49 -179.5q-12 -81 -53.5 -138.5t-110.5 -87.5l116 -231h-179zM283 332h146q66 0 106 30.5t48 89.5q8 58 -23 87.5t-97 29.5h-146z" />
    <glyph glyph-name="S" unicode="S" horiz-adv-x="637" 
d="M435 707q72 0 139 -20.5t116 -55.5l-80 -131q-50 33 -107.5 52.5t-100.5 19.5q-41 0 -67 -14.5t-30 -42.5q-4 -26 14 -44t49.5 -29.5t69.5 -22.5t75.5 -26.5t67 -37t44.5 -60t8 -89.5q-15 -100 -99.5 -155.5t-205.5 -55.5q-85 0 -162.5 30t-130.5 81l82 129
q46 -47 111 -76t122 -29q32 0 56.5 7.5t39 23t17.5 36.5q4 27 -14 45.5t-49 29.5t-69.5 21.5t-76 25t-67.5 35.5t-45 58.5t-8 87.5q14 95 96.5 151t204.5 56z" />
    <glyph glyph-name="T" unicode="T" horiz-adv-x="601" 
d="M675 566h-214l-82 -566h-158l82 566h-213l19 134h585z" />
    <glyph glyph-name="U" unicode="U" horiz-adv-x="760" 
d="M797 700l-59 -407q-20 -139 -116 -219.5t-241 -80.5q-146 0 -220.5 81t-54.5 219l59 407h158l-59 -407q-5 -37 2.5 -67.5t25.5 -51.5t46 -32t63 -11q71 0 119.5 43.5t59.5 118.5l59 407h158z" />
    <glyph glyph-name="V" unicode="V" horiz-adv-x="716" 
d="M438 0h-163l-174 700h170l115 -528l268 528h163z" />
    <glyph glyph-name="W" unicode="W" horiz-adv-x="1066" 
d="M842 0h-163l-69 499l-216 -499h-163l-130 700h170l71 -528l222 528h155l72 -528l222 528h162z" />
    <glyph glyph-name="X" unicode="X" horiz-adv-x="721" 
d="M509 365l200 -365h-189l-131 233l-196 -233h-185l303 358l-185 342h184l115 -214l178 214h187z" />
    <glyph glyph-name="Y" unicode="Y" horiz-adv-x="666" 
d="M447 226l-33 -226h-158l32 222l-190 478h159l134 -314l220 314h159z" />
    <glyph glyph-name="Z" unicode="Z" horiz-adv-x="672" 
d="M721 594l-458 -462h397l-20 -132h-609l15 107l459 461h-379l19 132h591z" />
    <glyph glyph-name="bracketleft" unicode="[" horiz-adv-x="356" 
d="M426 623h-122l-91 -628h122l-17 -119h-259l125 866h259z" />
    <glyph glyph-name="backslash" unicode="\" horiz-adv-x="484" 
d="M298 812l188 -924h-130l-188 924h130z" />
    <glyph glyph-name="bracketright" unicode="]" horiz-adv-x="446" 
d="M476 742l-125 -866h-259l17 119h122l91 628h-122l17 119h259z" />
    <glyph glyph-name="asciicircum" unicode="^" horiz-adv-x="563" 
d="M437 135l-93 301l-181 -301h-113l242 390h130l128 -390h-113z" />
    <glyph glyph-name="underscore" unicode="_" horiz-adv-x="577" 
d="M548 -204h-577l12 88h577z" />
    <glyph glyph-name="grave" unicode="`" horiz-adv-x="350" 
d="M383 602h-123l-111 110l150 53z" />
    <glyph glyph-name="a" unicode="a" horiz-adv-x="596" 
d="M386 0l9 63q-66 -70 -179 -70q-85 0 -128.5 46.5t-32.5 121.5q11 76 70.5 118.5t158.5 43.5h148l1 10q6 43 -19 66.5t-80 23.5q-75 0 -167 -47l-33 106q69 32 127 47t125 15q108 0 160.5 -51t40.5 -142l-50 -351h-151zM275 103q16 0 31.5 3t29 8t26 12.5t22 16t17 19.5
t11.5 22l6 48h-121q-88 0 -96 -61q-5 -31 15 -49.5t59 -18.5z" />
    <glyph glyph-name="b" unicode="b" horiz-adv-x="683" 
d="M481 543q114 0 172.5 -76.5t40.5 -200.5q-17 -122 -96.5 -197t-192.5 -75q-112 0 -161 84l-11 -78h-154l107 742h154l-41 -283q71 84 182 84zM385 122q39 0 72 19t54.5 52.5t27.5 77.5q9 65 -22 106.5t-90 41.5t-102.5 -41.5t-52.5 -106.5q-10 -67 21.5 -108t91.5 -41z
" />
    <glyph glyph-name="c" unicode="c" horiz-adv-x="563" 
d="M382 543q51 0 93.5 -13.5t73.5 -38.5t50 -61l-115 -75q-38 58 -115 57q-37 0 -68.5 -18t-52.5 -51t-27 -75q-7 -43 4.5 -76.5t38 -51.5t64.5 -18q84 0 134 63l95 -72q-42 -57 -108 -88t-148 -31q-122 0 -187 75.5t-48 197.5q18 124 105 200t211 76z" />
    <glyph glyph-name="d" unicode="d" horiz-adv-x="685" 
d="M712 742l-107 -742h-153l11 79q-71 -85 -182 -85q-114 0 -173 76t-41 201q18 123 97.5 198t191.5 75q114 0 162 -85l41 283h153zM335 118q59 0 102.5 41.5t53 107.5t-22 107.5t-90.5 41.5q-60 0 -103.5 -41.5t-54.5 -107.5q-8 -66 23.5 -107.5t91.5 -41.5z" />
    <glyph glyph-name="e" unicode="e" horiz-adv-x="597" 
d="M383 543q139 0 194.5 -85.5t23.5 -235.5h-386q6 -51 39 -79.5t84 -28.5q79 0 145 57l69 -82q-99 -95 -244 -95q-128 0 -193.5 75t-48.5 198q18 124 106 200t211 76zM225 313h245q4 35 -7 61.5t-35.5 41t-59.5 14.5q-50 0 -88 -31.5t-55 -85.5z" />
    <glyph glyph-name="f" unicode="f" horiz-adv-x="372" 
d="M410 622q-29 0 -49 -16t-24 -47l-7 -45h127l-15 -107h-127l-59 -407h-153l59 407h-72l15 107h72l7 51q13 87 76.5 135.5t148.5 48.5q83 0 135 -38l-71 -112q-27 23 -63 23z" />
    <glyph glyph-name="g" unicode="g" horiz-adv-x="645" 
d="M656 538l-71 -488q-16 -114 -104.5 -182t-218.5 -68q-129 0 -224 71l73 108q68 -54 159 -54q66 0 110 32.5t51 87.5l9 61q-67 -78 -173 -78q-105 0 -159.5 71.5t-37.5 188.5q16 114 90 184.5t177 70.5q108 1 155 -78l11 73h153zM320 145q56 0 96.5 38.5t49.5 100.5
q6 41 -5.5 73t-37.5 49.5t-63 17.5q-56 0 -96.5 -39t-50.5 -101q-8 -62 21 -100.5t86 -38.5z" />
    <glyph glyph-name="h" unicode="h" horiz-adv-x="675" 
d="M497 544q91 0 136.5 -56t32.5 -150l-49 -338h-154l42 293q8 51 -16.5 80.5t-73.5 29.5q-38 0 -69 -18.5t-50 -49t-25 -70.5l-38 -265h-154l107 742h154l-43 -299q71 99 200 101z" />
    <glyph glyph-name="i" unicode="i" horiz-adv-x="302" 
d="M263 777q37 0 56.5 -24t14 -62t-32 -62t-63 -24t-56.5 24t-14.5 62t32 62t63.5 24zM228 0h-154l78 538h154z" />
    <glyph glyph-name="j" unicode="j" horiz-adv-x="308" 
d="M264 777q40 0 61 -24t16 -62q-6 -38 -34 -62t-68 -24q-38 0 -60 24.5t-16 61.5q5 38 33.5 62t67.5 24zM307 538l-80 -554q-13 -88 -74 -136.5t-141 -48.5q-72 0 -122 36l59 113q29 -21 59 -21q27 0 44.5 15.5t22.5 47.5l79 548h153z" />
    <glyph glyph-name="k" unicode="k" horiz-adv-x="619" 
d="M334 219l-80 -73l-21 -146h-154l107 742h154l-59 -408l226 203h175l-226 -207l158 -330h-182z" />
    <glyph glyph-name="l" unicode="l" horiz-adv-x="313" 
d="M233 0h-154l107 742h154z" />
    <glyph glyph-name="m" unicode="m" horiz-adv-x="1039" 
d="M864 544q90 0 134 -55.5t31 -150.5l-49 -338h-153l42 293q8 52 -16 81t-72 29q-55 -1 -92.5 -39t-46.5 -98l-38 -266h-153l42 293q8 51 -15.5 80.5t-71.5 29.5q-37 0 -67 -18t-48.5 -49t-24.5 -70l-38 -266h-154l78 538h154l-14 -93q70 97 196 99q68 0 110.5 -32.5
t54.5 -91.5q69 122 211 124z" />
    <glyph glyph-name="n" unicode="n" horiz-adv-x="670" 
d="M492 544q90 0 135.5 -56t32.5 -150l-49 -338h-154l42 293q8 51 -16.5 80.5t-73.5 29.5q-57 -1 -95.5 -39.5t-47.5 -98.5l-38 -265h-154l78 538h154l-14 -94q70 98 200 100z" />
    <glyph glyph-name="o" unicode="o" horiz-adv-x="633" 
d="M395 543q130 0 198.5 -75t50.5 -199q-18 -123 -108.5 -199t-219.5 -76t-198 76t-51 199q18 124 108 199t220 75zM377 415q-60 0 -103 -41t-52.5 -107t21.5 -107t91 -41t103 41t52 107q7 43 -5 77t-40 52.5t-67 18.5z" />
    <glyph glyph-name="p" unicode="p" horiz-adv-x="684" 
d="M481 543q114 0 172.5 -76.5t40.5 -200.5q-17 -122 -96.5 -197t-192.5 -75q-112 0 -161 84l-39 -272h-154l106 732h154l-12 -79q71 84 182 84zM385 122q39 0 72 19t54.5 52.5t27.5 77.5q9 65 -22 106.5t-90 41.5t-102.5 -41.5t-52.5 -106.5q-10 -67 21.5 -108t91.5 -41z
" />
    <glyph glyph-name="q" unicode="q" horiz-adv-x="685" 
d="M683 538l-106 -732h-153l39 273q-71 -85 -182 -85q-114 0 -173 76t-41 201q18 123 97.5 198t191.5 75q114 0 162 -85l12 79h153zM335 118q59 0 102.5 41.5t53 107.5t-22 107.5t-90.5 41.5q-60 0 -103.5 -41.5t-54.5 -107.5q-8 -66 23.5 -107.5t91.5 -41.5z" />
    <glyph glyph-name="r" unicode="r" horiz-adv-x="416" 
d="M306 538l-14 -97q71 101 192 103l-21 -145q-80 7 -134 -32t-64 -108l-37 -259h-154l78 538h154z" />
    <glyph glyph-name="s" unicode="s" horiz-adv-x="499" 
d="M335 545q115 0 201 -60l-68 -105q-86 52 -157 52q-62 0 -68 -40q-2 -16 12 -28t38 -20t53 -16.5t57.5 -21t51 -29.5t33.5 -46.5t5 -68.5q-11 -80 -79 -124t-164 -44q-66 0 -124 19.5t-98 55.5l65 104q37 -32 84.5 -49.5t92.5 -17.5q31 0 51 10.5t23 31.5q3 17 -10.5 29.5
t-37 20.5t-52 16.5t-56.5 20.5t-50.5 29t-33.5 46t-6 67q12 80 78 124t159 44z" />
    <glyph glyph-name="t" unicode="t" horiz-adv-x="426" 
d="M396 143l15 -113q-69 -37 -145 -37q-75 0 -116 43t-29 123l36 249h-75l15 106h75l21 148h153l-21 -148h146l-15 -107h-146l-32 -222q-10 -64 43 -62q29 0 75 20z" />
    <glyph glyph-name="u" unicode="u" horiz-adv-x="660" 
d="M663 538l-78 -538h-153l14 95q-70 -101 -195 -101q-89 0 -133.5 55.5t-30.5 150.5l49 338h154l-43 -294q-5 -34 4 -58.5t30 -37.5t51 -13q55 1 93 39t46 98l39 266h153z" />
    <glyph glyph-name="v" unicode="v" horiz-adv-x="556" 
d="M359 0h-158l-127 537l160 1l70 -392l183 392h153z" />
    <glyph glyph-name="w" unicode="w" horiz-adv-x="923" 
d="M733 0h-154l-65 355l-166 -355h-154l-120 537l158 1l64 -385l172 385h151l62 -385l174 385h152z" />
    <glyph glyph-name="x" unicode="x" horiz-adv-x="589" 
d="M349 375l129 163h168l-209 -262l143 -276h-177l-83 176l-143 -176h-170l226 275l-135 263h176z" />
    <glyph glyph-name="y" unicode="y" horiz-adv-x="564" 
d="M649 538l-323 -598q-76 -141 -217 -141q-82 0 -138 52l81 111q30 -29 65 -29q49 0 78 48l20 30l-147 527h159l87 -370l181 370h154z" />
    <glyph glyph-name="z" unicode="z" horiz-adv-x="548" 
d="M570 440l-323 -319h286l-17 -122l-478 1l14 97l323 319l-267 1l17 120h459z" />
    <glyph glyph-name="braceleft" unicode="{" horiz-adv-x="347" 
d="M320 558l-19 -132q-3 -21 -8 -37.5t-12.5 -30t-18 -22.5t-24 -16t-31.5 -11q41 -11 54.5 -38t6.5 -80l-19 -132q-6 -37 11.5 -51.5t69.5 -14.5l-17 -119h-59q-93 0 -126.5 30.5t-22.5 106.5l27 190q4 25 -3.5 36t-28.5 11h-36l17 122h36q21 0 31.5 10.5t14.5 35.5l27 191
q11 75 53.5 105.5t135.5 30.5h59l-17 -119q-35 0 -56 -6.5t-31 -20.5t-14 -39z" />
    <glyph glyph-name="bar" unicode="|" horiz-adv-x="289" 
d="M186 -111h-115l132 916h115z" />
    <glyph glyph-name="braceright" unicode="}" horiz-adv-x="395" 
d="M443 370l-17 -122h-36q-21 0 -31.5 -11t-14.5 -36l-27 -190q-11 -76 -53.5 -106.5t-135.5 -30.5h-59l17 119q51 0 72.5 14.5t27.5 51.5l19 132q7 53 29 80t67 38q-42 10 -56 37t-7 80l19 132q6 37 -11.5 51.5t-68.5 14.5l17 119h59q93 0 126.5 -30.5t22.5 -105.5
l-27 -191q-4 -25 3.5 -35.5t28.5 -10.5h36z" />
    <glyph glyph-name="asciitilde" unicode="~" horiz-adv-x="506" 
d="M226 408q28 0 54 -13t46 -26.5t34 -13.5q34 0 41 48h104q-23 -163 -130 -163q-24 0 -45.5 8t-34.5 18t-28 18t-27 8q-34 0 -41 -47h-104q24 163 131 163z" />
    <glyph glyph-name="nbspace" unicode="&#xa0;" horiz-adv-x="241" 
 />
    <glyph glyph-name="exclamdown" unicode="&#xa1;" horiz-adv-x="239" 
d="M186 386q-34 0 -52.5 22t-13.5 57t30 57.5t59 22.5q33 0 51 -22.5t13 -57.5q-5 -34 -29.5 -56.5t-57.5 -22.5zM58 19l66 282h94l-14 -282l-26 -177h-146z" />
    <glyph glyph-name="cent" unicode="&#xa2;" horiz-adv-x="558" 
d="M462 185l95 -72q-67 -90 -186 -113l-22 -151h-123l22 149q-98 17 -147.5 89.5t-34.5 179.5q16 109 86 181.5t174 89.5l22 158h123l-23 -159q107 -21 151 -107l-115 -75q-38 58 -115 57q-37 0 -68.5 -18t-52.5 -51t-27 -75q-7 -43 4.5 -76.5t38 -51.5t64.5 -18
q84 0 134 63z" />
    <glyph glyph-name="sterling" unicode="&#xa3;" horiz-adv-x="554" 
d="M286 125h265l-18 -125h-502l18 125h78l23 160h-78l16 110h78l12 81q15 110 84 170.5t179 60.5q124 0 195 -87l-77 -120q-56 69 -121 69q-88 0 -102 -96l-11 -78h170l-16 -110h-170z" />
    <glyph glyph-name="currency" unicode="&#xa4;" horiz-adv-x="705" 
d="M662 321q-10 -74 -60 -138l87 -101l-100 -90l-90 105q-67 -35 -138 -35t-128 35l-120 -105l-73 90l116 102q-31 64 -21 137q10 70 56 133l-83 99l99 90l86 -101q68 39 142.5 39t132.5 -38l115 100l74 -90l-114 -99q30 -62 19 -133zM379 187q59 0 107 39.5t56 94.5
q5 36 -9.5 67.5t-45 49.5t-69.5 18q-59 0 -106.5 -39.5t-55.5 -95.5t28 -95t95 -39z" />
    <glyph glyph-name="yen" unicode="&#xa5;" horiz-adv-x="653" 
d="M521 335h123l-9 -61h-156l-31 -48l-4 -22h181l-9 -62h-181l-20 -142h-159l20 142h-185l9 62h185l3 18l-21 52h-157l9 61h124l-145 365h159l134 -314l220 314h159z" />
    <glyph glyph-name="brokenbar" unicode="&#xa6;" horiz-adv-x="289" 
d="M268 461h-115l50 344h115zM186 -111h-115l49 343h115z" />
    <glyph glyph-name="section" unicode="&#xa7;" horiz-adv-x="530" 
d="M375 694q111 0 203 -59l-62 -98q-90 52 -155 52q-23 0 -41 -5.5t-28.5 -15.5t-11.5 -23q-3 -18 11.5 -32t40 -23.5t56 -19t61 -22.5t54.5 -30t37 -45.5t7 -65.5q-4 -29 -21 -55.5t-43 -46t-57 -30.5q36 -20 49.5 -43.5t7.5 -61.5q-10 -69 -76 -113t-165 -44
q-135 0 -225 77l58 98q85 -68 179 -68q37 0 61 13t27 33q2 18 -12.5 31.5t-39 22.5t-55 18.5t-60.5 23t-53.5 30.5t-36 45t-6.5 65q6 46 40 79.5t89 51.5q-42 22 -57 46t-9 59q9 69 73 112.5t160 43.5zM305 359q-39 0 -62 -12.5t-26 -34.5q-4 -27 25 -44.5t75 -17.5
q39 0 62.5 13t26.5 35q4 27 -25 44t-76 17z" />
    <glyph glyph-name="dieresis" unicode="&#xa8;" horiz-adv-x="375" 
d="M192 769q32 0 49.5 -21t12.5 -54q-3 -21 -14.5 -38.5t-30 -27t-39.5 -9.5q-31 0 -48.5 21.5t-12.5 53.5q5 33 28 54t55 21zM379.5 769q31.5 0 49.5 -21t13 -54q-5 -32 -28.5 -53.5t-55 -21.5t-49 21.5t-12.5 53.5q5 33 28 54t54.5 21z" />
    <glyph glyph-name="copyright" unicode="&#xa9;" horiz-adv-x="732" 
d="M465 689q93 0 164.5 -45.5t105 -123.5t19.5 -170q-13 -91 -69 -169.5t-141 -125t-179 -46.5q-93 0 -164 46t-104 124t-20 169t69 169.5t141 125t178 46.5zM454 614q-112 0 -200.5 -78t-104.5 -188t49.5 -187t177.5 -77q113 0 202 78t104 188q16 109 -50 186.5t-178 77.5z
M446 516q36 0 69.5 -14.5t54.5 -40.5l-51 -53q-34 43 -81 43q-43 0 -76 -29t-39.5 -72t18.5 -72.5t68 -29.5q48 0 92 39l37 -48q-30 -27 -68.5 -43t-74.5 -16q-74 0 -117 48.5t-33 120.5q11 71 68.5 119t132.5 48z" />
    <glyph glyph-name="ordfeminine" unicode="&#xaa;" horiz-adv-x="390" 
d="M311 458l6 44q-42 -49 -115 -49q-34 0 -58 12.5t-34 35t-5 52.5q6 45 43 69.5t99 24.5h90l1 7q4 24 -11 36.5t-49 12.5q-46 0 -109 -25l-15 71q89 34 161 34q69 0 103.5 -30.5t25.5 -85.5l-29 -209h-104zM248 522q48 0 77 38l5 36h-68q-51 0 -56 -35q-3 -18 8.5 -28.5
t33.5 -10.5z" />
    <glyph glyph-name="guillemetleft" unicode="&#xab;" horiz-adv-x="487" 
d="M185 265l81 -182h-126l-93 182l145 181h126zM393 265l80 -182h-125l-93 182l145 181h125z" />
    <glyph glyph-name="logicalnot" unicode="&#xac;" horiz-adv-x="573" 
d="M566 421l-41 -282h-111l26 180h-361l15 102h472z" />
    <glyph glyph-name="softhyphen" unicode="&#xad;" horiz-adv-x="372" 
d="M352 255h-258l14 102h258z" />
    <glyph glyph-name="registered" unicode="&#xae;" horiz-adv-x="732" 
d="M465 689q93 0 164.5 -45.5t105 -123.5t19.5 -170q-13 -91 -69 -169.5t-141 -125t-179 -46.5q-93 0 -164 46t-104 124t-20 169t69 169.5t141 125t178 46.5zM376 84q113 0 202 78t104 188q16 109 -50 186.5t-178 77.5t-200.5 -78t-104.5 -188t49.5 -187t177.5 -77zM568 410
q-11 -77 -77 -105l55 -108h-83l-38 94h-8h-66l-14 -94h-72l47 325h138q65 0 95.5 -29.5t22.5 -82.5zM359 349h66q31 0 50.5 15t23.5 43q2 14 -1 24.5t-10.5 18t-19 11t-26.5 3.5h-66z" />
    <glyph glyph-name="macron" unicode="&#xaf;" horiz-adv-x="350" 
d="M402 634h-271l16 108h271z" />
    <glyph glyph-name="degree" unicode="&#xb0;" horiz-adv-x="365" 
d="M317 815q49 0 79 -34.5t23.5 -82.5t-47 -82.5t-88.5 -34.5t-77.5 34.5t-23 82.5t46 82.5t87.5 34.5zM308 752q-23 0 -41.5 -16t-21.5 -38q-4 -22 10.5 -38t37.5 -16q24 0 43 16t23 38q3 22 -12 38t-39 16z" />
    <glyph glyph-name="plusminus" unicode="&#xb1;" horiz-adv-x="506" 
d="M538 448l-15 -99h-171l-23 -164h-98l23 164h-171l15 99h171l23 164h98l-23 -164h171zM49 109h440l-15 -102h-440z" />
    <glyph glyph-name="twosuperior" unicode="&#xb2;" horiz-adv-x="387" 
d="M299 704q65 0 102 -30t30 -79q-9 -61 -102 -138l-103 -88h185l-12 -85h-324l10 70l178 157q48 42 52 69q1 7 -0.5 12.5t-5 10t-9 7.5t-13.5 4.5t-17 1.5q-56 0 -126 -53l-30 79q96 62 185 62z" />
    <glyph glyph-name="threesuperior" unicode="&#xb3;" horiz-adv-x="361" 
d="M282 532l20 -4q48 -7 73.5 -36.5t18.5 -76.5q-6 -40 -30.5 -70.5t-65 -48t-90.5 -17.5q-45 0 -86 14t-67 37l56 83q41 -52 100 -52q22 0 38 6.5t25.5 18t12.5 28.5q3 24 -13 37t-48 13h-69l8 58l114 97h-162l12 80h286l-9 -62z" />
    <glyph glyph-name="acute" unicode="&#xb4;" horiz-adv-x="350" 
d="M401 711l-142 -109h-122l129 163z" />
    <glyph glyph-name="mu" unicode="&#xb5;" horiz-adv-x="681" 
d="M685 538l-78 -538h-154l14 94q-70 -100 -195 -100q-20 0 -39 3l-28 -191h-154l106 732h154l-43 -294q-7 -51 16 -80t70 -29q55 1 92.5 39t45.5 98l39 266h154z" />
    <glyph glyph-name="paragraph" unicode="&#xb6;" horiz-adv-x="639" 
d="M546 -107h-115l109 758h-110l-109 -758h-115l63 440h-28q-45 0 -79 13.5t-51.5 34.5t-28.5 48t-11 53.5t2 50.5q6 41 24.5 77.5t50 66.5t81 47.5t111.5 17.5h328z" />
    <glyph glyph-name="periodcentered" unicode="&#xb7;" horiz-adv-x="231" 
d="M167.5 365q32.5 0 50.5 -21t14 -55q-5 -34 -29.5 -56t-57 -22t-50.5 22t-13 56q4 33 28.5 54.5t57 21.5z" />
    <glyph glyph-name="cedilla" unicode="&#xb8;" horiz-adv-x="350" 
d="M246 14l-41 -64q30 -8 45 -29.5t11 -51.5q-7 -46 -43.5 -73.5t-88.5 -27.5q-50 0 -89 30l39 67q20 -20 49 -20q13 0 23.5 5.5t17 14t7.5 18.5q2 16 -8.5 26t-32.5 10q-12 0 -36 -4l60 99h87z" />
    <glyph glyph-name="onesuperior" unicode="&#xb9;" horiz-adv-x="270" 
d="M134 284l47 329h-81l13 87h189l-60 -416h-108z" />
    <glyph glyph-name="ordmasculine" unicode="&#xba;" horiz-adv-x="411" 
d="M318 783q82 0 125.5 -45t32.5 -119t-67 -119t-138 -45t-125 45t-33 119q11 74 67 119t138 45zM306 698q-34 0 -58 -22.5t-29 -58.5t12.5 -58t50.5 -22q34 0 58 22t29 58q5 37 -12.5 59t-50.5 22z" />
    <glyph glyph-name="guillemetright" unicode="&#xbb;" horiz-adv-x="495" 
d="M193 264l-81 182h126l93 -182l-145 -181h-126zM401 264l-81 182h126l93 -182l-145 -181h-126z" />
    <glyph glyph-name="onequarter" unicode="&#xbc;" horiz-adv-x="859" 
d="M134 284l47 329h-81l13 87h189l-60 -416h-108zM61 0l607 700h144l-605 -700h-146zM706 168l13 92h102l-13 -92h59l-11 -78h-59l-13 -90h-102l13 90h-205l10 73l174 253h104l-167 -248h95z" />
    <glyph glyph-name="onehalf" unicode="&#xbd;" horiz-adv-x="882" 
d="M134 284l47 329h-81l13 87h189l-60 -416h-108zM61 0l607 700h144l-605 -700h-146zM754 420q42 0 73.5 -13.5t46.5 -38.5t11 -57q-9 -61 -102 -138l-103 -89h185l-12 -84h-324l10 70l178 156q48 42 52 70q1 11 -3.5 19.5t-15 12.5t-26.5 4q-54 0 -126 -53l-31 78
q96 63 187 63z" />
    <glyph glyph-name="threequarters" unicode="&#xbe;" horiz-adv-x="919" 
d="M121 0l607 700h144l-605 -700h-146zM282 532l20 -4q48 -7 73.5 -36.5t18.5 -76.5q-6 -40 -30.5 -70.5t-65 -48t-90.5 -17.5q-45 0 -86 14t-67 37l56 83q41 -52 100 -52q22 0 38 6.5t25.5 18t12.5 28.5q3 24 -13 37t-48 13h-69l8 58l114 97h-162l12 80h286l-9 -62z
M766 168l13 92h102l-13 -92h59l-11 -78h-59l-13 -90h-102l13 90h-205l10 73l174 253h104l-167 -248h95z" />
    <glyph glyph-name="questiondown" unicode="&#xbf;" horiz-adv-x="462" 
d="M298 387q-23 0 -39 10t-23 28t-4 41t15.5 41t32 28.5t41.5 10.5q33 0 51.5 -23t13.5 -57q-5 -35 -30 -57t-58 -22zM348 57l119 -1q-17 -104 -84 -162t-170 -58q-97 0 -147 45t-38 127q5 31 17 58t28.5 46t35.5 36.5t38 34t35 33t28 38.5t15 47h116q-6 -43 -24 -77
t-40 -55.5t-44 -40.5t-38.5 -42.5t-20.5 -52.5q-5 -35 14 -52.5t58 -17.5q86 0 102 94z" />
    <glyph glyph-name="Agrave" unicode="&#xc0;" horiz-adv-x="759" 
d="M447 765l-111 110l151 53l83 -163h-123zM559 136h-324l-75 -136h-163l405 700h163l198 -700h-169zM526 263l-71 272l-150 -272h221z" />
    <glyph glyph-name="Aacute" unicode="&#xc1;" horiz-adv-x="759" 
d="M532 765h-122l130 163l135 -54zM559 136h-324l-75 -136h-163l405 700h163l198 -700h-169zM526 263l-71 272l-150 -272h221z" />
    <glyph glyph-name="Acircumflex" unicode="&#xc2;" horiz-adv-x="759" 
d="M431 773h-113l131 148h128l87 -148h-113l-47 85zM559 136h-324l-75 -136h-163l405 700h163l198 -700h-169zM526 263l-71 272l-150 -272h221z" />
    <glyph glyph-name="Atilde" unicode="&#xc3;" horiz-adv-x="759" 
d="M456 830q-33 0 -40 -45h-95q22 151 122 151q25 0 46 -12.5t36.5 -25t27.5 -12.5q33 0 39 44h95q-21 -149 -121 -149q-27 0 -47.5 12.5t-35.5 24.5t-27 12zM559 136h-324l-75 -136h-163l405 700h163l198 -700h-169zM526 263l-71 272l-150 -272h221z" />
    <glyph glyph-name="Adieresis" unicode="&#xc4;" horiz-adv-x="759" 
d="M398.5 783q-31.5 0 -48.5 21t-13 53q5 33 28.5 54t55 21t49 -21t12.5 -54q-4 -32 -28 -53t-55.5 -21zM586.5 783q-31.5 0 -48.5 21t-13 53q5 33 28.5 54t55 21t49 -21t12.5 -54q-4 -32 -28 -53t-55.5 -21zM559 136h-324l-75 -136h-163l405 700h163l198 -700h-169z
M526 263l-71 272l-150 -272h221z" />
    <glyph glyph-name="Aring" unicode="&#xc5;" horiz-adv-x="759" 
d="M559 136h-324l-75 -136h-163l394 681q-32 37 -24 88q7 52 49.5 89t95 37t84 -36.5t24 -89.5t-49.5 -88l193 -681h-169zM502 826q-25 0 -45 -16.5t-23 -40.5q-2 -11 1.5 -21.5t10.5 -18t17.5 -12t22.5 -4.5q16 0 31 7.5t25 20.5t12 28q2 16 -4 29t-19 20.5t-29 7.5z
M526 263l-71 272l-150 -272h221z" />
    <glyph glyph-name="AE" unicode="&#xc6;" horiz-adv-x="1085" 
d="M1057 132l-19 -132h-543l22 154h-250l-105 -154h-165l502 700h629l-19 -131h-375l-22 -152h338l-19 -131h-338l-22 -154h386zM534 274l44 300h-22l-207 -300h185z" />
    <glyph glyph-name="Ccedilla" unicode="&#xc7;" horiz-adv-x="694" 
d="M616 219l78 -101q-54 -49 -121.5 -81t-135.5 -41l-29 -46q30 -8 45 -29.5t11 -51.5q-7 -46 -43.5 -73.5t-88.5 -27.5q-50 0 -89 30l39 67q20 -20 49 -20q19 0 32.5 11t15.5 27t-8.5 26t-32.5 10q-12 0 -36 -4l48 80q-138 15 -215.5 115t-56.5 241q14 100 74.5 181
t152.5 127t197 46q50 0 98.5 -14t90 -40.5t70.5 -61.5l-108 -112q-31 42 -76 66.5t-93 24.5q-90 0 -160.5 -62t-83.5 -153q-9 -60 12 -109.5t66 -78t104 -28.5q47 0 98.5 22t95.5 60z" />
    <glyph glyph-name="Egrave" unicode="&#xc8;" horiz-adv-x="668" 
d="M535 765h-123l-111 110l151 53zM692 569h-375l-22 -152h338l-19 -131h-338l-22 -155h386l-19 -131h-544l101 700h533z" />
    <glyph glyph-name="Eacute" unicode="&#xc9;" horiz-adv-x="668" 
d="M640 874l-143 -109h-122l130 163zM692 569h-375l-22 -152h338l-19 -131h-338l-22 -155h386l-19 -131h-544l101 700h533z" />
    <glyph glyph-name="Ecircumflex" unicode="&#xca;" horiz-adv-x="668" 
d="M630 773h-113l-47 85l-73 -85h-113l131 148h128zM692 569h-375l-22 -152h338l-19 -131h-338l-22 -155h386l-19 -131h-544l101 700h533z" />
    <glyph glyph-name="Edieresis" unicode="&#xcb;" horiz-adv-x="668" 
d="M386.5 932q31.5 0 49 -21t12.5 -54q-4 -32 -28 -53t-55.5 -21t-48.5 21t-13 53q5 33 28.5 54t55 21zM574.5 932q31.5 0 49 -21t12.5 -54q-4 -32 -28 -53t-55.5 -21t-48.5 21t-13 53q5 33 28.5 54t55 21zM692 569h-375l-22 -152h338l-19 -131h-338l-22 -155h386l-19 -131
h-544l101 700h533z" />
    <glyph glyph-name="Igrave" unicode="&#xcc;" horiz-adv-x="313" 
d="M346 765h-123l-111 110l151 53zM235 0h-158l101 700h158z" />
    <glyph glyph-name="Iacute" unicode="&#xcd;" horiz-adv-x="313" 
d="M451 874l-143 -109h-122l130 163zM235 0h-158l101 700h158z" />
    <glyph glyph-name="Icircumflex" unicode="&#xce;" horiz-adv-x="313" 
d="M440 773h-113l-47 85l-73 -85h-113l131 148h128zM235 0h-158l101 700h158z" />
    <glyph glyph-name="Idieresis" unicode="&#xcf;" horiz-adv-x="313" 
d="M196 932q32 0 49.5 -21t12.5 -54q-4 -32 -28 -53t-55.5 -21t-48.5 21t-13 53q4 22 15.5 39t29.5 26.5t38 9.5zM384.5 932q31.5 0 49 -21t12.5 -54q-4 -32 -28 -53t-55.5 -21t-48.5 21t-13 53q5 33 28.5 54t55 21zM235 0h-158l101 700h158z" />
    <glyph glyph-name="Eth" unicode="&#xd0;" horiz-adv-x="797" 
d="M206 700h297q163 0 251.5 -97.5t65.5 -252.5q-22 -155 -140 -252.5t-284 -97.5h-291l44 307h-105l13 88h105zM282 133h143q58 0 108 27t83.5 76.5t42.5 112.5q14 96 -37 157t-141 61h-136l-25 -172h172l-13 -88h-172z" />
    <glyph glyph-name="Ntilde" unicode="&#xd1;" horiz-adv-x="788" 
d="M457 936q25 0 46 -12.5t36.5 -25t27.5 -12.5q33 0 39 44h95q-21 -149 -121 -149q-27 0 -47.5 12.5t-35.5 24.5t-27 12q-33 0 -40 -45h-95q22 151 122 151zM711 0h-144l-274 449l-65 -449h-151l101 700h144l275 -450l65 450h150z" />
    <glyph glyph-name="Ograve" unicode="&#xd2;" horiz-adv-x="806" 
d="M586 765h-123l-111 110l151 53zM504.5 705q105.5 0 185 -46t117 -127.5t22.5 -181.5q-14 -100 -75 -181.5t-154 -128.5t-198 -47t-185 46.5t-117 128.5t-23 182q15 100 76 181.5t153.5 127.5t198 46zM487 567q-59 0 -112.5 -28.5t-90 -78.5t-45.5 -110
q-13 -92 41.5 -155.5t143.5 -63.5q88 0 159 63.5t84.5 155.5t-39.5 154.5t-141 62.5z" />
    <glyph glyph-name="Oacute" unicode="&#xd3;" horiz-adv-x="806" 
d="M691 874l-143 -109h-122l130 163zM504.5 705q105.5 0 185 -46t117 -127.5t22.5 -181.5q-14 -100 -75 -181.5t-154 -128.5t-198 -47t-185 46.5t-117 128.5t-23 182q15 100 76 181.5t153.5 127.5t198 46zM487 567q-59 0 -112.5 -28.5t-90 -78.5t-45.5 -110
q-13 -92 41.5 -155.5t143.5 -63.5q88 0 159 63.5t84.5 155.5t-39.5 154.5t-141 62.5z" />
    <glyph glyph-name="Ocircumflex" unicode="&#xd4;" horiz-adv-x="806" 
d="M680 773h-113l-47 85l-73 -85h-113l131 148h128zM504.5 705q105.5 0 185 -46t117 -127.5t22.5 -181.5q-14 -100 -75 -181.5t-154 -128.5t-198 -47t-185 46.5t-117 128.5t-23 182q15 100 76 181.5t153.5 127.5t198 46zM487 567q-59 0 -112.5 -28.5t-90 -78.5t-45.5 -110
q-13 -92 41.5 -155.5t143.5 -63.5q88 0 159 63.5t84.5 155.5t-39.5 154.5t-141 62.5z" />
    <glyph glyph-name="Otilde" unicode="&#xd5;" horiz-adv-x="806" 
d="M459 936q25 0 46 -12.5t36.5 -25t27.5 -12.5q33 0 39 44h95q-21 -149 -121 -149q-21 0 -39 7.5t-28 17t-21.5 17t-21.5 7.5q-33 0 -40 -45h-95q22 151 122 151zM504.5 705q105.5 0 185 -46t117 -127.5t22.5 -181.5q-14 -100 -75 -181.5t-154 -128.5t-198 -47t-185 46.5
t-117 128.5t-23 182q15 100 76 181.5t153.5 127.5t198 46zM487 567q-59 0 -112.5 -28.5t-90 -78.5t-45.5 -110q-13 -92 41.5 -155.5t143.5 -63.5q88 0 159 63.5t84.5 155.5t-39.5 154.5t-141 62.5z" />
    <glyph glyph-name="Odieresis" unicode="&#xd6;" horiz-adv-x="806" 
d="M436.5 932q31.5 0 49 -21t12.5 -54q-4 -32 -28 -53t-55.5 -21t-48.5 21t-13 53q5 33 28.5 54t55 21zM624.5 932q31.5 0 49 -21t12.5 -54q-4 -32 -28 -53t-55.5 -21t-48.5 21t-13 53q5 33 28.5 54t55 21zM504.5 705q105.5 0 185 -46t117 -127.5t22.5 -181.5
q-14 -100 -75 -181.5t-154 -128.5t-198 -47t-185 46.5t-117 128.5t-23 182q15 100 76 181.5t153.5 127.5t198 46zM487 567q-59 0 -112.5 -28.5t-90 -78.5t-45.5 -110q-13 -92 41.5 -155.5t143.5 -63.5q88 0 159 63.5t84.5 155.5t-39.5 154.5t-141 62.5z" />
    <glyph glyph-name="multiply" unicode="&#xd7;" horiz-adv-x="506" 
d="M371 326l102 -120l-81 -72l-102 121l-138 -121l-59 72l136 120l-102 120l81 72l102 -121l138 121l59 -72z" />
    <glyph glyph-name="Oslash" unicode="&#xd8;" horiz-adv-x="806" 
d="M717 809l-65 -132q96 -40 145 -127.5t32 -199.5q-14 -100 -75 -181.5t-154 -128.5t-198 -47q-41 0 -82 8l-58 -117h-89l70 142q-91 43 -136 129t-30 195q15 100 76 181.5t153.5 127.5t198.5 46q32 0 68 -5l54 109h90zM239 350q-8 -57 12 -105.5t61 -78.5l196 400
q-7 1 -21 1q-59 0 -112.5 -28.5t-90 -78.5t-45.5 -110zM424 131q88 0 159 63.5t84 155.5q9 62 -13.5 113t-68.5 78l-200 -406q17 -4 39 -4z" />
    <glyph glyph-name="Ugrave" unicode="&#xd9;" horiz-adv-x="760" 
d="M570 765h-123l-111 110l151 53zM797 700l-59 -407q-20 -139 -116 -219.5t-241 -80.5q-146 0 -220.5 81t-54.5 219l59 407h158l-59 -407q-5 -37 2.5 -67.5t25.5 -51.5t46 -32t63 -11q71 0 119.5 43.5t59.5 118.5l59 407h158z" />
    <glyph glyph-name="Uacute" unicode="&#xda;" horiz-adv-x="760" 
d="M675 874l-143 -109h-122l130 163zM797 700l-59 -407q-20 -139 -116 -219.5t-241 -80.5q-146 0 -220.5 81t-54.5 219l59 407h158l-59 -407q-5 -37 2.5 -67.5t25.5 -51.5t46 -32t63 -11q71 0 119.5 43.5t59.5 118.5l59 407h158z" />
    <glyph glyph-name="Ucircumflex" unicode="&#xdb;" horiz-adv-x="760" 
d="M664 773h-113l-47 85l-73 -85h-113l131 148h128zM797 700l-59 -407q-20 -139 -116 -219.5t-241 -80.5q-146 0 -220.5 81t-54.5 219l59 407h158l-59 -407q-5 -37 2.5 -67.5t25.5 -51.5t46 -32t63 -11q71 0 119.5 43.5t59.5 118.5l59 407h158z" />
    <glyph glyph-name="Udieresis" unicode="&#xdc;" horiz-adv-x="760" 
d="M420.5 932q31.5 0 49 -21t12.5 -54q-4 -32 -28 -53t-55.5 -21t-48.5 21t-13 53q5 33 28.5 54t55 21zM608.5 932q31.5 0 49 -21t12.5 -54q-4 -32 -28 -53t-55.5 -21t-48.5 21t-13 53q5 33 28.5 54t55 21zM797 700l-59 -407q-20 -139 -116 -219.5t-241 -80.5
q-146 0 -220.5 81t-54.5 219l59 407h158l-59 -407q-5 -37 2.5 -67.5t25.5 -51.5t46 -32t63 -11q71 0 119.5 43.5t59.5 118.5l59 407h158z" />
    <glyph glyph-name="Yacute" unicode="&#xdd;" horiz-adv-x="666" 
d="M485 765h-122l130 163l135 -54zM447 226l-33 -226h-158l32 222l-190 478h159l134 -314l220 314h159z" />
    <glyph glyph-name="Thorn" unicode="&#xde;" horiz-adv-x="686" 
d="M322 606h131q140 0 209 -63t53 -176q-17 -119 -105 -185.5t-227 -66.5h-131l-17 -115h-158l101 700h158zM270 241h124q46 0 79.5 14t53.5 41t25 66q8 57 -23.5 87.5t-100.5 30.5h-124z" />
    <glyph glyph-name="germandbls" unicode="&#xdf;" horiz-adv-x="660" 
d="M438 749q112 0 173 -54t48 -144q-5 -36 -22 -69t-44 -58.5t-61 -40.5q64 -17 97 -61.5t24 -108.5q-14 -95 -97 -154t-207 -59h-50l16 114h47q59 0 96.5 27t44.5 72q6 47 -27.5 72t-100.5 25h-17l16 113q56 0 91 27.5t42 77.5q7 48 -16 74.5t-70 26.5q-54 0 -88 -33.5
t-43 -93.5l-72 -502h-153l71 491q17 118 98 188t204 70z" />
    <glyph glyph-name="agrave" unicode="&#xe0;" horiz-adv-x="596" 
d="M340 602l-111 110l150 53l84 -163h-123zM386 0l9 63q-66 -70 -179 -70q-85 0 -128.5 46.5t-32.5 121.5q11 76 70.5 118.5t158.5 43.5h148l1 10q6 43 -19 66.5t-80 23.5q-75 0 -167 -47l-33 106q69 32 127 47t125 15q108 0 160.5 -51t40.5 -142l-50 -351h-151zM275 103
q16 0 31.5 3t29 8t26 12.5t22 16t17 19.5t11.5 22l6 48h-121q-88 0 -96 -61q-5 -31 15 -49.5t59 -18.5z" />
    <glyph glyph-name="aacute" unicode="&#xe1;" horiz-adv-x="596" 
d="M425 602h-122l129 163l135 -54zM386 0l9 63q-66 -70 -179 -70q-85 0 -128.5 46.5t-32.5 121.5q11 76 70.5 118.5t158.5 43.5h148l1 10q6 43 -19 66.5t-80 23.5q-75 0 -167 -47l-33 106q69 32 127 47t125 15q108 0 160.5 -51t40.5 -142l-50 -351h-151zM275 103
q16 0 31.5 3t29 8t26 12.5t22 16t17 19.5t11.5 22l6 48h-121q-88 0 -96 -61q-5 -31 15 -49.5t59 -18.5z" />
    <glyph glyph-name="acircumflex" unicode="&#xe2;" horiz-adv-x="596" 
d="M324 610h-113l130 148h128l88 -148h-113l-48 85zM386 0l9 63q-66 -70 -179 -70q-85 0 -128.5 46.5t-32.5 121.5q11 76 70.5 118.5t158.5 43.5h148l1 10q6 43 -19 66.5t-80 23.5q-75 0 -167 -47l-33 106q69 32 127 47t125 15q108 0 160.5 -51t40.5 -142l-50 -351h-151z
M275 103q16 0 31.5 3t29 8t26 12.5t22 16t17 19.5t11.5 22l6 48h-121q-88 0 -96 -61q-5 -31 15 -49.5t59 -18.5z" />
    <glyph glyph-name="atilde" unicode="&#xe3;" horiz-adv-x="596" 
d="M348 667q-33 0 -39 -45h-95q21 151 121 151q25 0 46 -12.5t36.5 -25t27.5 -12.5q33 0 40 44h95q-22 -149 -122 -149q-26 0 -47 12t-36 24.5t-27 12.5zM386 0l9 63q-66 -70 -179 -70q-85 0 -128.5 46.5t-32.5 121.5q11 76 70.5 118.5t158.5 43.5h148l1 10q6 43 -19 66.5
t-80 23.5q-75 0 -167 -47l-33 106q69 32 127 47t125 15q108 0 160.5 -51t40.5 -142l-50 -351h-151zM275 103q16 0 31.5 3t29 8t26 12.5t22 16t17 19.5t11.5 22l6 48h-121q-88 0 -96 -61q-5 -31 15 -49.5t59 -18.5z" />
    <glyph glyph-name="adieresis" unicode="&#xe4;" horiz-adv-x="596" 
d="M291.5 620q-31.5 0 -49 21t-12.5 53q5 33 28 54t54.5 21t49.5 -21t13 -54q-5 -32 -28.5 -53t-55 -21zM479.5 620q-31.5 0 -49 21t-12.5 53q5 33 28 54t54.5 21t49.5 -21t13 -54q-5 -32 -28.5 -53t-55 -21zM386 0l9 63q-66 -70 -179 -70q-85 0 -128.5 46.5t-32.5 121.5
q11 76 70.5 118.5t158.5 43.5h148l1 10q6 43 -19 66.5t-80 23.5q-75 0 -167 -47l-33 106q69 32 127 47t125 15q108 0 160.5 -51t40.5 -142l-50 -351h-151zM275 103q16 0 31.5 3t29 8t26 12.5t22 16t17 19.5t11.5 22l6 48h-121q-88 0 -96 -61q-5 -31 15 -49.5t59 -18.5z" />
    <glyph glyph-name="aring" unicode="&#xe5;" horiz-adv-x="596" 
d="M379 573q-33 0 -58.5 16t-37.5 43.5t-7 59.5q7 49 47 84t89.5 35t80 -35t23.5 -84t-47.5 -84t-89.5 -35zM404 746q-24 0 -43 -15.5t-22 -38.5q-4 -23 10.5 -39t38.5 -16q16 0 30 7t24 20t12 28q1 11 -2 21t-9.5 17t-17 11.5t-21.5 4.5zM386 0l9 63q-66 -70 -179 -70
q-85 0 -128.5 46.5t-32.5 121.5q11 76 70.5 118.5t158.5 43.5h148l1 10q6 43 -19 66.5t-80 23.5q-75 0 -167 -47l-33 106q69 32 127 47t125 15q108 0 160.5 -51t40.5 -142l-50 -351h-151zM275 103q16 0 31.5 3t29 8t26 12.5t22 16t17 19.5t11.5 22l6 48h-121q-88 0 -96 -61
q-5 -31 15 -49.5t59 -18.5z" />
    <glyph glyph-name="ae" unicode="&#xe6;" horiz-adv-x="968" 
d="M745 543q132 0 194 -84.5t36 -224.5h-398q2 -57 35 -88.5t88 -31.5q81 0 146 58l69 -84q-100 -94 -244 -94q-77 0 -130 31t-77 87q-83 -119 -240 -119q-89 0 -134.5 45.5t-34.5 119.5q7 50 36 84.5t77.5 53t114.5 18.5h149l3 19q6 43 -19.5 66.5t-80.5 23.5
q-82 0 -180 -47l-20 108q136 60 251 60q124 0 175 -65q78 64 184 64zM587 312h246q7 54 -21 88.5t-80 34.5q-34 0 -63 -16t-50 -43.5t-32 -63.5zM275 97q90 0 141 80l-2 1l8 59h-119q-44 0 -71 -17t-31 -49q-5 -34 15 -54t59 -20zM449 161l-2 9l-15 3z" />
    <glyph glyph-name="ccedilla" unicode="&#xe7;" horiz-adv-x="563" 
d="M462 185l95 -72q-73 -99 -206 -116l-31 -47q30 -8 45 -29.5t11 -51.5q-7 -46 -43.5 -73.5t-88.5 -27.5q-50 0 -89 30l39 67q20 -20 49 -20q19 0 32.5 11t15.5 27t-8.5 26t-32.5 10q-12 0 -36 -4l49 81q-105 12 -159 85.5t-38 185.5q18 124 105 200t211 76
q51 0 93.5 -13.5t73.5 -38.5t50 -61l-115 -75q-38 58 -115 57q-37 0 -68.5 -18t-52.5 -51t-27 -75q-7 -43 4.5 -76.5t38 -51.5t64.5 -18q84 0 134 63z" />
    <glyph glyph-name="egrave" unicode="&#xe8;" horiz-adv-x="597" 
d="M344 602l-111 110l150 53l84 -163h-123zM383 543q139 0 194.5 -85.5t23.5 -235.5h-386q6 -51 39 -79.5t84 -28.5q79 0 145 57l69 -82q-99 -95 -244 -95q-128 0 -193.5 75t-48.5 198q18 124 106 200t211 76zM225 313h245q4 35 -7 61.5t-35.5 41t-59.5 14.5
q-50 0 -88 -31.5t-55 -85.5z" />
    <glyph glyph-name="eacute" unicode="&#xe9;" horiz-adv-x="597" 
d="M429 602h-122l129 163l135 -54zM383 543q139 0 194.5 -85.5t23.5 -235.5h-386q6 -51 39 -79.5t84 -28.5q79 0 145 57l69 -82q-99 -95 -244 -95q-128 0 -193.5 75t-48.5 198q18 124 106 200t211 76zM225 313h245q4 35 -7 61.5t-35.5 41t-59.5 14.5q-50 0 -88 -31.5
t-55 -85.5z" />
    <glyph glyph-name="ecircumflex" unicode="&#xea;" horiz-adv-x="597" 
d="M328 610h-113l130 148h128l88 -148h-113l-48 85zM383 543q139 0 194.5 -85.5t23.5 -235.5h-386q6 -51 39 -79.5t84 -28.5q79 0 145 57l69 -82q-99 -95 -244 -95q-128 0 -193.5 75t-48.5 198q18 124 106 200t211 76zM225 313h245q4 35 -7 61.5t-35.5 41t-59.5 14.5
q-50 0 -88 -31.5t-55 -85.5z" />
    <glyph glyph-name="edieresis" unicode="&#xeb;" horiz-adv-x="597" 
d="M295.5 620q-31.5 0 -49 21t-12.5 53q5 33 28 54t54.5 21t49.5 -21t13 -54q-5 -32 -28.5 -53t-55 -21zM483.5 620q-31.5 0 -49 21t-12.5 53q5 33 28 54t54.5 21t49.5 -21t13 -54q-5 -32 -28.5 -53t-55 -21zM383 543q139 0 194.5 -85.5t23.5 -235.5h-386q6 -51 39 -79.5
t84 -28.5q79 0 145 57l69 -82q-99 -95 -244 -95q-128 0 -193.5 75t-48.5 198q18 124 106 200t211 76zM225 313h245q4 35 -7 61.5t-35.5 41t-59.5 14.5q-50 0 -88 -31.5t-55 -85.5z" />
    <glyph glyph-name="igrave" unicode="&#xec;" horiz-adv-x="302" 
d="M318 602h-123l-111 110l150 53zM228 0h-154l78 538h154z" />
    <glyph glyph-name="iacute" unicode="&#xed;" horiz-adv-x="302" 
d="M422 711l-142 -109h-122l129 163zM228 0h-154l78 538h154z" />
    <glyph glyph-name="icircumflex" unicode="&#xee;" horiz-adv-x="302" 
d="M412 610h-113l-48 85l-72 -85h-113l130 148h128zM228 0h-154l78 538h154z" />
    <glyph glyph-name="idieresis" unicode="&#xef;" horiz-adv-x="302" 
d="M167.5 769q31.5 0 49.5 -21t13 -54q-5 -32 -28.5 -53t-55 -21t-49 21t-12.5 53q5 33 28 54t54.5 21zM355.5 769q31.5 0 49.5 -21t13 -54q-5 -32 -28.5 -53t-55 -21t-49 21t-12.5 53q5 33 28 54t54.5 21zM228 0h-154l78 538h154z" />
    <glyph glyph-name="eth" unicode="&#xf0;" horiz-adv-x="600" 
d="M624 628l-100 -33q54 -68 77.5 -149.5t10.5 -166.5q-19 -131 -108.5 -208.5t-221.5 -77.5q-117 0 -177.5 63t-45.5 169q15 100 85.5 160t173.5 60q34 0 65 -8t55 -23t37 -35q-16 85 -93 171l-167 -54l-13 74l119 39q-53 42 -114 73l113 67q84 -37 147 -93l145 47z
M308 125q54 0 90 29t43 76q7 49 -20.5 78.5t-81.5 29.5q-53 0 -88.5 -28.5t-42.5 -75.5q-7 -49 20 -79t80 -30z" />
    <glyph glyph-name="ntilde" unicode="&#xf1;" horiz-adv-x="670" 
d="M403 667q-33 0 -39 -45h-95q21 151 121 151q25 0 46 -12.5t36.5 -25t27.5 -12.5q33 0 40 44h95q-22 -149 -122 -149q-26 0 -47 12t-36 24.5t-27 12.5zM492 544q90 0 135.5 -56t32.5 -150l-49 -338h-154l42 293q8 51 -16.5 80.5t-73.5 29.5q-57 -1 -95.5 -39.5
t-47.5 -98.5l-38 -265h-154l78 538h154l-14 -94q70 98 200 100z" />
    <glyph glyph-name="ograve" unicode="&#xf2;" horiz-adv-x="633" 
d="M483 602h-123l-111 110l150 53zM395 543q130 0 198.5 -75t50.5 -199q-18 -123 -108.5 -199t-219.5 -76t-198 76t-51 199q18 124 108 199t220 75zM377 415q-60 0 -103 -41t-52.5 -107t21.5 -107t91 -41t103 41t52 107q7 43 -5 77t-40 52.5t-67 18.5z" />
    <glyph glyph-name="oacute" unicode="&#xf3;" horiz-adv-x="633" 
d="M587 711l-142 -109h-122l129 163zM395 543q130 0 198.5 -75t50.5 -199q-18 -123 -108.5 -199t-219.5 -76t-198 76t-51 199q18 124 108 199t220 75zM377 415q-60 0 -103 -41t-52.5 -107t21.5 -107t91 -41t103 41t52 107q7 43 -5 77t-40 52.5t-67 18.5z" />
    <glyph glyph-name="ocircumflex" unicode="&#xf4;" horiz-adv-x="633" 
d="M578 610h-113l-48 85l-72 -85h-113l130 148h128zM395 543q130 0 198.5 -75t50.5 -199q-18 -123 -108.5 -199t-219.5 -76t-198 76t-51 199q18 124 108 199t220 75zM377 415q-60 0 -103 -41t-52.5 -107t21.5 -107t91 -41t103 41t52 107q7 43 -5 77t-40 52.5t-67 18.5z" />
    <glyph glyph-name="otilde" unicode="&#xf5;" horiz-adv-x="633" 
d="M356 773q25 0 46 -12.5t36.5 -25t27.5 -12.5q33 0 40 44h95q-22 -149 -122 -149q-26 0 -47 12t-36 24.5t-27 12.5q-33 0 -39 -45h-95q21 151 121 151zM395 543q130 0 198.5 -75t50.5 -199q-18 -123 -108.5 -199t-219.5 -76t-198 76t-51 199q18 124 108 199t220 75z
M377 415q-60 0 -103 -41t-52.5 -107t21.5 -107t91 -41t103 41t52 107q7 43 -5 77t-40 52.5t-67 18.5z" />
    <glyph glyph-name="odieresis" unicode="&#xf6;" horiz-adv-x="633" 
d="M333.5 769q31.5 0 49.5 -21t13 -54q-3 -21 -15 -38t-30 -26.5t-39 -9.5q-31 0 -48.5 21t-12.5 53q5 33 28 54t54.5 21zM521.5 769q31.5 0 49.5 -21t13 -54q-5 -32 -28.5 -53t-55 -21t-49 21t-12.5 53q5 33 28 54t54.5 21zM395 543q130 0 198.5 -75t50.5 -199
q-18 -123 -108.5 -199t-219.5 -76t-198 76t-51 199q18 124 108 199t220 75zM377 415q-60 0 -103 -41t-52.5 -107t21.5 -107t91 -41t103 41t52 107q7 43 -5 77t-40 52.5t-67 18.5z" />
    <glyph glyph-name="divide" unicode="&#xf7;" horiz-adv-x="506" 
d="M330 585q32 0 49 -21t12 -54q-4 -32 -27.5 -53.5t-55 -21.5t-49 21.5t-13.5 53.5q4 22 15.5 39t30 26.5t38.5 9.5zM513 275h-440l14 102h440zM278.5 228q31.5 0 49 -21t12.5 -54q-5 -32 -28 -53.5t-54.5 -21.5t-49.5 21.5t-13 53.5q5 33 28.5 54t55 21z" />
    <glyph glyph-name="oslash" unicode="&#xf8;" horiz-adv-x="633" 
d="M575 669l-67 -145q76 -29 112.5 -95.5t23.5 -159.5q-18 -123 -108.5 -199t-219.5 -76q-32 0 -54 4l-67 -141h-65l74 156q-78 29 -114.5 96.5t-22.5 159.5q18 124 108 199t220 75q32 0 56 -4l60 130h64zM211 267q-13 -96 46 -139l141 299q-6 1 -19 1q-64 0 -110.5 -44.5
t-57.5 -116.5zM332 106q64 0 110 44.5t56 116.5q14 97 -45 139l-141 -299q6 -1 20 -1z" />
    <glyph glyph-name="ugrave" unicode="&#xf9;" horiz-adv-x="660" 
d="M369 602l-111 110l150 53l84 -163h-123zM663 538l-78 -538h-153l14 95q-70 -101 -195 -101q-89 0 -133.5 55.5t-30.5 150.5l49 338h154l-43 -294q-5 -34 4 -58.5t30 -37.5t51 -13q55 1 93 39t46 98l39 266h153z" />
    <glyph glyph-name="uacute" unicode="&#xfa;" horiz-adv-x="660" 
d="M454 602h-122l129 163l135 -54zM663 538l-78 -538h-153l14 95q-70 -101 -195 -101q-89 0 -133.5 55.5t-30.5 150.5l49 338h154l-43 -294q-5 -34 4 -58.5t30 -37.5t51 -13q55 1 93 39t46 98l39 266h153z" />
    <glyph glyph-name="ucircumflex" unicode="&#xfb;" horiz-adv-x="660" 
d="M353 610h-113l130 148h128l88 -148h-113l-48 85zM663 538l-78 -538h-153l14 95q-70 -101 -195 -101q-89 0 -133.5 55.5t-30.5 150.5l49 338h154l-43 -294q-5 -34 4 -58.5t30 -37.5t51 -13q55 1 93 39t46 98l39 266h153z" />
    <glyph glyph-name="udieresis" unicode="&#xfc;" horiz-adv-x="660" 
d="M320.5 620q-31.5 0 -49 21t-12.5 53q5 33 28 54t54.5 21t49.5 -21t13 -54q-5 -32 -28.5 -53t-55 -21zM508.5 620q-31.5 0 -49 21t-12.5 53q5 33 28 54t54.5 21t49.5 -21t13 -54q-5 -32 -28.5 -53t-55 -21zM663 538l-78 -538h-153l14 95q-70 -101 -195 -101
q-89 0 -133.5 55.5t-30.5 150.5l49 338h154l-43 -294q-5 -34 4 -58.5t30 -37.5t51 -13q55 1 93 39t46 98l39 266h153z" />
    <glyph glyph-name="yacute" unicode="&#xfd;" horiz-adv-x="564" 
d="M554 711l-142 -109h-122l129 163zM649 538l-323 -598q-76 -141 -217 -141q-82 0 -138 52l81 111q30 -29 65 -29q49 0 78 48l20 30l-147 527h159l87 -370l181 370h154z" />
    <glyph glyph-name="thorn" unicode="&#xfe;" horiz-adv-x="684" 
d="M481 543q114 0 172.5 -76.5t40.5 -200.5q-17 -122 -96.5 -197t-192.5 -75q-112 0 -161 84l-39 -272h-154l135 936h154l-41 -283q71 84 182 84zM385 122q39 0 72 19t54.5 52.5t27.5 77.5q9 65 -22 106.5t-90 41.5t-102.5 -41.5t-52.5 -106.5q-10 -67 21.5 -108t91.5 -41z
" />
    <glyph glyph-name="ydieresis" unicode="&#xff;" horiz-adv-x="564" 
d="M299.5 769q31.5 0 49.5 -21t13 -54q-3 -21 -15 -38t-30 -26.5t-39 -9.5q-31 0 -48.5 21t-12.5 53q5 33 28 54t54.5 21zM487.5 769q31.5 0 49.5 -21t13 -54q-5 -32 -28.5 -53t-55 -21t-49 21t-12.5 53q5 33 28 54t54.5 21zM649 538l-323 -598q-76 -141 -217 -141
q-82 0 -138 52l81 111q30 -29 65 -29q49 0 78 48l20 30l-147 527h159l87 -370l181 370h154z" />
    <glyph glyph-name="Amacron" unicode="&#x100;" horiz-adv-x="759" 
d="M631 797h-271l15 108h271zM559 136h-324l-75 -136h-163l405 700h163l198 -700h-169zM526 263l-71 272l-150 -272h221z" />
    <glyph glyph-name="amacron" unicode="&#x101;" horiz-adv-x="596" 
d="M523 634h-271l16 108h271zM386 0l9 63q-66 -70 -179 -70q-85 0 -128.5 46.5t-32.5 121.5q11 76 70.5 118.5t158.5 43.5h148l1 10q6 43 -19 66.5t-80 23.5q-75 0 -167 -47l-33 106q69 32 127 47t125 15q108 0 160.5 -51t40.5 -142l-50 -351h-151zM275 103q16 0 31.5 3
t29 8t26 12.5t22 16t17 19.5t11.5 22l6 48h-121q-88 0 -96 -61q-5 -31 15 -49.5t59 -18.5z" />
    <glyph glyph-name="Abreve" unicode="&#x102;" horiz-adv-x="759" 
d="M490.5 765q-67.5 0 -104.5 42t-30 112h98q-2 -27 12 -43.5t38 -16.5t42.5 16.5t23.5 43.5h98q-13 -70 -61.5 -112t-116 -42zM559 136h-324l-75 -136h-163l405 700h163l198 -700h-169zM526 263l-71 272l-150 -272h221z" />
    <glyph glyph-name="abreve" unicode="&#x103;" horiz-adv-x="596" 
d="M382.5 602q-67.5 0 -104 42t-29.5 112h98q-1 -13 2 -24.5t9.5 -19t16 -12t21.5 -4.5q24 0 43 16.5t24 43.5h98q-13 -70 -62 -112t-116.5 -42zM386 0l9 63q-66 -70 -179 -70q-85 0 -128.5 46.5t-32.5 121.5q11 76 70.5 118.5t158.5 43.5h148l1 10q6 43 -19 66.5t-80 23.5
q-75 0 -167 -47l-33 106q69 32 127 47t125 15q108 0 160.5 -51t40.5 -142l-50 -351h-151zM275 103q16 0 31.5 3t29 8t26 12.5t22 16t17 19.5t11.5 22l6 48h-121q-88 0 -96 -61q-5 -31 15 -49.5t59 -18.5z" />
    <glyph glyph-name="Aogonek" unicode="&#x104;" horiz-adv-x="759" 
d="M763 0h-45q-54 -63 -59 -96q-3 -25 21 -25q22 0 49 31l33 -48q-46 -64 -112 -64q-35 0 -57 20t-16 61q7 50 65 121h-48l-36 136h-321l-76 -136h-164l406 700h162zM304 263h225l-73 273z" />
    <glyph glyph-name="aogonek" unicode="&#x105;" horiz-adv-x="600" 
d="M387 544q109 0 161.5 -51t40.5 -142l-51 -351h-38q-55 -62 -60 -96q-2 -12 4 -18.5t18 -6.5q22 0 48 31l34 -48q-47 -64 -113 -64q-35 0 -57 20t-16 61q7 53 67 121h-38l9 63q-65 -70 -179 -70q-86 0 -129.5 46.5t-32.5 121.5q11 76 70.5 118.5t158.5 43.5h150l1 11
q3 28 -6.5 48t-33.5 30.5t-61 10.5q-75 0 -167 -47l-33 106q70 32 128 47t125 15zM420 232h-122q-18 0 -32.5 -2t-26 -7t-19.5 -12t-12.5 -17t-6.5 -23q-5 -31 15 -49.5t60 -18.5q31 0 60 10.5t49.5 29t27.5 39.5z" />
    <glyph glyph-name="Cacute" unicode="&#x106;" horiz-adv-x="694" 
d="M674 874l-143 -109h-122l130 163zM502 705q50 0 98.5 -14t90 -40.5t70.5 -61.5l-108 -112q-31 42 -76 66.5t-93 24.5q-90 0 -160.5 -62t-83.5 -153q-9 -60 12 -109.5t66 -78t104 -28.5q47 0 98.5 22t95.5 60l78 -101q-64 -58 -144.5 -91.5t-156.5 -33.5q-103 0 -180.5 47
t-113.5 129t-21 182q14 100 74.5 181t152.5 127t197 46z" />
    <glyph glyph-name="cacute" unicode="&#x107;" horiz-adv-x="563" 
d="M562 711l-142 -109h-122l129 163zM382 543q51 0 93.5 -13.5t73.5 -38.5t50 -61l-115 -75q-38 58 -115 57q-37 0 -68.5 -18t-52.5 -51t-27 -75q-7 -43 4.5 -76.5t38 -51.5t64.5 -18q84 0 134 63l95 -72q-42 -57 -108 -88t-148 -31q-122 0 -187 75.5t-48 197.5
q18 124 105 200t211 76z" />
    <glyph glyph-name="Ccircumflex" unicode="&#x108;" horiz-adv-x="694" 
d="M664 773h-113l-47 85l-73 -85h-113l131 148h128zM502 705q50 0 98.5 -14t90 -40.5t70.5 -61.5l-108 -112q-31 42 -76 66.5t-93 24.5q-90 0 -160.5 -62t-83.5 -153q-9 -60 12 -109.5t66 -78t104 -28.5q47 0 98.5 22t95.5 60l78 -101q-64 -58 -144.5 -91.5t-156.5 -33.5
q-103 0 -180.5 47t-113.5 129t-21 182q14 100 74.5 181t152.5 127t197 46z" />
    <glyph glyph-name="ccircumflex" unicode="&#x109;" horiz-adv-x="563" 
d="M552 610h-113l-48 85l-72 -85h-113l130 148h128zM382 543q51 0 93.5 -13.5t73.5 -38.5t50 -61l-115 -75q-38 58 -115 57q-37 0 -68.5 -18t-52.5 -51t-27 -75q-7 -43 4.5 -76.5t38 -51.5t64.5 -18q84 0 134 63l95 -72q-42 -57 -108 -88t-148 -31q-122 0 -187 75.5
t-48 197.5q18 124 105 200t211 76z" />
    <glyph glyph-name="Cdotaccent" unicode="&#x10a;" horiz-adv-x="694" 
d="M515.5 940q36.5 0 56 -24t14.5 -62t-32 -62t-63.5 -24t-56 24t-14.5 62t32 62t63.5 24zM502 705q50 0 98.5 -14t90 -40.5t70.5 -61.5l-108 -112q-31 42 -76 66.5t-93 24.5q-90 0 -160.5 -62t-83.5 -153q-9 -60 12 -109.5t66 -78t104 -28.5q47 0 98.5 22t95.5 60l78 -101
q-64 -58 -144.5 -91.5t-156.5 -33.5q-103 0 -180.5 47t-113.5 129t-21 182q14 100 74.5 181t152.5 127t197 46z" />
    <glyph glyph-name="cdotaccent" unicode="&#x10b;" horiz-adv-x="563" 
d="M403 777q37 0 56.5 -24t14 -62t-32 -62t-63 -24t-56.5 24t-14.5 62t32 62t63.5 24zM382 543q51 0 93.5 -13.5t73.5 -38.5t50 -61l-115 -75q-38 58 -115 57q-37 0 -68.5 -18t-52.5 -51t-27 -75q-7 -43 4.5 -76.5t38 -51.5t64.5 -18q84 0 134 63l95 -72q-42 -57 -108 -88
t-148 -31q-122 0 -187 75.5t-48 197.5q18 124 105 200t211 76z" />
    <glyph glyph-name="Ccaron" unicode="&#x10c;" horiz-adv-x="694" 
d="M323 921h124l48 -92l76 92h124l-140 -160h-138zM502 705q50 0 98.5 -14t90 -40.5t70.5 -61.5l-108 -112q-31 42 -76 66.5t-93 24.5q-90 0 -160.5 -62t-83.5 -153q-9 -60 12 -109.5t66 -78t104 -28.5q47 0 98.5 22t95.5 60l78 -101q-64 -58 -144.5 -91.5t-156.5 -33.5
q-103 0 -180.5 47t-113.5 129t-21 182q14 100 74.5 181t152.5 127t197 46z" />
    <glyph glyph-name="ccaron" unicode="&#x10d;" horiz-adv-x="563" 
d="M210 758h124l49 -92l75 92h124l-140 -160h-138zM382 543q51 0 93.5 -13.5t73.5 -38.5t50 -61l-115 -75q-38 58 -115 57q-37 0 -68.5 -18t-52.5 -51t-27 -75q-7 -43 4.5 -76.5t38 -51.5t64.5 -18q84 0 134 63l95 -72q-42 -57 -108 -88t-148 -31q-122 0 -187 75.5
t-48 197.5q18 124 105 200t211 76z" />
    <glyph glyph-name="Dcaron" unicode="&#x10e;" horiz-adv-x="769" 
d="M303 921h124l48 -92l76 92h124l-140 -160h-138zM178 700h297q163 0 251.5 -97.5t65.5 -252.5q-22 -155 -140 -252.5t-284 -97.5h-291zM317 567l-63 -434h143q58 0 108 27t83.5 76.5t42.5 112.5q14 96 -37 157t-141 61h-136z" />
    <glyph glyph-name="dcaron" unicode="&#x10f;" horiz-adv-x="763" 
d="M559 742h153l-107 -742h-153l11 79q-71 -85 -182 -85q-114 0 -173 76t-41 201q18 123 97.5 198t191.5 75q114 0 162 -85zM834 687q31 0 50 -21t14 -57q-5 -33 -30 -62l-82 -101h-75l57 101q-28 22 -22 62q5 34 30 56t58 22zM335 118q59 0 102.5 41.5t53 107.5t-22 107.5
t-90.5 41.5q-60 0 -103.5 -41.5t-54.5 -107.5q-8 -66 23.5 -107.5t91.5 -41.5z" />
    <glyph glyph-name="Dcroat" unicode="&#x110;" horiz-adv-x="769" 
d="M611 797h-271l15 108h271zM178 700h297q163 0 251.5 -97.5t65.5 -252.5q-22 -155 -140 -252.5t-284 -97.5h-291zM317 567l-63 -434h143q58 0 108 27t83.5 76.5t42.5 112.5q14 96 -37 157t-141 61h-136z" />
    <glyph glyph-name="dcroat" unicode="&#x111;" horiz-adv-x="688" 
d="M758 600h-67l-86 -600h-153l11 79q-71 -85 -182 -85q-114 0 -173 76t-41 201q18 123 97.5 198t191.5 75q114 0 162 -85l20 141h-90l13 84h90l8 58h153l-8 -58h67zM335 118q59 0 102.5 41.5t53 107.5t-22 107.5t-90.5 41.5q-60 0 -103.5 -41.5t-54.5 -107.5
q-8 -66 23.5 -107.5t91.5 -41.5z" />
    <glyph glyph-name="Emacron" unicode="&#x112;" horiz-adv-x="668" 
d="M596 797h-271l15 108h271zM692 569h-375l-22 -152h338l-19 -131h-338l-22 -155h386l-19 -131h-544l101 700h533z" />
    <glyph glyph-name="emacron" unicode="&#x113;" horiz-adv-x="597" 
d="M527 634h-271l16 108h271zM383 543q139 0 194.5 -85.5t23.5 -235.5h-386q6 -51 39 -79.5t84 -28.5q79 0 145 57l69 -82q-99 -95 -244 -95q-128 0 -193.5 75t-48.5 198q18 124 106 200t211 76zM225 313h245q4 35 -7 61.5t-35.5 41t-59.5 14.5q-50 0 -88 -31.5t-55 -85.5z
" />
    <glyph glyph-name="Ebreve" unicode="&#x114;" horiz-adv-x="668" 
d="M536 919h98q-13 -70 -61.5 -112t-116 -42t-104.5 42t-30 112h98q-2 -27 12 -43.5t38 -16.5t42.5 16.5t23.5 43.5zM692 569h-375l-22 -152h338l-19 -131h-338l-22 -155h386l-19 -131h-544l101 700h533z" />
    <glyph glyph-name="ebreve" unicode="&#x115;" horiz-adv-x="597" 
d="M386.5 602q-67.5 0 -104 42t-29.5 112h98q-1 -13 2 -24.5t9.5 -19t16 -12t21.5 -4.5q16 0 30 7.5t23.5 21t13.5 31.5h98q-13 -70 -62 -112t-116.5 -42zM383 543q139 0 194.5 -85.5t23.5 -235.5h-386q6 -51 39 -79.5t84 -28.5q79 0 145 57l69 -82q-99 -95 -244 -95
q-128 0 -193.5 75t-48.5 198q18 124 106 200t211 76zM225 313h245q4 35 -7 61.5t-35.5 41t-59.5 14.5q-50 0 -88 -31.5t-55 -85.5z" />
    <glyph glyph-name="Edotaccent" unicode="&#x116;" horiz-adv-x="668" 
d="M481.5 940q36.5 0 56 -24t14.5 -62t-32 -62t-63.5 -24t-56 24t-14.5 62t32 62t63.5 24zM692 569h-375l-22 -152h338l-19 -131h-338l-22 -155h386l-19 -131h-544l101 700h533z" />
    <glyph glyph-name="edotaccent" unicode="&#x117;" horiz-adv-x="597" 
d="M387.5 605q-36.5 0 -56.5 24t-14.5 62t32 62t63.5 24t56.5 -24t14 -62t-32 -62t-63 -24zM383 543q139 0 194.5 -85.5t23.5 -235.5h-386q6 -51 39 -79.5t84 -28.5q79 0 145 57l69 -82q-99 -95 -244 -95q-128 0 -193.5 75t-48.5 198q18 124 106 200t211 76zM225 313h245
q4 35 -7 61.5t-35.5 41t-59.5 14.5q-50 0 -88 -31.5t-55 -85.5z" />
    <glyph glyph-name="Eogonek" unicode="&#x118;" horiz-adv-x="674" 
d="M699 574h-381l-23 -157h343l-18 -126h-343l-24 -165h392l-18 -126h-70q-55 -65 -60 -96q-2 -12 4.5 -18.5t17.5 -6.5q23 0 49 31l34 -48q-47 -64 -113 -64q-35 0 -57 20t-16 61q7 51 66 121h-405l101 700h539z" />
    <glyph glyph-name="eogonek" unicode="&#x119;" horiz-adv-x="597" 
d="M383 543q136 2 193 -84t26 -237h-387q6 -50 38 -79t85 -29q80 0 145 58l69 -84q-52 -51 -91 -101t-44 -81q-3 -27 22 -27q21 0 48 31l33 -48q-48 -64 -111 -64q-35 0 -57 20t-16 62q9 62 77 140q-52 -26 -108 -26q-126 0 -191 75.5t-47 199.5q17 121 102 196.5t214 77.5z
M369 430q-51 0 -90.5 -32.5t-53.5 -84.5h245q6 52 -22 84.5t-79 32.5z" />
    <glyph glyph-name="Ecaron" unicode="&#x11a;" horiz-adv-x="668" 
d="M289 921h124l48 -92l76 92h124l-140 -160h-138zM692 569h-375l-22 -152h338l-19 -131h-338l-22 -155h386l-19 -131h-544l101 700h533z" />
    <glyph glyph-name="ecaron" unicode="&#x11b;" horiz-adv-x="597" 
d="M313 598l-94 160h124l49 -92l75 92h124l-140 -160h-138zM383 543q139 0 194.5 -85.5t23.5 -235.5h-386q6 -51 39 -79.5t84 -28.5q79 0 145 57l69 -82q-99 -95 -244 -95q-128 0 -193.5 75t-48.5 198q18 124 106 200t211 76zM225 313h245q4 35 -7 61.5t-35.5 41t-59.5 14.5
q-50 0 -88 -31.5t-55 -85.5z" />
    <glyph glyph-name="Gcircumflex" unicode="&#x11c;" horiz-adv-x="745" 
d="M441 773h-113l131 148h128l87 -148h-113l-47 85zM598 353h137l-39 -269q-62 -41 -143.5 -66t-153.5 -25q-105 0 -183.5 46.5t-115.5 128.5t-23 182q15 100 76.5 181t155.5 127.5t202 46.5q51 0 101 -12.5t92 -35.5t73 -54l-105 -113q-17 18 -38 32.5t-44 24.5t-48.5 15.5
t-50.5 5.5q-93 0 -165.5 -63t-86.5 -155q-13 -93 42 -156t148 -63q63 0 142 38z" />
    <glyph glyph-name="gcircumflex" unicode="&#x11d;" horiz-adv-x="645" 
d="M350 610h-113l130 148h128l88 -148h-113l-48 85zM656 538l-71 -488q-16 -114 -104.5 -182t-218.5 -68q-129 0 -224 71l73 108q68 -54 159 -54q66 0 110 32.5t51 87.5l9 61q-67 -78 -173 -78q-105 0 -159.5 71.5t-37.5 188.5q16 114 90 184.5t177 70.5q108 1 155 -78
l11 73h153zM320 145q56 0 96.5 38.5t49.5 100.5q6 41 -5.5 73t-37.5 49.5t-63 17.5q-56 0 -96.5 -39t-50.5 -101q-8 -62 21 -100.5t86 -38.5z" />
    <glyph glyph-name="Gbreve" unicode="&#x11e;" horiz-adv-x="745" 
d="M500.5 765q-67.5 0 -104.5 42t-30 112h98q-2 -27 12 -43.5t38 -16.5t42.5 16.5t23.5 43.5h98q-13 -70 -61.5 -112t-116 -42zM598 353h137l-39 -269q-62 -41 -143.5 -66t-153.5 -25q-105 0 -183.5 46.5t-115.5 128.5t-23 182q15 100 76.5 181t155.5 127.5t202 46.5
q51 0 101 -12.5t92 -35.5t73 -54l-105 -113q-17 18 -38 32.5t-44 24.5t-48.5 15.5t-50.5 5.5q-93 0 -165.5 -63t-86.5 -155q-13 -93 42 -156t148 -63q63 0 142 38z" />
    <glyph glyph-name="gbreve" unicode="&#x11f;" horiz-adv-x="645" 
d="M408.5 602q-67.5 0 -104 42t-29.5 112h98q-1 -13 2 -24.5t9.5 -19t16 -12t21.5 -4.5q24 0 43 16.5t24 43.5h98q-13 -70 -62 -112t-116.5 -42zM656 538l-71 -488q-16 -114 -104.5 -182t-218.5 -68q-129 0 -224 71l73 108q68 -54 159 -54q66 0 110 32.5t51 87.5l9 61
q-67 -78 -173 -78q-105 0 -159.5 71.5t-37.5 188.5q16 114 90 184.5t177 70.5q108 1 155 -78l11 73h153zM320 145q56 0 96.5 38.5t49.5 100.5q6 41 -5.5 73t-37.5 49.5t-63 17.5q-56 0 -96.5 -39t-50.5 -101q-8 -62 21 -100.5t86 -38.5z" />
    <glyph glyph-name="Gdotaccent" unicode="&#x120;" horiz-adv-x="745" 
d="M500.5 768q-36.5 0 -56 24t-14.5 62t32 62t63.5 24t56 -24t14.5 -62t-32 -62t-63.5 -24zM598 353h137l-39 -269q-62 -41 -143.5 -66t-153.5 -25q-105 0 -183.5 46.5t-115.5 128.5t-23 182q15 100 76.5 181t155.5 127.5t202 46.5q51 0 101 -12.5t92 -35.5t73 -54
l-105 -113q-17 18 -38 32.5t-44 24.5t-48.5 15.5t-50.5 5.5q-93 0 -165.5 -63t-86.5 -155q-13 -93 42 -156t148 -63q63 0 142 38z" />
    <glyph glyph-name="gdotaccent" unicode="&#x121;" horiz-adv-x="645" 
d="M409 605q-36 0 -56 24t-14.5 62t32 62t63.5 24t56.5 -24t14.5 -62q-3 -19 -11.5 -34.5t-21 -27t-29 -18t-34.5 -6.5zM656 538l-71 -488q-16 -114 -104.5 -182t-218.5 -68q-129 0 -224 71l73 108q68 -54 159 -54q66 0 110 32.5t51 87.5l9 61q-67 -78 -173 -78
q-105 0 -159.5 71.5t-37.5 188.5q16 114 90 184.5t177 70.5q108 1 155 -78l11 73h153zM320 145q56 0 96.5 38.5t49.5 100.5q6 41 -5.5 73t-37.5 49.5t-63 17.5q-56 0 -96.5 -39t-50.5 -101q-8 -62 21 -100.5t86 -38.5z" />
    <glyph glyph-name="Gcommaaccent" unicode="&#x122;" horiz-adv-x="745" 
d="M598 353h137l-39 -269q-62 -41 -143.5 -66t-153.5 -25q-105 0 -183.5 46.5t-115.5 128.5t-23 182q15 100 76.5 181t155.5 127.5t202 46.5q51 0 101 -12.5t92 -35.5t73 -54l-105 -113q-17 18 -38 32.5t-44 24.5t-48.5 15.5t-50.5 5.5q-93 0 -165.5 -63t-86.5 -155
q-13 -93 42 -156t148 -63q63 0 142 38zM391 -43q31 0 50 -21t14 -56q-5 -32 -30 -63l-82 -101h-75l57 101q-28 22 -22 62q4 34 29.5 56t58.5 22z" />
    <glyph glyph-name="gcommaaccent" unicode="&#x123;" horiz-adv-x="645" 
d="M400 581q-32 0 -50.5 21t-13.5 56q4 32 30 63l81 101h75l-56 -101q28 -22 22 -62q-5 -34 -30 -56t-58 -22zM656 538l-71 -488q-16 -114 -104.5 -182t-218.5 -68q-129 0 -224 71l73 108q68 -54 159 -54q66 0 110 32.5t51 87.5l9 61q-67 -78 -173 -78q-105 0 -159.5 71.5
t-37.5 188.5q16 114 90 184.5t177 70.5q108 1 155 -78l11 73h153zM320 145q56 0 96.5 38.5t49.5 100.5q6 41 -5.5 73t-37.5 49.5t-63 17.5q-56 0 -96.5 -39t-50.5 -101q-8 -62 21 -100.5t86 -38.5z" />
    <glyph glyph-name="Hcircumflex" unicode="&#x124;" horiz-adv-x="787" 
d="M685 773h-113l-47 85l-73 -85h-113l131 148h128zM710 0h-158l40 276h-317l-40 -276h-158l101 700h158l-42 -292h317l42 292h158z" />
    <glyph glyph-name="hcircumflex" unicode="&#x125;" horiz-adv-x="675" 
d="M210 815h-113l131 148h128l87 -148h-113l-47 85zM497 544q91 0 136.5 -56t32.5 -150l-49 -338h-154l42 293q8 51 -16.5 80.5t-73.5 29.5q-38 0 -69 -18.5t-50 -49t-25 -70.5l-38 -265h-154l107 742h154l-43 -299q71 99 200 101z" />
    <glyph glyph-name="Hbar" unicode="&#x126;" horiz-adv-x="862" 
d="M908 513h-87l-74 -513h-158l40 276h-317l-40 -276h-158l74 513h-86l14 96h86l13 91h158l-13 -91h317l13 91h158l-13 -91h87zM663 513h-317l-15 -105h317z" />
    <glyph glyph-name="hbar" unicode="&#x127;" horiz-adv-x="766" 
d="M497 544q91 0 136.5 -56t32.5 -150l-49 -338h-154l42 293q8 51 -16.5 80.5t-73.5 29.5q-38 0 -69 -18.5t-50 -49t-25 -70.5l-38 -265h-154l84 580h-81l12 87h81l11 75h154l-11 -75h126l-12 -87h-126l-20 -137q71 99 200 101z" />
    <glyph glyph-name="Itilde" unicode="&#x128;" horiz-adv-x="313" 
d="M219 936q25 0 46 -12.5t36.5 -25t27.5 -12.5q33 0 39 44h95q-21 -149 -121 -149q-27 0 -47.5 12.5t-35.5 24.5t-27 12q-33 0 -40 -45h-95q22 151 122 151zM235 0h-158l101 700h158z" />
    <glyph glyph-name="itilde" unicode="&#x129;" horiz-adv-x="302" 
d="M190 773q25 0 46 -12.5t36.5 -25t27.5 -12.5q33 0 40 44h95q-22 -149 -122 -149q-26 0 -47 12t-36 24.5t-27 12.5q-33 0 -39 -45h-95q21 151 121 151zM228 0h-154l78 538h154z" />
    <glyph glyph-name="Imacron" unicode="&#x12a;" horiz-adv-x="313" 
d="M407 797h-271l15 108h271zM235 0h-158l101 700h158z" />
    <glyph glyph-name="imacron" unicode="&#x12b;" horiz-adv-x="302" 
d="M378 634h-271l16 108h271zM228 0h-154l78 538h154z" />
    <glyph glyph-name="Ibreve" unicode="&#x12c;" horiz-adv-x="313" 
d="M346 919h98q-13 -70 -61.5 -112t-116 -42t-104.5 42t-30 112h98q-1 -18 4.5 -31.5t17.5 -21t28 -7.5q24 0 42.5 16.5t23.5 43.5zM235 0h-158l101 700h158z" />
    <glyph glyph-name="ibreve" unicode="&#x12d;" horiz-adv-x="302" 
d="M318 756h98q-13 -70 -62 -112t-116.5 -42t-104 42t-29.5 112h98q-1 -13 2 -24.5t9.5 -19t16 -12t21.5 -4.5q24 0 43 16.5t24 43.5zM228 0h-154l78 538h154z" />
    <glyph glyph-name="Iogonek" unicode="&#x12e;" horiz-adv-x="313" 
d="M213 -90l34 -48q-47 -64 -113 -64q-35 0 -57 20t-16 61q7 51 66 121h-50l101 700h158l-101 -700h-33q-54 -63 -59 -96q-2 -12 3.5 -18.5t16.5 -6.5q23 0 50 31z" />
    <glyph glyph-name="iogonek" unicode="&#x12f;" horiz-adv-x="283" 
d="M254 777q37 0 57 -24t15 -62q-6 -38 -33 -62t-64 -24q-36 0 -56 24.5t-14 61.5q5 38 32 62t63 24zM219 0h-35q-54 -63 -59 -96q-1 -8 1.5 -13.5t7.5 -8.5t12 -3q23 0 49 31l34 -48q-47 -64 -113 -64q-35 0 -57 20t-16 61q7 51 66 121h-43l78 538h153z" />
    <glyph glyph-name="Idotaccent" unicode="&#x130;" horiz-adv-x="313" 
d="M291 940q37 0 56.5 -24t14.5 -62q-4 -25 -17 -44.5t-33.5 -30.5t-44.5 -11q-37 0 -56.5 24t-14.5 62q4 25 17 44.5t33.5 30.5t44.5 11zM235 0h-158l101 700h158z" />
    <glyph glyph-name="dotlessi" unicode="&#x131;" horiz-adv-x="302" 
d="M228 0h-154l78 538h154z" />
    <glyph glyph-name="IJ" unicode="&#x132;" horiz-adv-x="836" 
d="M235 0h-158l101 700h158zM874 700l-69 -476q-15 -109 -86.5 -170t-181.5 -61q-136 0 -213 109l89 112q30 -38 66.5 -58t70.5 -20q26 0 46 10.5t33.5 31t17.5 50.5l49 338h-241l19 134h400z" />
    <glyph glyph-name="ij" unicode="&#x133;" horiz-adv-x="610" 
d="M263 777q37 0 56.5 -24t14 -62t-32 -62t-63 -24t-56.5 24t-14.5 62t32 62t63.5 24zM566 777q40 0 61 -24t16 -62q-6 -38 -34 -62t-68 -24q-38 0 -60 24.5t-16 61.5q5 38 33.5 62t67.5 24zM228 0h-154l78 538h154zM609 538l-80 -554q-13 -88 -74 -136.5t-141 -48.5
q-72 0 -122 36l59 113q29 -21 59 -21q27 0 44.5 15.5t22.5 47.5l79 548h153z" />
    <glyph glyph-name="Jcircumflex" unicode="&#x134;" horiz-adv-x="524" 
d="M541 773h-113l-47 85l-73 -85h-113l131 148h128zM561 700l-69 -476q-15 -109 -86.5 -170t-181.5 -61q-136 0 -213 109l89 112q30 -38 66.5 -58t70.5 -20q39 0 64.5 24t32.5 68l49 338h-241l19 134h400z" />
    <glyph glyph-name="jcircumflex" unicode="&#x135;" horiz-adv-x="297" 
d="M408 610h-113l-48 85l-72 -85h-113l130 148h128zM307 538l-81 -559q-12 -85 -67.5 -132.5t-140.5 -46.5q-79 2 -132 35l52 110q29 -18 64 -20q63 -2 74 77l78 536h153z" />
    <glyph glyph-name="Kcommaaccent" unicode="&#x136;" horiz-adv-x="737" 
d="M727 0h-190l-160 285l-117 -112l-25 -173h-158l101 700h158l-46 -318l337 318h183l-305 -292zM360 -43q31 0 50 -21t14 -56q-5 -32 -30 -63l-82 -101h-75l57 101q-28 22 -22 62q1 13 6.5 25t14 21.5t19 16.5t23 11t25.5 4z" />
    <glyph glyph-name="kcommaaccent" unicode="&#x137;" horiz-adv-x="619" 
d="M192 0l-32 -49q29 -7 45 -28.5t12 -49.5q-4 -31 -22.5 -54t-48 -36t-65.5 -13q-48 0 -86 29l39 67q18 -19 45 -19q22 0 36.5 11.5t16.5 30.5q2 12 -2.5 21t-14.5 13.5t-23 4.5q-19 0 -35 -3l48 75h-26l107 742h154l-59 -408l226 203h175l-226 -207l158 -330h-182l-98 219
l-80 -73l-21 -146h-41z" />
    <glyph glyph-name="kgreenlandic" unicode="&#x138;" horiz-adv-x="613" 
d="M328 220l-79 -72l-21 -148h-154l78 538h154l-30 -202l226 202h175l-228 -207l159 -331h-182z" />
    <glyph glyph-name="Lacute" unicode="&#x139;" horiz-adv-x="552" 
d="M450 874l-143 -109h-122l130 163zM255 138h300l-20 -138h-458l101 700h158z" />
    <glyph glyph-name="lacute" unicode="&#x13a;" horiz-adv-x="313" 
d="M458 916l-143 -109h-122l130 163zM233 0h-154l107 742h154z" />
    <glyph glyph-name="Lcommaaccent" unicode="&#x13b;" horiz-adv-x="552" 
d="M555 138l-20 -138h-458l101 700h158l-81 -562h300zM291 -43q31 0 50 -21t14 -56q-5 -32 -30 -63l-82 -101h-75l57 101q-28 22 -22 62q3 22 15.5 40t31.5 28t41 10z" />
    <glyph glyph-name="lcommaaccent" unicode="&#x13c;" horiz-adv-x="313" 
d="M233 0h-154l107 742h154zM157 -43q31 0 50 -21t14 -56q-5 -32 -30 -63l-82 -101h-75l57 101q-28 22 -22 62q4 34 29.5 56t58.5 22z" />
    <glyph glyph-name="Lcaron" unicode="&#x13d;" horiz-adv-x="552" 
d="M555 138l-20 -138h-458l101 700h158l-81 -562h300zM421 428l56 101q-28 22 -22 62q5 34 30 56t58 22q32 0 50.5 -21t13.5 -57q-5 -33 -30 -62l-81 -101h-75z" />
    <glyph glyph-name="lcaron" unicode="&#x13e;" horiz-adv-x="379" 
d="M186 742h154l-107 -742h-154zM447 679q31 0 50 -21t14 -57q-5 -33 -30 -62l-82 -101h-75l57 101q-28 22 -22 62q5 34 30 56t58 22z" />
    <glyph glyph-name="Ldot" unicode="&#x13f;" horiz-adv-x="552" 
d="M255 138h300l-20 -138h-458l101 700h158zM487 553q32 0 49.5 -21.5t13 -55.5t-28.5 -55.5t-57 -21.5q-32 0 -50 21.5t-13.5 55.5t29 55.5t57.5 21.5z" />
    <glyph glyph-name="ldot" unicode="&#x140;" horiz-adv-x="375" 
d="M233 0h-154l107 742h154zM392 390q33 0 51.5 -22.5t13.5 -56.5t-29.5 -56t-57.5 -22q-34 0 -52 22t-13 56q5 35 29.5 57t57.5 22z" />
    <glyph glyph-name="Lslash" unicode="&#x141;" horiz-adv-x="570" 
d="M573 138l-20 -138h-457l49 342l-79 -22l-13 97l107 30l37 253h158l-30 -207l155 44l12 -98l-182 -51l-36 -250h299z" />
    <glyph glyph-name="lslash" unicode="&#x142;" horiz-adv-x="363" 
d="M327 406l-59 -406h-154l52 362l-106 -30l-13 97l134 38l40 275h154l-33 -229l90 25l11 -99z" />
    <glyph glyph-name="Nacute" unicode="&#x143;" horiz-adv-x="788" 
d="M689 874l-143 -109h-122l130 163zM711 0h-144l-274 449l-65 -449h-151l101 700h144l275 -450l65 450h150z" />
    <glyph glyph-name="nacute" unicode="&#x144;" horiz-adv-x="670" 
d="M480 602h-122l129 163l135 -54zM492 544q90 0 135.5 -56t32.5 -150l-49 -338h-154l42 293q8 51 -16.5 80.5t-73.5 29.5q-57 -1 -95.5 -39.5t-47.5 -98.5l-38 -265h-154l78 538h154l-14 -94q70 98 200 100z" />
    <glyph glyph-name="Ncommaaccent" unicode="&#x145;" horiz-adv-x="788" 
d="M812 700l-101 -700h-144l-274 449l-65 -449h-151l101 700h144l275 -450l65 450h150zM395 -43q31 0 50 -21t14 -56q-5 -32 -30 -63l-82 -101h-75l57 101q-28 22 -22 62q4 34 29.5 56t58.5 22z" />
    <glyph glyph-name="ncommaaccent" unicode="&#x146;" horiz-adv-x="670" 
d="M492 544q90 0 135.5 -56t32.5 -150l-49 -338h-154l42 293q8 51 -16.5 80.5t-73.5 29.5q-57 -1 -95.5 -39.5t-47.5 -98.5l-38 -265h-154l78 538h154l-14 -94q70 98 200 100zM340 -43q31 0 50 -21t14 -56q-5 -32 -30 -63l-82 -101h-75l57 101q-28 22 -22 62q4 34 29.5 56
t58.5 22z" />
    <glyph glyph-name="Ncaron" unicode="&#x147;" horiz-adv-x="788" 
d="M337 921h124l48 -92l76 92h124l-140 -160h-138zM711 0h-144l-274 449l-65 -449h-151l101 700h144l275 -450l65 450h150z" />
    <glyph glyph-name="ncaron" unicode="&#x148;" horiz-adv-x="670" 
d="M364 598l-94 160h124l49 -92l75 92h124l-140 -160h-138zM492 544q90 0 135.5 -56t32.5 -150l-49 -338h-154l42 293q8 51 -16.5 80.5t-73.5 29.5q-57 -1 -95.5 -39.5t-47.5 -98.5l-38 -265h-154l78 538h154l-14 -94q70 98 200 100z" />
    <glyph glyph-name="Eng" unicode="&#x14a;" horiz-adv-x="788" 
d="M711 0h-1q-16 -98 -87.5 -155t-177.5 -57q-109 0 -176 64l79 122q58 -43 117 -43q37 0 62 20t34 58l-268 440l-65 -449h-151l101 700h144l275 -450l65 450h150z" />
    <glyph glyph-name="eng" unicode="&#x14b;" horiz-adv-x="670" 
d="M492 544q90 0 135.5 -56t32.5 -150l-52 -356q-12 -86 -73 -134.5t-142 -48.5q-72 0 -122 36l59 113q30 -21 60 -21q26 0 43.5 15.5t22.5 47.5l43 303q8 51 -16.5 80.5t-73.5 29.5q-57 -1 -95.5 -39.5t-47.5 -98.5l-38 -265h-154l78 538h154l-14 -94q70 98 200 100z" />
    <glyph glyph-name="Omacron" unicode="&#x14c;" horiz-adv-x="806" 
d="M647 797h-271l15 108h271zM504.5 705q105.5 0 185 -46t117 -127.5t22.5 -181.5q-14 -100 -75 -181.5t-154 -128.5t-198 -47t-185 46.5t-117 128.5t-23 182q15 100 76 181.5t153.5 127.5t198 46zM487 567q-59 0 -112.5 -28.5t-90 -78.5t-45.5 -110q-13 -92 41.5 -155.5
t143.5 -63.5q88 0 159 63.5t84.5 155.5t-39.5 154.5t-141 62.5z" />
    <glyph glyph-name="omacron" unicode="&#x14d;" horiz-adv-x="633" 
d="M544 634h-271l16 108h271zM395 543q130 0 198.5 -75t50.5 -199q-18 -123 -108.5 -199t-219.5 -76t-198 76t-51 199q18 124 108 199t220 75zM377 415q-60 0 -103 -41t-52.5 -107t21.5 -107t91 -41t103 41t52 107q7 43 -5 77t-40 52.5t-67 18.5z" />
    <glyph glyph-name="Obreve" unicode="&#x14e;" horiz-adv-x="806" 
d="M586 919h98q-13 -70 -61.5 -112t-116 -42t-104.5 42t-30 112h98q-2 -27 12 -43.5t38 -16.5t42.5 16.5t23.5 43.5zM504.5 705q105.5 0 185 -46t117 -127.5t22.5 -181.5q-14 -100 -75 -181.5t-154 -128.5t-198 -47t-185 46.5t-117 128.5t-23 182q15 100 76 181.5
t153.5 127.5t198 46zM487 567q-59 0 -112.5 -28.5t-90 -78.5t-45.5 -110q-13 -92 41.5 -155.5t143.5 -63.5q88 0 159 63.5t84.5 155.5t-39.5 154.5t-141 62.5z" />
    <glyph glyph-name="obreve" unicode="&#x14f;" horiz-adv-x="633" 
d="M484 756h98q-13 -70 -62 -112t-116.5 -42t-104 42t-29.5 112h98q-1 -13 2 -24.5t9.5 -19t16 -12t21.5 -4.5q24 0 43 16.5t24 43.5zM395 543q130 0 198.5 -75t50.5 -199q-18 -123 -108.5 -199t-219.5 -76t-198 76t-51 199q18 124 108 199t220 75zM377 415q-60 0 -103 -41
t-52.5 -107t21.5 -107t91 -41t103 41t52 107q7 43 -5 77t-40 52.5t-67 18.5z" />
    <glyph glyph-name="Ohungarumlaut" unicode="&#x150;" horiz-adv-x="806" 
d="M563 883l-108 -120h-114l109 167zM748 883l-108 -120h-114l108 167zM504.5 705q105.5 0 185 -46t117 -127.5t22.5 -181.5q-14 -100 -75 -181.5t-154 -128.5t-198 -47t-185 46.5t-117 128.5t-23 182q15 100 76 181.5t153.5 127.5t198 46zM487 567q-59 0 -112.5 -28.5
t-90 -78.5t-45.5 -110q-13 -92 41.5 -155.5t143.5 -63.5q88 0 159 63.5t84.5 155.5t-39.5 154.5t-141 62.5z" />
    <glyph glyph-name="ohungarumlaut" unicode="&#x151;" horiz-adv-x="633" 
d="M460 720l-109 -120h-114l110 167zM645 720l-109 -120h-114l109 167zM395 543q130 0 198.5 -75t50.5 -199q-18 -123 -108.5 -199t-219.5 -76t-198 76t-51 199q18 124 108 199t220 75zM377 415q-60 0 -103 -41t-52.5 -107t21.5 -107t91 -41t103 41t52 107q7 43 -5 77
t-40 52.5t-67 18.5z" />
    <glyph glyph-name="OE" unicode="&#x152;" horiz-adv-x="1108" 
d="M1080 132l-19 -132h-659q-105 0 -184 45.5t-117 126t-24 178.5q15 98 75 178t153 126t198 46h648l-19 -131h-375l-22 -152h337l-19 -131h-337l-22 -154h386zM536 135l62 429h-114q-91 0 -161 -61.5t-83.5 -153.5t39 -153.5t143.5 -61.5z" />
    <glyph glyph-name="oe" unicode="&#x153;" horiz-adv-x="1026" 
d="M801 543q132 0 194.5 -84.5t36.5 -224.5h-401q2 -57 35.5 -88.5t89.5 -31.5q80 0 147 57l69 -82q-101 -95 -246 -95q-137 0 -189 99q-84 -99 -221 -99q-129 0 -198 76t-51 199q18 124 108 199t220 75q138 0 194 -99q81 99 212 99zM641 312h249q7 53 -21.5 87.5
t-80.5 34.5q-51 0 -90.5 -33.5t-56.5 -88.5zM334 119q60 0 103 41t52 107q7 43 -5 77t-40 52.5t-67 18.5q-60 0 -103 -41t-52.5 -107t21.5 -107t91 -41z" />
    <glyph glyph-name="Racute" unicode="&#x154;" horiz-adv-x="724" 
d="M513 765h-122l130 163l135 -54zM507 0l-82 200h-15h-146l-29 -200h-158l101 700h304q137 0 203 -63.5t49 -179.5q-12 -81 -53.5 -138.5t-110.5 -87.5l116 -231h-179zM283 332h146q66 0 106 30.5t48 89.5q8 58 -23 87.5t-97 29.5h-146z" />
    <glyph glyph-name="racute" unicode="&#x155;" horiz-adv-x="416" 
d="M347 602h-122l129 163l135 -54zM306 538l-14 -97q71 101 192 103l-21 -145q-80 7 -134 -32t-64 -108l-37 -259h-154l78 538h154z" />
    <glyph glyph-name="Rcommaaccent" unicode="&#x156;" horiz-adv-x="724" 
d="M686 0h-179l-82 200h-15h-146l-29 -200h-158l101 700h304q137 0 203 -63.5t49 -179.5q-12 -81 -53.5 -138.5t-110.5 -87.5zM283 332h146q66 0 106 30.5t48 89.5q8 58 -23 87.5t-97 29.5h-146zM360 -43q31 0 50 -21t14 -56q-5 -32 -30 -63l-82 -101h-75l57 101
q-28 22 -22 62q1 13 6.5 25t14 21.5t19 16.5t23 11t25.5 4z" />
    <glyph glyph-name="rcommaaccent" unicode="&#x157;" horiz-adv-x="416" 
d="M306 538l-14 -97q71 101 192 103l-21 -145q-80 7 -134 -32t-64 -108l-37 -259h-154l78 538h154zM148 -43q31 0 50 -21t14 -56q-5 -32 -30 -63l-82 -101h-75l57 101q-28 22 -22 62q4 34 29.5 56t58.5 22z" />
    <glyph glyph-name="Rcaron" unicode="&#x158;" horiz-adv-x="724" 
d="M398 761l-94 160h124l48 -92l76 92h124l-140 -160h-138zM507 0l-82 200h-15h-146l-29 -200h-158l101 700h304q137 0 203 -63.5t49 -179.5q-12 -81 -53.5 -138.5t-110.5 -87.5l116 -231h-179zM283 332h146q66 0 106 30.5t48 89.5q8 58 -23 87.5t-97 29.5h-146z" />
    <glyph glyph-name="rcaron" unicode="&#x159;" horiz-adv-x="416" 
d="M231 598l-94 160h124l49 -92l75 92h124l-140 -160h-138zM306 538l-14 -97q71 101 192 103l-21 -145q-80 7 -134 -32t-64 -108l-37 -259h-154l78 538h154z" />
    <glyph glyph-name="Sacute" unicode="&#x15a;" horiz-adv-x="637" 
d="M628 874l-143 -109h-122l130 163zM435 707q72 0 139 -20.5t116 -55.5l-80 -131q-50 33 -107.5 52.5t-100.5 19.5q-41 0 -67 -14.5t-30 -42.5q-4 -26 14 -44t49.5 -29.5t69.5 -22.5t75.5 -26.5t67 -37t44.5 -60t8 -89.5q-15 -100 -99.5 -155.5t-205.5 -55.5
q-85 0 -162.5 30t-130.5 81l82 129q46 -47 111 -76t122 -29q32 0 56.5 7.5t39 23t17.5 36.5q4 27 -14 45.5t-49 29.5t-69.5 21.5t-76 25t-67.5 35.5t-45 58.5t-8 87.5q14 95 96.5 151t204.5 56z" />
    <glyph glyph-name="sacute" unicode="&#x15b;" horiz-adv-x="499" 
d="M529 711l-142 -109h-122l129 163zM335 545q115 0 201 -60l-68 -105q-86 52 -157 52q-62 0 -68 -40q-2 -16 12 -28t38 -20t53 -16.5t57.5 -21t51 -29.5t33.5 -46.5t5 -68.5q-11 -80 -79 -124t-164 -44q-66 0 -124 19.5t-98 55.5l65 104q37 -32 84.5 -49.5t92.5 -17.5
q31 0 51 10.5t23 31.5q3 17 -10.5 29.5t-37 20.5t-52 16.5t-56.5 20.5t-50.5 29t-33.5 46t-6 67q12 80 78 124t159 44z" />
    <glyph glyph-name="Scircumflex" unicode="&#x15c;" horiz-adv-x="637" 
d="M617 773h-113l-47 85l-73 -85h-113l131 148h128zM435 707q72 0 139 -20.5t116 -55.5l-80 -131q-50 33 -107.5 52.5t-100.5 19.5q-41 0 -67 -14.5t-30 -42.5q-4 -26 14 -44t49.5 -29.5t69.5 -22.5t75.5 -26.5t67 -37t44.5 -60t8 -89.5q-15 -100 -99.5 -155.5t-205.5 -55.5
q-85 0 -162.5 30t-130.5 81l82 129q46 -47 111 -76t122 -29q32 0 56.5 7.5t39 23t17.5 36.5q4 27 -14 45.5t-49 29.5t-69.5 21.5t-76 25t-67.5 35.5t-45 58.5t-8 87.5q14 95 96.5 151t204.5 56z" />
    <glyph glyph-name="scircumflex" unicode="&#x15d;" horiz-adv-x="499" 
d="M519 610h-113l-48 85l-72 -85h-113l130 148h128zM335 545q115 0 201 -60l-68 -105q-86 52 -157 52q-62 0 -68 -40q-2 -16 12 -28t38 -20t53 -16.5t57.5 -21t51 -29.5t33.5 -46.5t5 -68.5q-11 -80 -79 -124t-164 -44q-66 0 -124 19.5t-98 55.5l65 104q37 -32 84.5 -49.5
t92.5 -17.5q31 0 51 10.5t23 31.5q3 17 -10.5 29.5t-37 20.5t-52 16.5t-56.5 20.5t-50.5 29t-33.5 46t-6 67q12 80 78 124t159 44z" />
    <glyph glyph-name="Scedilla" unicode="&#x15e;" horiz-adv-x="637" 
d="M305 515q-4 -26 14 -44t49.5 -29.5t69.5 -22.5t75.5 -26.5t67 -37t44.5 -60t8 -89.5q-13 -87 -80 -141t-166 -66l-31 -49q30 -8 45 -29.5t11 -51.5q-7 -46 -43.5 -73.5t-88.5 -27.5q-50 0 -89 30l39 67q20 -20 49 -20q13 0 23.5 5.5t17 14t7.5 18.5q2 16 -8.5 26
t-32.5 10q-12 0 -36 -4l49 81q-77 5 -146.5 34.5t-117.5 75.5l82 129q46 -47 111 -76t122 -29q32 0 56.5 7.5t39 23t17.5 36.5q4 27 -14 45.5t-49 29.5t-69.5 21.5t-76 25t-67.5 35.5t-45 58.5t-8 87.5q14 95 96.5 151t204.5 56q72 0 139 -20.5t116 -55.5l-80 -131
q-50 33 -107.5 52.5t-100.5 19.5q-41 0 -67 -14.5t-30 -42.5z" />
    <glyph glyph-name="scedilla" unicode="&#x15f;" horiz-adv-x="499" 
d="M243 392q-2 -16 12 -28t38 -20t53 -16.5t57.5 -21t51 -29.5t33.5 -46.5t5 -68.5q-9 -67 -59 -109t-125 -54l-31 -49q30 -8 45 -29.5t11 -51.5q-7 -46 -43.5 -73.5t-88.5 -27.5q-50 0 -89 30l39 67q20 -20 49 -20q19 0 32.5 11t15.5 27t-8.5 26t-32.5 10q-12 0 -36 -4
l48 80q-119 8 -192 74l65 104q37 -32 84.5 -49.5t92.5 -17.5q31 0 51 10.5t23 31.5q3 17 -10.5 29.5t-37 20.5t-52 16.5t-56.5 20.5t-50.5 29t-33.5 46t-6 67q12 80 78 124t159 44q115 0 201 -60l-68 -105q-86 52 -157 52q-62 0 -68 -40z" />
    <glyph glyph-name="Scaron" unicode="&#x160;" horiz-adv-x="637" 
d="M276 921h124l48 -92l76 92h124l-140 -160h-138zM435 707q72 0 139 -20.5t116 -55.5l-80 -131q-50 33 -107.5 52.5t-100.5 19.5q-41 0 -67 -14.5t-30 -42.5q-4 -26 14 -44t49.5 -29.5t69.5 -22.5t75.5 -26.5t67 -37t44.5 -60t8 -89.5q-15 -100 -99.5 -155.5t-205.5 -55.5
q-85 0 -162.5 30t-130.5 81l82 129q46 -47 111 -76t122 -29q32 0 56.5 7.5t39 23t17.5 36.5q4 27 -14 45.5t-49 29.5t-69.5 21.5t-76 25t-67.5 35.5t-45 58.5t-8 87.5q14 95 96.5 151t204.5 56z" />
    <glyph glyph-name="scaron" unicode="&#x161;" horiz-adv-x="499" 
d="M177 758h124l49 -92l75 92h124l-140 -160h-138zM335 545q115 0 201 -60l-68 -105q-86 52 -157 52q-62 0 -68 -40q-2 -16 12 -28t38 -20t53 -16.5t57.5 -21t51 -29.5t33.5 -46.5t5 -68.5q-11 -80 -79 -124t-164 -44q-66 0 -124 19.5t-98 55.5l65 104q37 -32 84.5 -49.5
t92.5 -17.5q31 0 51 10.5t23 31.5q3 17 -10.5 29.5t-37 20.5t-52 16.5t-56.5 20.5t-50.5 29t-33.5 46t-6 67q12 80 78 124t159 44z" />
    <glyph glyph-name="Tcedilla" unicode="&#x162;" horiz-adv-x="601" 
d="M350 0l-32 -50q30 -8 45 -29.5t11 -51.5q-7 -46 -43.5 -73.5t-88.5 -27.5q-50 0 -89 30l39 67q20 -20 49 -20q13 0 23.5 5.5t17 14t7.5 18.5q2 16 -8.5 26t-32.5 10q-12 0 -36 -4l51 85h-42l82 566h-213l19 134h585l-19 -134h-214l-82 -566h-29z" />
    <glyph glyph-name="tcedilla" unicode="&#x163;" horiz-adv-x="426" 
d="M315 -3l-31 -47q30 -8 45 -29.5t11 -51.5q-7 -46 -43.5 -73.5t-88.5 -27.5q-50 0 -89 30l39 67q20 -20 49 -20q19 0 32.5 11t15.5 27t-8.5 26t-32.5 10q-12 0 -36 -4l49 81q-57 11 -86.5 52.5t-19.5 110.5l36 249h-75l15 106h75l21 148h153l-21 -148h146l-15 -107h-146
l-32 -222q-10 -64 43 -62q29 0 75 20l15 -113q-43 -23 -96 -33z" />
    <glyph glyph-name="Tcaron" unicode="&#x164;" horiz-adv-x="601" 
d="M254 921h124l48 -92l76 92h124l-140 -160h-138zM675 566h-214l-82 -566h-158l82 566h-213l19 134h585z" />
    <glyph glyph-name="tcaron" unicode="&#x165;" horiz-adv-x="413" 
d="M503 822q32 0 50.5 -21t13.5 -57q-5 -33 -30 -62l-81 -101h-75l56 101q-28 22 -22 62q3 23 16 40.5t32 27.5t40 10zM321 123q29 0 75 20l15 -113q-69 -37 -145 -37q-75 0 -116 43t-29 123l36 249h-75l15 106h75l21 148h153l-21 -148h146l-15 -107h-146l-32 -222
q-10 -64 43 -62z" />
    <glyph glyph-name="Tbar" unicode="&#x166;" horiz-adv-x="601" 
d="M562 797h-271l15 108h271zM675 566h-214l-82 -566h-158l82 566h-213l19 134h585z" />
    <glyph glyph-name="tbar" unicode="&#x167;" horiz-adv-x="426" 
d="M396 143l15 -113q-69 -37 -145 -37q-75 0 -116 43t-29 123l12 84h-75l14 96h75l11 79h-75l14 96h75l21 148h153l-21 -148h146l-14 -96h-146l-11 -79h146l-14 -96h-146l-8 -58q-10 -64 43 -62q29 0 75 20z" />
    <glyph glyph-name="Utilde" unicode="&#x168;" horiz-adv-x="760" 
d="M443 936q25 0 46 -12.5t36.5 -25t27.5 -12.5q33 0 39 44h95q-21 -149 -121 -149q-27 0 -47.5 12.5t-35.5 24.5t-27 12q-33 0 -40 -45h-95q22 151 122 151zM797 700l-59 -407q-20 -139 -116 -219.5t-241 -80.5q-146 0 -220.5 81t-54.5 219l59 407h158l-59 -407
q-5 -37 2.5 -67.5t25.5 -51.5t46 -32t63 -11q71 0 119.5 43.5t59.5 118.5l59 407h158z" />
    <glyph glyph-name="utilde" unicode="&#x169;" horiz-adv-x="660" 
d="M377 667q-33 0 -39 -45h-95q21 151 121 151q25 0 46 -12.5t36.5 -25t27.5 -12.5q33 0 40 44h95q-22 -149 -122 -149q-26 0 -47 12t-36 24.5t-27 12.5zM663 538l-78 -538h-153l14 95q-70 -101 -195 -101q-89 0 -133.5 55.5t-30.5 150.5l49 338h154l-43 -294
q-5 -34 4 -58.5t30 -37.5t51 -13q55 1 93 39t46 98l39 266h153z" />
    <glyph glyph-name="Umacron" unicode="&#x16a;" horiz-adv-x="760" 
d="M631 797h-271l15 108h271zM797 700l-59 -407q-20 -139 -116 -219.5t-241 -80.5q-146 0 -220.5 81t-54.5 219l59 407h158l-59 -407q-5 -37 2.5 -67.5t25.5 -51.5t46 -32t63 -11q71 0 119.5 43.5t59.5 118.5l59 407h158z" />
    <glyph glyph-name="umacron" unicode="&#x16b;" horiz-adv-x="660" 
d="M552 634h-271l16 108h271zM663 538l-78 -538h-153l14 95q-70 -101 -195 -101q-89 0 -133.5 55.5t-30.5 150.5l49 338h154l-43 -294q-5 -34 4 -58.5t30 -37.5t51 -13q55 1 93 39t46 98l39 266h153z" />
    <glyph glyph-name="Ubreve" unicode="&#x16c;" horiz-adv-x="760" 
d="M570 919h98q-13 -70 -61.5 -112t-116 -42t-104.5 42t-30 112h98q-2 -27 12 -43.5t38 -16.5t42.5 16.5t23.5 43.5zM797 700l-59 -407q-20 -139 -116 -219.5t-241 -80.5q-146 0 -220.5 81t-54.5 219l59 407h158l-59 -407q-5 -37 2.5 -67.5t25.5 -51.5t46 -32t63 -11
q71 0 119.5 43.5t59.5 118.5l59 407h158z" />
    <glyph glyph-name="ubreve" unicode="&#x16d;" horiz-adv-x="660" 
d="M411.5 602q-67.5 0 -104 42t-29.5 112h98q-1 -13 2 -24.5t9.5 -19t16 -12t21.5 -4.5q24 0 43 16.5t24 43.5h98q-13 -70 -62 -112t-116.5 -42zM663 538l-78 -538h-153l14 95q-70 -101 -195 -101q-89 0 -133.5 55.5t-30.5 150.5l49 338h154l-43 -294q-5 -34 4 -58.5
t30 -37.5t51 -13q55 1 93 39t46 98l39 266h153z" />
    <glyph glyph-name="Uring" unicode="&#x16e;" horiz-adv-x="760" 
d="M520.5 974q49.5 0 79.5 -35t23 -84q-4 -32 -24.5 -59.5t-50 -43.5t-62.5 -16q-50 0 -80 35t-23 84t47.5 84t90 35zM511 909q-16 0 -30 -7t-23.5 -19.5t-11.5 -27.5q-3 -23 11 -39t38 -16t43.5 16t22.5 39q3 22 -11.5 38t-38.5 16zM797 700l-59 -407q-20 -139 -116 -219.5
t-241 -80.5q-146 0 -220.5 81t-54.5 219l59 407h158l-59 -407q-5 -37 2.5 -67.5t25.5 -51.5t46 -32t63 -11q71 0 119.5 43.5t59.5 118.5l59 407h158z" />
    <glyph glyph-name="uring" unicode="&#x16f;" horiz-adv-x="660" 
d="M408 573q-33 0 -58.5 16t-37.5 43.5t-7 59.5q7 49 47 84t89.5 35t80 -35t23.5 -84t-47.5 -84t-89.5 -35zM433 746q-24 0 -43 -15.5t-22 -38.5q-4 -23 10.5 -39t38.5 -16q16 0 30 7t24 20t12 28q3 22 -11.5 38t-38.5 16zM663 538l-78 -538h-153l14 95q-70 -101 -195 -101
q-89 0 -133.5 55.5t-30.5 150.5l49 338h154l-43 -294q-5 -34 4 -58.5t30 -37.5t51 -13q55 1 93 39t46 98l39 266h153z" />
    <glyph glyph-name="Uhungarumlaut" unicode="&#x170;" horiz-adv-x="760" 
d="M547 883l-108 -120h-114l109 167zM732 883l-108 -120h-114l108 167zM797 700l-59 -407q-20 -139 -116 -219.5t-241 -80.5q-146 0 -220.5 81t-54.5 219l59 407h158l-59 -407q-5 -37 2.5 -67.5t25.5 -51.5t46 -32t63 -11q71 0 119.5 43.5t59.5 118.5l59 407h158z" />
    <glyph glyph-name="uhungarumlaut" unicode="&#x171;" horiz-adv-x="660" 
d="M360 600h-114l110 167l113 -47zM431 600l109 167l114 -47l-109 -120h-114zM663 538l-78 -538h-153l14 95q-70 -101 -195 -101q-89 0 -133.5 55.5t-30.5 150.5l49 338h154l-43 -294q-5 -34 4 -58.5t30 -37.5t51 -13q55 1 93 39t46 98l39 266h153z" />
    <glyph glyph-name="Uogonek" unicode="&#x172;" horiz-adv-x="761" 
d="M797 700l-59 -407q-7 -54 -27.5 -100t-51 -82t-71 -62t-89.5 -40q-61 -73 -66 -105q-2 -12 4 -18.5t17 -6.5q22 0 49 31l34 -48q-47 -64 -113 -64q-35 0 -57 20t-16 61q7 50 60 115q-10 -1 -30 -1q-146 0 -220 81t-54 219l59 407h157l-59 -407q-10 -74 28 -118t110 -44
q71 0 119 43.5t59 118.5l59 407h158z" />
    <glyph glyph-name="uogonek" unicode="&#x173;" horiz-adv-x="656" 
d="M588 0h-36q-55 -60 -60 -96q-2 -12 4 -18.5t17 -6.5q22 0 49 31l34 -48q-47 -64 -113 -64q-35 0 -57 20t-16 61q7 51 66 121h-41l13 92q-69 -98 -196 -98q-89 0 -133.5 55.5t-30.5 150.5l49 338h153l-43 -294q-5 -34 4 -58.5t31 -37.5t53 -13q52 1 89 35.5t48 88.5
l41 279h153z" />
    <glyph glyph-name="Wcircumflex" unicode="&#x174;" horiz-adv-x="1066" 
d="M801 773h-113l-47 85l-73 -85h-113l131 148h128zM842 0h-163l-69 499l-216 -499h-163l-130 700h170l71 -528l222 528h155l72 -528l222 528h162z" />
    <glyph glyph-name="wcircumflex" unicode="&#x175;" horiz-adv-x="923" 
d="M723 610h-113l-48 85l-72 -85h-113l130 148h128zM733 0h-154l-65 355l-166 -355h-154l-120 537l158 1l64 -385l172 385h151l62 -385l174 385h152z" />
    <glyph glyph-name="Ycircumflex" unicode="&#x176;" horiz-adv-x="666" 
d="M384 773h-113l131 148h128l87 -148h-113l-47 85zM447 226l-33 -226h-158l32 222l-190 478h159l134 -314l220 314h159z" />
    <glyph glyph-name="ycircumflex" unicode="&#x177;" horiz-adv-x="564" 
d="M544 610h-113l-48 85l-72 -85h-113l130 148h128zM649 538l-323 -598q-76 -141 -217 -141q-82 0 -138 52l81 111q30 -29 65 -29q49 0 78 48l20 30l-147 527h159l87 -370l181 370h154z" />
    <glyph glyph-name="Ydieresis" unicode="&#x178;" horiz-adv-x="666" 
d="M351.5 783q-31.5 0 -48.5 21t-13 53q5 33 28.5 54t55 21t49 -21t12.5 -54q-4 -32 -28 -53t-55.5 -21zM539.5 783q-31.5 0 -48.5 21t-13 53q5 33 28.5 54t55 21t49 -21t12.5 -54q-4 -32 -28 -53t-55.5 -21zM447 226l-33 -226h-158l32 222l-190 478h159l134 -314l220 314
h159z" />
    <glyph glyph-name="Zacute" unicode="&#x179;" horiz-adv-x="672" 
d="M644 874l-143 -109h-122l130 163zM721 594l-458 -462h397l-20 -132h-609l15 107l459 461h-379l19 132h591z" />
    <glyph glyph-name="zacute" unicode="&#x17a;" horiz-adv-x="548" 
d="M545 711l-142 -109h-122l129 163zM570 440l-323 -319h286l-17 -122l-478 1l14 97l323 319l-267 1l17 120h459z" />
    <glyph glyph-name="Zdotaccent" unicode="&#x17b;" horiz-adv-x="672" 
d="M484.5 940q36.5 0 56 -24t14.5 -62t-32 -62t-63.5 -24t-56 24t-14.5 62t32 62t63.5 24zM721 594l-458 -462h397l-20 -132h-609l15 107l459 461h-379l19 132h591z" />
    <glyph glyph-name="zdotaccent" unicode="&#x17c;" horiz-adv-x="548" 
d="M386 777q37 0 56.5 -24t14.5 -62q-4 -25 -17.5 -44.5t-34 -30.5t-44.5 -11q-36 0 -56 24t-14.5 62t32 62t63.5 24zM570 440l-323 -319h286l-17 -122l-478 1l14 97l323 319l-267 1l17 120h459z" />
    <glyph glyph-name="Zcaron" unicode="&#x17d;" horiz-adv-x="672" 
d="M292 921h124l48 -92l76 92h124l-140 -160h-138zM721 594l-458 -462h397l-20 -132h-609l15 107l459 461h-379l19 132h591z" />
    <glyph glyph-name="zcaron" unicode="&#x17e;" horiz-adv-x="548" 
d="M193 758h124l49 -92l75 92h124l-140 -160h-138zM570 440l-323 -319h286l-17 -122l-478 1l14 97l323 319l-267 1l17 120h459z" />
    <glyph glyph-name="florin" unicode="&#x192;" horiz-adv-x="397" 
d="M444 627q-21 0 -39.5 -8.5t-31.5 -25.5t-19 -39l-24 -89h128l-27 -103h-129l-103 -388q-21 -81 -81 -128.5t-144 -46.5q-31 1 -62 11.5t-50 26.5l56 111q21 -22 56 -24q58 -1 79 74l97 364h-71l27 103h71l30 112q21 80 84.5 128t147.5 47q83 -2 136 -38l-69 -111
q-24 22 -62 24z" />
    <glyph glyph-name="Scommaaccent" unicode="&#x218;" horiz-adv-x="637" 
d="M305 515q-4 -26 14 -44t49.5 -29.5t69.5 -22.5t75.5 -26.5t67 -37t44.5 -60t8 -89.5q-15 -100 -99.5 -155.5t-205.5 -55.5q-85 0 -162.5 30t-130.5 81l82 129q46 -47 111 -76t122 -29q32 0 56.5 7.5t39 23t17.5 36.5q4 27 -14 45.5t-49 29.5t-69.5 21.5t-76 25
t-67.5 35.5t-45 58.5t-8 87.5q14 95 96.5 151t204.5 56q72 0 139 -20.5t116 -55.5l-80 -131q-50 33 -107.5 52.5t-100.5 19.5q-41 0 -67 -14.5t-30 -42.5zM327 -43q31 0 50 -21t14 -56q-5 -32 -30 -63l-82 -101h-75l57 101q-28 22 -22 62q3 22 15.5 40t31.5 28t41 10z" />
    <glyph glyph-name="scommaaccent" unicode="&#x219;" horiz-adv-x="499" 
d="M243 392q-2 -16 12 -28t38 -20t53 -16.5t57.5 -21t51 -29.5t33.5 -46.5t5 -68.5q-11 -80 -79 -124t-164 -44q-66 0 -124 19.5t-98 55.5l65 104q37 -32 84.5 -49.5t92.5 -17.5q31 0 51 10.5t23 31.5q3 17 -10.5 29.5t-37 20.5t-52 16.5t-56.5 20.5t-50.5 29t-33.5 46
t-6 67q12 80 78 124t159 44q115 0 201 -60l-68 -105q-86 52 -157 52q-62 0 -68 -40zM249 -43q31 0 50 -21t14 -56q-5 -32 -30 -63l-82 -101h-75l57 101q-28 22 -22 62q3 22 15.5 40t31.5 28t41 10z" />
    <glyph glyph-name="Tcommaaccent" unicode="&#x21a;" horiz-adv-x="601" 
d="M694 700l-19 -134h-214l-82 -566h-158l82 566h-213l19 134h585zM288 -43q31 0 50 -21t14 -56q-5 -32 -30 -63l-82 -101h-75l57 101q-28 22 -22 62q3 22 15.5 40t31.5 28t41 10z" />
    <glyph glyph-name="tcommaaccent" unicode="&#x21b;" horiz-adv-x="426" 
d="M396 143l15 -113q-69 -37 -145 -37q-75 0 -116 43t-29 123l36 249h-75l15 106h75l21 148h153l-21 -148h146l-15 -107h-146l-32 -222q-10 -64 43 -62q29 0 75 20zM255 -43q31 0 50 -21t14 -56q-5 -32 -30 -63l-82 -101h-75l57 101q-28 22 -22 62q3 22 15.5 40t31.5 28
t41 10z" />
    <glyph glyph-name="dotlessj" unicode="&#x237;" horiz-adv-x="297" 
d="M307 538l-81 -559q-12 -85 -67.5 -132.5t-140.5 -46.5q-79 2 -132 35l52 110q29 -18 64 -20q63 -2 74 77l78 536h153z" />
    <glyph glyph-name="circumflex" unicode="&#x2c6;" horiz-adv-x="350" 
d="M436 612h-113l-48 85l-72 -85h-113l131 148h128z" />
    <glyph glyph-name="caron" unicode="&#x2c7;" horiz-adv-x="350" 
d="M99 760h124l48 -92l76 92h124l-141 -160h-138z" />
    <glyph glyph-name="firsttonechinese" unicode="&#x2c9;" horiz-adv-x="350" 
d="M402 634h-271l16 108h271z" />
    <glyph glyph-name="breve" unicode="&#x2d8;" horiz-adv-x="350" 
d="M342 757h98q-13 -70 -62 -112t-116.5 -42t-104 42t-29.5 112h98q-2 -27 11.5 -43.5t38 -16.5t43 16.5t23.5 43.5z" />
    <glyph glyph-name="dotaccent" unicode="&#x2d9;" horiz-adv-x="350" 
d="M287 777q37 0 56.5 -24t14.5 -62q-4 -25 -17.5 -44.5t-34 -30.5t-44.5 -11q-36 0 -56 24t-14.5 62t32 62t63.5 24z" />
    <glyph glyph-name="ring" unicode="&#x2da;" horiz-adv-x="350" 
d="M291.5 811q49.5 0 80 -35t23.5 -84t-47.5 -84t-89.5 -35q-33 0 -58.5 16t-37.5 43.5t-7 59.5q7 49 47 84t89.5 35zM282 746q-15 0 -29.5 -7t-23.5 -19.5t-11 -27.5q-4 -23 10.5 -39t38.5 -16q16 0 30 7t24 20t12 28q3 22 -11.5 38t-39.5 16z" />
    <glyph glyph-name="ogonek" unicode="&#x2db;" horiz-adv-x="350" 
d="M144 16h75q-67 -76 -72 -112q-2 -12 4 -18.5t17 -6.5q23 0 49 31l34 -48q-47 -64 -113 -64q-35 0 -57 20t-16 61q8 59 79 137z" />
    <glyph glyph-name="tilde" unicode="&#x2dc;" horiz-adv-x="350" 
d="M214 773q25 0 46 -12.5t36.5 -25t27.5 -12.5q33 0 40 44h95q-22 -149 -122 -149q-26 0 -47 12t-36 24.5t-27 12.5q-33 0 -39 -45h-95q21 151 121 151z" />
    <glyph glyph-name="hungarumlaut" unicode="&#x2dd;" horiz-adv-x="350" 
d="M289 722l-108 -120h-114l109 167zM474 722l-108 -120h-114l108 167z" />
    <glyph glyph-name="commaaccent" unicode="&#x326;" horiz-adv-x="0" 
d="M112 -43q31 0 50 -21t14 -56q-5 -32 -30 -63l-82 -101h-75l57 101q-28 22 -22 62q4 34 29.5 56t58.5 22z" />
    <glyph glyph-name="Delta" unicode="&#x394;" horiz-adv-x="760" 
d="M763 0h-766l405 700h163zM563 120l-108 415l-229 -415h337z" />
    <glyph glyph-name="Omega" unicode="&#x3a9;" horiz-adv-x="865" 
d="M534 708q156 0 245 -93.5t69 -235.5q-10 -66 -54.5 -136t-103.5 -114h186l-19 -129h-343l17 120q66 38 115 107.5t59 137.5q6 45 -5 83.5t-36 66t-63.5 43t-85.5 15.5q-95 0 -165.5 -58.5t-83.5 -149.5q-7 -45 4 -92t37 -87.5t62 -66.5l-17 -119h-344l19 129h187
q-48 43 -72 113t-14 137q20 142 135.5 235.5t270.5 93.5z" />
    <glyph glyph-name="pi" unicode="&#x3c0;" horiz-adv-x="728" 
d="M645 425l-61 -425h-127l61 425h-108l-108 -425h-127l107 425h-38q-34 0 -58.5 -19.5t-28.5 -49.5q-5 -34 13 -70l-111 -39q-28 67 -18 136q5 33 22 61.5t43.5 49t61.5 32.5t73 12h553l-16 -113h-133z" />
    <glyph glyph-name="Wgrave" unicode="&#x1e80;" horiz-adv-x="1066" 
d="M707 765h-123l-111 110l151 53zM842 0h-163l-69 499l-216 -499h-163l-130 700h170l71 -528l222 528h155l72 -528l222 528h162z" />
    <glyph glyph-name="wgrave" unicode="&#x1e81;" horiz-adv-x="923" 
d="M629 602h-123l-111 110l150 53zM733 0h-154l-65 355l-166 -355h-154l-120 537l158 1l64 -385l172 385h151l62 -385l174 385h152z" />
    <glyph glyph-name="Wacute" unicode="&#x1e82;" horiz-adv-x="1066" 
d="M812 874l-143 -109h-122l130 163zM842 0h-163l-69 499l-216 -499h-163l-130 700h170l71 -528l222 528h155l72 -528l222 528h162z" />
    <glyph glyph-name="wacute" unicode="&#x1e83;" horiz-adv-x="923" 
d="M733 711l-142 -109h-122l129 163zM733 0h-154l-65 355l-166 -355h-154l-120 537l158 1l64 -385l172 385h151l62 -385l174 385h152z" />
    <glyph glyph-name="Wdieresis" unicode="&#x1e84;" horiz-adv-x="1066" 
d="M557.5 932q31.5 0 49 -21t12.5 -54q-4 -32 -28 -53t-55.5 -21t-48.5 21t-13 53q5 33 28.5 54t55 21zM745.5 932q31.5 0 49 -21t12.5 -54q-4 -32 -28 -53t-55.5 -21t-48.5 21t-13 53q5 33 28.5 54t55 21zM842 0h-163l-69 499l-216 -499h-163l-130 700h170l71 -528l222 528
h155l72 -528l222 528h162z" />
    <glyph glyph-name="wdieresis" unicode="&#x1e85;" horiz-adv-x="923" 
d="M478.5 769q31.5 0 49.5 -21t13 -54q-5 -32 -28.5 -53t-55 -21t-49 21t-12.5 53q5 33 28 54t54.5 21zM666.5 769q31.5 0 49.5 -21t13 -54q-5 -32 -28.5 -53t-55 -21t-49 21t-12.5 53q5 33 28 54t54.5 21zM733 0h-154l-65 355l-166 -355h-154l-120 537l158 1l64 -385
l172 385h151l62 -385l174 385h152z" />
    <glyph glyph-name="Ygrave" unicode="&#x1ef2;" horiz-adv-x="666" 
d="M400 765l-111 110l151 53l83 -163h-123zM447 226l-33 -226h-158l32 222l-190 478h159l134 -314l220 314h159z" />
    <glyph glyph-name="ygrave" unicode="&#x1ef3;" horiz-adv-x="564" 
d="M450 602h-123l-111 110l150 53zM649 538l-323 -598q-76 -141 -217 -141q-82 0 -138 52l81 111q30 -29 65 -29q49 0 78 48l20 30l-147 527h159l87 -370l181 370h154z" />
    <glyph glyph-name="endash" unicode="&#x2013;" horiz-adv-x="407" 
d="M439 219h-407l14 102h407z" />
    <glyph glyph-name="emdash" unicode="&#x2014;" horiz-adv-x="662" 
d="M694 219h-662l14 102h662z" />
    <glyph glyph-name="quoteleft" unicode="&#x2018;" horiz-adv-x="232" 
d="M294 704l-56 -102q27 -21 21 -61q-5 -34 -29.5 -56t-57.5 -22q-32 0 -50.5 21t-13.5 56q4 32 30 63l81 101h75z" />
    <glyph glyph-name="quoteright" unicode="&#x2019;" horiz-adv-x="232" 
d="M219 701q32 0 50.5 -21t13.5 -57q-5 -33 -30 -62l-82 -101h-75l57 101q-28 22 -22 62q5 34 30 56t58 22z" />
    <glyph glyph-name="quotesinglbase" unicode="&#x201a;" horiz-adv-x="232" 
d="M139 149q32 0 50.5 -21t13.5 -57q-5 -33 -30 -62l-81 -101h-75l56 101q-28 22 -22 62q5 34 30 56t58 22z" />
    <glyph glyph-name="quotedblleft" unicode="&#x201c;" horiz-adv-x="362" 
d="M294 704l-56 -101q28 -22 22 -62q-3 -23 -16 -40.5t-31.5 -27.5t-40.5 -10q-32 0 -50.5 21t-13.5 57q5 33 30 62l81 101h75zM467 704l-56 -101q28 -22 22 -62q-3 -23 -16 -40.5t-31.5 -27.5t-40.5 -10q-32 0 -50.5 21t-13.5 57q5 33 30 62l81 101h75z" />
    <glyph glyph-name="quotedblright" unicode="&#x201d;" horiz-adv-x="386" 
d="M219 701q32 0 50.5 -21t13.5 -57q-5 -33 -30 -62l-82 -101h-75l57 101q-28 22 -22 62q5 34 30 56t58 22zM392 701q32 0 50.5 -21t13.5 -57q-5 -33 -30 -62l-82 -101h-75l57 101q-28 22 -22 62q5 34 30 56t58 22z" />
    <glyph glyph-name="quotedblbase" unicode="&#x201e;" horiz-adv-x="405" 
d="M139 149q32 0 50.5 -21t13.5 -57q-5 -33 -30 -62l-81 -101h-75l56 101q-28 22 -22 62q5 34 30 56t58 22zM312 149q32 0 50.5 -21t13.5 -57q-5 -33 -30 -62l-81 -101h-75l56 101q-28 22 -22 62q5 34 30 56t58 22z" />
    <glyph glyph-name="dagger" unicode="&#x2020;" horiz-adv-x="561" 
d="M424 492h192l-19 -131h-192l-79 -549h-149l79 549h-187l19 131h187l30 207h149z" />
    <glyph glyph-name="daggerdbl" unicode="&#x2021;" horiz-adv-x="561" 
d="M405 361l-28 -196h192l-19 -131h-192l-32 -222h-149l32 222h-187l19 131h187l28 196h-187l19 131h187l30 207h149l-30 -207h192l-19 -131h-192z" />
    <glyph glyph-name="bullet" unicode="&#x2022;" horiz-adv-x="312" 
d="M211 392q51 0 79 -33t20 -85q-7 -53 -44.5 -86.5t-88.5 -33.5q-50 0 -77.5 34t-20.5 86q8 52 45 85t87 33z" />
    <glyph glyph-name="ellipsis" unicode="&#x2026;" horiz-adv-x="656" 
d="M136 146q32 0 50.5 -21.5t13.5 -55.5q-3 -22 -15.5 -39.5t-31 -27.5t-39.5 -10q-33 0 -51 21.5t-13 55.5t29.5 55.5t56.5 21.5zM349 146q32 0 50.5 -21.5t13.5 -55.5q-3 -22 -15.5 -39.5t-31 -27.5t-39.5 -10q-33 0 -51 21.5t-13 55.5t29.5 55.5t56.5 21.5zM562 146
q32 0 50 -21.5t13 -55.5t-29 -55.5t-56 -21.5q-33 0 -51 21.5t-13 55.5t29 55.5t57 21.5z" />
    <glyph glyph-name="perthousand" unicode="&#x2030;" horiz-adv-x="1458" 
d="M326 703q59 0 99 -25.5t56 -72.5t7 -112q-14 -98 -73.5 -155t-149.5 -57q-88 0 -131 57t-29 155q14 97 73.5 153.5t147.5 56.5zM175 0l607 700h144l-605 -700h-146zM314 617q-29 0 -52 -15t-37.5 -43t-20.5 -66q-8 -59 11.5 -92t62.5 -33q22 0 40.5 8.5t33 24.5t24 39.5
t13.5 52.5q8 58 -11.5 91t-63.5 33zM841 419q90 0 133 -56.5t29 -154.5t-73.5 -154.5t-148.5 -56.5t-132 56.5t-29 154.5t73.5 154.5t147.5 56.5zM1292 419q90 0 133 -56.5t29 -154.5t-73.5 -154.5t-148.5 -56.5t-132 56.5t-29 154.5t73.5 154.5t147.5 56.5zM829 333
q-43 0 -72.5 -33t-37.5 -92t11.5 -92t62.5 -33q44 0 73.5 33t37.5 92t-11.5 92t-63.5 33zM1280 333q-43 0 -72.5 -33t-37.5 -92t11.5 -92t62.5 -33q44 0 73.5 33t37.5 92t-11.5 92t-63.5 33z" />
    <glyph glyph-name="guilsinglleft" unicode="&#x2039;" horiz-adv-x="279" 
d="M185 265l81 -182h-126l-93 182l145 181h126z" />
    <glyph glyph-name="guilsinglright" unicode="&#x203a;" horiz-adv-x="287" 
d="M193 265l-81 181h126l93 -181l-145 -182h-126z" />
    <glyph glyph-name="fraction" unicode="&#x2044;" horiz-adv-x="105" 
d="M-276 0l607 700h144l-605 -700h-146z" />
    <glyph glyph-name="euro" unicode="&#x20ac;" horiz-adv-x="784" 
d="M512 137q47 0 98.5 22t96.5 60l77 -101q-64 -58 -144 -91.5t-157 -33.5q-125 0 -209.5 68t-104.5 178h-104l11 74h89q2 24 4 38q2 15 8 43h-89l10 74h106q53 107 158 172t231 65q76 0 145.5 -31t113.5 -85l-108 -112q-31 42 -76 66.5t-94 24.5q-57 0 -109 -27t-87 -73
h231l-10 -74h-259q-7 -17 -10 -41q-3 -20 -3 -40h260l-11 -74h-232q22 -47 66 -74.5t102 -27.5z" />
    <glyph glyph-name="literSign" unicode="&#x2113;" horiz-adv-x="471" 
d="M425 708q55 0 81 -35t17 -98q-8 -52 -36.5 -103.5t-74.5 -98.5t-85.5 -81t-92.5 -73q-36 -117 39 -117q34 0 67 21.5t69 59.5l40 -58q-103 -130 -226 -130q-131 0 -116 154l-52 -31l-14 67l91 59l75 245q36 110 93 164.5t125 54.5zM409 623q-50 0 -88 -120l-51 -166
q63 52 110 116t56 120q1 12 0 21t-4.5 15.5t-9 10t-13.5 3.5z" />
    <glyph glyph-name="trademark" unicode="&#x2122;" horiz-adv-x="898" 
d="M422 607h-116l-47 -327h-112l47 327h-114l14 93h342zM894 280h-101l38 258l-129 -216h-76l-64 216l-38 -258h-102l61 420h125l76 -239l146 239h125z" />
    <glyph glyph-name="estimated" unicode="&#x212e;" horiz-adv-x="809" 
d="M785 312h-543q-5 0 -6 -4l-23 -164q-2 -9 5 -19q22 -28 51 -47.5t65.5 -30.5t76.5 -11q63 0 123.5 26.5t105.5 72.5h49q-53 -54 -128 -85.5t-153 -31.5q-91 0 -162.5 40.5t-106.5 109.5t-23 151t67 151.5t137.5 110t174 40.5t162.5 -40.5t106 -110t23 -151.5zM666 333
l24 165q1 11 -6 20q-35 40 -84 62.5t-107 22.5q-120 0 -218 -88q-10 -9 -12 -20l-23 -162q-1 -5 4 -5h416q5 0 6 5z" />
    <glyph glyph-name="oneeighth" unicode="&#x215b;" horiz-adv-x="875" 
d="M134 284l47 329h-81l13 87h189l-60 -416h-108zM61 0l607 700h144l-605 -700h-146zM729 420q71 0 109 -30t30 -82q-3 -26 -21.5 -48.5t-45.5 -37.5q33 -14 50 -42t12 -62q-8 -57 -60.5 -90t-134.5 -33q-81 0 -124.5 32.5t-35.5 88.5q5 35 31.5 64t66.5 42q-26 15 -39 39
t-9 51q5 33 27.5 57.5t59.5 37.5t84 13zM719 349q-64 0 -70 -47q-3 -14 3 -24.5t20 -15.5t34 -5q63 0 70 45q3 22 -12 34.5t-45 12.5zM694 179q-35 0 -56 -13.5t-25 -38.5q-2 -17 4.5 -28.5t22.5 -17.5t40 -6q74 0 81 52q4 25 -13.5 38.5t-53.5 13.5z" />
    <glyph glyph-name="threeeighths" unicode="&#x215c;" horiz-adv-x="935" 
d="M121 0l607 700h144l-605 -700h-146zM282 532l20 -4q48 -7 73.5 -36.5t18.5 -76.5q-6 -40 -30.5 -70.5t-65 -48t-90.5 -17.5q-45 0 -86 14t-67 37l56 83q41 -52 100 -52q22 0 38 6.5t25.5 18t12.5 28.5q3 24 -13 37t-48 13h-69l8 58l114 97h-162l12 80h286l-9 -62z
M789 420q71 0 109 -30t30 -82q-3 -26 -21.5 -48.5t-45.5 -37.5q33 -14 50 -42t12 -62q-8 -57 -60.5 -90t-134.5 -33q-81 0 -124.5 32.5t-35.5 88.5q5 35 31.5 64t66.5 42q-26 15 -39 39t-9 51q5 33 27.5 57.5t59.5 37.5t84 13zM779 349q-64 0 -70 -47q-3 -14 3 -24.5
t20 -15.5t34 -5q63 0 70 45q3 22 -12 34.5t-45 12.5zM754 179q-35 0 -56 -13.5t-25 -38.5q-2 -17 4.5 -28.5t22.5 -17.5t40 -6q74 0 81 52q4 25 -13.5 38.5t-53.5 13.5z" />
    <glyph glyph-name="fiveeighths" unicode="&#x215d;" horiz-adv-x="951" 
d="M242 616l-11 -73q16 3 40 3q75 0 114.5 -33t31.5 -89q-9 -65 -62 -104.5t-131 -39.5q-42 0 -85.5 14t-73.5 37l55 84q43 -54 103 -54q32 0 52 14.5t24 41.5q3 23 -13 36t-48 13q-84 0 -119 -5l35 239h284l-12 -84h-184zM137 0l607 700h144l-605 -700h-146zM805 420
q71 0 109 -30t30 -82q-3 -26 -21.5 -48.5t-45.5 -37.5q33 -14 50 -42t12 -62q-8 -57 -60.5 -90t-134.5 -33q-81 0 -124.5 32.5t-35.5 88.5q5 35 31.5 64t66.5 42q-26 15 -39 39t-9 51q7 49 53.5 78.5t117.5 29.5zM795 349q-64 0 -70 -47q-3 -14 3 -24.5t20 -15.5t34 -5
q63 0 70 45q3 22 -12 34.5t-45 12.5zM770 179q-35 0 -56 -13.5t-25 -38.5q-2 -17 4.5 -28.5t22.5 -17.5t40 -6q74 0 81 52q4 25 -13.5 38.5t-53.5 13.5z" />
    <glyph glyph-name="seveneighths" unicode="&#x215e;" horiz-adv-x="921" 
d="M246 284h-116l205 332h-122l-9 -60h-96l21 144h338l-11 -75zM108 0l607 700h144l-605 -700h-146zM775 420q71 0 109 -30t30 -82q-3 -26 -21.5 -48.5t-45.5 -37.5q33 -14 50 -42t12 -62q-8 -57 -60.5 -90t-134.5 -33q-81 0 -124.5 32.5t-35.5 88.5q5 35 31.5 64t66.5 42
q-26 15 -39 39t-9 51q7 49 53.5 78.5t117.5 29.5zM765 349q-64 0 -70 -47q-3 -14 3 -24.5t20 -15.5t34 -5q63 0 70 45q3 22 -12 34.5t-45 12.5zM740 179q-35 0 -56 -13.5t-25 -38.5q-2 -17 4.5 -28.5t22.5 -17.5t40 -6q74 0 81 52q4 25 -13.5 38.5t-53.5 13.5z" />
    <glyph glyph-name="partialdiff" unicode="&#x2202;" horiz-adv-x="627" 
d="M375 707q141 0 211 -98.5t47 -262.5q-24 -164 -116.5 -258.5t-230.5 -94.5q-117 0 -177.5 64.5t-45.5 174.5q15 103 87 164.5t176 61.5q25 0 47.5 -4.5t40 -12.5t31.5 -20t23.5 -26.5t14.5 -31.5q14 69 3 117t-46.5 73.5t-92.5 25.5q-91 0 -164 -54l-45 116
q52 30 115.5 48t121.5 18zM339 338q-36 0 -63 -12t-44 -35.5t-21 -56.5q-8 -52 19 -80.5t82 -28.5q57 0 92 31t41 74q7 48 -21 78t-85 30z" />
    <glyph glyph-name="product" unicode="&#x220f;" horiz-adv-x="744" 
d="M639 -194h-154l117 810h-282l-117 -810h-154l135 936h590z" />
    <glyph glyph-name="summation" unicode="&#x2211;" horiz-adv-x="615" 
d="M687 606h-379l207 -302l-295 -304h390l-20 -138h-581l17 115l321 326l-219 323l17 118h562z" />
    <glyph glyph-name="minus" unicode="&#x2212;" horiz-adv-x="506" 
d="M513 275h-440l14 102h440z" />
    <glyph glyph-name="divisionslash" unicode="&#x2215;" horiz-adv-x="346" 
d="M82 -112h-129l454 924h130z" />
    <glyph glyph-name="bulletoperator" unicode="&#x2219;" horiz-adv-x="312" 
d="M211 392q51 0 79 -33t20 -85q-7 -53 -44.5 -86.5t-88.5 -33.5q-50 0 -77.5 34t-20.5 86q8 52 45 85t87 33z" />
    <glyph glyph-name="radical" unicode="&#x221a;" horiz-adv-x="702" 
d="M295 406l60 -402l315 743h147l-403 -903h-164l-80 436h-125l19 126h231z" />
    <glyph glyph-name="infinity" unicode="&#x221e;" horiz-adv-x="861" 
d="M707 511q86 0 134 -60t35 -151t-78.5 -151t-151.5 -60q-71 0 -111.5 33t-71.5 93q-47 -60 -98.5 -93.5t-123.5 -33.5q-87 0 -135 60t-35 151t78.5 151.5t152.5 60.5q70 0 111 -33t71 -93q47 60 98 93t125 33zM256 197q51 0 88.5 26.5t77.5 77.5q-25 49 -55.5 75t-80.5 26
q-27 0 -51 -13.5t-39.5 -37t-19.5 -52.5q-6 -44 16.5 -73t63.5 -29zM661 197q28 0 51.5 13.5t39.5 37t20 52.5q7 44 -16.5 73t-64.5 29q-51 0 -89 -27t-77 -77q25 -49 55.5 -75t80.5 -26z" />
    <glyph glyph-name="integral" unicode="&#x222b;" horiz-adv-x="374" 
d="M503 827l-31 -102q-27 11 -52 11q-43 0 -64 -25t-30 -86q-7 -49 -25 -257t-26 -265q-19 -129 -67 -184t-144 -55q-59 0 -96 25l34 103q35 -18 59 -18q45 0 67.5 27t31.5 91q8 56 25 262t24 257q19 129 67 183.5t142 54.5q40 0 85 -22z" />
    <glyph glyph-name="approxequal" unicode="&#x2248;" horiz-adv-x="506" 
d="M243 524q28 0 54 -13t46 -26t34 -13q34 0 41 47h104q-24 -163 -131 -163q-29 0 -55 13t-45.5 26.5t-33.5 13.5q-34 0 -41 -47h-104q24 162 131 162zM210 296q28 0 54 -13t46 -26t34 -13q34 0 41 47h104q-23 -162 -130 -162q-30 0 -56 13t-45.5 26t-33.5 13q-34 0 -41 -47
h-104q24 162 131 162z" />
    <glyph glyph-name="notequal" unicode="&#x2260;" horiz-adv-x="506" 
d="M379 382l-51 -112h184l-15 -102h-217l-66 -144h-116l66 144h-107l15 102h140l51 112h-175l15 102h207l64 139h116l-64 -139h117l-15 -102h-149z" />
    <glyph glyph-name="lessequal" unicode="&#x2264;" horiz-adv-x="506" 
d="M549 529l-358 -132l320 -132l-16 -110l-414 179l18 126l466 179zM474 7h-440l15 102h440z" />
    <glyph glyph-name="greaterequal" unicode="&#x2265;" horiz-adv-x="506" 
d="M72 271l358 133l-320 132l16 110l413 -180l-18 -125l-465 -179zM474 7h-440l15 102h440z" />
    <glyph glyph-name="lozenge" unicode="&#x25ca;" horiz-adv-x="517" 
d="M537 330l-282 -345l-179 345l280 342zM195 330l87 -163l136 163l-89 162z" />
    <glyph glyph-name="A.ss01" horiz-adv-x="764" 
d="M482 707q147 0 221.5 -81.5t55.5 -219.5l-59 -406h-158l25 173h-320l-25 -173h-158l59 406q19 138 116.5 219.5t242.5 81.5zM464 569q-74 0 -123.5 -44t-59.5 -119l-16 -105h320l16 105q10 75 -26.5 119t-110.5 44z" />
    <glyph glyph-name="Aacute.ss01" horiz-adv-x="764" 
d="M677 874l-143 -109h-122l130 163zM482 707q147 0 221.5 -81.5t55.5 -219.5l-59 -406h-158l25 173h-320l-25 -173h-158l59 406q19 138 116.5 219.5t242.5 81.5zM464 569q-74 0 -123.5 -44t-59.5 -119l-16 -105h320l16 105q10 75 -26.5 119t-110.5 44z" />
    <glyph glyph-name="Abreve.ss01" horiz-adv-x="764" 
d="M572 919h98q-13 -70 -61.5 -112t-116 -42t-104.5 42t-30 112h98q-1 -18 4.5 -31.5t17.5 -21t28 -7.5t29.5 7.5t23.5 21t13 31.5zM482 707q147 0 221.5 -81.5t55.5 -219.5l-59 -406h-158l25 173h-320l-25 -173h-158l59 406q19 138 116.5 219.5t242.5 81.5zM464 569
q-74 0 -123.5 -44t-59.5 -119l-16 -105h320l16 105q10 75 -26.5 119t-110.5 44z" />
    <glyph glyph-name="Acircumflex.ss01" horiz-adv-x="764" 
d="M666 773h-113l-47 85l-73 -85h-113l131 148h128zM482 707q147 0 221.5 -81.5t55.5 -219.5l-59 -406h-158l25 173h-320l-25 -173h-158l59 406q19 138 116.5 219.5t242.5 81.5zM464 569q-74 0 -123.5 -44t-59.5 -119l-16 -105h320l16 105q10 75 -26.5 119t-110.5 44z" />
    <glyph glyph-name="Adieresis.ss01" horiz-adv-x="764" 
d="M422.5 932q31.5 0 49 -21t12.5 -54q-4 -32 -28 -53t-55.5 -21t-48.5 21t-13 53q5 33 28.5 54t55 21zM610.5 932q31.5 0 49 -21t12.5 -54q-4 -32 -28 -53t-55.5 -21t-48.5 21t-13 53q5 33 28.5 54t55 21zM482 707q147 0 221.5 -81.5t55.5 -219.5l-59 -406h-158l25 173
h-320l-25 -173h-158l59 406q19 138 116.5 219.5t242.5 81.5zM464 569q-74 0 -123.5 -44t-59.5 -119l-16 -105h320l16 105q10 75 -26.5 119t-110.5 44z" />
    <glyph glyph-name="Agrave.ss01" horiz-adv-x="764" 
d="M572 765h-123l-111 110l151 53zM482 707q147 0 221.5 -81.5t55.5 -219.5l-59 -406h-158l25 173h-320l-25 -173h-158l59 406q19 138 116.5 219.5t242.5 81.5zM464 569q-74 0 -123.5 -44t-59.5 -119l-16 -105h320l16 105q10 75 -26.5 119t-110.5 44z" />
    <glyph glyph-name="Amacron.ss01" horiz-adv-x="764" 
d="M633 797h-271l15 108h271zM482 707q147 0 221.5 -81.5t55.5 -219.5l-59 -406h-158l25 173h-320l-25 -173h-158l59 406q19 138 116.5 219.5t242.5 81.5zM464 569q-74 0 -123.5 -44t-59.5 -119l-16 -105h320l16 105q10 75 -26.5 119t-110.5 44z" />
    <glyph glyph-name="Aogonek.ss01" horiz-adv-x="769" 
d="M482 707q147 0 221.5 -81.5t55.5 -219.5l-59 -406h-38q-54 -63 -59 -96q-2 -12 4 -18.5t17 -6.5q22 0 49 31l34 -48q-47 -64 -113 -64q-35 0 -57 20t-16 61q7 51 66 121h-45l25 173h-320l-25 -173h-158l59 406q19 138 116.5 219.5t242.5 81.5zM464 569q-74 0 -123.5 -44
t-59.5 -119l-16 -105h320l16 105q10 75 -26.5 119t-110.5 44z" />
    <glyph glyph-name="Aring.ss01" horiz-adv-x="764" 
d="M522.5 974q49.5 0 79.5 -35t23 -84q-4 -32 -24.5 -59.5t-50 -43.5t-62.5 -16q-50 0 -80 35t-23 84t47.5 84t90 35zM513 909q-24 0 -43 -15.5t-22 -38.5q-1 -9 0.5 -17.5t6 -15.5t10.5 -12t14.5 -7.5t17.5 -2.5q24 0 43.5 16t22.5 39q3 22 -11.5 38t-38.5 16zM482 707
q147 0 221.5 -81.5t55.5 -219.5l-59 -406h-158l25 173h-320l-25 -173h-158l59 406q19 138 116.5 219.5t242.5 81.5zM464 569q-74 0 -123.5 -44t-59.5 -119l-16 -105h320l16 105q10 75 -26.5 119t-110.5 44z" />
    <glyph glyph-name="Atilde.ss01" horiz-adv-x="764" 
d="M445 936q25 0 46 -12.5t36.5 -25t27.5 -12.5q33 0 39 44h95q-21 -149 -121 -149q-27 0 -47.5 12.5t-35.5 24.5t-27 12q-33 0 -40 -45h-95q22 151 122 151zM482 707q147 0 221.5 -81.5t55.5 -219.5l-59 -406h-158l25 173h-320l-25 -173h-158l59 406q19 138 116.5 219.5
t242.5 81.5zM464 569q-74 0 -123.5 -44t-59.5 -119l-16 -105h320l16 105q10 75 -26.5 119t-110.5 44z" />
    <glyph glyph-name="E.ss01" horiz-adv-x="601" 
d="M437 707q39 0 80 -6t77.5 -17.5t60.5 -25.5l-68 -120q-73 35 -155 35q-57 0 -94.5 -19t-42.5 -55q-5 -32 19.5 -53.5t68.5 -21.5h157l-18 -128h-157q-54 0 -91.5 -23.5t-42.5 -59.5q-6 -39 29 -62t93 -23q48 0 106 16.5t93 36.5l43 -120q-34 -20 -79.5 -35t-97.5 -24
t-100 -9q-124 0 -195 55t-58 143q8 61 55 110.5t116 68.5q-46 17 -70 59t-16 95q11 82 91 132.5t196 50.5z" />
    <glyph glyph-name="Eacute.ss01" horiz-adv-x="601" 
d="M596 874l-143 -109h-122l130 163zM437 707q39 0 80 -6t77.5 -17.5t60.5 -25.5l-68 -120q-73 35 -155 35q-57 0 -94.5 -19t-42.5 -55q-5 -32 19.5 -53.5t68.5 -21.5h157l-18 -128h-157q-54 0 -91.5 -23.5t-42.5 -59.5q-6 -39 29 -62t93 -23q48 0 106 16.5t93 36.5l43 -120
q-34 -20 -79.5 -35t-97.5 -24t-100 -9q-124 0 -195 55t-58 143q8 61 55 110.5t116 68.5q-46 17 -70 59t-16 95q11 82 91 132.5t196 50.5z" />
    <glyph glyph-name="Ebreve.ss01" horiz-adv-x="601" 
d="M491 919h98q-13 -70 -61.5 -112t-116 -42t-104.5 42t-30 112h98q-1 -18 4.5 -31.5t17.5 -21t28 -7.5q24 0 42.5 16.5t23.5 43.5zM437 707q39 0 80 -6t77.5 -17.5t60.5 -25.5l-68 -120q-73 35 -155 35q-57 0 -94.5 -19t-42.5 -55q-5 -32 19.5 -53.5t68.5 -21.5h157
l-18 -128h-157q-54 0 -91.5 -23.5t-42.5 -59.5q-6 -39 29 -62t93 -23q48 0 106 16.5t93 36.5l43 -120q-34 -20 -79.5 -35t-97.5 -24t-100 -9q-124 0 -195 55t-58 143q8 61 55 110.5t116 68.5q-46 17 -70 59t-16 95q11 82 91 132.5t196 50.5z" />
    <glyph glyph-name="Ecaron.ss01" horiz-adv-x="601" 
d="M244 921h124l48 -92l76 92h124l-140 -160h-138zM437 707q39 0 80 -6t77.5 -17.5t60.5 -25.5l-68 -120q-73 35 -155 35q-57 0 -94.5 -19t-42.5 -55q-5 -32 19.5 -53.5t68.5 -21.5h157l-18 -128h-157q-54 0 -91.5 -23.5t-42.5 -59.5q-6 -39 29 -62t93 -23q48 0 106 16.5
t93 36.5l43 -120q-34 -20 -79.5 -35t-97.5 -24t-100 -9q-124 0 -195 55t-58 143q8 61 55 110.5t116 68.5q-46 17 -70 59t-16 95q11 82 91 132.5t196 50.5z" />
    <glyph glyph-name="Ecircumflex.ss01" horiz-adv-x="601" 
d="M585 773h-113l-47 85l-73 -85h-113l131 148h128zM437 707q39 0 80 -6t77.5 -17.5t60.5 -25.5l-68 -120q-73 35 -155 35q-57 0 -94.5 -19t-42.5 -55q-5 -32 19.5 -53.5t68.5 -21.5h157l-18 -128h-157q-54 0 -91.5 -23.5t-42.5 -59.5q-6 -39 29 -62t93 -23q48 0 106 16.5
t93 36.5l43 -120q-34 -20 -79.5 -35t-97.5 -24t-100 -9q-124 0 -195 55t-58 143q8 61 55 110.5t116 68.5q-46 17 -70 59t-16 95q11 82 91 132.5t196 50.5z" />
    <glyph glyph-name="Edieresis.ss01" horiz-adv-x="601" 
d="M341.5 932q31.5 0 49 -21t12.5 -54q-4 -32 -28 -53t-55.5 -21t-48.5 21t-13 53q5 33 28.5 54t55 21zM529.5 932q31.5 0 49 -21t12.5 -54q-4 -32 -28 -53t-55.5 -21t-48.5 21t-13 53q5 33 28.5 54t55 21zM437 707q39 0 80 -6t77.5 -17.5t60.5 -25.5l-68 -120
q-73 35 -155 35q-57 0 -94.5 -19t-42.5 -55q-5 -32 19.5 -53.5t68.5 -21.5h157l-18 -128h-157q-54 0 -91.5 -23.5t-42.5 -59.5q-6 -39 29 -62t93 -23q48 0 106 16.5t93 36.5l43 -120q-34 -20 -79.5 -35t-97.5 -24t-100 -9q-124 0 -195 55t-58 143q8 61 55 110.5t116 68.5
q-46 17 -70 59t-16 95q11 82 91 132.5t196 50.5z" />
    <glyph glyph-name="Edotaccent.ss01" horiz-adv-x="601" 
d="M436 940q37 0 56.5 -24t14.5 -62q-4 -25 -17 -44.5t-33.5 -30.5t-44.5 -11q-37 0 -56.5 24t-14.5 62q4 25 17 44.5t33.5 30.5t44.5 11zM437 707q39 0 80 -6t77.5 -17.5t60.5 -25.5l-68 -120q-73 35 -155 35q-57 0 -94.5 -19t-42.5 -55q-5 -32 19.5 -53.5t68.5 -21.5h157
l-18 -128h-157q-54 0 -91.5 -23.5t-42.5 -59.5q-6 -39 29 -62t93 -23q48 0 106 16.5t93 36.5l43 -120q-34 -20 -79.5 -35t-97.5 -24t-100 -9q-124 0 -195 55t-58 143q8 61 55 110.5t116 68.5q-46 17 -70 59t-16 95q11 82 91 132.5t196 50.5z" />
    <glyph glyph-name="Egrave.ss01" horiz-adv-x="601" 
d="M491 765h-123l-111 110l151 53zM437 707q39 0 80 -6t77.5 -17.5t60.5 -25.5l-68 -120q-73 35 -155 35q-57 0 -94.5 -19t-42.5 -55q-5 -32 19.5 -53.5t68.5 -21.5h157l-18 -128h-157q-54 0 -91.5 -23.5t-42.5 -59.5q-6 -39 29 -62t93 -23q48 0 106 16.5t93 36.5l43 -120
q-34 -20 -79.5 -35t-97.5 -24t-100 -9q-124 0 -195 55t-58 143q8 61 55 110.5t116 68.5q-46 17 -70 59t-16 95q11 82 91 132.5t196 50.5z" />
    <glyph glyph-name="Emacron.ss01" horiz-adv-x="601" 
d="M552 797h-271l15 108h271zM437 707q39 0 80 -6t77.5 -17.5t60.5 -25.5l-68 -120q-73 35 -155 35q-57 0 -94.5 -19t-42.5 -55q-5 -32 19.5 -53.5t68.5 -21.5h157l-18 -128h-157q-54 0 -91.5 -23.5t-42.5 -59.5q-6 -39 29 -62t93 -23q48 0 106 16.5t93 36.5l43 -120
q-34 -20 -79.5 -35t-97.5 -24t-100 -9q-124 0 -195 55t-58 143q8 61 55 110.5t116 68.5q-46 17 -70 59t-16 95q11 82 91 132.5t196 50.5z" />
    <glyph glyph-name="Eogonek.ss01" horiz-adv-x="601" 
d="M438 -121q23 0 49 31l34 -48q-47 -64 -113 -64q-35 0 -57 20t-16 61q7 49 64 120q-40 -6 -81 -6q-124 0 -195 55t-58 143q8 61 55 110.5t116 68.5q-46 17 -70 59t-16 95q11 82 91 132.5t196 50.5q39 0 80 -6t77.5 -17.5t60.5 -25.5l-68 -120q-73 35 -155 35
q-57 0 -94.5 -19t-42.5 -55q-5 -32 19.5 -53.5t68.5 -21.5h157l-18 -128h-157q-54 0 -91.5 -23.5t-42.5 -59.5q-6 -39 29 -62t93 -23q48 0 106 16.5t93 36.5l43 -120q-46 -26 -102 -42q-35 -39 -54 -67.5t-22 -47.5q-2 -12 4 -18.5t17 -6.5z" />
    <glyph glyph-name="F.ss01" horiz-adv-x="549" 
d="M410 569q-47 0 -80 -28t-40 -75l-11 -79h266l-19 -131h-266l-37 -256h-159l68 469q15 109 92.5 173.5t191.5 64.5q64 0 126 -12.5t103 -32.5l-56 -136q-94 43 -179 43z" />
    <glyph glyph-name="G.ss01" horiz-adv-x="746" 
d="M599 361h137l-52 -361h-117l8 58q-97 -65 -193 -65q-100 0 -174.5 46.5t-109.5 128.5t-21 182q15 100 76 181t155 127.5t201 46.5q51 0 101.5 -12.5t93 -35.5t74.5 -54l-106 -113q-17 18 -38 32.5t-44 24.5t-48.5 15.5t-50.5 5.5q-93 0 -165.5 -63t-86.5 -155
q-13 -93 39 -156t142 -63q41 0 82.5 18t73.5 49z" />
    <glyph glyph-name="Gbreve.ss01" horiz-adv-x="746" 
d="M485.5 765q-67.5 0 -104.5 42t-30 112h98q-2 -27 12 -43.5t38 -16.5t42.5 16.5t23.5 43.5h98q-13 -70 -61.5 -112t-116 -42zM599 361h137l-52 -361h-117l8 58q-97 -65 -193 -65q-100 0 -174.5 46.5t-109.5 128.5t-21 182q15 100 76 181t155 127.5t201 46.5
q51 0 101.5 -12.5t93 -35.5t74.5 -54l-106 -113q-17 18 -38 32.5t-44 24.5t-48.5 15.5t-50.5 5.5q-93 0 -165.5 -63t-86.5 -155q-13 -93 39 -156t142 -63q41 0 82.5 18t73.5 49z" />
    <glyph glyph-name="Gcircumflex.ss01" horiz-adv-x="746" 
d="M426 773h-113l131 148h128l87 -148h-113l-47 85zM599 361h137l-52 -361h-117l8 58q-97 -65 -193 -65q-100 0 -174.5 46.5t-109.5 128.5t-21 182q15 100 76 181t155 127.5t201 46.5q51 0 101.5 -12.5t93 -35.5t74.5 -54l-106 -113q-17 18 -38 32.5t-44 24.5t-48.5 15.5
t-50.5 5.5q-93 0 -165.5 -63t-86.5 -155q-13 -93 39 -156t142 -63q41 0 82.5 18t73.5 49z" />
    <glyph glyph-name="Gcommaaccent.ss01" horiz-adv-x="746" 
d="M599 361h137l-52 -361h-117l8 58q-97 -65 -193 -65q-100 0 -174.5 46.5t-109.5 128.5t-21 182q15 100 76 181t155 127.5t201 46.5q51 0 101.5 -12.5t93 -35.5t74.5 -54l-106 -113q-17 18 -38 32.5t-44 24.5t-48.5 15.5t-50.5 5.5q-93 0 -165.5 -63t-86.5 -155
q-13 -93 39 -156t142 -63q41 0 82.5 18t73.5 49zM375 -43q31 0 50 -21t14 -56q-5 -32 -30 -63l-82 -101h-75l57 101q-28 22 -22 62q3 22 15.5 40t31.5 28t41 10z" />
    <glyph glyph-name="Gdotaccent.ss01" horiz-adv-x="746" 
d="M485.5 768q-36.5 0 -56 24t-14.5 62t32 62t63.5 24t56 -24t14.5 -62t-32 -62t-63.5 -24zM599 361h137l-52 -361h-117l8 58q-97 -65 -193 -65q-100 0 -174.5 46.5t-109.5 128.5t-21 182q15 100 76 181t155 127.5t201 46.5q51 0 101.5 -12.5t93 -35.5t74.5 -54l-106 -113
q-17 18 -38 32.5t-44 24.5t-48.5 15.5t-50.5 5.5q-93 0 -165.5 -63t-86.5 -155q-13 -93 39 -156t142 -63q41 0 82.5 18t73.5 49z" />
    <glyph glyph-name="I.ss01" horiz-adv-x="498" 
d="M410 569l-63 -437h123l-19 -132h-404l19 132h123l63 437h-123l19 131h404l-19 -131h-123z" />
    <glyph glyph-name="IJ.ss01" horiz-adv-x="1022" 
d="M552 700l-19 -131h-123l-63 -437h123l-19 -132h-404l19 132h123l63 437h-123l19 131h404zM1059 700l-83 -576q-16 -109 -87.5 -170t-180.5 -61q-136 0 -214 109l89 112q31 -38 67.5 -58t69.5 -20q40 0 65.5 24t31.5 68l64 438h-241l19 134h400z" />
    <glyph glyph-name="Iacute.ss01" horiz-adv-x="498" 
d="M401 765h-122l130 163l135 -54zM410 569l-63 -437h123l-19 -132h-404l19 132h123l63 437h-123l19 131h404l-19 -131h-123z" />
    <glyph glyph-name="Ibreve.ss01" horiz-adv-x="498" 
d="M359.5 765q-67.5 0 -104.5 42t-30 112h98q-2 -27 12 -43.5t38 -16.5t42.5 16.5t23.5 43.5h98q-13 -70 -61.5 -112t-116 -42zM410 569l-63 -437h123l-19 -132h-404l19 132h123l63 437h-123l19 131h404l-19 -131h-123z" />
    <glyph glyph-name="Icircumflex.ss01" horiz-adv-x="498" 
d="M300 773h-113l131 148h128l87 -148h-113l-47 85zM410 569l-63 -437h123l-19 -132h-404l19 132h123l63 437h-123l19 131h404l-19 -131h-123z" />
    <glyph glyph-name="Idieresis.ss01" horiz-adv-x="498" 
d="M267.5 783q-31.5 0 -48.5 21t-13 53q5 33 28.5 54t55 21t49 -21t12.5 -54q-4 -32 -28 -53t-55.5 -21zM455.5 783q-31.5 0 -48.5 21t-13 53q5 33 28.5 54t55 21t49 -21t12.5 -54q-4 -32 -28 -53t-55.5 -21zM410 569l-63 -437h123l-19 -132h-404l19 132h123l63 437h-123
l19 131h404l-19 -131h-123z" />
    <glyph glyph-name="Idotaccent.ss01" horiz-adv-x="498" 
d="M359.5 768q-36.5 0 -56 24t-14.5 62t32 62t63.5 24t56 -24t14.5 -62t-32 -62t-63.5 -24zM410 569l-63 -437h123l-19 -132h-404l19 132h123l63 437h-123l19 131h404l-19 -131h-123z" />
    <glyph glyph-name="Igrave.ss01" horiz-adv-x="498" 
d="M316 765l-111 110l151 53l83 -163h-123zM410 569l-63 -437h123l-19 -132h-404l19 132h123l63 437h-123l19 131h404l-19 -131h-123z" />
    <glyph glyph-name="Imacron.ss01" horiz-adv-x="498" 
d="M500 797h-271l15 108h271zM410 569l-63 -437h123l-19 -132h-404l19 132h123l63 437h-123l19 131h404l-19 -131h-123z" />
    <glyph glyph-name="Iogonek.ss01" horiz-adv-x="498" 
d="M410 569l-63 -437h123l-19 -132h-69q-53 -64 -58 -96q-2 -12 4 -18.5t17 -6.5q23 0 49 31l34 -48q-47 -64 -113 -64q-35 0 -57 20t-16 61q7 53 65 121h-260l19 132h123l63 437h-123l19 131h404l-19 -131h-123z" />
    <glyph glyph-name="Itilde.ss01" horiz-adv-x="498" 
d="M325 830q-33 0 -40 -45h-95q22 151 122 151q25 0 46 -12.5t36.5 -25t27.5 -12.5q33 0 39 44h95q-21 -149 -121 -149q-27 0 -47.5 12.5t-35.5 24.5t-27 12zM410 569l-63 -437h123l-19 -132h-404l19 132h123l63 437h-123l19 131h404l-19 -131h-123z" />
    <glyph glyph-name="J.ss01" horiz-adv-x="524" 
d="M561 700l-83 -576q-11 -73 -47 -125t-92.5 -79t-128.5 -27q-136 0 -214 109l89 112q21 -25 45 -43t47 -26.5t45 -8.5q40 0 65.5 24t31.5 68l64 438h-241l19 134h400z" />
    <glyph glyph-name="M.ss01" horiz-adv-x="1183" 
d="M991 700q101 0 154.5 -71t37.5 -185l-64 -444h-160l58 405q10 66 -19.5 106.5t-88.5 40.5q-67 -1 -117 -50.5t-61 -124.5l-54 -377h-160l58 405q10 66 -19.5 106.5t-88.5 40.5q-67 -1 -117 -50.5t-61 -124.5l-54 -377h-158l101 700h158l-16 -112q42 53 101.5 82t128.5 30
q73 0 122.5 -39t65.5 -107q42 69 107.5 107t145.5 39z" />
    <glyph glyph-name="N.ss01" 
d="M562 700q71 0 121 -31.5t72 -90t11 -134.5l-64 -444h-160l59 406q6 43 -7 76t-42 51.5t-70 18.5q-74 -1 -128 -50.5t-65 -124.5l-54 -377h-158l101 700h158l-17 -115q44 55 106.5 84.5t136.5 30.5z" />
    <glyph glyph-name="Nacute.ss01" 
d="M542 765h-122l130 163l135 -54zM562 700q71 0 121 -31.5t72 -90t11 -134.5l-64 -444h-160l59 406q6 43 -7 76t-42 51.5t-70 18.5q-74 -1 -128 -50.5t-65 -124.5l-54 -377h-158l101 700h158l-17 -115q44 55 106.5 84.5t136.5 30.5z" />
    <glyph glyph-name="Ncaron.ss01" 
d="M428 761l-94 160h124l48 -92l76 92h124l-140 -160h-138zM562 700q71 0 121 -31.5t72 -90t11 -134.5l-64 -444h-160l59 406q6 43 -7 76t-42 51.5t-70 18.5q-74 -1 -128 -50.5t-65 -124.5l-54 -377h-158l101 700h158l-17 -115q44 55 106.5 84.5t136.5 30.5z" />
    <glyph glyph-name="Ncommaaccent.ss01" 
d="M562 700q71 0 121 -31.5t72 -90t11 -134.5l-64 -444h-160l59 406q6 43 -7 76t-42 51.5t-70 18.5q-74 -1 -128 -50.5t-65 -124.5l-54 -377h-158l101 700h158l-17 -115q44 55 106.5 84.5t136.5 30.5zM384 -43q31 0 50 -21t14 -56q-5 -32 -30 -63l-82 -101h-75l57 101
q-28 22 -22 62q1 13 6.5 25t14 21.5t19 16.5t23 11t25.5 4z" />
    <glyph glyph-name="Eng.ss01" 
d="M562 700q71 0 121 -31.5t72 -90t11 -134.5l-64 -444q-16 -99 -87.5 -155.5t-177.5 -56.5q-109 0 -176 64l78 122q53 -43 112 -43q38 0 62.5 22.5t30.5 63.5l57 389q6 43 -7 76t-42 51.5t-70 18.5q-74 -1 -128 -50.5t-65 -124.5l-54 -377h-158l101 700h158l-17 -115
q44 55 106.5 84.5t136.5 30.5z" />
    <glyph glyph-name="Ntilde.ss01" 
d="M466 830q-33 0 -40 -45h-95q22 151 122 151q25 0 46 -12.5t36.5 -25t27.5 -12.5q33 0 39 44h95q-21 -149 -121 -149q-27 0 -47.5 12.5t-35.5 24.5t-27 12zM562 700q71 0 121 -31.5t72 -90t11 -134.5l-64 -444h-160l59 406q6 43 -7 76t-42 51.5t-70 18.5
q-74 -1 -128 -50.5t-65 -124.5l-54 -377h-158l101 700h158l-17 -115q44 55 106.5 84.5t136.5 30.5z" />
    <glyph glyph-name="Q.ss01" horiz-adv-x="806" 
d="M829 350q-13 -91 -65.5 -168t-133.5 -126t-176 -60l-17 -118h-114l18 119q-136 20 -209.5 118.5t-54.5 234.5q15 100 76 181.5t153.5 127.5t198 46t185 -46t117 -127.5t22.5 -181.5zM496 285l-21 -148q73 17 127 76t65 137q14 92 -39 154.5t-141 62.5q-59 0 -112.5 -28.5
t-90 -78.5t-45.5 -110q-10 -74 24.5 -131t97.5 -78l21 144h114z" />
    <glyph glyph-name="T.ss01" horiz-adv-x="674" 
d="M737 629l-66 -127q-78 44 -177 59l-81 -561h-158l81 561q-103 -14 -196 -59l-28 128q149 77 323 77q172 0 302 -78z" />
    <glyph glyph-name="Tbar.ss01" horiz-adv-x="674" 
d="M588 797h-271l15 108h271zM737 629l-66 -127q-78 44 -177 59l-81 -561h-158l81 561q-103 -14 -196 -59l-28 128q149 77 323 77q172 0 302 -78z" />
    <glyph glyph-name="Tcaron.ss01" horiz-adv-x="674" 
d="M374 761l-94 160h124l48 -92l76 92h124l-140 -160h-138zM737 629l-66 -127q-78 44 -177 59l-81 -561h-158l81 561q-103 -14 -196 -59l-28 128q149 77 323 77q172 0 302 -78z" />
    <glyph glyph-name="Tcedilla.ss01" horiz-adv-x="674" 
d="M383 0l-32 -50q30 -8 45 -29.5t11 -51.5q-7 -46 -43.5 -73.5t-88.5 -27.5q-50 0 -89 30l39 67q20 -20 49 -20q19 0 32.5 11t15.5 27t-8.5 26t-32.5 10q-12 0 -36 -4l51 85h-41l81 561q-103 -14 -196 -59l-28 128q149 77 323 77q172 0 302 -78l-66 -127q-78 44 -177 59
l-81 -561h-30z" />
    <glyph glyph-name="Tcommaaccent.ss01" horiz-adv-x="674" 
d="M737 629l-66 -127q-78 44 -177 59l-81 -561h-158l81 561q-103 -14 -196 -59l-28 128q149 77 323 77q172 0 302 -78zM322 -43q31 0 50 -21t14 -56q-5 -32 -30 -63l-82 -101h-75l57 101q-28 22 -22 62q3 22 15.5 40t31.5 28t41 10z" />
    <glyph glyph-name="U.ss01" 
d="M791 700l-101 -700h-158l17 115q-45 -55 -107 -84.5t-136 -30.5q-108 0 -164.5 70.5t-39.5 185.5l64 444h160l-59 -406q-9 -65 24 -105.5t95 -40.5q49 0 90.5 23t68 63t34.5 89l54 377h158z" />
    <glyph glyph-name="Uacute.ss01" 
d="M539 765h-122l130 163l135 -54zM791 700l-101 -700h-158l17 115q-45 -55 -107 -84.5t-136 -30.5q-108 0 -164.5 70.5t-39.5 185.5l64 444h160l-59 -406q-9 -65 24 -105.5t95 -40.5q49 0 90.5 23t68 63t34.5 89l54 377h158z" />
    <glyph glyph-name="Ubreve.ss01" 
d="M497.5 765q-67.5 0 -104.5 42t-30 112h98q-2 -27 12 -43.5t38 -16.5t42.5 16.5t23.5 43.5h98q-13 -70 -61.5 -112t-116 -42zM791 700l-101 -700h-158l17 115q-45 -55 -107 -84.5t-136 -30.5q-108 0 -164.5 70.5t-39.5 185.5l64 444h160l-59 -406q-9 -65 24 -105.5
t95 -40.5q49 0 90.5 23t68 63t34.5 89l54 377h158z" />
    <glyph glyph-name="Ucircumflex.ss01" 
d="M438 773h-113l131 148h128l87 -148h-113l-47 85zM791 700l-101 -700h-158l17 115q-45 -55 -107 -84.5t-136 -30.5q-108 0 -164.5 70.5t-39.5 185.5l64 444h160l-59 -406q-9 -65 24 -105.5t95 -40.5q49 0 90.5 23t68 63t34.5 89l54 377h158z" />
    <glyph glyph-name="Udieresis.ss01" 
d="M405.5 783q-31.5 0 -48.5 21t-13 53q5 33 28.5 54t55 21t49 -21t12.5 -54q-4 -32 -28 -53t-55.5 -21zM593.5 783q-31.5 0 -48.5 21t-13 53q5 33 28.5 54t55 21t49 -21t12.5 -54q-4 -32 -28 -53t-55.5 -21zM791 700l-101 -700h-158l17 115q-45 -55 -107 -84.5t-136 -30.5
q-108 0 -164.5 70.5t-39.5 185.5l64 444h160l-59 -406q-9 -65 24 -105.5t95 -40.5q49 0 90.5 23t68 63t34.5 89l54 377h158z" />
    <glyph glyph-name="Ugrave.ss01" 
d="M454 765l-111 110l151 53l83 -163h-123zM791 700l-101 -700h-158l17 115q-45 -55 -107 -84.5t-136 -30.5q-108 0 -164.5 70.5t-39.5 185.5l64 444h160l-59 -406q-9 -65 24 -105.5t95 -40.5q49 0 90.5 23t68 63t34.5 89l54 377h158z" />
    <glyph glyph-name="Uhungarumlaut.ss01" 
d="M446 763h-114l109 167l113 -47zM517 763l108 167l114 -47l-108 -120h-114zM791 700l-101 -700h-158l17 115q-45 -55 -107 -84.5t-136 -30.5q-108 0 -164.5 70.5t-39.5 185.5l64 444h160l-59 -406q-9 -65 24 -105.5t95 -40.5q49 0 90.5 23t68 63t34.5 89l54 377h158z" />
    <glyph glyph-name="Umacron.ss01" 
d="M638 797h-271l15 108h271zM791 700l-101 -700h-158l17 115q-45 -55 -107 -84.5t-136 -30.5q-108 0 -164.5 70.5t-39.5 185.5l64 444h160l-59 -406q-9 -65 24 -105.5t95 -40.5q49 0 90.5 23t68 63t34.5 89l54 377h158z" />
    <glyph glyph-name="Uogonek.ss01" 
d="M660 -90l34 -48q-47 -64 -113 -64q-35 0 -57 20t-16 61q7 53 65 121h-41l17 115q-45 -55 -107 -84.5t-136 -30.5q-108 0 -164.5 70.5t-39.5 185.5l64 444h160l-59 -406q-9 -65 24 -105.5t95 -40.5q49 0 90.5 23t68 63t34.5 89l54 377h158l-101 -700h-42q-53 -64 -58 -96
q-1 -8 1.5 -13.5t7.5 -8.5t12 -3q23 0 49 31z" />
    <glyph glyph-name="Uring.ss01" 
d="M493 736q-50 0 -80 35t-23 84t47.5 84t90 35t79.5 -35t23 -84t-47 -84t-90 -35zM518 909q-24 0 -43 -15.5t-22 -38.5q-2 -15 3.5 -28t18 -20t27.5 -7q24 0 43.5 16t22.5 39q3 22 -11.5 38t-38.5 16zM791 700l-101 -700h-158l17 115q-45 -55 -107 -84.5t-136 -30.5
q-108 0 -164.5 70.5t-39.5 185.5l64 444h160l-59 -406q-9 -65 24 -105.5t95 -40.5q49 0 90.5 23t68 63t34.5 89l54 377h158z" />
    <glyph glyph-name="Utilde.ss01" 
d="M463 830q-33 0 -40 -45h-95q22 151 122 151q25 0 46 -12.5t36.5 -25t27.5 -12.5q33 0 39 44h95q-21 -149 -121 -149q-21 0 -39 7.5t-28 17t-21.5 17t-21.5 7.5zM791 700l-101 -700h-158l17 115q-45 -55 -107 -84.5t-136 -30.5q-108 0 -164.5 70.5t-39.5 185.5l64 444h160
l-59 -406q-9 -65 24 -105.5t95 -40.5q49 0 90.5 23t68 63t34.5 89l54 377h158z" />
    <glyph glyph-name="W.ss01" horiz-adv-x="1171" 
d="M1207 700l-62 -430q-18 -122 -105 -199.5t-207 -77.5q-81 0 -143.5 36t-85.5 94q-40 -58 -112 -94t-154 -36q-121 0 -187 77.5t-48 199.5l62 430h158l-62 -430q-9 -61 25 -100t97 -39q42 0 77 17.5t57.5 49t28.5 72.5l62 430h158l-62 -430q-9 -61 26 -100t99 -39
q62 0 105.5 38.5t52.5 100.5l62 430h158z" />
    <glyph glyph-name="Wacute.ss01" horiz-adv-x="1171" 
d="M880 874l-143 -109h-122l130 163zM1207 700l-62 -430q-18 -122 -105 -199.5t-207 -77.5q-81 0 -143.5 36t-85.5 94q-40 -58 -112 -94t-154 -36q-121 0 -187 77.5t-48 199.5l62 430h158l-62 -430q-9 -61 25 -100t97 -39q42 0 77 17.5t57.5 49t28.5 72.5l62 430h158
l-62 -430q-9 -61 26 -100t99 -39q62 0 105.5 38.5t52.5 100.5l62 430h158z" />
    <glyph glyph-name="Wcircumflex.ss01" horiz-adv-x="1171" 
d="M869 773h-113l-47 85l-73 -85h-113l131 148h128zM1207 700l-62 -430q-18 -122 -105 -199.5t-207 -77.5q-81 0 -143.5 36t-85.5 94q-40 -58 -112 -94t-154 -36q-121 0 -187 77.5t-48 199.5l62 430h158l-62 -430q-9 -61 25 -100t97 -39q42 0 77 17.5t57.5 49t28.5 72.5
l62 430h158l-62 -430q-9 -61 26 -100t99 -39q62 0 105.5 38.5t52.5 100.5l62 430h158z" />
    <glyph glyph-name="Wdieresis.ss01" horiz-adv-x="1171" 
d="M625.5 932q31.5 0 49 -21t12.5 -54q-4 -32 -28 -53t-55.5 -21t-48.5 21t-13 53q5 33 28.5 54t55 21zM813.5 932q31.5 0 49 -21t12.5 -54q-4 -32 -28 -53t-55.5 -21t-48.5 21t-13 53q5 33 28.5 54t55 21zM1207 700l-62 -430q-18 -122 -105 -199.5t-207 -77.5
q-81 0 -143.5 36t-85.5 94q-40 -58 -112 -94t-154 -36q-121 0 -187 77.5t-48 199.5l62 430h158l-62 -430q-9 -61 25 -100t97 -39q42 0 77 17.5t57.5 49t28.5 72.5l62 430h158l-62 -430q-9 -61 26 -100t99 -39q62 0 105.5 38.5t52.5 100.5l62 430h158z" />
    <glyph glyph-name="Wgrave.ss01" horiz-adv-x="1171" 
d="M775 765h-123l-111 110l151 53zM1207 700l-62 -430q-18 -122 -105 -199.5t-207 -77.5q-81 0 -143.5 36t-85.5 94q-40 -58 -112 -94t-154 -36q-121 0 -187 77.5t-48 199.5l62 430h158l-62 -430q-9 -61 25 -100t97 -39q42 0 77 17.5t57.5 49t28.5 72.5l62 430h158l-62 -430
q-9 -61 26 -100t99 -39q62 0 105.5 38.5t52.5 100.5l62 430h158z" />
    <glyph glyph-name="Y.ss01" horiz-adv-x="741" 
d="M778 700l-75 -519q-9 -64 -39.5 -117.5t-76.5 -91t-107 -58.5t-130 -21q-83 0 -159 29t-119 77l83 110q34 -35 87.5 -56.5t106.5 -21.5q78 0 133 43t65 111l11 78q-41 -52 -97 -80t-122 -29q-112 0 -172 74t-42 192l40 280h158l-38 -265q-5 -30 2 -56t23 -44.5t41 -28.5
t57 -10q33 0 64 13t54.5 35t39.5 53.5t21 68.5l34 234h157z" />
    <glyph glyph-name="Yacute.ss01" horiz-adv-x="741" 
d="M523 765h-122l130 163l135 -54zM778 700l-75 -519q-9 -64 -39.5 -117.5t-76.5 -91t-107 -58.5t-130 -21q-83 0 -159 29t-119 77l83 110q34 -35 87.5 -56.5t106.5 -21.5q78 0 133 43t65 111l11 78q-41 -52 -97 -80t-122 -29q-112 0 -172 74t-42 192l40 280h158l-38 -265
q-5 -30 2 -56t23 -44.5t41 -28.5t57 -10q33 0 64 13t54.5 35t39.5 53.5t21 68.5l34 234h157z" />
    <glyph glyph-name="Ycircumflex.ss01" horiz-adv-x="741" 
d="M422 773h-113l131 148h128l87 -148h-113l-47 85zM778 700l-75 -519q-9 -64 -39.5 -117.5t-76.5 -91t-107 -58.5t-130 -21q-83 0 -159 29t-119 77l83 110q34 -35 87.5 -56.5t106.5 -21.5q78 0 133 43t65 111l11 78q-41 -52 -97 -80t-122 -29q-112 0 -172 74t-42 192
l40 280h158l-38 -265q-5 -30 2 -56t23 -44.5t41 -28.5t57 -10q33 0 64 13t54.5 35t39.5 53.5t21 68.5l34 234h157z" />
    <glyph glyph-name="Ydieresis.ss01" horiz-adv-x="741" 
d="M389.5 783q-31.5 0 -48.5 21t-13 53q5 33 28.5 54t55 21t49 -21t12.5 -54q-4 -32 -28 -53t-55.5 -21zM577.5 783q-31.5 0 -48.5 21t-13 53q5 33 28.5 54t55 21t49 -21t12.5 -54q-4 -32 -28 -53t-55.5 -21zM778 700l-75 -519q-9 -64 -39.5 -117.5t-76.5 -91t-107 -58.5
t-130 -21q-83 0 -159 29t-119 77l83 110q34 -35 87.5 -56.5t106.5 -21.5q78 0 133 43t65 111l11 78q-41 -52 -97 -80t-122 -29q-112 0 -172 74t-42 192l40 280h158l-38 -265q-5 -30 2 -56t23 -44.5t41 -28.5t57 -10q33 0 64 13t54.5 35t39.5 53.5t21 68.5l34 234h157z" />
    <glyph glyph-name="Ygrave.ss01" horiz-adv-x="741" 
d="M438 765l-111 110l151 53l83 -163h-123zM778 700l-75 -519q-9 -64 -39.5 -117.5t-76.5 -91t-107 -58.5t-130 -21q-83 0 -159 29t-119 77l83 110q34 -35 87.5 -56.5t106.5 -21.5q78 0 133 43t65 111l11 78q-41 -52 -97 -80t-122 -29q-112 0 -172 74t-42 192l40 280h158
l-38 -265q-5 -30 2 -56t23 -44.5t41 -28.5t57 -10q33 0 64 13t54.5 35t39.5 53.5t21 68.5l34 234h157z" />
    <glyph glyph-name="Z.ss01" horiz-adv-x="672" 
d="M660 132l-20 -132h-609l15 107l185 186h-4l16 111h48l1 5h55l158 159h-379l19 132h591l-15 -106l-184 -185h3l-16 -111h-56l-1 -5h-45l-159 -161h397z" />
    <glyph glyph-name="Zacute.ss01" horiz-adv-x="672" 
d="M488 765h-122l130 163l135 -54zM660 132l-20 -132h-609l15 107l185 186h-4l16 111h48l1 5h55l158 159h-379l19 132h591l-15 -106l-184 -185h3l-16 -111h-56l-1 -5h-45l-159 -161h397z" />
    <glyph glyph-name="Zcaron.ss01" horiz-adv-x="672" 
d="M373 761l-94 160h124l48 -92l76 92h124l-140 -160h-138zM660 132l-20 -132h-609l15 107l185 186h-4l16 111h48l1 5h55l158 159h-379l19 132h591l-15 -106l-184 -185h3l-16 -111h-56l-1 -5h-45l-159 -161h397z" />
    <glyph glyph-name="Zdotaccent.ss01" horiz-adv-x="672" 
d="M447 768q-37 0 -56.5 24t-14.5 62q4 25 17 44.5t33.5 30.5t44.5 11q37 0 56.5 -24t14.5 -62q-4 -25 -17 -44.5t-33.5 -30.5t-44.5 -11zM660 132l-20 -132h-609l15 107l185 186h-4l16 111h48l1 5h55l158 159h-379l19 132h591l-15 -106l-184 -185h3l-16 -111h-56l-1 -5h-45
l-159 -161h397z" />
    <glyph glyph-name="a.ss01" horiz-adv-x="679" 
d="M682 538l-78 -538h-153l11 77q-71 -83 -181 -83q-114 0 -173 76t-41 201q18 122 97 197t191 76q114 0 162 -84l12 78h153zM335 118q54 0 95.5 36t56.5 95l5 36q3 59 -28.5 95t-85.5 36q-60 0 -103.5 -41.5t-54.5 -107.5q-8 -66 23.5 -107.5t91.5 -41.5z" />
    <glyph glyph-name="aacute.ss01" horiz-adv-x="679" 
d="M463 602h-122l129 163l135 -54zM682 538l-78 -538h-153l11 77q-71 -83 -181 -83q-114 0 -173 76t-41 201q18 122 97 197t191 76q114 0 162 -84l12 78h153zM335 118q54 0 95.5 36t56.5 95l5 36q3 59 -28.5 95t-85.5 36q-60 0 -103.5 -41.5t-54.5 -107.5
q-8 -66 23.5 -107.5t91.5 -41.5z" />
    <glyph glyph-name="abreve.ss01" horiz-adv-x="679" 
d="M420.5 602q-67.5 0 -104 42t-29.5 112h98q-1 -13 2 -24.5t9.5 -19t16 -12t21.5 -4.5q24 0 43 16.5t24 43.5h98q-13 -70 -62 -112t-116.5 -42zM682 538l-78 -538h-153l11 77q-71 -83 -181 -83q-114 0 -173 76t-41 201q18 122 97 197t191 76q114 0 162 -84l12 78h153z
M335 118q54 0 95.5 36t56.5 95l5 36q3 59 -28.5 95t-85.5 36q-60 0 -103.5 -41.5t-54.5 -107.5q-8 -66 23.5 -107.5t91.5 -41.5z" />
    <glyph glyph-name="acircumflex.ss01" horiz-adv-x="679" 
d="M362 610h-113l130 148h128l88 -148h-113l-48 85zM682 538l-78 -538h-153l11 77q-71 -83 -181 -83q-114 0 -173 76t-41 201q18 122 97 197t191 76q114 0 162 -84l12 78h153zM335 118q54 0 95.5 36t56.5 95l5 36q3 59 -28.5 95t-85.5 36q-60 0 -103.5 -41.5t-54.5 -107.5
q-8 -66 23.5 -107.5t91.5 -41.5z" />
    <glyph glyph-name="adieresis.ss01" horiz-adv-x="679" 
d="M329.5 620q-31.5 0 -49 21t-12.5 53q5 33 28 54t54.5 21t49.5 -21t13 -54q-5 -32 -28.5 -53t-55 -21zM517.5 620q-31.5 0 -49 21t-12.5 53q5 33 28 54t54.5 21t49.5 -21t13 -54q-5 -32 -28.5 -53t-55 -21zM682 538l-78 -538h-153l11 77q-71 -83 -181 -83q-114 0 -173 76
t-41 201q18 122 97 197t191 76q114 0 162 -84l12 78h153zM335 118q54 0 95.5 36t56.5 95l5 36q3 59 -28.5 95t-85.5 36q-60 0 -103.5 -41.5t-54.5 -107.5q-8 -66 23.5 -107.5t91.5 -41.5z" />
    <glyph glyph-name="agrave.ss01" horiz-adv-x="679" 
d="M378 602l-111 110l150 53l84 -163h-123zM682 538l-78 -538h-153l11 77q-71 -83 -181 -83q-114 0 -173 76t-41 201q18 122 97 197t191 76q114 0 162 -84l12 78h153zM335 118q54 0 95.5 36t56.5 95l5 36q3 59 -28.5 95t-85.5 36q-60 0 -103.5 -41.5t-54.5 -107.5
q-8 -66 23.5 -107.5t91.5 -41.5z" />
    <glyph glyph-name="amacron.ss01" horiz-adv-x="679" 
d="M561 634h-271l16 108h271zM682 538l-78 -538h-153l11 77q-71 -83 -181 -83q-114 0 -173 76t-41 201q18 122 97 197t191 76q114 0 162 -84l12 78h153zM335 118q54 0 95.5 36t56.5 95l5 36q3 59 -28.5 95t-85.5 36q-60 0 -103.5 -41.5t-54.5 -107.5q-8 -66 23.5 -107.5
t91.5 -41.5z" />
    <glyph glyph-name="aogonek.ss01" horiz-adv-x="679" 
d="M579 -90l34 -48q-47 -64 -113 -64q-35 0 -57 20t-16 61q7 53 65 121h-41l11 77q-71 -83 -181 -83q-114 0 -173 76t-41 201q18 122 97 197t191 76q114 0 162 -84l12 78h153l-78 -538h-37q-53 -64 -58 -96q-1 -6 0.5 -10.5t4 -8t6.5 -5t10 -1.5q23 0 49 31zM335 118
q54 0 95.5 36t56.5 95l5 36q3 59 -28.5 95t-85.5 36q-60 0 -103.5 -41.5t-54.5 -107.5q-8 -66 23.5 -107.5t91.5 -41.5z" />
    <glyph glyph-name="aring.ss01" horiz-adv-x="679" 
d="M417 573q-33 0 -58.5 16t-37.5 43.5t-7 59.5q7 49 47 84t89.5 35t80 -35t23.5 -84t-47.5 -84t-89.5 -35zM442 746q-24 0 -43 -15.5t-22 -38.5q-4 -23 10.5 -39t38.5 -16q16 0 30 7t24 20t12 28q3 22 -11.5 38t-38.5 16zM682 538l-78 -538h-153l11 77q-71 -83 -181 -83
q-114 0 -173 76t-41 201q18 122 97 197t191 76q114 0 162 -84l12 78h153zM335 118q54 0 95.5 36t56.5 95l5 36q3 59 -28.5 95t-85.5 36q-60 0 -103.5 -41.5t-54.5 -107.5q-8 -66 23.5 -107.5t91.5 -41.5z" />
    <glyph glyph-name="atilde.ss01" horiz-adv-x="679" 
d="M386 667q-33 0 -39 -45h-95q21 151 121 151q25 0 46 -12.5t36.5 -25t27.5 -12.5q33 0 40 44h95q-22 -149 -122 -149q-26 0 -47 12t-36 24.5t-27 12.5zM682 538l-78 -538h-153l11 77q-71 -83 -181 -83q-114 0 -173 76t-41 201q18 122 97 197t191 76q114 0 162 -84l12 78
h153zM335 118q54 0 95.5 36t56.5 95l5 36q3 59 -28.5 95t-85.5 36q-60 0 -103.5 -41.5t-54.5 -107.5q-8 -66 23.5 -107.5t91.5 -41.5z" />
    <glyph glyph-name="ae.ss01" horiz-adv-x="961" 
d="M707 114q80 0 154 70l76 -80q-108 -110 -257 -110q-76 0 -131 30t-82 85q-84 -116 -242 -116q-89 0 -135 47t-35 122t70.5 117.5t158.5 43.5h150l1 9q5 44 -20 67.5t-81 23.5q-75 0 -167 -47l-33 106q70 32 128 47t125 15q123 0 174 -65q81 64 192 64q116 1 176 -66.5
t48 -184.5l-386 -97q12 -38 42 -59.5t74 -21.5zM739 429q-59 0 -99 -37.5t-52 -104.5l250 64q-15 78 -99 78zM276 103q48 0 86 22.5t52 58.5l6 48h-122q-45 0 -69 -14.5t-28 -46.5q-5 -31 15 -49.5t60 -18.5z" />
    <glyph glyph-name="e.ss01" horiz-adv-x="605" 
d="M341 114q81 0 154 70l76 -80q-109 -110 -258 -110q-128 0 -196 75.5t-50 198.5q17 122 103 198t212 77q118 1 180 -66t50 -182l-387 -98q12 -39 42.5 -61t73.5 -22zM374 429q-59 0 -98.5 -36t-51.5 -104l245 64q-14 76 -95 76z" />
    <glyph glyph-name="eacute.ss01" horiz-adv-x="605" 
d="M433 602h-122l129 163l135 -54zM341 114q81 0 154 70l76 -80q-109 -110 -258 -110q-128 0 -196 75.5t-50 198.5q17 122 103 198t212 77q118 1 180 -66t50 -182l-387 -98q12 -39 42.5 -61t73.5 -22zM374 429q-59 0 -98.5 -36t-51.5 -104l245 64q-14 76 -95 76z" />
    <glyph glyph-name="ebreve.ss01" horiz-adv-x="605" 
d="M391 602q-68 0 -104.5 42t-29.5 112h98q-1 -13 2 -24.5t9.5 -19t16 -12t21.5 -4.5q24 0 43 16.5t24 43.5h98q-9 -46 -34 -81t-62.5 -54t-81.5 -19zM341 114q81 0 154 70l76 -80q-109 -110 -258 -110q-128 0 -196 75.5t-50 198.5q17 122 103 198t212 77q118 1 180 -66
t50 -182l-387 -98q12 -39 42.5 -61t73.5 -22zM374 429q-59 0 -98.5 -36t-51.5 -104l245 64q-14 76 -95 76z" />
    <glyph glyph-name="ecaron.ss01" horiz-adv-x="605" 
d="M317 598l-94 160h124l49 -92l75 92h124l-140 -160h-138zM341 114q81 0 154 70l76 -80q-109 -110 -258 -110q-128 0 -196 75.5t-50 198.5q17 122 103 198t212 77q118 1 180 -66t50 -182l-387 -98q12 -39 42.5 -61t73.5 -22zM374 429q-59 0 -98.5 -36t-51.5 -104l245 64
q-14 76 -95 76z" />
    <glyph glyph-name="ecircumflex.ss01" horiz-adv-x="605" 
d="M332 610h-113l130 148h128l88 -148h-113l-48 85zM341 114q81 0 154 70l76 -80q-109 -110 -258 -110q-128 0 -196 75.5t-50 198.5q17 122 103 198t212 77q118 1 180 -66t50 -182l-387 -98q12 -39 42.5 -61t73.5 -22zM374 429q-59 0 -98.5 -36t-51.5 -104l245 64
q-14 76 -95 76z" />
    <glyph glyph-name="edieresis.ss01" horiz-adv-x="605" 
d="M299.5 620q-31.5 0 -49 21t-12.5 53q5 33 28 54t54.5 21t49.5 -21t13 -54q-5 -32 -28.5 -53t-55 -21zM487.5 620q-31.5 0 -49 21t-12.5 53q5 33 28 54t54.5 21t49.5 -21t13 -54q-5 -32 -28.5 -53t-55 -21zM341 114q81 0 154 70l76 -80q-109 -110 -258 -110
q-128 0 -196 75.5t-50 198.5q17 122 103 198t212 77q118 1 180 -66t50 -182l-387 -98q12 -39 42.5 -61t73.5 -22zM374 429q-59 0 -98.5 -36t-51.5 -104l245 64q-14 76 -95 76z" />
    <glyph glyph-name="edotaccent.ss01" horiz-adv-x="605" 
d="M391.5 605q-36.5 0 -56.5 24t-14.5 62t32 62t63.5 24t56.5 -24t14 -62t-32 -62t-63 -24zM341 114q81 0 154 70l76 -80q-109 -110 -258 -110q-128 0 -196 75.5t-50 198.5q17 122 103 198t212 77q118 1 180 -66t50 -182l-387 -98q12 -39 42.5 -61t73.5 -22zM374 429
q-59 0 -98.5 -36t-51.5 -104l245 64q-14 76 -95 76z" />
    <glyph glyph-name="egrave.ss01" horiz-adv-x="605" 
d="M348 602l-111 110l150 53l84 -163h-123zM341 114q81 0 154 70l76 -80q-109 -110 -258 -110q-128 0 -196 75.5t-50 198.5q17 122 103 198t212 77q118 1 180 -66t50 -182l-387 -98q12 -39 42.5 -61t73.5 -22zM374 429q-59 0 -98.5 -36t-51.5 -104l245 64q-14 76 -95 76z
" />
    <glyph glyph-name="emacron.ss01" horiz-adv-x="605" 
d="M531 634h-271l16 108h271zM341 114q81 0 154 70l76 -80q-109 -110 -258 -110q-128 0 -196 75.5t-50 198.5q17 122 103 198t212 77q118 1 180 -66t50 -182l-387 -98q12 -39 42.5 -61t73.5 -22zM374 429q-59 0 -98.5 -36t-51.5 -104l245 64q-14 76 -95 76z" />
    <glyph glyph-name="eogonek.ss01" horiz-adv-x="605" 
d="M444 -121q22 0 48 31l34 -48q-47 -64 -112 -64q-35 0 -57 20t-16 61q9 63 78 141q-54 -26 -106 -26q-128 0 -196 75.5t-50 198.5q17 122 103 198t212 77q118 1 180 -66t50 -182l-387 -98q12 -39 42.5 -61t73.5 -22q81 0 148 58l68 -84q-125 -124 -134 -184
q-2 -12 4 -18.5t17 -6.5zM374 429q-59 0 -98.5 -36t-51.5 -104l245 64q-14 76 -95 76z" />
    <glyph glyph-name="f.ss01" horiz-adv-x="341" 
d="M371 622q-29 0 -49 -16t-24 -47l-7 -45h127l-15 -107h-127l-59 -407h-153l81 565q13 87 76.5 135.5t148.5 48.5q83 0 135 -38l-71 -112q-27 23 -63 23z" />
    <glyph glyph-name="g.ss01" horiz-adv-x="645" 
d="M655 538l-71 -488q-16 -115 -104.5 -183t-219.5 -67q-74 1 -135 33.5t-87 88.5l87 89q23 -39 61 -62t85 -24q65 -1 109 32t51 88l9 62q-67 -79 -171 -79q-107 0 -161.5 71.5t-37.5 188.5q16 114 90 184t179 71q108 0 153 -79l11 74h152zM320 145q56 0 96 38.5t50 100.5
q8 62 -21 100.5t-85 38.5q-37 0 -68.5 -17.5t-52 -49t-26.5 -72.5q-8 -62 21 -100.5t86 -38.5z" />
    <glyph glyph-name="gbreve.ss01" horiz-adv-x="645" 
d="M403.5 602q-67.5 0 -104 42t-29.5 112h98q-1 -13 2 -24.5t9.5 -19t16 -12t21.5 -4.5q24 0 43 16.5t24 43.5h98q-13 -70 -62 -112t-116.5 -42zM655 538l-71 -488q-16 -115 -104.5 -183t-219.5 -67q-74 1 -135 33.5t-87 88.5l87 89q23 -39 61 -62t85 -24q65 -1 109 32
t51 88l9 62q-67 -79 -171 -79q-107 0 -161.5 71.5t-37.5 188.5q16 114 90 184t179 71q108 0 153 -79l11 74h152zM320 145q56 0 96 38.5t50 100.5q8 62 -21 100.5t-85 38.5q-37 0 -68.5 -17.5t-52 -49t-26.5 -72.5q-8 -62 21 -100.5t86 -38.5z" />
    <glyph glyph-name="gcircumflex.ss01" horiz-adv-x="645" 
d="M345 610h-113l130 148h128l88 -148h-113l-48 85zM655 538l-71 -488q-16 -115 -104.5 -183t-219.5 -67q-74 1 -135 33.5t-87 88.5l87 89q23 -39 61 -62t85 -24q65 -1 109 32t51 88l9 62q-67 -79 -171 -79q-107 0 -161.5 71.5t-37.5 188.5q16 114 90 184t179 71
q108 0 153 -79l11 74h152zM320 145q56 0 96 38.5t50 100.5q8 62 -21 100.5t-85 38.5q-37 0 -68.5 -17.5t-52 -49t-26.5 -72.5q-8 -62 21 -100.5t86 -38.5z" />
    <glyph glyph-name="gcommaaccent.ss01" horiz-adv-x="710" 
d="M396 581q-32 0 -50.5 21t-13.5 56q4 32 30 63l81 100h75l-56 -101q27 -23 21 -62q-5 -34 -29.5 -55.5t-57.5 -21.5zM655 538l-71 -488q-16 -115 -104.5 -183t-219.5 -67q-74 1 -135 33.5t-87 88.5l87 89q23 -39 61 -62t85 -24q65 -1 109 32t51 88l9 62q-67 -79 -171 -79
q-107 0 -161.5 71.5t-37.5 188.5q16 114 90 184t179 71q108 0 153 -79l11 74h152zM320 145q56 0 96 38.5t50 100.5q8 62 -21 100.5t-85 38.5q-37 0 -68.5 -17.5t-52 -49t-26.5 -72.5q-8 -62 21 -100.5t86 -38.5z" />
    <glyph glyph-name="gdotaccent.ss01" horiz-adv-x="645" 
d="M404.5 605q-36.5 0 -56.5 24t-14.5 62t32 62t63.5 24t56.5 -24t14 -62t-32 -62t-63 -24zM655 538l-71 -488q-16 -115 -104.5 -183t-219.5 -67q-74 1 -135 33.5t-87 88.5l87 89q23 -39 61 -62t85 -24q65 -1 109 32t51 88l9 62q-67 -79 -171 -79q-107 0 -161.5 71.5
t-37.5 188.5q16 114 90 184t179 71q108 0 153 -79l11 74h152zM320 145q56 0 96 38.5t50 100.5q8 62 -21 100.5t-85 38.5q-37 0 -68.5 -17.5t-52 -49t-26.5 -72.5q-8 -62 21 -100.5t86 -38.5z" />
    <glyph glyph-name="l.ss01" horiz-adv-x="332" 
d="M325 742l-80 -554q-3 -19 1.5 -32.5t14 -19.5t24.5 -6q20 0 54 15l-4 -128q-54 -24 -105 -24q-72 0 -112 47.5t-27 137.5l81 564h153z" />
    <glyph glyph-name="oe.ss01" horiz-adv-x="1028" 
d="M764 114q81 0 154 70l76 -80q-109 -110 -257 -110q-70 0 -120.5 26.5t-76.5 75.5q-83 -102 -224 -102q-129 0 -198 76t-51 199q18 124 108 199t220 75q140 0 194 -100q81 99 217 100q117 1 179 -66t50 -182l-387 -98q12 -39 42.5 -61t73.5 -22zM797 429q-59 0 -98.5 -36
t-51.5 -104l245 64q-14 76 -95 76zM334 119q60 0 103 41t52 107q7 43 -5 77t-40 52.5t-67 18.5q-60 0 -103.5 -41t-53 -107t22 -107t91.5 -41z" />
    <glyph glyph-name="t.ss01" horiz-adv-x="390" 
d="M360 143l15 -113q-69 -37 -142 -37q-76 0 -117 47t-29 131l70 491h153l-21 -148h147l-15 -107h-147l-31 -210q-11 -76 44 -74q28 0 73 20z" />
    <glyph glyph-name="tbar.ss01" horiz-adv-x="390" 
d="M360 143l15 -113q-69 -37 -142 -37q-76 0 -117 47t-29 131l70 491h153l-21 -148h146l-14 -96h-146l-11 -79h146l-14 -96h-146l-7 -46q-11 -76 44 -74q28 0 73 20z" />
    <glyph glyph-name="tcaron.ss01" horiz-adv-x="390" 
d="M503 822q32 0 50.5 -21t13.5 -57q-5 -33 -30 -62l-81 -101h-75l56 101q-28 22 -22 62q3 23 16 40.5t32 27.5t40 10zM287 123q28 0 73 20l15 -113q-69 -37 -142 -37q-76 0 -117 47t-29 131l70 491h153l-21 -148h147l-15 -107h-147l-31 -210q-11 -76 44 -74z" />
    <glyph glyph-name="tcedilla.ss01" horiz-adv-x="390" 
d="M262 -5l-28 -45q30 -8 45 -29.5t11 -51.5q-7 -46 -43.5 -73.5t-88.5 -27.5q-50 0 -89 30l39 67q20 -20 49 -20q13 0 23.5 5.5t17 14t7.5 18.5q2 16 -8.5 26t-32.5 10q-12 0 -36 -4l52 85q-53 15 -78 59t-15 112l70 491h153l-21 -148h147l-15 -107h-147l-31 -210
q-11 -76 44 -74q28 0 73 20l15 -113q-56 -29 -113 -35z" />
    <glyph glyph-name="tcommaaccent.ss01" horiz-adv-x="390" 
d="M360 143l15 -113q-69 -37 -142 -37q-76 0 -117 47t-29 131l70 491h153l-21 -148h147l-15 -107h-147l-31 -210q-11 -76 44 -74q28 0 73 20zM205 -43q31 0 50 -21t14 -56q-5 -32 -30 -63l-82 -101h-75l57 101q-28 22 -22 62q4 34 29.5 56t58.5 22z" />
    <glyph glyph-name="w.ss01" horiz-adv-x="976" 
d="M998 538l-45 -309q-15 -106 -87 -171t-175 -65q-62 0 -114 30.5t-73 79.5q-34 -49 -94.5 -79.5t-123.5 -30.5q-103 0 -157 65t-39 171l45 309h153l-44 -302q-3 -23 1.5 -42t16 -32.5t29.5 -21t40 -7.5q46 0 77 28t38 75l44 302h152l-44 -302q-7 -46 18 -74.5t72 -28.5
q44 0 75 28.5t38 74.5l44 302h153z" />
    <glyph glyph-name="wacute.ss01" horiz-adv-x="976" 
d="M759 711l-142 -109h-122l129 163zM998 538l-45 -309q-15 -106 -87 -171t-175 -65q-62 0 -114 30.5t-73 79.5q-34 -49 -94.5 -79.5t-123.5 -30.5q-103 0 -157 65t-39 171l45 309h153l-44 -302q-3 -23 1.5 -42t16 -32.5t29.5 -21t40 -7.5q46 0 77 28t38 75l44 302h152
l-44 -302q-7 -46 18 -74.5t72 -28.5q44 0 75 28.5t38 74.5l44 302h153z" />
    <glyph glyph-name="wcircumflex.ss01" horiz-adv-x="976" 
d="M749 610h-113l-48 85l-72 -85h-113l130 148h128zM998 538l-45 -309q-15 -106 -87 -171t-175 -65q-62 0 -114 30.5t-73 79.5q-34 -49 -94.5 -79.5t-123.5 -30.5q-103 0 -157 65t-39 171l45 309h153l-44 -302q-3 -23 1.5 -42t16 -32.5t29.5 -21t40 -7.5q46 0 77 28t38 75
l44 302h152l-44 -302q-7 -46 18 -74.5t72 -28.5q44 0 75 28.5t38 74.5l44 302h153z" />
    <glyph glyph-name="wdieresis.ss01" horiz-adv-x="976" 
d="M504.5 769q31.5 0 49.5 -21t13 -54q-5 -32 -28.5 -53t-55 -21t-49 21t-12.5 53q5 33 28 54t54.5 21zM692.5 769q31.5 0 49.5 -21t13 -54q-5 -32 -28.5 -53t-55 -21t-49 21t-12.5 53q5 33 28 54t54.5 21zM998 538l-45 -309q-15 -106 -87 -171t-175 -65q-62 0 -114 30.5
t-73 79.5q-34 -49 -94.5 -79.5t-123.5 -30.5q-103 0 -157 65t-39 171l45 309h153l-44 -302q-3 -23 1.5 -42t16 -32.5t29.5 -21t40 -7.5q46 0 77 28t38 75l44 302h152l-44 -302q-7 -46 18 -74.5t72 -28.5q44 0 75 28.5t38 74.5l44 302h153z" />
    <glyph glyph-name="wgrave.ss01" horiz-adv-x="976" 
d="M655 602h-123l-111 110l150 53zM998 538l-45 -309q-15 -106 -87 -171t-175 -65q-62 0 -114 30.5t-73 79.5q-34 -49 -94.5 -79.5t-123.5 -30.5q-103 0 -157 65t-39 171l45 309h153l-44 -302q-3 -23 1.5 -42t16 -32.5t29.5 -21t40 -7.5q46 0 77 28t38 75l44 302h152
l-44 -302q-7 -46 18 -74.5t72 -28.5q44 0 75 28.5t38 74.5l44 302h153z" />
    <glyph glyph-name="y.ss01" horiz-adv-x="662" 
d="M672 538l-70 -482q-16 -115 -103.5 -186t-211.5 -70q-61 1 -123.5 21.5t-102.5 53.5l55 109q34 -26 81.5 -42t90.5 -17q65 0 109.5 36.5t53.5 97.5l11 83q-72 -97 -202 -98q-89 0 -133.5 56t-31.5 151l42 287h154l-35 -242q-8 -51 16 -80.5t73 -29.5q38 0 68.5 18t50 50
t25.5 75l31 209h152z" />
    <glyph glyph-name="yacute.ss01" horiz-adv-x="662" 
d="M455 602h-122l129 163l135 -54zM672 538l-70 -482q-16 -115 -103.5 -186t-211.5 -70q-61 1 -123.5 21.5t-102.5 53.5l55 109q34 -26 81.5 -42t90.5 -17q65 0 109.5 36.5t53.5 97.5l11 83q-72 -97 -202 -98q-89 0 -133.5 56t-31.5 151l42 287h154l-35 -242
q-8 -51 16 -80.5t73 -29.5q38 0 68.5 18t50 50t25.5 75l31 209h152z" />
    <glyph glyph-name="ycircumflex.ss01" horiz-adv-x="662" 
d="M354 610h-113l130 148h128l88 -148h-113l-48 85zM672 538l-70 -482q-16 -115 -103.5 -186t-211.5 -70q-61 1 -123.5 21.5t-102.5 53.5l55 109q34 -26 81.5 -42t90.5 -17q65 0 109.5 36.5t53.5 97.5l11 83q-72 -97 -202 -98q-89 0 -133.5 56t-31.5 151l42 287h154
l-35 -242q-8 -51 16 -80.5t73 -29.5q38 0 68.5 18t50 50t25.5 75l31 209h152z" />
    <glyph glyph-name="ydieresis.ss01" horiz-adv-x="662" 
d="M321.5 620q-31.5 0 -49 21t-12.5 53q5 33 28 54t54.5 21t49.5 -21t13 -54q-5 -32 -28.5 -53t-55 -21zM509.5 620q-31.5 0 -49 21t-12.5 53q5 33 28 54t54.5 21t49.5 -21t13 -54q-5 -32 -28.5 -53t-55 -21zM672 538l-70 -482q-16 -115 -103.5 -186t-211.5 -70
q-61 1 -123.5 21.5t-102.5 53.5l55 109q34 -26 81.5 -42t90.5 -17q65 0 109.5 36.5t53.5 97.5l11 83q-72 -97 -202 -98q-89 0 -133.5 56t-31.5 151l42 287h154l-35 -242q-8 -51 16 -80.5t73 -29.5q38 0 68.5 18t50 50t25.5 75l31 209h152z" />
    <glyph glyph-name="ygrave.ss01" horiz-adv-x="662" 
d="M370 602l-111 110l150 53l84 -163h-123zM672 538l-70 -482q-16 -115 -103.5 -186t-211.5 -70q-61 1 -123.5 21.5t-102.5 53.5l55 109q34 -26 81.5 -42t90.5 -17q65 0 109.5 36.5t53.5 97.5l11 83q-72 -97 -202 -98q-89 0 -133.5 56t-31.5 151l42 287h154l-35 -242
q-8 -51 16 -80.5t73 -29.5q38 0 68.5 18t50 50t25.5 75l31 209h152z" />
    <glyph glyph-name="z.ss01" horiz-adv-x="548" 
d="M533 121l-17 -122l-478 1l14 97l132 130h-77l13 95h159l96 94l-267 1l17 120h459l-14 -97l-127 -126h73l-13 -95h-156l-100 -98h286z" />
    <glyph glyph-name="zacute.ss01" horiz-adv-x="548" 
d="M403 602h-122l129 163l135 -54zM533 121l-17 -122l-478 1l14 97l132 130h-77l13 95h159l96 94l-267 1l17 120h459l-14 -97l-127 -126h73l-13 -95h-156l-100 -98h286z" />
    <glyph glyph-name="zcaron.ss01" horiz-adv-x="548" 
d="M287 598l-94 160h124l49 -92l75 92h124l-140 -160h-138zM533 121l-17 -122l-478 1l14 97l132 130h-77l13 95h159l96 94l-267 1l17 120h459l-14 -97l-127 -126h73l-13 -95h-156l-100 -98h286z" />
    <glyph glyph-name="zdotaccent.ss01" horiz-adv-x="548" 
d="M361 605q-36 0 -56 24t-14.5 62t32 62t63.5 24t56.5 -24t14.5 -62q-4 -25 -17.5 -44.5t-34 -30.5t-44.5 -11zM533 121l-17 -122l-478 1l14 97l132 130h-77l13 95h159l96 94l-267 1l17 120h459l-14 -97l-127 -126h73l-13 -95h-156l-100 -98h286z" />
    <glyph glyph-name="fi.ss01" horiz-adv-x="642" 
d="M578 605q-36 0 -56 24.5t-14.5 61.5t32.5 61.5t63 24.5q37 0 57 -24t14.5 -62t-32.5 -62t-64 -24zM64 0l81 565q13 87 77 135.5t148 48.5q59 0 101 -21l-25 -128q-39 21 -76 21q-14 0 -26 -3.5t-21.5 -10.5t-16 -19.5t-8.5 -28.5l-7 -45h127l-15 -107h-127l-59 -407h-153
zM493 538h153l-78 -538h-153z" />
    <glyph glyph-name="fl.ss01" horiz-adv-x="715" 
d="M704 45l-3 -128q-54 -24 -105 -24q-72 0 -112.5 47.5t-27.5 137.5l67 464q4 25 -4.5 43t-29.5 27.5t-52 9.5q-44 1 -70 -16.5t-31 -49.5l-8 -58h104l-16 -107h-104l-56 -391h-153l56 391h-72l16 107h72l10 69q12 87 84.5 134.5t193.5 46.5q77 0 128.5 -23.5t73 -68.5
t12.5 -108l-66 -460q-3 -19 1.5 -32.5t14 -19.5t23.5 -6q21 0 54 15z" />
    <glyph glyph-name="zero.ss01" horiz-adv-x="699" 
d="M437 605q137 0 209 -84t52 -220q-19 -137 -115.5 -221.5t-233.5 -84.5t-209 84.5t-53 221.5q20 136 116.5 220t233.5 84zM419 481q-65 0 -111.5 -48.5t-58.5 -131.5q-12 -84 20.5 -133t97.5 -49t111 49t58 133q12 83 -20 131.5t-97 48.5z" />
    <glyph glyph-name="one.ss01" horiz-adv-x="404" 
d="M299 0h-158l67 466h-132l19 134h290z" />
    <glyph glyph-name="two.ss01" horiz-adv-x="549" 
d="M368 609q93 0 146.5 -44t43.5 -115q-12 -85 -147 -201l-143 -117h262l-19 -132h-468l15 106l257 224q68 58 73 96q4 23 -13 36.5t-50 13.5q-78 0 -183 -77l-42 118q138 92 268 92z" />
    <glyph glyph-name="three.ss01" horiz-adv-x="552" 
d="M346 315l34 -5q80 -12 122.5 -62t30.5 -129q-9 -66 -48.5 -117.5t-103.5 -80t-143 -28.5q-69 0 -134 22.5t-108 59.5l83 126q66 -83 165 -83q57 0 92 26.5t42 72.5q7 47 -21 71t-86 24h-107l12 88l189 171h-263l18 128h450l-13 -95z" />
    <glyph glyph-name="four.ss01" horiz-adv-x="622" 
d="M220 186h168l22 154h147l-22 -154h97l-19 -128h-97l-22 -158h-147l22 158h-333l16 112l289 430h152z" />
    <glyph glyph-name="five.ss01" horiz-adv-x="589" 
d="M591 468h-304l-17 -123l73 1q118 0 180.5 -59t48.5 -153q-15 -109 -99 -174.5t-207 -65.5q-66 0 -134 23t-117 62l81 125q71 -83 170 -83q57 0 93 27t43 76q6 44 -22.5 68.5t-85.5 24.5q-114 0 -188 -5l55 388h448z" />
    <glyph glyph-name="six.ss01" horiz-adv-x="627" 
d="M462 707q56 0 114 -15.5t98 -40.5l-77 -116q-59 45 -143 45q-59 0 -102.5 -25t-68.5 -70t-33 -108q67 82 187 82q104 0 155.5 -61.5t37.5 -164.5q-11 -73 -50.5 -127.5t-101.5 -83.5t-139 -29q-138 0 -204 92.5t-43 253.5q24 167 124.5 267.5t245.5 100.5zM386 338
q-57 0 -94.5 -30.5t-43.5 -76.5q-7 -44 19.5 -75t83.5 -31q54 0 89 28.5t43 80.5q3 24 -1.5 43.5t-17 33t-32.5 20.5t-46 7z" />
    <glyph glyph-name="seven.ss01" horiz-adv-x="587" 
d="M638 487l-350 -587h-167l339 568h-219l-15 -98h-139l33 230h534z" />
    <glyph glyph-name="eight.ss01" horiz-adv-x="637" 
d="M420 707q113 0 172 -50.5t47 -135.5q-7 -46 -37.5 -85t-76.5 -61q56 -23 84 -70.5t19 -107.5q-13 -94 -97.5 -149t-212.5 -55q-130 0 -198 54.5t-55 147.5q9 60 52.5 108.5t110.5 71.5q-43 24 -64.5 64t-14.5 86q12 84 85.5 133t185.5 49zM405 598q-54 0 -86.5 -22.5
t-38.5 -63.5q-2 -14 -0.5 -25.5t7 -20.5t14 -16.5t20 -12.5t27 -7.5t33.5 -2.5q53 0 85 22t38 63t-20 63.5t-79 22.5zM362 308q-62 0 -100 -25t-44 -71q-7 -48 23 -73.5t94 -25.5q63 0 101.5 25.5t44.5 72.5q3 19 -0.5 34t-13 27t-24 20t-35 12t-46.5 4z" />
    <glyph glyph-name="nine.ss01" horiz-adv-x="627" 
d="M256 -107q-57 0 -115 15.5t-97 40.5l76 116q59 -45 144 -45q88 0 140 54t63 149q-66 -82 -187 -82q-103 0 -155 61.5t-37 164.5q16 111 95 175.5t195 64.5q139 0 205 -92.5t43 -253.5q-25 -167 -125.5 -267.5t-244.5 -100.5zM332 262q57 0 94 30.5t43 76.5q7 44 -19 75
t-84 31q-53 0 -88.5 -28.5t-42.5 -80.5q-7 -49 18.5 -76.5t78.5 -27.5z" />
    <glyph glyph-name="zero.dnom" horiz-adv-x="451" 
d="M285 419q90 0 133 -56.5t29 -154.5t-73.5 -154.5t-148.5 -56.5t-132 56.5t-29 154.5t73.5 154.5t147.5 56.5zM273 333q-43 0 -72.5 -33t-37.5 -92t11.5 -92t62.5 -33q44 0 73.5 33t37.5 92t-11.5 92t-63.5 33z" />
    <glyph glyph-name="one.dnom" horiz-adv-x="270" 
d="M93 0l47 329h-81l13 87h189l-60 -416h-108z" />
    <glyph glyph-name="two.dnom" horiz-adv-x="387" 
d="M259 420q42 0 73.5 -13.5t46.5 -38.5t11 -57q-9 -61 -102 -138l-103 -89h185l-12 -84h-324l10 70l178 156q48 42 52 70q2 17 -9.5 26.5t-35.5 9.5q-54 0 -126 -53l-31 78q96 63 187 63z" />
    <glyph glyph-name="three.dnom" horiz-adv-x="361" 
d="M241 248l20 -4q48 -7 73.5 -36.5t18.5 -76.5q-9 -60 -60 -98t-126 -38q-45 0 -86 14t-67 37l56 83q40 -52 100 -52q68 0 76 53q2 16 -4.5 27.5t-20.5 17t-36 5.5h-69l8 58l114 97h-162l12 80h286l-9 -63z" />
    <glyph glyph-name="four.dnom" horiz-adv-x="407" 
d="M254 168l13 92h102l-13 -92h59l-11 -78h-59l-13 -90h-102l13 90h-205l10 73l174 253h104l-167 -248h95z" />
    <glyph glyph-name="five.dnom" horiz-adv-x="383" 
d="M201 332l-11 -73q16 3 40 3q75 0 114.5 -33t31.5 -89q-9 -65 -62 -105t-131 -40q-42 0 -85 14t-74 38l55 84q42 -54 103 -54q32 0 52 14.5t24 41.5q4 23 -12.5 36t-48.5 13q-73 0 -118 -5l34 239h284l-12 -84h-184z" />
    <glyph glyph-name="six.dnom" horiz-adv-x="407" 
d="M295 420q80 0 134 -34l-52 -77q-36 27 -89 27q-34 0 -59 -13t-40 -38t-18 -61q35 49 111 49q63 0 96 -36.5t24 -97.5q-9 -66 -59 -105t-124 -39q-87 0 -128.5 55.5t-27.5 151.5q14 99 77 158.5t155 59.5zM246 194q-13 0 -24 -2.5t-19.5 -7.5t-15.5 -12t-11 -15.5
t-5 -18.5q-4 -24 10.5 -39.5t46.5 -15.5q30 0 49.5 15t23.5 42q4 26 -10.5 40t-44.5 14z" />
    <glyph glyph-name="seven.dnom" horiz-adv-x="384" 
d="M205 0h-116l205 332h-122l-9 -60h-96l21 144h338l-11 -75z" />
    <glyph glyph-name="eight.dnom" horiz-adv-x="413" 
d="M267 420q71 0 109 -30t30 -82q-3 -26 -21.5 -48.5t-45.5 -37.5q33 -14 50 -42t12 -62q-8 -57 -60.5 -90t-134.5 -33q-81 0 -124.5 32.5t-35.5 88.5q5 35 31.5 64t66.5 42q-26 15 -39 39t-9 51q7 49 53.5 78.5t117.5 29.5zM257 349q-64 0 -70 -47q-3 -14 3 -24.5t20 -15.5
t34 -5q63 0 70 45q3 22 -12 34.5t-45 12.5zM232 179q-24 0 -41 -6t-27 -18t-13 -28q-2 -17 4.5 -28.5t22.5 -17.5t40 -6q74 0 81 52q4 25 -13.5 38.5t-53.5 13.5z" />
    <glyph glyph-name="nine.dnom" horiz-adv-x="409" 
d="M174 -5q-78 0 -135 35l53 76q35 -26 89 -26q51 0 81.5 28.5t35.5 82.5q-37 -49 -112 -49q-63 0 -95.5 37t-23.5 98q9 66 59 104.5t124 38.5q86 0 128 -55t28 -151q-14 -99 -77 -159t-155 -60zM223 222q32 0 51.5 15.5t23.5 40.5q2 12 -0.5 21.5t-9.5 17t-19 12t-28 4.5
q-30 0 -49 -15t-23 -42q-4 -26 10 -40t44 -14z" />
    <glyph glyph-name="zero.numr" horiz-adv-x="451" 
d="M326 703q59 0 99 -25.5t56 -72.5t7 -112q-14 -98 -73.5 -155t-149.5 -57q-88 0 -131 57t-29 155q14 97 73.5 153.5t147.5 56.5zM314 617q-29 0 -52 -15t-37.5 -43t-20.5 -66q-8 -59 11.5 -92t62.5 -33q22 0 40.5 8.5t33 24.5t24 39.5t13.5 52.5q8 58 -11.5 91t-63.5 33z
" />
    <glyph glyph-name="one.numr" horiz-adv-x="270" 
d="M134 284l47 329h-81l13 87h189l-60 -416h-108z" />
    <glyph glyph-name="two.numr" horiz-adv-x="387" 
d="M299 704q65 0 102 -30t30 -79q-9 -61 -102 -138l-103 -88h185l-12 -85h-324l10 70l178 157q48 42 52 69q1 7 -0.5 12.5t-5 10t-9 7.5t-13.5 4.5t-17 1.5q-56 0 -126 -53l-30 79q96 62 185 62z" />
    <glyph glyph-name="three.numr" horiz-adv-x="361" 
d="M282 532l20 -4q48 -7 73.5 -36.5t18.5 -76.5q-6 -40 -30.5 -70.5t-65 -48t-90.5 -17.5q-45 0 -86 14t-67 37l56 83q41 -52 100 -52q22 0 38 6.5t25.5 18t12.5 28.5q3 24 -13 37t-48 13h-69l8 58l114 97h-162l12 80h286l-9 -62z" />
    <glyph glyph-name="four.numr" horiz-adv-x="407" 
d="M295 453l13 91h102l-13 -91h59l-11 -79h-59l-13 -90h-102l13 90h-205l10 73l174 253h104l-167 -247h95z" />
    <glyph glyph-name="five.numr" horiz-adv-x="383" 
d="M242 616l-11 -73q16 3 40 3q75 0 114.5 -33t31.5 -89q-9 -65 -62 -104.5t-131 -39.5q-42 0 -85.5 14t-73.5 37l55 84q43 -54 103 -54q32 0 52 14.5t24 41.5q3 23 -13 36t-48 13q-84 0 -119 -5l35 239h284l-12 -84h-184z" />
    <glyph glyph-name="six.numr" horiz-adv-x="407" 
d="M335 704q81 0 135 -34l-53 -77q-35 27 -88 27q-51 0 -81.5 -29t-35.5 -83q36 50 111 50q63 0 96 -37t24 -98q-10 -66 -59.5 -105t-123.5 -39q-87 0 -128.5 55.5t-27.5 151.5q14 99 77 158.5t154 59.5zM287 478q-32 0 -52 -15.5t-23 -40.5q-2 -16 2.5 -28t18.5 -19.5
t36 -7.5q20 0 35.5 6.5t25 19.5t12.5 31q3 17 -3 29.5t-19 18.5t-33 6z" />
    <glyph glyph-name="seven.numr" horiz-adv-x="384" 
d="M246 284h-116l205 332h-122l-9 -60h-96l21 144h338l-11 -75z" />
    <glyph glyph-name="eight.numr" horiz-adv-x="413" 
d="M307 704q72 0 110 -30t30 -82q-1 -10 -5 -20.5t-10 -19.5t-14 -17.5t-17.5 -15.5t-20.5 -12q33 -14 50 -42.5t12 -62.5q-8 -57 -61 -90t-134 -33q-82 0 -125 32.5t-35 88.5q5 35 31.5 64t66.5 43q-26 14 -39 38t-9 51q7 49 53.5 78.5t116.5 29.5zM298 633q-64 0 -71 -47
q-3 -21 12 -32.5t46 -11.5q30 0 48 11.5t21 32.5q2 11 -1 20t-10 15t-18.5 9t-26.5 3zM273 463q-24 0 -41 -6t-27 -18t-13 -28q-3 -25 14 -38.5t53 -13.5q74 0 81 52q4 25 -13.5 38.5t-53.5 13.5z" />
    <glyph glyph-name="nine.numr" horiz-adv-x="409" 
d="M215 279q-78 0 -135 35l53 77q34 -27 88 -27q35 0 60 12.5t39.5 37.5t17.5 61q-36 -49 -111 -49q-63 0 -95.5 37t-23.5 98q6 44 30.5 76t64 49.5t87.5 17.5q87 0 129 -55t28 -151q-15 -99 -78 -159t-154 -60zM264 506q21 0 37.5 7t26 19.5t11.5 29.5q3 24 -11 39.5
t-46 15.5q-20 0 -35.5 -6.5t-25 -19.5t-11.5 -31q-4 -26 10 -40t44 -14z" />
    </font>
</defs>
</svg>
