<svg width="457" height="71" xmlns="http://www.w3.org/2000/svg" xmlns:xlink="http://www.w3.org/1999/xlink"><defs><path d="M124.575 19.083c3.888 0 7.872 1.248 10.656 3.12l-1.632 3.6c-3.024-2.016-6.576-2.832-9.264-2.832-4.32 0-7.152 1.632-7.152 4.464 0 8.64 18.912 4.128 18.864 16.32 0 5.616-4.944 9.216-12.144 9.216-4.896 0-9.696-2.112-12.864-5.136l1.728-3.456c3.12 3.024 7.392 4.752 11.184 4.752 4.848 0 7.872-1.968 7.872-5.184.048-8.832-18.864-4.128-18.864-16.176 0-5.28 4.656-8.688 11.616-8.688zm64.588 33.744h-3.936l-9.072-28.32-9.168 28.32h-3.936l-11.232-33.6h4.128l9.216 29.136 9.12-29.088 3.84-.048 9.216 29.136 9.12-29.136h3.984l-11.28 33.6zm48.028-8.496h-18.336l-3.744 8.496h-4.08l15.072-33.6h3.984l15.024 33.6h-4.176l-3.744-8.496zm-1.632-3.696l-7.584-17.04-7.488 17.04h15.072zm37.228.672v11.52h-3.792V41.451l-13.008-22.224h3.984l10.896 17.52 10.752-17.52h3.936l-12.768 22.08zm49.852 3.024h-18.336l-3.744 8.496h-4.08l15.072-33.6h3.984l15.024 33.6h-4.176l-3.744-8.496zm-1.632-3.696l-7.584-17.04-7.488 17.04h15.072zm27.532-21.408h14.16c6.768 0 10.848 3.12 10.848 8.4 0 3.936-2.256 6.768-6.192 7.584 4.848.72 7.68 3.888 7.68 8.496 0 5.712-4.512 9.12-12.096 9.12h-14.4v-33.6zm3.84 3.696v10.8h10.128c4.512 0 7.152-1.968 7.152-5.472 0-3.408-2.64-5.328-7.152-5.328H352.38zm0 14.448V49.18h10.128c5.472 0 8.64-2.16 8.64-6 0-3.648-3.168-5.808-8.64-5.808H352.38zm47.068 11.808h14.736v3.648h-18.576v-33.6h3.84V49.18zm56.476-26.256h-18.96v11.04h16.944v3.696h-16.944v11.52h19.584v3.648h-23.424v-33.6h22.8v3.696z" id="a"/><linearGradient x1="101.402%" y1="-2.287%" x2="-1.056%" y2="102.473%" id="b"><stop stop-color="#EB4380" offset="0%"/><stop stop-color="#71459B" offset="100%"/></linearGradient></defs><g fill="none" fill-rule="evenodd"><use fill="#FFF" xlink:href="#a"/><use fill="#58595B" xlink:href="#a"/><path d="M78.1 1.9c-8.3 7.6-16.5 15.3-24.8 22.9 2.4 2.4 4.4 4.3 6.2 6.1 2.7 2.6 5.8 5.5 8.2 8.4 1.9 2.3 2.7 4.2 2.6 6.2-.1 1.8-1 3.5-2.7 5.5-1.6 1.9-4 4.1-7.2 7-2.3 2.1-4.9 4.6-8.1 7.7 0 .1.1.2.1.3.1.3.1.6.1.8 0 1-.4 1.9-1.1 2.6-.7.7-1.6 1.1-2.6 1.1-.7 0-1.4-.2-2-.6-.5-.3-.8-.7-1.1-1.1H.8L25.7 46c-2.1-2.1-4.2-4.1-6.3-6.1-3.7-3.5-6.4-6.1-8.1-8.3-1.9-2.3-2.7-4.2-2.6-6.2.1-1.8 1-3.5 2.7-5.5 2.1-2.5 4.8-4.9 7.2-7.1 2.3-2.2 5.1-4.7 8.4-8 0-.1-.1-.2-.1-.3 0-.2-.1-.6-.1-.8 0-1 .4-1.9 1.1-2.6.7-.7 1.6-1.1 2.6-1.1.8 0 1.5.3 2.1.7.5.4.9.8 1.1 1.4 14.8-.2 29.6-.2 44.4-.2zM34.2 5.1L51 22.5 69.9 5.1H34.2zM9 65.7h36.3L27.9 48.3 9 65.7zM29.6 7.1c-.1 0-.2-.1-.4-.1-.7.6-8.5 8-8.5 8-2.2 2.1-4.7 4.2-6.7 6.5-1.4 1.6-2.2 2.8-2.2 4-.1 1.2.7 2.6 2.2 4.4 1.6 1.9 4.2 4.4 7.6 7.7 2.2 2.1 4.3 4.2 6.4 6.3l20.7-19.1L31.6 7c-.1 0-.2.1-.3.1-.3.1-.5.1-.8.1-.3 0-.6-.1-.9-.1zm.7 39l17.4 17.4c.1 0 .2-.1.3-.1.3-.1.6-.1.9-.1.3 0 .6 0 .9.1.1 0 .2.1.4.1 2.7-2.6 5.4-5.2 8.2-7.7 2.9-2.7 5.2-4.8 6.7-6.5 1.4-1.6 2.2-2.8 2.2-4 .1-1.2-.7-2.6-2.2-4.4-1.6-2-4.2-4.4-7.6-7.7-2.2-2.1-4.3-4.2-6.4-6.3L30.3 46.1z" fill="url(#b)"/></g></svg>