<svg width="139" height="24" viewBox="0 0 139 24" fill="none" xmlns="http://www.w3.org/2000/svg">
<path fill-rule="evenodd" clip-rule="evenodd" d="M7 2.5C7 2.81876 7.09943 3.11429 7.26896 3.35728L3.63924 6.987C2.61954 8.0067 2.61954 9.65997 3.63924 10.6797L8.12624 15.1667L1.29291 22H14.0854C14.2913 22.5826 14.8469 23 15.5 23C16.3284 23 17 22.3284 17 21.5C17 21.1813 16.9006 20.8857 16.7311 20.6427L20.3608 17.013C21.3805 15.9933 21.3805 14.34 20.3608 13.3203L15.8738 8.83333L22.7071 2H9.91465C9.70873 1.4174 9.15311 1 8.5 1C7.67157 1 7 1.67157 7 2.5ZM15.9044 20.0552L19.6537 16.3059C20.2829 15.6767 20.2829 14.6566 19.6537 14.0274L15.1667 9.54044L9.54045 15.1667L14.6427 20.2689C14.8857 20.0994 15.1813 20 15.5 20C15.6401 20 15.7758 20.0192 15.9044 20.0552ZM4.34635 7.69411L8.0956 3.94485C8.22425 3.98079 8.35988 4 8.5 4C8.81876 4 9.11429 3.90057 9.35728 3.73104L14.4596 8.83333L8.83335 14.4596L4.34635 9.97256C3.71717 9.34338 3.71717 8.32328 4.34635 7.69411ZM8.83335 15.8738L3.70712 21H13.9596L8.83335 15.8738ZM15.1667 8.12623L20.2929 3H10.0405L15.1667 8.12623Z" fill="url(#paint0_linear)"/>
<path d="M32 15.4844C32.9637 16.3768 34.4238 17 35.9131 17C38.1033 17 39.6072 15.9377 39.6072 14.2805C39.6218 10.6827 33.869 12.0142 33.869 9.46459C33.869 8.6289 34.7304 8.14731 36.0445 8.14731C36.8622 8.14731 37.9427 8.3881 38.8626 8.983L39.359 7.92068C38.5121 7.36827 37.3002 7 36.1175 7C34.0004 7 32.584 8.00567 32.584 9.56374C32.584 13.119 38.3369 11.7309 38.3223 14.3371C38.3223 15.2861 37.4025 15.8669 35.9277 15.8669C34.7742 15.8669 33.4747 15.3569 32.5256 14.4646L32 15.4844Z" fill="#EAEBEE"/>
<path d="M44.5618 7.04249L47.9785 16.9575H49.1758L51.9647 8.60057L54.7243 16.9575H55.9216L59.3529 7.04249H58.141L55.3667 15.6402L52.5633 7.04249L51.3952 7.05666L48.621 15.6402L45.8175 7.04249H44.5618Z" fill="#EAEBEE"/>
<path d="M62.7214 16.9575H63.9625L65.1014 14.4504H70.6791L71.818 16.9575H73.0883L68.5181 7.04249H67.3062L62.7214 16.9575ZM65.5979 13.3598L67.8757 8.33144L70.1827 13.3598H65.5979Z" fill="#EAEBEE"/>
<path d="M76.547 7.04249L80.5039 13.6006V16.9575H81.6574V13.5581L85.5413 7.04249H84.344L81.0733 12.2125L77.7589 7.04249H76.547Z" fill="#EAEBEE"/>
<path d="M89.0179 16.9575H90.259L91.3979 14.4504H96.9756L98.1144 16.9575H99.3848L94.8146 7.04249H93.6027L89.0179 16.9575ZM91.8943 13.3598L94.1721 8.33144L96.4791 13.3598H91.8943Z" fill="#EAEBEE"/>
<path d="M105.333 16.9575H109.714C112.021 16.9575 113.393 15.9518 113.393 14.2663C113.393 12.9065 112.532 11.9717 111.057 11.7592C112.254 11.5184 112.941 10.6827 112.941 9.52125C112.941 7.96317 111.699 7.04249 109.641 7.04249H105.333V16.9575ZM106.501 15.881V12.3966H109.582C111.247 12.3966 112.211 13.034 112.211 14.1105C112.211 15.2436 111.247 15.881 109.582 15.881H106.501ZM106.501 11.3201V8.13314H109.582C110.955 8.13314 111.758 8.69972 111.758 9.70538C111.758 10.7394 110.955 11.3201 109.582 11.3201H106.501Z" fill="#EAEBEE"/>
<path d="M119.778 17H125.333V15.881H120.889V7H119.778V17Z" fill="#EAEBEE"/>
<path d="M130.889 17H138.154V15.881H132.197V12.5556H137.556V11.4444H132.197V8.11111H137.964V7H130.889V17Z" fill="#EAEBEE"/>
<defs>
<linearGradient id="paint0_linear" x1="23" y1="1" x2="13.9143" y2="27.4381" gradientUnits="userSpaceOnUse">
<stop stop-color="#EC217F"/>
<stop offset="1" stop-color="#6A359C"/>
</linearGradient>
</defs>
</svg>
